<svg width="47" height="46" viewBox="0 0 47 46" fill="none" xmlns="http://www.w3.org/2000/svg">
<path d="M18.5227 43.4615L4.3477 26.3736C2.58788 24.2521 2.58788 20.8471 4.3477 18.7256L18.5227 1.63761C21.4054 -1.83747 26.3881 0.585091 26.3881 5.46157V39.6375C26.3882 44.514 21.4055 46.9366 18.5227 43.4615Z" fill="#DBABE5"/>
<path d="M11.1165 34.6021H2.6979C1.21406 34.6021 0 33.1612 0 31.4002V13.7C0 11.9389 1.21406 10.498 2.6979 10.498H11.1166V34.6021H11.1165Z" fill="#7E89E4"/>
<path d="M33.4468 35.7486C33.0406 35.7486 32.6432 35.5095 32.4093 35.0724C32.0461 34.3931 32.2154 33.4929 32.7878 33.0615C35.2125 31.2348 36.9432 28.1155 37.4176 24.7176C38.0724 20.027 36.2281 15.1271 32.8282 12.5246C32.2584 12.0885 32.0945 11.1869 32.462 10.5107C32.8293 9.83444 33.5889 9.63966 34.159 10.076C38.3692 13.2987 40.6521 19.3742 39.8396 25.1938C39.2528 29.3966 37.1086 33.2575 34.1037 35.5214C33.9074 35.6698 33.6795 35.7486 33.4468 35.7486ZM38.1564 39.7653C42.1635 36.7465 45.023 31.5974 45.8056 25.9915C46.8888 18.2317 43.8441 10.1303 38.2293 5.83248C37.6593 5.39611 36.8997 5.59089 36.5324 6.26719C36.1649 6.94337 36.3288 7.84502 36.8985 8.28106C41.7031 11.9586 44.3091 18.8845 43.3835 25.5153C42.7133 30.3163 40.2673 34.7239 36.8406 37.3055C36.2683 37.7366 36.0988 38.637 36.4621 39.3164C36.5484 39.478 36.6607 39.6179 36.7927 39.7279C36.9246 39.838 37.0735 39.9161 37.2308 39.9578C37.3882 39.9995 37.551 40.004 37.7098 39.9709C37.8686 39.9379 38.0204 39.868 38.1564 39.7653ZM30.6864 29.7757C32.359 28.5153 33.5055 26.452 33.8317 24.1146C34.2775 20.9214 33.026 17.5889 30.7176 15.822C30.148 15.386 29.3882 15.5806 29.0208 16.2567C28.6533 16.9329 28.8172 17.8346 29.387 18.2707C30.8848 19.4172 31.6978 21.5743 31.4097 23.6383C31.2005 25.1365 30.4382 26.5112 29.3706 27.3158C28.7982 27.7471 28.6288 28.6475 28.9921 29.3267C29.1029 29.5341 29.2562 29.7049 29.4376 29.8231C29.619 29.9414 29.8226 30.0032 30.0296 30.0029C30.2623 30.0029 30.4901 29.9241 30.6864 29.7757Z" fill="url(#paint0_radial_92_515)"/>
<defs>
<radialGradient id="paint0_radial_92_515" cx="0" cy="0" r="1" gradientUnits="userSpaceOnUse" gradientTransform="translate(32.3704 22.7165) scale(17.3111 12.2095)">
<stop stop-color="#FB7C98"/>
<stop offset="1" stop-color="#FEC04D"/>
</radialGradient>
</defs>
</svg>
