<svg width="121" height="121" viewBox="0 0 121 121" fill="none" xmlns="http://www.w3.org/2000/svg">
<g opacity="0.3">
<path d="M118.552 64.0374C117.723 64.0038 117.078 63.3036 117.113 62.4752C117.179 60.8641 117.176 59.2271 117.104 57.6085C117.067 56.7892 117.694 56.0951 118.509 56.0432C118.518 56.0432 118.529 56.0417 118.538 56.0417C119.366 56.0051 120.068 56.6474 120.105 57.4758C120.18 59.1799 120.184 60.9023 120.114 62.5987C120.082 63.3737 119.467 63.987 118.71 64.0359C118.659 64.0389 118.605 64.0404 118.552 64.0374ZM116.215 49.7547C115.923 48.1619 115.56 46.5661 115.136 45.0115C114.918 44.2121 115.389 43.3852 116.19 43.1671C116.994 42.9504 117.816 43.4219 118.035 44.2213C118.48 45.8567 118.863 47.5364 119.17 49.2131C119.319 50.0293 118.779 50.8119 117.963 50.9614C117.903 50.9721 117.844 50.9797 117.786 50.9828C117.035 51.0301 116.352 50.5114 116.215 49.7547ZM112.533 37.5513C111.896 36.0669 111.186 34.5932 110.423 33.1683C110.031 32.4375 110.307 31.5267 111.038 31.1346C111.769 30.7441 112.68 31.0187 113.072 31.7495C113.874 33.2491 114.622 34.8022 115.293 36.3644C115.621 37.1272 115.267 38.009 114.506 38.337C114.343 38.4072 114.175 38.4453 114.009 38.456C113.392 38.4987 112.791 38.1524 112.533 37.5513ZM106.216 26.4785C105.262 25.1726 104.24 23.8941 103.18 22.6751C102.635 22.0496 102.701 21.1007 103.326 20.5561C103.952 20.0114 104.901 20.077 105.445 20.7025C106.562 21.9856 107.638 23.3311 108.641 24.7057C109.131 25.3755 108.985 26.3152 108.315 26.805C108.075 26.9804 107.801 27.0735 107.525 27.0918C107.03 27.1223 106.53 26.9087 106.216 26.4785ZM97.5884 17.0899C96.371 16.0311 95.091 15.009 93.7851 14.0539C93.1153 13.5642 92.9704 12.6244 93.4586 11.9547C93.9483 11.285 94.8881 11.1385 95.5579 11.6298C96.9324 12.6351 98.2795 13.7092 99.5595 14.8244C100.185 15.369 100.252 16.3179 99.7075 16.9434C99.4329 17.2592 99.0561 17.4316 98.6701 17.456C98.2887 17.4789 97.8981 17.3599 97.5884 17.0899ZM87.0984 9.84174C85.675 9.07741 84.2013 8.36495 82.7184 7.72419C81.9571 7.39466 81.6062 6.51134 81.9357 5.75006C82.2652 4.98878 83.1486 4.63789 83.9098 4.96743C85.4705 5.64174 87.0221 6.39234 88.5202 7.19634C89.251 7.58842 89.5256 8.4992 89.132 9.22997C88.8772 9.70443 88.4028 9.98667 87.9024 10.0187C87.6323 10.0355 87.3547 9.98057 87.0984 9.84174ZM31.3268 9.14301C30.9362 8.41072 31.2139 7.50146 31.9446 7.11091C33.4443 6.31149 34.9989 5.56699 36.5657 4.89725C37.3285 4.57077 38.2118 4.92624 38.5368 5.68904C38.8633 6.45184 38.5078 7.33364 37.745 7.66012C36.2575 8.29477 34.7808 9.00266 33.3574 9.76241C33.1621 9.86615 32.9546 9.92259 32.7471 9.93632C32.1781 9.97141 31.6121 9.68003 31.3268 9.14301ZM75.2703 5.1032C73.7142 4.67451 72.12 4.30837 70.5318 4.01545C69.7156 3.86441 69.1771 3.08025 69.3281 2.26558C69.4791 1.44938 70.2618 0.915414 71.078 1.06187C72.75 1.37157 74.4282 1.75602 76.0682 2.2076C76.8676 2.42729 77.3375 3.25417 77.1178 4.05511C76.9439 4.68976 76.3871 5.11694 75.7646 5.15508C75.6029 5.16576 75.4366 5.14897 75.2703 5.1032ZM43.3699 4.01239C43.1533 3.21145 43.6277 2.38763 44.4287 2.17099C46.0687 1.72704 47.7499 1.34869 49.425 1.04509C50.2412 0.894058 51.0224 1.4387 51.1703 2.2549C51.3183 3.0711 50.7767 3.85221 49.9605 4.00019C48.3678 4.28853 46.7705 4.64858 45.2113 5.06964C45.1121 5.0971 45.0115 5.11236 44.9138 5.11846C44.2151 5.16423 43.5591 4.71417 43.3699 4.01239ZM62.6826 3.12754C61.07 3.05889 59.4345 3.05737 57.8174 3.12602C56.989 3.16111 56.2887 2.51883 56.2536 1.6889C56.2185 0.871174 56.8456 0.178545 57.6587 0.126674C57.6694 0.126674 57.6801 0.125152 57.6908 0.125152C59.3918 0.0519229 61.1142 0.0534485 62.8107 0.125152C63.6391 0.161767 64.2829 0.862017 64.2463 1.69042C64.2127 2.4639 63.5995 3.0772 62.8428 3.1245C62.7909 3.12907 62.7375 3.1306 62.6826 3.12754Z" fill="#91B3FA"/>
<path d="M23.9276 15.7201C24.222 15.7018 24.5149 15.5966 24.7651 15.3982C25.3708 14.9161 25.9978 14.4401 26.6279 13.9794C27.2976 13.4912 27.4456 12.5514 26.9559 11.8802C26.4677 11.2104 25.5264 11.0625 24.8567 11.5522C24.1946 12.0358 23.5355 12.5362 22.8978 13.0427C22.2479 13.5583 22.1395 14.5042 22.6552 15.1526C22.9725 15.5554 23.4531 15.7506 23.9276 15.7201Z" fill="#91B3FA"/>
</g>
<g opacity="0.3">
<path d="M2.03055 55.9396C2.75369 55.8939 3.35782 55.3294 3.42952 54.5834C3.50275 53.8129 3.59429 53.0303 3.70109 52.2584C3.81398 51.4361 3.23884 50.6778 2.41806 50.5649C1.59271 50.452 0.837521 51.0272 0.724626 51.848C0.613257 52.6611 0.517163 53.4849 0.439357 54.2966C0.360026 55.1219 0.965671 55.8557 1.79102 55.9351C1.87188 55.9427 1.95122 55.9442 2.03055 55.9396Z" fill="#91B3FA"/>
<path d="M60.951 120.063C60.1211 120.075 59.4392 119.411 59.427 118.581C59.4148 117.751 60.0769 117.071 60.9068 117.059C62.4858 117.036 64.0892 116.946 65.6881 116.79C66.5088 116.708 67.2487 117.315 67.3281 118.14C67.4074 118.966 66.8048 119.701 65.9779 119.78C65.2853 119.847 64.5927 119.904 63.9031 119.947C62.9221 120.009 61.9289 120.049 60.951 120.063ZM72.2482 117.321C72.0575 116.514 72.5563 115.705 73.3634 115.513C74.9134 115.145 76.4634 114.709 77.9722 114.215C78.7595 113.954 79.6092 114.386 79.867 115.174C80.1249 115.962 79.6946 116.811 78.9074 117.069C77.3193 117.59 75.6869 118.05 74.056 118.436C73.9721 118.456 73.8867 118.468 73.8027 118.474C73.0857 118.52 72.419 118.044 72.2482 117.321ZM52.7784 119.619C51.1201 119.414 49.448 119.135 47.8064 118.79C46.9948 118.619 46.4746 117.823 46.6454 117.011C46.8163 116.2 47.6127 115.681 48.4243 115.85C49.9819 116.178 51.5701 116.442 53.1445 116.636C53.9683 116.738 54.5527 117.487 54.452 118.311C54.362 119.039 53.7654 119.58 53.0575 119.626C52.9675 119.634 52.873 119.631 52.7784 119.619ZM84.4866 113.301C84.1219 112.555 84.4316 111.656 85.1777 111.292C86.6072 110.595 88.0229 109.827 89.3868 109.013C90.0993 108.587 91.0208 108.819 91.4464 109.531C91.872 110.244 91.6401 111.165 90.9277 111.591C89.4906 112.45 88.0001 113.257 86.4958 113.992C86.3143 114.081 86.1235 114.129 85.9328 114.142C85.344 114.18 84.7627 113.866 84.4866 113.301ZM39.9373 116.561C38.366 115.997 36.7961 115.358 35.2721 114.66C34.5184 114.316 34.1858 113.425 34.5306 112.671C34.8754 111.916 35.7663 111.585 36.5215 111.93C37.9693 112.592 39.4598 113.199 40.9534 113.734C41.7345 114.015 42.1403 114.875 41.8596 115.655C41.6506 116.236 41.1197 116.61 40.5399 116.647C40.3416 116.66 40.1372 116.633 39.9373 116.561ZM28.0788 110.762C26.6646 109.867 25.2717 108.9 23.9398 107.891C23.2793 107.389 23.148 106.448 23.65 105.787C24.1519 105.125 25.0932 104.996 25.7538 105.498C27.02 106.457 28.3443 107.376 29.6868 108.227C30.387 108.671 30.5961 109.598 30.1521 110.3C29.8836 110.723 29.4412 110.965 28.9774 110.994C28.6723 111.013 28.358 110.938 28.0788 110.762ZM17.7657 102.517C16.5803 101.333 15.43 100.086 14.3499 98.8108C13.8129 98.1777 13.8922 97.2303 14.5253 96.6933C15.1585 96.1563 16.1058 96.2356 16.6429 96.8687C17.6696 98.0801 18.7619 99.2639 19.8878 100.39C20.4752 100.976 20.4767 101.928 19.8893 102.513C19.6208 102.784 19.2745 102.93 18.9221 102.951C18.5071 102.979 18.083 102.832 17.7657 102.517ZM9.4969 92.2156C8.59832 90.8014 7.75008 89.3322 6.97507 87.8493C6.59062 87.114 6.87593 86.2063 7.61127 85.8218C8.34509 85.4389 9.25435 85.7227 9.63728 86.458C10.3726 87.8661 11.1781 89.2605 12.0325 90.6031C12.478 91.3033 12.2705 92.2309 11.5702 92.6764C11.349 92.8167 11.1049 92.893 10.8608 92.9083C10.333 92.9434 9.80202 92.6962 9.4969 92.2156ZM3.69047 80.3449C3.12752 78.772 2.62406 77.1533 2.19384 75.5347C1.98026 74.7322 2.45777 73.9099 3.26024 73.6978C4.05966 73.4858 4.88502 73.9617 5.09708 74.7642C5.50441 76.302 5.98343 77.8398 6.51891 79.3334C6.7981 80.1145 6.3923 80.9734 5.61119 81.2542C5.47541 81.303 5.33658 81.3304 5.19928 81.3396C4.54784 81.3808 3.92084 80.9902 3.69047 80.3449ZM0.634676 67.5023C0.482115 66.2803 0.364639 65.0385 0.286833 63.8119C0.257847 63.3679 0.234969 62.924 0.216661 62.4816C0.181572 61.6532 0.814689 60.9376 1.6553 60.9193C2.4837 60.8842 3.18396 61.5281 3.21904 62.358C3.23735 62.7791 3.2587 63.2001 3.28464 63.6227C3.35939 64.7898 3.46926 65.9691 3.61419 67.1316C3.71793 67.9539 3.13362 68.706 2.30979 68.8083C2.27928 68.8113 2.24722 68.8159 2.21671 68.8174C1.43255 68.8647 0.733841 68.2941 0.634676 67.5023Z" fill="#91B3FA"/>
<path d="M96.8379 107.221C97.1353 107.203 97.4313 107.095 97.6815 106.895C98.3162 106.385 98.9508 105.854 99.5702 105.314C100.196 104.769 100.26 103.821 99.7152 103.195C99.169 102.57 98.2216 102.504 97.5961 103.05C97.0072 103.563 96.4046 104.068 95.802 104.551C95.1551 105.07 95.0514 106.016 95.5701 106.663C95.8874 107.059 96.3664 107.252 96.8379 107.221Z" fill="#91B3FA"/>
</g>
<path d="M99.6755 81.6291C99.8494 81.3851 99.8509 81.0586 99.677 80.8145L94.7279 73.8486C96.249 70.1596 97.1918 66.2007 97.4618 62.1044L104.969 58.0372C105.233 57.8938 105.377 57.6009 105.328 57.3049L103.651 47.1947C103.602 46.8987 103.37 46.6668 103.076 46.618L94.6578 45.1931C93.0803 41.402 90.9093 37.9602 88.2792 34.9593L90.7141 26.7699C90.7995 26.4831 90.6927 26.1734 90.4501 25.9994L82.1157 20.0358C81.8716 19.8619 81.5452 19.8604 81.3011 20.0343L74.3351 24.9834C70.6462 23.4624 66.6873 22.5195 62.591 22.2495L58.5238 14.742C58.3804 14.4781 58.0874 14.3347 57.7915 14.3835L47.6813 16.0601C47.3853 16.1089 47.1534 16.3408 47.1046 16.6353L45.6797 25.0551C41.8886 26.6326 38.4468 28.8035 35.4459 31.4337L27.2565 28.9988C26.9697 28.9133 26.66 29.0201 26.486 29.2627L20.5224 37.5971C20.3485 37.8412 20.347 38.1677 20.5209 38.4118L25.47 45.3777C23.949 49.0666 23.0061 53.024 22.7361 57.1218L15.2286 61.1891C14.9646 61.331 14.8212 61.6254 14.87 61.9214L16.5467 72.0316C16.5955 72.3275 16.8274 72.5594 17.1218 72.6082L25.5402 74.0332C27.1176 77.8243 29.2886 81.2661 31.9187 84.2669L29.4838 92.4564C29.3984 92.7432 29.5052 93.0529 29.7478 93.2268L38.0822 99.1904C38.3263 99.3643 38.6528 99.3658 38.8969 99.1919L45.8628 94.2429C49.5517 95.7639 53.5091 96.7067 57.6069 96.9767L61.6741 104.484C61.8175 104.747 62.1105 104.892 62.4064 104.843L72.5166 103.166C72.8126 103.117 73.0445 102.885 73.0933 102.591L74.5182 94.1727C78.3094 92.5952 81.7511 90.4243 84.752 87.7941L92.9415 90.229C93.2283 90.3144 93.5379 90.2076 93.7119 89.9651L99.6755 81.6291Z" fill="#91B3FA"/>
<path d="M59.2439 69.8772C53.5823 69.4058 49.361 64.4186 49.8309 58.7571C50.0582 56.014 51.3412 53.5258 53.442 51.7469C55.5412 49.9696 58.208 49.1152 60.951 49.3441C66.6125 49.8155 70.8339 54.8027 70.364 60.4642C69.9353 65.6147 65.7689 69.5736 60.7573 69.8925C60.2599 69.9245 59.7534 69.9199 59.2439 69.8772ZM54.9935 53.5822C53.3825 54.9461 52.4 56.8546 52.2246 58.9569C51.8645 63.2973 55.1019 67.122 59.4422 67.482C63.7841 67.8451 67.6072 64.6047 67.9688 60.2644C68.3288 55.924 65.0915 52.0993 60.7512 51.7393C60.3576 51.7072 59.967 51.7027 59.5795 51.7271C57.8998 51.8354 56.3025 52.4746 54.9935 53.5822Z" fill="#BDD0FB"/>
<path d="M61.4895 84.755C62.35 84.7001 63.2135 84.6025 64.0754 84.4591C64.347 84.4148 64.617 84.3645 64.8871 84.3111C66.2174 84.0456 67.5264 83.6749 68.7896 83.205C68.8064 83.1989 68.8246 83.1928 68.8414 83.1852C68.8902 83.1669 68.9391 83.1486 68.9879 83.1287C69.0825 83.0921 69.1771 83.0555 69.2717 83.0189C69.5203 82.9213 69.6668 82.6756 69.65 82.4224C69.6454 82.3614 69.6332 82.2988 69.6088 82.2393C69.4868 81.9311 69.1374 81.7801 68.8292 81.9022C67.2411 82.5307 65.5751 82.9914 63.8771 83.2722C55.4421 84.6727 47.2877 81.4933 41.9587 75.5602C38.9945 72.2603 36.9044 68.1076 36.1263 63.4164C35.989 62.5941 35.896 61.7703 35.8441 60.9495C35.4947 55.4237 37.0417 49.9926 40.3065 45.4295C44.0565 40.1875 49.6234 36.7198 55.9821 35.6656C69.113 33.4886 81.5574 42.3966 83.7344 55.5214C83.8687 56.3299 83.9617 57.1431 84.0121 57.9578C84.2348 61.4819 83.6841 65.0167 82.3873 68.3044C82.3537 68.3899 82.3415 68.4768 82.3461 68.5623C82.3598 68.7865 82.5017 68.9955 82.7244 69.0825C83.0341 69.203 83.382 69.0535 83.504 68.7438C84.8664 65.2914 85.4446 61.5811 85.2097 57.8815C85.1563 57.0271 85.0586 56.1743 84.9183 55.3246C82.6329 41.5438 69.56 32.1948 55.7853 34.4787C49.1108 35.5863 43.2662 39.2264 39.3286 44.7292C35.9005 49.5196 34.2758 55.2224 34.6434 61.0227C34.6984 61.8847 34.7975 62.7497 34.9394 63.6132C36.047 70.2892 39.6871 76.1323 45.1885 80.0699C49.9819 83.4995 55.6877 85.1242 61.4895 84.755Z" fill="#BDD0FB"/>
</svg>
