<svg width="833" height="629" viewBox="0 0 833 629" fill="none" xmlns="http://www.w3.org/2000/svg">
<circle cx="387" cy="319" r="289" fill="#FBF8FD"/>
<path d="M0 521.516C0 493.902 22.3858 471.516 50 471.516H160.747V496.837C160.747 524.451 138.361 546.837 110.747 546.837H0V521.516Z" fill="#9277EE"/>
<path d="M3.67419 527.946C3.67419 500.331 26.06 477.946 53.6742 477.946H164.421V503.267C164.421 530.881 142.035 553.267 114.421 553.267H3.67419V527.946Z" fill="#6466D9"/>
<path d="M45.1715 511.12L47.1315 509.934L45.1715 508.8V504.432L52.6598 509.451C52.8883 509.574 53.0026 509.799 53.0026 510.127C53.0026 510.45 52.8883 510.693 52.6598 510.857L45.1715 516.095V511.12ZM60.2887 512.043C61.777 513.039 63.4557 513.537 65.3248 513.537C65.8405 513.537 66.2418 513.423 66.5289 513.195C66.8219 512.966 66.9684 512.705 66.9684 512.412C66.9684 512.119 66.9186 511.888 66.819 511.718C66.7194 511.542 66.5846 511.393 66.4147 511.27C65.8756 510.871 65.0553 510.672 63.9537 510.672C63.526 510.672 63.2418 510.684 63.1012 510.707L62.0377 508.853C62.0377 508.753 62.8346 508.173 64.4283 507.113H59.1198V503.281H72.6725V504.863L68.1549 508.299C71.3717 508.692 72.9801 510.162 72.9801 512.711C72.9742 513.953 72.5905 514.967 71.8287 515.752C70.61 517.012 68.5768 517.642 65.7291 517.642C63.6432 517.648 61.7565 517.287 60.069 516.561C59.4069 516.28 58.7858 515.908 58.2057 515.445L60.2887 512.043ZM81.6813 517.642C80.6149 517.642 79.6393 517.457 78.7545 517.088C77.8756 516.713 77.1198 516.195 76.4869 515.533C75.151 514.132 74.483 512.348 74.483 510.18C74.483 508.006 75.1364 506.248 76.443 504.907C77.7555 503.559 79.5016 502.885 81.6813 502.885C83.861 502.885 85.6041 503.559 86.9108 504.907C88.2233 506.248 88.8795 508.021 88.8795 510.224C88.8795 511.29 88.7037 512.278 88.3522 513.186C88.0006 514.088 87.5084 514.87 86.8756 515.533C86.2428 516.195 85.484 516.713 84.5992 517.088C83.7203 517.457 82.7477 517.642 81.6813 517.642ZM80.1168 510.496C80.1168 512.377 80.6383 513.318 81.6813 513.318C82.7242 513.318 83.2457 512.377 83.2457 510.496C83.2457 509.582 83.193 508.941 83.0875 508.572C82.9879 508.202 82.8795 507.927 82.7623 507.745C82.5104 507.347 82.15 507.148 81.6813 507.148C80.6852 507.154 80.1666 508.047 80.1256 509.828C80.1198 510.075 80.1168 510.297 80.1168 510.496ZM97.4313 517.642C96.3649 517.642 95.3893 517.457 94.5045 517.088C93.6256 516.713 92.8698 516.195 92.2369 515.533C90.901 514.132 90.233 512.348 90.233 510.18C90.233 508.006 90.8864 506.248 92.193 504.907C93.5055 503.559 95.2516 502.885 97.4313 502.885C99.611 502.885 101.354 503.559 102.661 504.907C103.973 506.248 104.63 508.021 104.63 510.224C104.63 511.29 104.454 512.278 104.102 513.186C103.751 514.088 103.258 514.87 102.626 515.533C101.993 516.195 101.234 516.713 100.349 517.088C99.4703 517.457 98.4977 517.642 97.4313 517.642ZM95.8668 510.496C95.8668 512.377 96.3883 513.318 97.4313 513.318C98.4742 513.318 98.9957 512.377 98.9957 510.496C98.9957 509.582 98.943 508.941 98.8375 508.572C98.7379 508.202 98.6295 507.927 98.5123 507.745C98.2604 507.347 97.9 507.148 97.4313 507.148C96.4352 507.154 95.9166 508.047 95.8756 509.828C95.8698 510.075 95.8668 510.297 95.8668 510.496ZM113.181 517.642C112.115 517.642 111.139 517.457 110.255 517.088C109.376 516.713 108.62 516.195 107.987 515.533C106.651 514.132 105.983 512.348 105.983 510.18C105.983 508.006 106.636 506.248 107.943 504.907C109.255 503.559 111.002 502.885 113.181 502.885C115.361 502.885 117.104 503.559 118.411 504.907C119.723 506.248 120.38 508.021 120.38 510.224C120.38 511.29 120.204 512.278 119.852 513.186C119.501 514.088 119.008 514.87 118.376 515.533C117.743 516.195 116.984 516.713 116.099 517.088C115.22 517.457 114.248 517.642 113.181 517.642ZM111.617 510.496C111.617 512.377 112.138 513.318 113.181 513.318C114.224 513.318 114.746 512.377 114.746 510.496C114.746 509.582 114.693 508.941 114.588 508.572C114.488 508.202 114.38 507.927 114.262 507.745C114.01 507.347 113.65 507.148 113.181 507.148C112.185 507.154 111.667 508.047 111.626 509.828C111.62 510.075 111.617 510.297 111.617 510.496Z" fill="white"/>
<path d="M87.1511 533.112C86.2991 533.112 85.5371 532.938 84.8651 532.59C84.2051 532.242 83.6831 531.702 83.2991 530.97C82.9271 530.238 82.7411 529.302 82.7411 528.162C82.7411 526.974 82.9391 526.008 83.3351 525.264C83.7311 524.52 84.2651 523.974 84.9371 523.626C85.6211 523.278 86.3951 523.104 87.2591 523.104C87.7511 523.104 88.2251 523.158 88.6811 523.266C89.1371 523.362 89.5091 523.482 89.7971 523.626L89.3111 524.94C89.0231 524.832 88.6871 524.73 88.3031 524.634C87.9191 524.538 87.5591 524.49 87.2231 524.49C86.5751 524.49 86.0411 524.628 85.6211 524.904C85.2011 525.18 84.8891 525.588 84.6851 526.128C84.4811 526.668 84.3791 527.34 84.3791 528.144C84.3791 528.912 84.4811 529.566 84.6851 530.106C84.8891 530.646 85.1951 531.054 85.6031 531.33C86.0111 531.606 86.5211 531.744 87.1331 531.744C87.6611 531.744 88.1231 531.69 88.5191 531.582C88.9271 531.474 89.2991 531.342 89.6351 531.186V532.59C89.3111 532.758 88.9511 532.884 88.5551 532.968C88.1711 533.064 87.7031 533.112 87.1511 533.112ZM99.2735 532.932H97.6715V524.598H94.8275C94.7075 526.122 94.5575 527.424 94.3775 528.504C94.1975 529.572 93.9695 530.442 93.6935 531.114C93.4175 531.786 93.0875 532.278 92.7035 532.59C92.3195 532.902 91.8695 533.058 91.3535 533.058C91.1975 533.058 91.0415 533.046 90.8855 533.022C90.7415 533.01 90.6215 532.98 90.5255 532.932V531.744C90.5975 531.768 90.6755 531.786 90.7595 531.798C90.8435 531.81 90.9275 531.816 91.0115 531.816C91.2755 531.816 91.5155 531.708 91.7315 531.492C91.9475 531.276 92.1395 530.946 92.3075 530.502C92.4875 530.058 92.6495 529.5 92.7935 528.828C92.9375 528.144 93.0635 527.34 93.1715 526.416C93.2795 525.492 93.3755 524.448 93.4595 523.284H99.2735V532.932ZM110.724 528.09C110.724 528.894 110.616 529.608 110.4 530.232C110.196 530.844 109.896 531.366 109.5 531.798C109.116 532.23 108.642 532.56 108.078 532.788C107.526 533.004 106.908 533.112 106.224 533.112C105.588 533.112 105 533.004 104.46 532.788C103.92 532.56 103.452 532.23 103.056 531.798C102.66 531.366 102.348 530.844 102.12 530.232C101.904 529.608 101.796 528.894 101.796 528.09C101.796 527.022 101.976 526.122 102.336 525.39C102.696 524.646 103.212 524.082 103.884 523.698C104.556 523.302 105.354 523.104 106.278 523.104C107.154 523.104 107.922 523.302 108.582 523.698C109.254 524.082 109.776 524.646 110.148 525.39C110.532 526.122 110.724 527.022 110.724 528.09ZM103.434 528.09C103.434 528.846 103.53 529.506 103.722 530.07C103.926 530.622 104.238 531.048 104.658 531.348C105.078 531.648 105.612 531.798 106.26 531.798C106.908 531.798 107.442 531.648 107.862 531.348C108.282 531.048 108.588 530.622 108.78 530.07C108.984 529.506 109.086 528.846 109.086 528.09C109.086 527.322 108.984 526.668 108.78 526.128C108.576 525.588 108.264 525.174 107.844 524.886C107.436 524.586 106.902 524.436 106.242 524.436C105.258 524.436 104.544 524.76 104.1 525.408C103.656 526.056 103.434 526.95 103.434 528.09ZM120.992 525.714C120.992 526.314 120.812 526.782 120.452 527.118C120.092 527.454 119.63 527.682 119.066 527.802V527.874C119.666 527.958 120.188 528.174 120.632 528.522C121.076 528.858 121.298 529.386 121.298 530.106C121.298 530.514 121.22 530.892 121.064 531.24C120.92 531.588 120.692 531.888 120.38 532.14C120.068 532.392 119.666 532.59 119.174 532.734C118.682 532.866 118.088 532.932 117.392 532.932H113.234V523.284H117.374C118.058 523.284 118.67 523.362 119.21 523.518C119.762 523.662 120.194 523.914 120.506 524.274C120.83 524.622 120.992 525.102 120.992 525.714ZM119.66 530.106C119.66 529.554 119.45 529.158 119.03 528.918C118.61 528.678 117.992 528.558 117.176 528.558H114.818V531.654H117.212C118.004 531.654 118.61 531.54 119.03 531.312C119.45 531.072 119.66 530.67 119.66 530.106ZM119.39 525.912C119.39 525.456 119.222 525.126 118.886 524.922C118.562 524.706 118.028 524.598 117.284 524.598H114.818V527.244H116.996C117.776 527.244 118.37 527.136 118.778 526.92C119.186 526.704 119.39 526.368 119.39 525.912Z" fill="white"/>
<path d="M539.19 596.837C539.19 569.223 561.576 546.837 589.19 546.837H699.937V572.158C699.937 599.773 677.551 622.158 649.937 622.158H539.19V596.837Z" fill="#9277EE"/>
<path d="M542.864 603.267C542.864 575.653 565.25 553.267 592.864 553.267H703.611V578.588C703.611 606.202 681.225 628.588 653.611 628.588H542.864V603.267Z" fill="#6466D9"/>
<path d="M557.47 588.045V575.193H567.118V588.045H565.516V576.615H559.09V588.045H557.47ZM574.146 578.217C574.974 578.217 575.682 578.397 576.27 578.757C576.87 579.117 577.326 579.627 577.638 580.287C577.962 580.935 578.124 581.697 578.124 582.573V583.527H571.518C571.542 584.619 571.818 585.453 572.346 586.029C572.886 586.593 573.636 586.875 574.596 586.875C575.208 586.875 575.748 586.821 576.216 586.713C576.696 586.593 577.188 586.425 577.692 586.209V587.595C577.2 587.811 576.714 587.967 576.234 588.063C575.754 588.171 575.184 588.225 574.524 588.225C573.612 588.225 572.802 588.039 572.094 587.667C571.398 587.295 570.852 586.743 570.456 586.011C570.072 585.267 569.88 584.361 569.88 583.293C569.88 582.237 570.054 581.331 570.402 580.575C570.762 579.819 571.26 579.237 571.896 578.829C572.544 578.421 573.294 578.217 574.146 578.217ZM574.128 579.513C573.372 579.513 572.772 579.759 572.328 580.251C571.896 580.731 571.638 581.403 571.554 582.267H576.468C576.468 581.715 576.384 581.235 576.216 580.827C576.048 580.419 575.79 580.101 575.442 579.873C575.106 579.633 574.668 579.513 574.128 579.513ZM585.17 578.217C586.358 578.217 587.312 578.631 588.032 579.459C588.764 580.287 589.13 581.535 589.13 583.203C589.13 584.295 588.962 585.219 588.626 585.975C588.302 586.719 587.84 587.283 587.24 587.667C586.652 588.039 585.956 588.225 585.152 588.225C584.66 588.225 584.222 588.159 583.838 588.027C583.454 587.895 583.124 587.727 582.848 587.523C582.584 587.307 582.356 587.073 582.164 586.821H582.056C582.08 587.025 582.104 587.283 582.128 587.595C582.152 587.907 582.164 588.177 582.164 588.405V592.365H580.58V578.397H581.876L582.092 579.711H582.164C582.356 579.435 582.584 579.183 582.848 578.955C583.124 578.727 583.448 578.547 583.82 578.415C584.204 578.283 584.654 578.217 585.17 578.217ZM584.882 579.549C584.234 579.549 583.712 579.675 583.316 579.927C582.92 580.167 582.632 580.533 582.452 581.025C582.272 581.517 582.176 582.141 582.164 582.897V583.203C582.164 583.995 582.248 584.667 582.416 585.219C582.584 585.771 582.866 586.191 583.262 586.479C583.67 586.767 584.222 586.911 584.918 586.911C585.506 586.911 585.986 586.749 586.358 586.425C586.742 586.101 587.024 585.663 587.204 585.111C587.396 584.547 587.492 583.905 587.492 583.185C587.492 582.081 587.276 581.199 586.844 580.539C586.424 579.879 585.77 579.549 584.882 579.549ZM595.524 588.225C594.672 588.225 593.91 588.051 593.238 587.703C592.578 587.355 592.056 586.815 591.672 586.083C591.3 585.351 591.114 584.415 591.114 583.275C591.114 582.087 591.312 581.121 591.708 580.377C592.104 579.633 592.638 579.087 593.31 578.739C593.994 578.391 594.768 578.217 595.632 578.217C596.124 578.217 596.598 578.271 597.054 578.379C597.51 578.475 597.882 578.595 598.17 578.739L597.684 580.053C597.396 579.945 597.06 579.843 596.676 579.747C596.292 579.651 595.932 579.603 595.596 579.603C594.948 579.603 594.414 579.741 593.994 580.017C593.574 580.293 593.262 580.701 593.058 581.241C592.854 581.781 592.752 582.453 592.752 583.257C592.752 584.025 592.854 584.679 593.058 585.219C593.262 585.759 593.568 586.167 593.976 586.443C594.384 586.719 594.894 586.857 595.506 586.857C596.034 586.857 596.496 586.803 596.892 586.695C597.3 586.587 597.672 586.455 598.008 586.299V587.703C597.684 587.871 597.324 587.997 596.928 588.081C596.544 588.177 596.076 588.225 595.524 588.225ZM608.691 583.203C608.691 584.007 608.583 584.721 608.367 585.345C608.163 585.957 607.863 586.479 607.467 586.911C607.083 587.343 606.609 587.673 606.045 587.901C605.493 588.117 604.875 588.225 604.191 588.225C603.555 588.225 602.967 588.117 602.427 587.901C601.887 587.673 601.419 587.343 601.023 586.911C600.627 586.479 600.315 585.957 600.087 585.345C599.871 584.721 599.763 584.007 599.763 583.203C599.763 582.135 599.943 581.235 600.303 580.503C600.663 579.759 601.179 579.195 601.851 578.811C602.523 578.415 603.321 578.217 604.245 578.217C605.121 578.217 605.889 578.415 606.549 578.811C607.221 579.195 607.743 579.759 608.115 580.503C608.499 581.235 608.691 582.135 608.691 583.203ZM601.401 583.203C601.401 583.959 601.497 584.619 601.689 585.183C601.893 585.735 602.205 586.161 602.625 586.461C603.045 586.761 603.579 586.911 604.227 586.911C604.875 586.911 605.409 586.761 605.829 586.461C606.249 586.161 606.555 585.735 606.747 585.183C606.951 584.619 607.053 583.959 607.053 583.203C607.053 582.435 606.951 581.781 606.747 581.241C606.543 580.701 606.231 580.287 605.811 579.999C605.403 579.699 604.869 579.549 604.209 579.549C603.225 579.549 602.511 579.873 602.067 580.521C601.623 581.169 601.401 582.063 601.401 583.203ZM612.785 578.397V582.411H618.023V578.397H619.607V588.045H618.023V583.743H612.785V588.045H611.201V578.397H612.785ZM626.316 578.235C627.492 578.235 628.362 578.493 628.926 579.009C629.49 579.525 629.772 580.347 629.772 581.475V588.045H628.62L628.314 586.677H628.242C627.966 587.025 627.678 587.319 627.378 587.559C627.09 587.787 626.754 587.955 626.37 588.063C625.998 588.171 625.542 588.225 625.002 588.225C624.426 588.225 623.904 588.123 623.436 587.919C622.98 587.715 622.62 587.403 622.356 586.983C622.092 586.551 621.96 586.011 621.96 585.363C621.96 584.403 622.338 583.665 623.094 583.149C623.85 582.621 625.014 582.333 626.586 582.285L628.224 582.231V581.655C628.224 580.851 628.05 580.293 627.702 579.981C627.354 579.669 626.862 579.513 626.226 579.513C625.722 579.513 625.242 579.591 624.786 579.747C624.33 579.891 623.904 580.059 623.508 580.251L623.022 579.063C623.442 578.835 623.94 578.643 624.516 578.487C625.092 578.319 625.692 578.235 626.316 578.235ZM626.784 583.383C625.584 583.431 624.75 583.623 624.282 583.959C623.826 584.295 623.598 584.769 623.598 585.381C623.598 585.921 623.76 586.317 624.084 586.569C624.42 586.821 624.846 586.947 625.362 586.947C626.178 586.947 626.856 586.725 627.396 586.281C627.936 585.825 628.206 585.129 628.206 584.193V583.329L626.784 583.383ZM640.096 588.045H638.494V579.711H635.65C635.53 581.235 635.38 582.537 635.2 583.617C635.02 584.685 634.792 585.555 634.516 586.227C634.24 586.899 633.91 587.391 633.526 587.703C633.142 588.015 632.692 588.171 632.176 588.171C632.02 588.171 631.864 588.159 631.708 588.135C631.564 588.123 631.444 588.093 631.348 588.045V586.857C631.42 586.881 631.498 586.899 631.582 586.911C631.666 586.923 631.75 586.929 631.834 586.929C632.098 586.929 632.338 586.821 632.554 586.605C632.77 586.389 632.962 586.059 633.13 585.615C633.31 585.171 633.472 584.613 633.616 583.941C633.76 583.257 633.886 582.453 633.994 581.529C634.102 580.605 634.198 579.561 634.282 578.397H640.096V588.045ZM647.604 582.357C648.444 582.357 649.14 582.459 649.692 582.663C650.244 582.867 650.658 583.173 650.934 583.581C651.222 583.977 651.366 584.481 651.366 585.093C651.366 585.693 651.228 586.215 650.952 586.659C650.688 587.103 650.274 587.445 649.71 587.685C649.146 587.925 648.42 588.045 647.532 588.045H643.158V578.397H644.742V582.357H647.604ZM649.782 585.183C649.782 584.595 649.572 584.199 649.152 583.995C648.744 583.779 648.168 583.671 647.424 583.671H644.742V586.767H647.46C648.132 586.767 648.684 586.647 649.116 586.407C649.56 586.167 649.782 585.759 649.782 585.183ZM655.43 578.397V582.411H660.668V578.397H662.252V588.045H660.668V583.743H655.43V588.045H653.846V578.397H655.43ZM668.961 578.235C670.137 578.235 671.007 578.493 671.571 579.009C672.135 579.525 672.417 580.347 672.417 581.475V588.045H671.265L670.959 586.677H670.887C670.611 587.025 670.323 587.319 670.023 587.559C669.735 587.787 669.399 587.955 669.015 588.063C668.643 588.171 668.187 588.225 667.647 588.225C667.071 588.225 666.549 588.123 666.081 587.919C665.625 587.715 665.265 587.403 665.001 586.983C664.737 586.551 664.605 586.011 664.605 585.363C664.605 584.403 664.983 583.665 665.739 583.149C666.495 582.621 667.659 582.333 669.231 582.285L670.869 582.231V581.655C670.869 580.851 670.695 580.293 670.347 579.981C669.999 579.669 669.507 579.513 668.871 579.513C668.367 579.513 667.887 579.591 667.431 579.747C666.975 579.891 666.549 580.059 666.153 580.251L665.667 579.063C666.087 578.835 666.585 578.643 667.161 578.487C667.737 578.319 668.337 578.235 668.961 578.235ZM669.429 583.383C668.229 583.431 667.395 583.623 666.927 583.959C666.471 584.295 666.243 584.769 666.243 585.381C666.243 585.921 666.405 586.317 666.729 586.569C667.065 586.821 667.491 586.947 668.007 586.947C668.823 586.947 669.501 586.725 670.041 586.281C670.581 585.825 670.851 585.129 670.851 584.193V583.329L669.429 583.383ZM675.99 588.045H674.154L676.908 583.995C676.536 583.899 676.176 583.749 675.828 583.545C675.48 583.329 675.198 583.035 674.982 582.663C674.766 582.279 674.658 581.805 674.658 581.241C674.658 580.317 674.97 579.615 675.594 579.135C676.218 578.643 677.046 578.397 678.078 578.397H682.398V588.045H680.814V584.211H678.474L675.99 588.045ZM676.188 581.259C676.188 581.811 676.392 582.225 676.8 582.501C677.22 582.765 677.802 582.897 678.546 582.897H680.814V579.711H678.24C677.508 579.711 676.98 579.855 676.656 580.143C676.344 580.431 676.188 580.803 676.188 581.259Z" fill="white"/>
<path d="M594.4 608.18C593.548 608.18 592.786 608.006 592.114 607.658C591.454 607.31 590.932 606.77 590.548 606.038C590.176 605.306 589.99 604.37 589.99 603.23C589.99 602.042 590.188 601.076 590.584 600.332C590.98 599.588 591.514 599.042 592.186 598.694C592.87 598.346 593.644 598.172 594.508 598.172C595 598.172 595.474 598.226 595.93 598.334C596.386 598.43 596.758 598.55 597.046 598.694L596.56 600.008C596.272 599.9 595.936 599.798 595.552 599.702C595.168 599.606 594.808 599.558 594.472 599.558C593.824 599.558 593.29 599.696 592.87 599.972C592.45 600.248 592.138 600.656 591.934 601.196C591.73 601.736 591.628 602.408 591.628 603.212C591.628 603.98 591.73 604.634 591.934 605.174C592.138 605.714 592.444 606.122 592.852 606.398C593.26 606.674 593.77 606.812 594.382 606.812C594.91 606.812 595.372 606.758 595.768 606.65C596.176 606.542 596.548 606.41 596.884 606.254V607.658C596.56 607.826 596.2 607.952 595.804 608.036C595.42 608.132 594.952 608.18 594.4 608.18ZM605.838 599.684H602.688V608H601.122V599.684H598.008V598.352H605.838V599.684ZM611.393 598.19C612.569 598.19 613.439 598.448 614.003 598.964C614.567 599.48 614.849 600.302 614.849 601.43V608H613.697L613.391 606.632H613.319C613.043 606.98 612.755 607.274 612.455 607.514C612.167 607.742 611.831 607.91 611.447 608.018C611.075 608.126 610.619 608.18 610.079 608.18C609.503 608.18 608.981 608.078 608.513 607.874C608.057 607.67 607.697 607.358 607.433 606.938C607.169 606.506 607.037 605.966 607.037 605.318C607.037 604.358 607.415 603.62 608.171 603.104C608.927 602.576 610.091 602.288 611.663 602.24L613.301 602.186V601.61C613.301 600.806 613.127 600.248 612.779 599.936C612.431 599.624 611.939 599.468 611.303 599.468C610.799 599.468 610.319 599.546 609.863 599.702C609.407 599.846 608.981 600.014 608.585 600.206L608.099 599.018C608.519 598.79 609.017 598.598 609.593 598.442C610.169 598.274 610.769 598.19 611.393 598.19ZM611.861 603.338C610.661 603.386 609.827 603.578 609.359 603.914C608.903 604.25 608.675 604.724 608.675 605.336C608.675 605.876 608.837 606.272 609.161 606.524C609.497 606.776 609.923 606.902 610.439 606.902C611.255 606.902 611.933 606.68 612.473 606.236C613.013 605.78 613.283 605.084 613.283 604.148V603.284L611.861 603.338ZM624.489 599.684H621.339V608H619.773V599.684H616.659V598.352H624.489V599.684ZM627.883 604.238C627.883 604.346 627.877 604.502 627.865 604.706C627.865 604.898 627.859 605.108 627.847 605.336C627.835 605.552 627.823 605.762 627.811 605.966C627.799 606.158 627.787 606.314 627.775 606.434L632.941 598.352H634.885V608H633.409V602.312C633.409 602.12 633.409 601.868 633.409 601.556C633.421 601.244 633.433 600.938 633.445 600.638C633.457 600.326 633.469 600.092 633.481 599.936L628.351 608H626.389V598.352H627.883V604.238ZM641.826 608.18C640.974 608.18 640.212 608.006 639.54 607.658C638.88 607.31 638.358 606.77 637.974 606.038C637.602 605.306 637.416 604.37 637.416 603.23C637.416 602.042 637.614 601.076 638.01 600.332C638.406 599.588 638.94 599.042 639.612 598.694C640.296 598.346 641.07 598.172 641.934 598.172C642.426 598.172 642.9 598.226 643.356 598.334C643.812 598.43 644.184 598.55 644.472 598.694L643.986 600.008C643.698 599.9 643.362 599.798 642.978 599.702C642.594 599.606 642.234 599.558 641.898 599.558C641.25 599.558 640.716 599.696 640.296 599.972C639.876 600.248 639.564 600.656 639.36 601.196C639.156 601.736 639.054 602.408 639.054 603.212C639.054 603.98 639.156 604.634 639.36 605.174C639.564 605.714 639.87 606.122 640.278 606.398C640.686 606.674 641.196 606.812 641.808 606.812C642.336 606.812 642.798 606.758 643.194 606.65C643.602 606.542 643.974 606.41 644.31 606.254V607.658C643.986 607.826 643.626 607.952 643.23 608.036C642.846 608.132 642.378 608.18 641.826 608.18ZM653.264 599.684H650.114V608H648.548V599.684H645.434V598.352H653.264V599.684ZM656.659 604.238C656.659 604.346 656.653 604.502 656.641 604.706C656.641 604.898 656.635 605.108 656.623 605.336C656.611 605.552 656.599 605.762 656.587 605.966C656.575 606.158 656.563 606.314 656.551 606.434L661.717 598.352H663.661V608H662.185V602.312C662.185 602.12 662.185 601.868 662.185 601.556C662.197 601.244 662.209 600.938 662.221 600.638C662.233 600.326 662.245 600.092 662.257 599.936L657.127 608H655.165V598.352H656.659V604.238ZM672.437 598.352H674.165L670.043 602.996L674.507 608H672.671L668.315 603.104V608H666.731V598.352H668.315V603.032L672.437 598.352ZM679.912 598.19C681.088 598.19 681.958 598.448 682.522 598.964C683.086 599.48 683.368 600.302 683.368 601.43V608H682.216L681.91 606.632H681.838C681.562 606.98 681.274 607.274 680.974 607.514C680.686 607.742 680.35 607.91 679.966 608.018C679.594 608.126 679.138 608.18 678.598 608.18C678.022 608.18 677.5 608.078 677.032 607.874C676.576 607.67 676.216 607.358 675.952 606.938C675.688 606.506 675.556 605.966 675.556 605.318C675.556 604.358 675.934 603.62 676.69 603.104C677.446 602.576 678.61 602.288 680.182 602.24L681.82 602.186V601.61C681.82 600.806 681.646 600.248 681.298 599.936C680.95 599.624 680.458 599.468 679.822 599.468C679.318 599.468 678.838 599.546 678.382 599.702C677.926 599.846 677.5 600.014 677.104 600.206L676.618 599.018C677.038 598.79 677.536 598.598 678.112 598.442C678.688 598.274 679.288 598.19 679.912 598.19ZM680.38 603.338C679.18 603.386 678.346 603.578 677.878 603.914C677.422 604.25 677.194 604.724 677.194 605.336C677.194 605.876 677.356 606.272 677.68 606.524C678.016 606.776 678.442 606.902 678.958 606.902C679.774 606.902 680.452 606.68 680.992 606.236C681.532 605.78 681.802 605.084 681.802 604.148V603.284L680.38 603.338Z" fill="white"/>
<path d="M101.959 50.2986C101.959 22.6844 124.345 0.298645 151.959 0.298645H262.706V25.6199C262.706 53.2342 240.32 75.6199 212.706 75.6199H101.959V50.2986Z" fill="#9277EE"/>
<path d="M105.634 56.7285C105.634 29.1143 128.019 6.7285 155.634 6.7285H266.38V32.0498C266.38 59.664 243.994 82.0498 216.38 82.0498H105.634V56.7285Z" fill="#6466D9"/>
<path d="M150.96 34.556C150.96 35.552 150.834 36.458 150.582 37.274C150.33 38.078 149.952 38.774 149.448 39.362C148.956 39.95 148.338 40.4 147.594 40.712C146.862 41.024 146.01 41.18 145.038 41.18C144.03 41.18 143.154 41.024 142.41 40.712C141.666 40.388 141.048 39.938 140.556 39.362C140.064 38.774 139.698 38.072 139.458 37.256C139.218 36.44 139.098 35.534 139.098 34.538C139.098 33.218 139.314 32.066 139.746 31.082C140.178 30.098 140.832 29.33 141.708 28.778C142.596 28.226 143.712 27.95 145.056 27.95C146.34 27.95 147.42 28.226 148.296 28.778C149.172 29.318 149.832 30.086 150.276 31.082C150.732 32.066 150.96 33.224 150.96 34.556ZM140.808 34.556C140.808 35.636 140.958 36.566 141.258 37.346C141.558 38.126 142.02 38.726 142.644 39.146C143.28 39.566 144.078 39.776 145.038 39.776C146.01 39.776 146.802 39.566 147.414 39.146C148.038 38.726 148.5 38.126 148.8 37.346C149.1 36.566 149.25 35.636 149.25 34.556C149.25 32.936 148.914 31.67 148.242 30.758C147.57 29.834 146.508 29.372 145.056 29.372C144.084 29.372 143.28 29.582 142.644 30.002C142.02 30.41 141.558 31.004 141.258 31.784C140.958 32.552 140.808 33.476 140.808 34.556ZM153.089 35.204C153.089 33.8 153.227 32.606 153.503 31.622C153.791 30.626 154.229 29.834 154.817 29.246C155.417 28.646 156.185 28.244 157.121 28.04C157.901 27.872 158.663 27.722 159.407 27.59C160.151 27.458 160.847 27.338 161.495 27.23L161.765 28.616C161.453 28.664 161.105 28.724 160.721 28.796C160.337 28.856 159.947 28.922 159.551 28.994C159.155 29.054 158.771 29.12 158.399 29.192C158.039 29.252 157.721 29.312 157.445 29.372C157.049 29.456 156.695 29.6 156.383 29.804C156.071 29.996 155.801 30.26 155.573 30.596C155.357 30.932 155.183 31.346 155.051 31.838C154.919 32.33 154.841 32.912 154.817 33.584H154.925C155.093 33.356 155.321 33.122 155.609 32.882C155.909 32.642 156.263 32.438 156.671 32.27C157.091 32.102 157.565 32.018 158.093 32.018C158.933 32.018 159.629 32.204 160.181 32.576C160.745 32.936 161.165 33.44 161.441 34.088C161.729 34.736 161.873 35.492 161.873 36.356C161.873 37.424 161.687 38.318 161.314 39.038C160.943 39.758 160.427 40.298 159.767 40.658C159.107 41.006 158.339 41.18 157.463 41.18C156.803 41.18 156.203 41.054 155.663 40.802C155.123 40.538 154.661 40.154 154.277 39.65C153.893 39.146 153.599 38.522 153.395 37.778C153.191 37.034 153.089 36.176 153.089 35.204ZM157.589 39.866C158.117 39.866 158.573 39.758 158.957 39.542C159.353 39.326 159.659 38.972 159.875 38.48C160.091 37.988 160.199 37.334 160.199 36.518C160.199 35.534 160.013 34.76 159.641 34.196C159.281 33.62 158.681 33.332 157.841 33.332C157.313 33.332 156.833 33.452 156.401 33.692C155.969 33.92 155.609 34.184 155.321 34.484C155.033 34.784 154.829 35.036 154.708 35.24C154.708 35.828 154.751 36.398 154.835 36.95C154.919 37.502 155.063 38 155.267 38.444C155.483 38.876 155.777 39.224 156.149 39.488C156.533 39.74 157.013 39.866 157.589 39.866ZM162.856 31.352H164.548L166.636 36.842C166.756 37.166 166.864 37.478 166.96 37.778C167.068 38.078 167.164 38.372 167.248 38.66C167.332 38.936 167.398 39.206 167.446 39.47H167.518C167.59 39.17 167.704 38.78 167.86 38.3C168.016 37.808 168.178 37.316 168.346 36.824L170.308 31.352H172.018L167.86 42.332C167.632 42.932 167.362 43.454 167.05 43.898C166.75 44.354 166.378 44.702 165.934 44.942C165.502 45.194 164.974 45.32 164.35 45.32C164.062 45.32 163.81 45.302 163.594 45.266C163.378 45.242 163.192 45.212 163.036 45.176V43.916C163.168 43.94 163.324 43.964 163.504 43.988C163.696 44.012 163.894 44.024 164.098 44.024C164.47 44.024 164.788 43.952 165.052 43.808C165.328 43.676 165.562 43.478 165.754 43.214C165.946 42.962 166.108 42.662 166.24 42.314L166.744 41.036L162.856 31.352ZM174.93 34.862C174.93 35.426 175.086 35.846 175.398 36.122C175.722 36.386 176.184 36.518 176.784 36.518C177.384 36.518 177.93 36.428 178.422 36.248C178.914 36.056 179.418 35.804 179.934 35.492V31.352H181.518V41H179.934V36.698C179.394 37.046 178.86 37.322 178.332 37.526C177.816 37.718 177.192 37.814 176.46 37.814C175.476 37.814 174.708 37.556 174.156 37.04C173.616 36.524 173.346 35.834 173.346 34.97V31.352H174.93V34.862ZM188.309 31.172C189.137 31.172 189.845 31.352 190.433 31.712C191.033 32.072 191.489 32.582 191.801 33.242C192.125 33.89 192.287 34.652 192.287 35.528V36.482H185.681C185.705 37.574 185.981 38.408 186.509 38.984C187.049 39.548 187.799 39.83 188.759 39.83C189.371 39.83 189.911 39.776 190.379 39.668C190.859 39.548 191.351 39.38 191.855 39.164V40.55C191.363 40.766 190.877 40.922 190.397 41.018C189.917 41.126 189.347 41.18 188.687 41.18C187.775 41.18 186.965 40.994 186.257 40.622C185.561 40.25 185.015 39.698 184.619 38.966C184.235 38.222 184.043 37.316 184.043 36.248C184.043 35.192 184.217 34.286 184.565 33.53C184.925 32.774 185.423 32.192 186.059 31.784C186.707 31.376 187.457 31.172 188.309 31.172ZM188.291 32.468C187.535 32.468 186.935 32.714 186.491 33.206C186.059 33.686 185.801 34.358 185.717 35.222H190.631C190.631 34.67 190.547 34.19 190.379 33.782C190.211 33.374 189.953 33.056 189.605 32.828C189.269 32.588 188.831 32.468 188.291 32.468ZM196.327 31.352V35.366H201.565V31.352H203.149V41H201.565V36.698H196.327V41H194.743V31.352H196.327ZM207.698 37.238C207.698 37.346 207.692 37.502 207.68 37.706C207.68 37.898 207.674 38.108 207.662 38.336C207.65 38.552 207.638 38.762 207.626 38.966C207.614 39.158 207.602 39.314 207.59 39.434L212.756 31.352H214.7V41H213.224V35.312C213.224 35.12 213.224 34.868 213.224 34.556C213.236 34.244 213.248 33.938 213.26 33.638C213.272 33.326 213.284 33.092 213.296 32.936L208.166 41H206.204V31.352H207.698V37.238ZM221.496 31.172C222.324 31.172 223.032 31.352 223.62 31.712C224.22 32.072 224.676 32.582 224.988 33.242C225.312 33.89 225.474 34.652 225.474 35.528V36.482H218.868C218.892 37.574 219.168 38.408 219.696 38.984C220.236 39.548 220.986 39.83 221.946 39.83C222.558 39.83 223.098 39.776 223.566 39.668C224.046 39.548 224.538 39.38 225.042 39.164V40.55C224.55 40.766 224.064 40.922 223.584 41.018C223.104 41.126 222.534 41.18 221.874 41.18C220.962 41.18 220.152 40.994 219.444 40.622C218.748 40.25 218.202 39.698 217.806 38.966C217.422 38.222 217.23 37.316 217.23 36.248C217.23 35.192 217.404 34.286 217.752 33.53C218.112 32.774 218.61 32.192 219.246 31.784C219.894 31.376 220.644 31.172 221.496 31.172ZM221.478 32.468C220.722 32.468 220.122 32.714 219.678 33.206C219.246 33.686 218.988 34.358 218.904 35.222H223.818C223.818 34.67 223.734 34.19 223.566 33.782C223.398 33.374 223.14 33.056 222.792 32.828C222.456 32.588 222.018 32.468 221.478 32.468Z" fill="white"/>
<path d="M175.01 54.6905C175.01 54.7985 175.004 54.9545 174.992 55.1585C174.992 55.3505 174.986 55.5605 174.974 55.7885C174.962 56.0045 174.95 56.2145 174.938 56.4185C174.926 56.6105 174.914 56.7665 174.902 56.8865L180.068 48.8045H182.012V58.4525H180.536V52.7645C180.536 52.5725 180.536 52.3205 180.536 52.0085C180.548 51.6965 180.56 51.3905 180.572 51.0905C180.584 50.7785 180.596 50.5445 180.608 50.3885L175.478 58.4525H173.516V48.8045H175.01V54.6905ZM190.969 48.8045V50.1365H186.667V58.4525H185.083V48.8045H190.969ZM197.46 48.6245C198.648 48.6245 199.602 49.0385 200.322 49.8665C201.054 50.6945 201.42 51.9425 201.42 53.6105C201.42 54.7025 201.252 55.6265 200.916 56.3825C200.592 57.1265 200.13 57.6905 199.53 58.0745C198.942 58.4465 198.246 58.6325 197.442 58.6325C196.95 58.6325 196.512 58.5665 196.128 58.4345C195.744 58.3025 195.414 58.1345 195.138 57.9305C194.874 57.7145 194.646 57.4805 194.454 57.2285H194.346C194.37 57.4325 194.394 57.6905 194.418 58.0025C194.442 58.3145 194.454 58.5845 194.454 58.8125V62.7725H192.87V48.8045H194.166L194.382 50.1185H194.454C194.646 49.8425 194.874 49.5905 195.138 49.3625C195.414 49.1345 195.738 48.9545 196.11 48.8225C196.494 48.6905 196.944 48.6245 197.46 48.6245ZM197.172 49.9565C196.524 49.9565 196.002 50.0825 195.606 50.3345C195.21 50.5745 194.922 50.9405 194.742 51.4325C194.562 51.9245 194.466 52.5485 194.454 53.3045V53.6105C194.454 54.4025 194.538 55.0745 194.706 55.6265C194.874 56.1785 195.156 56.5985 195.552 56.8865C195.96 57.1745 196.512 57.3185 197.208 57.3185C197.796 57.3185 198.276 57.1565 198.648 56.8325C199.032 56.5085 199.314 56.0705 199.494 55.5185C199.686 54.9545 199.782 54.3125 199.782 53.5925C199.782 52.4885 199.566 51.6065 199.134 50.9465C198.714 50.2865 198.06 49.9565 197.172 49.9565ZM207.598 48.6425C208.774 48.6425 209.644 48.9005 210.208 49.4165C210.772 49.9325 211.054 50.7545 211.054 51.8825V58.4525H209.902L209.596 57.0845H209.524C209.248 57.4325 208.96 57.7265 208.66 57.9665C208.372 58.1945 208.036 58.3625 207.652 58.4705C207.28 58.5785 206.824 58.6325 206.284 58.6325C205.708 58.6325 205.186 58.5305 204.718 58.3265C204.262 58.1225 203.902 57.8105 203.638 57.3905C203.374 56.9585 203.242 56.4185 203.242 55.7705C203.242 54.8105 203.62 54.0725 204.376 53.5565C205.132 53.0285 206.296 52.7405 207.868 52.6925L209.506 52.6385V52.0625C209.506 51.2585 209.332 50.7005 208.984 50.3885C208.636 50.0765 208.144 49.9205 207.508 49.9205C207.004 49.9205 206.524 49.9985 206.068 50.1545C205.612 50.2985 205.186 50.4665 204.79 50.6585L204.304 49.4705C204.724 49.2425 205.222 49.0505 205.798 48.8945C206.374 48.7265 206.974 48.6425 207.598 48.6425ZM208.066 53.7905C206.866 53.8385 206.032 54.0305 205.564 54.3665C205.108 54.7025 204.88 55.1765 204.88 55.7885C204.88 56.3285 205.042 56.7245 205.366 56.9765C205.702 57.2285 206.128 57.3545 206.644 57.3545C207.46 57.3545 208.138 57.1325 208.678 56.6885C209.218 56.2325 209.488 55.5365 209.488 54.6005V53.7365L208.066 53.7905ZM214.628 58.4525H212.792L215.546 54.4025C215.174 54.3065 214.814 54.1565 214.466 53.9525C214.118 53.7365 213.836 53.4425 213.62 53.0705C213.404 52.6865 213.296 52.2125 213.296 51.6485C213.296 50.7245 213.608 50.0225 214.232 49.5425C214.856 49.0505 215.684 48.8045 216.716 48.8045H221.036V58.4525H219.452V54.6185H217.112L214.628 58.4525ZM214.826 51.6665C214.826 52.2185 215.03 52.6325 215.438 52.9085C215.858 53.1725 216.44 53.3045 217.184 53.3045H219.452V50.1185H216.878C216.146 50.1185 215.618 50.2625 215.294 50.5505C214.982 50.8385 214.826 51.2105 214.826 51.6665Z" fill="white"/>
<path d="M621 205C621 177.386 643.386 155 671 155H827.546V180.321C827.546 207.936 805.16 230.321 777.546 230.321H621V205Z" fill="#9277EE"/>
<path d="M625.721 211.43C625.721 183.816 648.107 161.43 675.721 161.43H832.267V186.751C832.267 214.365 809.881 236.751 782.267 236.751H625.721V211.43Z" fill="#6466D9"/>
<path d="M655.937 194.763L661.289 190.281C662.01 189.677 662.37 189.047 662.37 188.391C662.37 188.045 662.256 187.761 662.028 187.539C661.805 187.316 661.524 187.205 661.184 187.205C660.844 187.205 660.507 187.26 660.173 187.372C659.06 187.735 657.979 188.476 656.93 189.595L654.865 186.633C655.579 185.45 656.646 184.53 658.064 183.873C659.482 183.217 660.994 182.889 662.599 182.889C664.21 182.889 665.564 183.267 666.66 184.023C667.867 184.855 668.47 186.006 668.47 187.477C668.47 188.649 667.969 189.739 666.967 190.747C666.446 191.274 665.912 191.74 665.368 192.144C664.823 192.542 664.398 192.859 664.093 193.093H668.558V197.303H655.937V194.763ZM678.455 187.655H680.147L682.235 193.145C682.355 193.469 682.463 193.781 682.559 194.081C682.667 194.381 682.763 194.675 682.847 194.963C682.931 195.239 682.997 195.509 683.045 195.773H683.117C683.189 195.473 683.303 195.083 683.459 194.603C683.615 194.111 683.777 193.619 683.945 193.127L685.907 187.655H687.617L683.459 198.635C683.231 199.235 682.961 199.757 682.649 200.201C682.349 200.657 681.977 201.005 681.533 201.245C681.101 201.497 680.573 201.623 679.949 201.623C679.661 201.623 679.409 201.605 679.193 201.569C678.977 201.545 678.791 201.515 678.635 201.479V200.219C678.767 200.243 678.923 200.267 679.103 200.291C679.295 200.315 679.493 200.327 679.697 200.327C680.069 200.327 680.387 200.255 680.651 200.111C680.927 199.979 681.161 199.781 681.353 199.517C681.545 199.265 681.707 198.965 681.839 198.617L682.343 197.339L678.455 187.655ZM696.901 190.085C696.901 190.685 696.721 191.153 696.361 191.489C696.001 191.825 695.539 192.053 694.975 192.173V192.245C695.575 192.329 696.097 192.545 696.541 192.893C696.985 193.229 697.207 193.757 697.207 194.477C697.207 194.885 697.129 195.263 696.973 195.611C696.829 195.959 696.601 196.259 696.289 196.511C695.977 196.763 695.575 196.961 695.083 197.105C694.591 197.237 693.997 197.303 693.301 197.303H689.143V187.655H693.283C693.967 187.655 694.579 187.733 695.119 187.889C695.671 188.033 696.103 188.285 696.415 188.645C696.739 188.993 696.901 189.473 696.901 190.085ZM695.569 194.477C695.569 193.925 695.359 193.529 694.939 193.289C694.519 193.049 693.901 192.929 693.085 192.929H690.727V196.025H693.121C693.913 196.025 694.519 195.911 694.939 195.683C695.359 195.443 695.569 195.041 695.569 194.477ZM695.299 190.283C695.299 189.827 695.131 189.497 694.795 189.293C694.471 189.077 693.937 188.969 693.193 188.969H690.727V191.615H692.905C693.685 191.615 694.279 191.507 694.687 191.291C695.095 191.075 695.299 190.739 695.299 190.283ZM706.858 197.303H705.256V188.969H702.412C702.292 190.493 702.142 191.795 701.962 192.875C701.782 193.943 701.554 194.813 701.278 195.485C701.002 196.157 700.672 196.649 700.288 196.961C699.904 197.273 699.454 197.429 698.938 197.429C698.782 197.429 698.626 197.417 698.47 197.393C698.326 197.381 698.206 197.351 698.11 197.303V196.115C698.182 196.139 698.26 196.157 698.344 196.169C698.428 196.181 698.512 196.187 698.596 196.187C698.86 196.187 699.1 196.079 699.316 195.863C699.532 195.647 699.724 195.317 699.892 194.873C700.072 194.429 700.234 193.871 700.378 193.199C700.522 192.515 700.648 191.711 700.756 190.787C700.864 189.863 700.96 188.819 701.044 187.655H706.858V197.303ZM713.646 187.475C714.474 187.475 715.182 187.655 715.77 188.015C716.37 188.375 716.826 188.885 717.138 189.545C717.462 190.193 717.624 190.955 717.624 191.831V192.785H711.018C711.042 193.877 711.318 194.711 711.846 195.287C712.386 195.851 713.136 196.133 714.096 196.133C714.708 196.133 715.248 196.079 715.716 195.971C716.196 195.851 716.688 195.683 717.192 195.467V196.853C716.7 197.069 716.214 197.225 715.734 197.321C715.254 197.429 714.684 197.483 714.024 197.483C713.112 197.483 712.302 197.297 711.594 196.925C710.898 196.553 710.352 196.001 709.956 195.269C709.572 194.525 709.38 193.619 709.38 192.551C709.38 191.495 709.554 190.589 709.902 189.833C710.262 189.077 710.76 188.495 711.396 188.087C712.044 187.679 712.794 187.475 713.646 187.475ZM713.628 188.771C712.872 188.771 712.272 189.017 711.828 189.509C711.396 189.989 711.138 190.661 711.054 191.525H715.968C715.968 190.973 715.884 190.493 715.716 190.085C715.548 189.677 715.29 189.359 714.942 189.131C714.606 188.891 714.168 188.771 713.628 188.771ZM725.786 187.655H727.514L723.392 192.299L727.856 197.303H726.02L721.664 192.407V197.303H720.08V187.655H721.664V192.335L725.786 187.655ZM733.262 187.493C734.438 187.493 735.308 187.751 735.872 188.267C736.436 188.783 736.718 189.605 736.718 190.733V197.303H735.566L735.26 195.935H735.188C734.912 196.283 734.624 196.577 734.324 196.817C734.036 197.045 733.7 197.213 733.316 197.321C732.944 197.429 732.488 197.483 731.948 197.483C731.372 197.483 730.85 197.381 730.382 197.177C729.926 196.973 729.566 196.661 729.302 196.241C729.038 195.809 728.906 195.269 728.906 194.621C728.906 193.661 729.284 192.923 730.04 192.407C730.796 191.879 731.96 191.591 733.532 191.543L735.17 191.489V190.913C735.17 190.109 734.996 189.551 734.648 189.239C734.3 188.927 733.808 188.771 733.172 188.771C732.668 188.771 732.188 188.849 731.732 189.005C731.276 189.149 730.85 189.317 730.454 189.509L729.968 188.321C730.388 188.093 730.886 187.901 731.462 187.745C732.038 187.577 732.638 187.493 733.262 187.493ZM733.73 192.641C732.53 192.689 731.696 192.881 731.228 193.217C730.772 193.553 730.544 194.027 730.544 194.639C730.544 195.179 730.706 195.575 731.03 195.827C731.366 196.079 731.792 196.205 732.308 196.205C733.124 196.205 733.802 195.983 734.342 195.539C734.882 195.083 735.152 194.387 735.152 193.451V192.587L733.73 192.641ZM746.357 188.987H743.207V197.303H741.641V188.987H738.527V187.655H746.357V188.987ZM751.808 187.475C752.636 187.475 753.344 187.655 753.932 188.015C754.532 188.375 754.988 188.885 755.3 189.545C755.624 190.193 755.786 190.955 755.786 191.831V192.785H749.18C749.204 193.877 749.48 194.711 750.008 195.287C750.548 195.851 751.298 196.133 752.258 196.133C752.87 196.133 753.41 196.079 753.878 195.971C754.358 195.851 754.85 195.683 755.354 195.467V196.853C754.862 197.069 754.376 197.225 753.896 197.321C753.416 197.429 752.846 197.483 752.186 197.483C751.274 197.483 750.464 197.297 749.756 196.925C749.06 196.553 748.514 196.001 748.118 195.269C747.734 194.525 747.542 193.619 747.542 192.551C747.542 191.495 747.716 190.589 748.064 189.833C748.424 189.077 748.922 188.495 749.558 188.087C750.206 187.679 750.956 187.475 751.808 187.475ZM751.79 188.771C751.034 188.771 750.434 189.017 749.99 189.509C749.558 189.989 749.3 190.661 749.216 191.525H754.13C754.13 190.973 754.046 190.493 753.878 190.085C753.71 189.677 753.452 189.359 753.104 189.131C752.768 188.891 752.33 188.771 751.79 188.771ZM765.586 197.303H763.984V188.969H761.14C761.02 190.493 760.87 191.795 760.69 192.875C760.51 193.943 760.282 194.813 760.006 195.485C759.73 196.157 759.4 196.649 759.016 196.961C758.632 197.273 758.182 197.429 757.666 197.429C757.51 197.429 757.354 197.417 757.198 197.393C757.054 197.381 756.934 197.351 756.838 197.303V196.115C756.91 196.139 756.988 196.157 757.072 196.169C757.156 196.181 757.24 196.187 757.324 196.187C757.588 196.187 757.828 196.079 758.044 195.863C758.26 195.647 758.452 195.317 758.62 194.873C758.8 194.429 758.962 193.871 759.106 193.199C759.25 192.515 759.376 191.711 759.484 190.787C759.592 189.863 759.688 188.819 759.772 187.655H765.586V197.303ZM773.095 191.615C773.935 191.615 774.631 191.717 775.183 191.921C775.735 192.125 776.149 192.431 776.425 192.839C776.713 193.235 776.857 193.739 776.857 194.351C776.857 194.951 776.719 195.473 776.443 195.917C776.179 196.361 775.765 196.703 775.201 196.943C774.637 197.183 773.911 197.303 773.023 197.303H768.649V187.655H770.233V191.615H773.095ZM775.273 194.441C775.273 193.853 775.063 193.457 774.643 193.253C774.235 193.037 773.659 192.929 772.915 192.929H770.233V196.025H772.951C773.623 196.025 774.175 195.905 774.607 195.665C775.051 195.425 775.273 195.017 775.273 194.441ZM780.92 187.655V191.669H786.158V187.655H787.742V197.303H786.158V193.001H780.92V197.303H779.336V187.655H780.92ZM790.797 197.303V187.655H792.381V191.615H794.883C795.723 191.615 796.413 191.717 796.953 191.921C797.493 192.125 797.895 192.431 798.159 192.839C798.423 193.235 798.555 193.739 798.555 194.351C798.555 194.951 798.423 195.473 798.159 195.917C797.907 196.361 797.505 196.703 796.953 196.943C796.413 197.183 795.699 197.303 794.811 197.303H790.797ZM794.667 196.025C795.351 196.025 795.909 195.911 796.341 195.683C796.773 195.443 796.989 195.029 796.989 194.441C796.989 193.853 796.791 193.457 796.395 193.253C795.999 193.037 795.429 192.929 794.685 192.929H792.381V196.025H794.667ZM800.157 197.303V187.655H801.741V197.303H800.157ZM808.533 187.475C809.361 187.475 810.069 187.655 810.657 188.015C811.257 188.375 811.713 188.885 812.025 189.545C812.349 190.193 812.511 190.955 812.511 191.831V192.785H805.905C805.929 193.877 806.205 194.711 806.733 195.287C807.273 195.851 808.023 196.133 808.983 196.133C809.595 196.133 810.135 196.079 810.603 195.971C811.083 195.851 811.575 195.683 812.079 195.467V196.853C811.587 197.069 811.101 197.225 810.621 197.321C810.141 197.429 809.571 197.483 808.911 197.483C807.999 197.483 807.189 197.297 806.481 196.925C805.785 196.553 805.239 196.001 804.843 195.269C804.459 194.525 804.267 193.619 804.267 192.551C804.267 191.495 804.441 190.589 804.789 189.833C805.149 189.077 805.647 188.495 806.283 188.087C806.931 187.679 807.681 187.475 808.533 187.475ZM808.515 188.771C807.759 188.771 807.159 189.017 806.715 189.509C806.283 189.989 806.025 190.661 805.941 191.525H810.855C810.855 190.973 810.771 190.493 810.603 190.085C810.435 189.677 810.177 189.359 809.829 189.131C809.493 188.891 809.055 188.771 808.515 188.771Z" fill="white"/>
<path d="M761.291 216.541C761.291 216.649 761.285 216.805 761.273 217.009C761.273 217.201 761.267 217.411 761.255 217.639C761.243 217.855 761.231 218.065 761.219 218.269C761.207 218.461 761.195 218.617 761.183 218.737L766.349 210.655H768.293V220.303H766.817V214.615C766.817 214.423 766.817 214.171 766.817 213.859C766.829 213.547 766.841 213.241 766.853 212.941C766.865 212.629 766.877 212.395 766.889 212.239L761.759 220.303H759.797V210.655H761.291V216.541ZM777.249 210.655V211.987H772.947V220.303H771.363V210.655H777.249ZM783.74 210.475C784.928 210.475 785.882 210.889 786.602 211.717C787.334 212.545 787.7 213.793 787.7 215.461C787.7 216.553 787.532 217.477 787.196 218.233C786.872 218.977 786.41 219.541 785.81 219.925C785.222 220.297 784.526 220.483 783.722 220.483C783.23 220.483 782.792 220.417 782.408 220.285C782.024 220.153 781.694 219.985 781.418 219.781C781.154 219.565 780.926 219.331 780.734 219.079H780.626C780.65 219.283 780.674 219.541 780.698 219.853C780.722 220.165 780.734 220.435 780.734 220.663V224.623H779.15V210.655H780.446L780.662 211.969H780.734C780.926 211.693 781.154 211.441 781.418 211.213C781.694 210.985 782.018 210.805 782.39 210.673C782.774 210.541 783.224 210.475 783.74 210.475ZM783.452 211.807C782.804 211.807 782.282 211.933 781.886 212.185C781.49 212.425 781.202 212.791 781.022 213.283C780.842 213.775 780.746 214.399 780.734 215.155V215.461C780.734 216.253 780.818 216.925 780.986 217.477C781.154 218.029 781.436 218.449 781.832 218.737C782.24 219.025 782.792 219.169 783.488 219.169C784.076 219.169 784.556 219.007 784.928 218.683C785.312 218.359 785.594 217.921 785.774 217.369C785.966 216.805 786.062 216.163 786.062 215.443C786.062 214.339 785.846 213.457 785.414 212.797C784.994 212.137 784.34 211.807 783.452 211.807ZM790.225 220.303V210.655H791.809V214.615H794.311C795.151 214.615 795.841 214.717 796.381 214.921C796.921 215.125 797.323 215.431 797.587 215.839C797.851 216.235 797.983 216.739 797.983 217.351C797.983 217.951 797.851 218.473 797.587 218.917C797.335 219.361 796.933 219.703 796.381 219.943C795.841 220.183 795.127 220.303 794.239 220.303H790.225ZM794.095 219.025C794.779 219.025 795.337 218.911 795.769 218.683C796.201 218.443 796.417 218.029 796.417 217.441C796.417 216.853 796.219 216.457 795.823 216.253C795.427 216.037 794.857 215.929 794.113 215.929H791.809V219.025H794.095ZM799.585 220.303V210.655H801.169V220.303H799.585Z" fill="white"/>
<path d="M381.062 278.817C388.829 282.761 398.587 279.139 402.857 270.729C407.127 262.32 404.292 252.305 396.525 248.362C396.122 248.159 395.712 247.986 395.301 247.821C396.745 243.168 397.832 238.478 398.561 233.786C399.007 233.785 399.454 233.778 399.907 233.736C408.769 232.946 415.801 224.803 415.616 215.548C415.431 206.293 408.097 199.43 399.235 200.221C398.772 200.262 398.317 200.334 397.865 200.416C396.94 195.829 395.671 191.349 394.071 187.013C394.478 186.774 394.884 186.527 395.28 186.25C402.86 180.939 405.285 170.455 400.693 162.835C396.101 155.214 386.234 153.343 378.652 158.654C378.263 158.926 377.897 159.221 377.537 159.519C374.543 156.208 371.258 153.141 367.705 150.34C367.954 149.93 368.199 149.516 368.42 149.08C372.69 140.67 378.27 131.483 370.442 127.663C352.333 118.824 344.564 126.39 340.293 134.801C340.073 135.236 339.882 135.679 339.698 136.122C335.341 134.906 330.926 134.064 326.486 133.6C326.513 133.133 326.536 132.665 326.526 132.189C326.341 122.934 329.086 117.927 320.192 117.753C300.795 117.376 294.251 125.795 294.436 135.05C294.446 135.534 294.486 136.007 294.534 136.476C290.089 137.744 285.723 139.364 281.474 141.323C281.272 140.91 281.063 140.5 280.824 140.102C276.233 132.481 266.365 130.61 258.783 135.923C251.201 141.235 248.777 151.717 253.369 159.338C253.604 159.728 253.862 160.094 254.124 160.454C250.766 163.811 247.623 167.458 244.716 171.369C244.341 171.134 243.96 170.904 243.557 170.699C235.79 166.755 226.033 170.375 221.763 178.786C217.493 187.195 220.327 197.211 228.094 201.153C228.497 201.357 228.907 201.529 229.319 201.694C227.877 206.347 226.787 211.038 226.058 215.729C225.613 215.731 225.166 215.738 224.713 215.777C215.851 216.568 208.818 224.711 209.004 233.966C209.189 243.221 216.523 250.082 225.385 249.293C225.848 249.252 226.303 249.179 226.755 249.098C227.68 253.685 228.949 258.165 230.548 262.501C230.141 262.74 229.735 262.987 229.339 263.264C221.758 268.575 219.334 279.059 223.925 286.679C228.517 294.3 243.717 297.839 251.299 292.528C251.688 292.256 246.721 290.293 247.081 289.995C250.076 293.306 253.361 296.373 256.913 299.174C256.664 299.584 256.419 299.998 256.197 300.434C251.927 308.843 254.762 318.858 262.529 322.802C270.296 326.745 280.053 323.124 284.324 314.715C284.544 314.279 284.735 313.836 284.919 313.393C289.276 314.609 293.691 315.451 298.129 315.915C298.102 316.382 298.079 316.852 298.089 317.326C298.274 326.581 305.609 333.443 314.471 332.654C323.333 331.864 330.365 323.721 330.18 314.466C330.17 313.982 330.13 313.509 330.082 313.039C334.527 311.772 338.892 310.151 343.141 308.192C343.343 308.605 343.553 309.015 343.793 309.414C348.385 317.034 358.252 318.905 365.834 313.594C373.416 308.282 375.84 297.8 371.248 290.179C371.013 289.789 370.755 289.424 370.493 289.064C373.851 285.707 376.994 282.06 379.901 278.149C380.279 278.383 380.661 278.612 381.062 278.817ZM284.241 280.046C256.042 265.727 245.749 229.368 261.252 198.834C276.754 168.299 312.182 155.153 340.383 169.47C368.584 183.788 378.875 220.147 363.373 250.682C347.868 281.216 312.442 294.362 284.241 280.046Z" fill="white"/>
<path d="M399.907 233.736C408.769 232.946 415.801 224.803 415.616 215.548C415.431 206.293 408.097 199.43 399.235 200.221C398.772 200.262 398.317 200.334 397.865 200.416C396.94 195.829 395.671 191.349 394.071 187.013C394.478 186.775 394.884 186.527 395.28 186.25C402.86 180.939 412.24 168.104 406.891 160.996C396.739 147.504 386.234 153.345 378.652 158.656C378.263 158.928 377.897 159.222 377.537 159.52C374.543 156.21 371.258 153.143 367.705 150.342C367.956 149.932 368.199 149.517 368.422 149.082C370.745 144.504 370.95 139.458 369.415 135.168C362.093 148.057 354.869 160.998 347.774 174.01C370.271 190.496 377.433 222.982 363.371 250.68C351.455 274.151 327.768 287.33 304.639 285.678C303.607 288.354 302.594 291.045 301.489 293.695C298.491 300.885 295.085 307.929 291.675 314.963C293.819 315.367 295.974 315.686 298.135 315.911C298.106 316.379 298.085 316.848 298.095 317.322C298.28 326.577 303.9 334.441 319.96 333.588C328.843 333.117 330.371 323.716 330.184 314.461C330.174 313.977 330.134 313.505 330.086 313.035C334.531 311.767 338.897 310.147 343.145 308.188C343.348 308.601 343.557 309.011 343.798 309.41C348.39 317.03 364.317 320.268 371.899 314.955C379.481 309.643 375.844 297.795 371.252 290.175C371.017 289.785 370.76 289.419 370.498 289.059C373.855 285.701 376.999 282.055 379.905 278.145C380.281 278.381 380.661 278.61 381.064 278.815C388.831 282.759 398.589 279.137 402.859 270.728C407.129 262.319 404.294 252.303 396.527 248.361C396.124 248.157 395.714 247.985 395.302 247.821C396.746 243.168 397.834 238.478 398.563 233.786C399.006 233.785 399.453 233.776 399.907 233.736Z" fill="white"/>
<path d="M389.416 279.767C397.183 283.711 406.941 280.09 411.211 271.679C415.481 263.268 412.646 253.255 404.879 249.31C404.476 249.107 404.066 248.935 403.655 248.771C405.098 244.118 406.186 239.428 406.915 234.736C407.361 234.735 407.808 234.727 408.261 234.686C417.123 233.896 424.155 225.754 423.97 216.498C423.785 207.243 416.451 200.38 407.589 201.17C407.126 201.212 406.67 201.284 406.218 201.365C405.292 196.779 404.023 192.298 402.423 187.963C402.83 187.725 403.236 187.477 403.632 187.2C411.212 181.889 413.637 171.405 409.045 163.784C404.455 156.164 394.586 154.293 387.004 159.604C386.616 159.876 386.251 160.171 385.889 160.468C382.895 157.158 379.61 154.091 376.058 151.29C376.307 150.88 376.552 150.466 376.774 150.03C381.044 141.621 378.209 131.605 370.442 127.663C362.675 123.719 352.917 127.34 348.647 135.75C348.427 136.186 348.236 136.629 348.052 137.072C343.695 135.856 339.28 135.014 334.842 134.55C334.869 134.083 334.891 133.615 334.882 133.139C334.696 123.884 327.362 117.021 318.5 117.811C309.64 118.602 302.606 126.744 302.791 135.999C302.801 136.484 302.841 136.956 302.889 137.426C298.444 138.693 294.078 140.314 289.83 142.273C289.627 141.86 289.418 141.45 289.179 141.051C284.587 133.431 274.72 131.56 267.138 136.872C259.556 142.185 257.132 152.667 261.724 160.287C261.959 160.678 262.217 161.043 262.479 161.404C259.122 164.761 255.978 168.408 253.072 172.319C252.696 172.083 252.316 171.853 251.913 171.648C244.146 167.704 234.388 171.325 230.118 179.736C225.848 188.146 228.683 198.16 236.45 202.104C236.853 202.308 237.263 202.48 237.674 202.644C236.232 207.297 235.143 211.987 234.414 216.679C233.968 216.68 233.522 216.687 233.068 216.727C224.206 217.517 217.174 225.66 217.359 234.915C217.544 244.17 224.878 251.032 233.74 250.243C234.203 250.202 234.659 250.129 235.11 250.048C236.035 254.634 237.304 259.115 238.903 263.451C238.496 263.688 238.09 263.936 237.694 264.214C230.114 269.525 227.689 280.009 232.281 287.629C236.873 295.249 246.74 297.12 254.322 291.809C254.711 291.537 255.076 291.243 255.437 290.945C258.431 294.256 261.716 297.323 265.268 300.123C265.019 300.533 264.774 300.948 264.552 301.383C260.282 309.793 263.117 319.808 270.884 323.751C278.651 327.695 288.409 324.074 292.679 315.663C292.899 315.227 293.09 314.785 293.274 314.342C297.631 315.558 302.046 316.399 306.484 316.863C306.457 317.33 306.435 317.8 306.445 318.274C306.63 327.529 313.964 334.391 322.826 333.602C331.688 332.812 338.72 324.669 338.535 315.415C338.525 314.931 338.485 314.458 338.437 313.989C342.882 312.721 347.248 311.101 351.496 309.142C351.699 309.555 351.908 309.965 352.149 310.364C356.74 317.984 366.608 319.855 374.19 314.544C381.772 309.232 384.195 298.749 379.603 291.129C379.368 290.739 379.11 290.374 378.848 290.014C382.206 286.656 385.35 283.01 388.256 279.099C388.633 279.332 389.015 279.561 389.416 279.767ZM292.595 280.995C264.396 266.677 254.103 230.318 269.605 199.783C285.108 169.249 320.536 156.103 348.737 170.419C376.936 184.738 387.229 221.097 371.726 251.631C356.222 282.166 320.795 295.312 292.595 280.995Z" fill="#D8DEE8"/>
<path d="M491.744 379.167C476.555 371.455 471.012 351.873 479.362 335.429C487.711 318.983 506.792 311.904 521.979 319.614C537.167 327.326 542.71 346.908 534.361 363.352C526.011 379.797 506.932 386.878 491.744 379.167Z" fill="white"/>
<path d="M548.389 379.017C552.572 381.141 557.827 379.191 560.127 374.662C562.426 370.132 560.9 364.739 556.717 362.614C556.5 362.505 556.279 362.412 556.057 362.324C556.835 359.818 557.42 357.292 557.813 354.765C558.052 354.765 558.293 354.76 558.538 354.738C563.31 354.312 567.098 349.926 566.998 344.943C566.899 339.958 562.949 336.263 558.176 336.688C557.927 336.71 557.682 336.749 557.438 336.793C556.94 334.323 556.257 331.911 555.395 329.574C555.615 329.446 555.834 329.313 556.046 329.164C560.13 326.303 561.434 320.658 558.962 316.554C556.489 312.451 551.175 311.443 547.091 314.303C546.882 314.45 546.686 314.608 546.491 314.769C544.877 312.986 543.109 311.335 541.195 309.827C541.329 309.606 541.462 309.382 541.581 309.148C543.881 304.618 542.354 299.225 538.171 297.1C533.988 294.976 528.732 296.927 526.433 301.456C526.313 301.691 526.211 301.929 526.112 302.168C523.766 301.513 521.388 301.06 518.998 300.81C519.012 300.558 519.025 300.305 519.019 300.049C518.919 295.064 514.969 291.369 510.197 291.794C505.424 292.219 501.637 296.605 501.736 301.59C501.742 301.85 501.763 302.105 501.789 302.357C499.395 303.039 497.043 303.912 494.755 304.967C494.647 304.745 494.533 304.524 494.405 304.309C491.932 300.206 486.618 299.198 482.534 302.058C478.451 304.919 477.146 310.564 479.618 314.668C479.745 314.879 479.883 315.075 480.024 315.269C478.216 317.077 476.523 319.04 474.958 321.146C474.756 321.02 474.551 320.896 474.334 320.785C470.151 318.66 464.896 320.611 462.596 325.14C460.297 329.669 461.823 335.063 466.006 337.187C466.223 337.297 466.445 337.39 466.666 337.478C465.888 339.984 465.303 342.51 464.91 345.037C464.671 345.038 464.429 345.041 464.185 345.064C459.412 345.49 455.625 349.875 455.725 354.86C455.824 359.845 459.774 363.54 464.547 363.114C464.796 363.091 465.041 363.053 465.284 363.009C465.783 365.479 466.466 367.891 467.328 370.228C467.108 370.356 466.889 370.488 466.675 370.638C462.592 373.498 461.288 379.144 463.759 383.247C466.233 387.351 471.546 388.359 475.63 385.498C475.839 385.352 476.036 385.194 476.231 385.033C477.844 386.815 479.613 388.467 481.526 389.975C481.392 390.196 481.26 390.419 481.14 390.654C478.841 395.183 480.367 400.577 484.55 402.701C488.734 404.826 493.989 402.875 496.289 398.346C496.408 398.111 496.511 397.873 496.609 397.634C498.955 398.289 501.333 398.742 503.724 398.992C503.71 399.244 503.697 399.496 503.703 399.751C503.802 404.736 507.752 408.431 512.525 408.007C517.297 407.581 521.085 403.195 520.985 398.212C520.979 397.951 520.958 397.696 520.933 397.443C523.326 396.761 525.678 395.888 527.966 394.833C528.075 395.055 528.188 395.276 528.317 395.491C530.79 399.594 536.104 400.603 540.187 397.742C544.271 394.882 545.575 389.236 543.103 385.131C542.976 384.92 542.838 384.724 542.697 384.53C544.506 382.722 546.199 380.758 547.763 378.653C547.966 378.784 548.172 378.907 548.389 379.017ZM496.243 379.679C481.055 371.968 475.512 352.385 483.861 335.941C492.211 319.496 511.292 312.417 526.478 320.127C541.667 327.838 547.21 347.421 538.86 363.864C530.511 380.31 511.431 387.389 496.243 379.679Z" fill="#D8DEE8"/>
<path opacity="0.75" d="M509.693 271.955C509.693 216.121 462.157 170.858 403.519 170.858C344.881 170.858 297.345 216.121 297.345 271.955C297.345 305.84 314.853 335.829 341.725 354.173C353.125 361.954 360.04 374.78 360.04 388.584V396.321C360.04 413.131 373.667 426.757 390.476 426.757H416.56C433.371 426.757 446.997 413.13 446.997 396.321V388.584C446.997 374.78 453.91 361.954 465.311 354.173C492.185 335.829 509.693 305.84 509.693 271.955Z" fill="#F4F7FA"/>
<path d="M402.877 482.408C415.806 482.408 426.287 476.859 426.287 470.014C426.287 463.168 415.806 457.619 402.877 457.619C389.949 457.619 379.468 463.168 379.468 470.014C379.468 476.859 389.949 482.408 402.877 482.408Z" fill="url(#paint0_linear_9_735)"/>
<path d="M371.773 447.874V460.531C371.773 464.812 374.21 468.736 378.075 470.58C383.442 473.139 392.362 475.948 405.329 475.615C415.847 475.346 422.707 473.627 427.067 471.823C431.28 470.08 433.98 465.914 433.98 461.355V454.353L371.773 447.874Z" fill="url(#paint1_linear_9_735)"/>
<path opacity="0.3" d="M371.773 458.96C372.722 459.881 373.819 460.665 375.052 461.251C381.073 464.122 420.503 470.536 430.016 466.962C431.252 466.498 432.362 465.877 433.336 465.128C433.752 463.934 433.981 462.661 433.981 461.354V454.351L371.775 447.874V458.96H371.773Z" fill="url(#paint2_linear_9_735)"/>
<path d="M374.536 439.261C371.032 438.897 367.983 441.645 367.983 445.167V445.526C367.983 450.33 370.717 454.733 375.054 456.8C381.074 459.671 420.505 466.085 430.017 462.511C434.806 460.711 437.773 456.601 437.773 451.486V451.197C437.773 448.156 435.475 445.607 432.451 445.291L374.536 439.261Z" fill="url(#paint3_linear_9_735)"/>
<path opacity="0.3" d="M432.449 445.293L374.536 439.263C372.25 439.025 370.166 440.116 368.987 441.877C370.15 444.618 372.269 446.912 375.054 448.239C381.074 451.109 422.185 458.361 430.017 454.67C433.066 453.234 435.456 450.809 436.738 447.86C435.782 446.459 434.246 445.479 432.449 445.293Z" fill="url(#paint4_linear_9_735)"/>
<path d="M372.269 418.757C369.901 418.757 367.982 420.676 367.982 423.044V432.957C367.982 437.761 370.715 442.162 375.052 444.231C381.072 447.101 422.183 454.353 430.016 450.662C434.643 448.482 437.771 444.033 437.771 438.918V423.045C437.771 420.677 435.852 418.758 433.484 418.758H372.269V418.757Z" fill="url(#paint5_linear_9_735)"/>
<path d="M402.877 429.888C421.672 429.888 436.909 426.286 436.909 421.842C436.909 417.398 421.672 413.796 402.877 413.796C384.082 413.796 368.846 417.398 368.846 421.842C368.846 426.286 384.082 429.888 402.877 429.888Z" fill="url(#paint6_linear_9_735)"/>
<path d="M509.693 271.955C509.693 216.121 462.157 170.858 403.519 170.858C344.881 170.858 297.345 216.121 297.345 271.955C297.345 305.84 314.853 335.829 341.725 354.173C353.125 361.954 360.04 374.78 360.04 388.584V396.321C360.04 413.131 373.667 426.757 390.476 426.757H416.56C433.371 426.757 446.997 413.13 446.997 396.321V388.584C446.997 374.78 453.91 361.954 465.311 354.173C492.185 335.829 509.693 305.84 509.693 271.955Z" fill="url(#paint7_linear_9_735)"/>
<path opacity="0.5" d="M402.877 421.385C416.63 421.385 427.779 418.749 427.779 415.497C427.779 412.246 416.63 409.61 402.877 409.61C389.124 409.61 377.976 412.246 377.976 415.497C377.976 418.749 389.124 421.385 402.877 421.385Z" fill="#F4F7FA"/>
<path d="M396.387 419.095C395.674 419.095 395.055 418.566 394.962 417.84L376.643 275.377C376.542 274.588 377.099 273.867 377.887 273.766C378.678 273.66 379.397 274.222 379.498 275.009L397.817 417.472C397.918 418.261 397.361 418.981 396.573 419.083C396.511 419.093 396.449 419.095 396.387 419.095Z" fill="url(#paint8_linear_9_735)"/>
<path d="M407.765 419.095C407.704 419.095 407.643 419.093 407.58 419.084C406.791 418.983 406.235 418.262 406.336 417.474L424.655 275.011C424.756 274.222 425.477 273.661 426.265 273.768C427.054 273.869 427.611 274.589 427.51 275.378L409.191 417.841C409.098 418.566 408.479 419.095 407.765 419.095Z" fill="url(#paint9_linear_9_735)"/>
<path d="M422.686 275.261C422.219 275.261 421.759 275.034 421.483 274.615L416.427 266.945C416.374 266.866 416.294 266.821 416.222 266.829C416.096 266.832 416.044 266.922 416.026 266.95L412.689 272.542C412.135 273.467 411.165 274.037 410.095 274.064C409.03 274.098 408.024 273.57 407.424 272.67L402.84 265.799C402.79 265.725 402.723 265.686 402.642 265.685C402.545 265.703 402.5 265.719 402.45 265.79L398.423 271.611C397.843 272.452 396.889 272.955 395.873 272.958H395.868C394.852 272.958 393.897 272.458 393.312 271.618L387.507 263.303C387.454 263.227 387.38 263.201 387.302 263.194C387.219 263.197 387.154 263.24 387.108 263.318L381.81 272.465C381.411 273.153 380.531 273.386 379.844 272.989C379.156 272.59 378.921 271.71 379.32 271.023L384.618 261.876C385.156 260.946 386.114 260.365 387.181 260.32C388.239 260.266 389.251 260.775 389.866 261.657L395.671 269.972C395.721 270.043 395.788 270.081 395.868 270.081C395.946 270.081 396.01 270.046 396.058 269.976L400.085 264.155C400.675 263.304 401.644 262.799 402.668 262.81C403.699 262.818 404.66 263.341 405.237 264.205L409.82 271.077C409.871 271.154 409.949 271.219 410.025 271.189C410.15 271.186 410.203 271.098 410.22 271.07L413.558 265.478C414.113 264.548 415.087 263.979 416.16 263.956C417.224 263.932 418.235 264.459 418.833 265.364L423.889 273.035C424.326 273.698 424.142 274.591 423.479 275.028C423.233 275.186 422.958 275.261 422.686 275.261Z" fill="url(#paint10_linear_9_735)"/>
<path opacity="0.3" d="M404.792 350.604C407.053 311.873 472.347 302.809 472.066 268.221C471.894 246.917 445.949 231.097 440.408 227.929C399.584 204.579 349.335 231.542 338.958 212.459C336.374 207.707 337.585 202.536 338.276 199.59C339.318 195.139 341.679 190.991 345.182 187.199C316.379 205.143 297.345 236.124 297.345 271.344C297.345 305.024 314.747 334.832 341.457 353.065C352.788 360.8 359.661 373.548 359.661 387.268V394.958C359.661 411.667 373.206 425.211 389.913 425.211H415.84C432.547 425.211 446.092 411.666 446.092 394.958V388.81C442.524 391.545 438.425 393.452 433.931 393.415C418.339 393.287 403.668 369.877 404.792 350.604Z" fill="url(#paint11_linear_9_735)"/>
<path opacity="0.44" d="M496.581 275.896C501.16 314.125 458.216 364.008 405.216 364.008C356.337 364.008 314.012 323.607 313.851 275.896C313.711 234.196 346.444 194.669 382.13 190.624C405.689 187.952 424.754 201.392 446.117 216.45C468.599 232.298 493.459 249.822 496.581 275.896Z" fill="#F4F7FA"/>
<path d="M553.588 256.425C552.839 256.413 551.988 255.792 552.001 255.043L553.08 188.931C553.104 187.436 552.728 186.334 551.232 186.31L453.59 184.715C452.841 184.702 452.248 183.831 452.261 183.082C452.273 182.333 452.894 181.481 453.643 181.494L551.285 183.089C554.276 183.137 556.349 185.992 556.301 188.984L555.222 255.096C555.207 255.844 554.337 256.437 553.588 256.425Z" fill="url(#paint12_linear_9_735)"/>
<path d="M557.88 244.478L556.617 242.403C556.188 241.617 555.299 241.128 554.403 241.128C553.507 241.128 552.65 241.616 552.222 242.402L551.02 244.519C550.741 245.032 550.543 245.603 550.534 246.185L550.241 264.17C550.235 264.556 552.196 264.902 554.255 264.934C556.315 264.968 558.286 264.687 558.291 264.301L558.586 246.265C558.596 245.643 558.178 245.023 557.88 244.478Z" fill="url(#paint13_linear_9_735)"/>
<path d="M420.245 184.013C432.478 188.336 444.411 193.753 456.042 200.276L548.34 185.206L552.704 186.542L553.077 185.321L553.206 184.901L470.089 107L357.588 125.15L357.485 125.486L357.112 126.706L360.527 127.751L420.245 184.013Z" fill="url(#paint14_linear_9_735)"/>
<path d="M458.722 201.801L552.447 186.499L469.53 108.384L357.102 126.74L416.543 182.74C431.018 187.571 445.079 193.921 458.722 201.801Z" fill="url(#paint15_linear_9_735)"/>
<path d="M459.099 202.017C469.973 208.512 488.005 220.368 499.159 230.695L514.43 180.778C514.915 179.192 514.504 177.398 513.319 175.436C507.8 166.387 485.371 154.153 457.018 145.479C428.664 136.805 403.228 134.398 393.592 138.81C392.102 139.499 390.987 140.336 390.323 141.347C390.033 141.748 389.819 142.17 389.682 142.617L380.103 173.934C386.467 174.912 395.151 176.531 405.259 179.306C432.869 186.885 452.252 197.927 459.099 202.017Z" fill="url(#paint16_linear_9_735)"/>
<path opacity="0.3" d="M409.696 180.579C409.256 178.436 409.129 176.217 409.357 173.932C410.738 160.055 398.472 147.797 390.323 141.347C390.256 141.293 390.188 141.239 390.121 141.185L380.103 173.934C390.149 175.477 400.014 177.692 409.696 180.579Z" fill="url(#paint17_linear_9_735)"/>
<path d="M499.578 406.941V366.161H473.125V406.941C473.125 410.914 470.638 414.464 466.9 415.808C442.568 424.559 425.029 448.572 425.029 470.704C425.029 498.396 452.484 512.652 486.351 512.652C520.219 512.652 547.674 498.396 547.674 470.704C547.674 448.572 530.135 424.559 505.803 415.808C502.065 414.464 499.578 410.913 499.578 406.941Z" fill="url(#paint18_linear_9_735)"/>
<path d="M435.527 451.531C431.625 456.92 429.423 463.014 429.423 469.467C429.423 491.437 454.91 509.246 486.351 509.246C517.791 509.246 543.28 491.437 543.28 469.467C543.28 463.014 541.078 456.92 537.176 451.531H435.527Z" fill="url(#paint19_linear_9_735)"/>
<path d="M486.351 455.939C514.408 455.939 537.153 453.965 537.153 451.531C537.153 449.096 514.408 447.122 486.351 447.122C458.295 447.122 435.55 449.096 435.55 451.531C435.55 453.965 458.295 455.939 486.351 455.939Z" fill="url(#paint20_linear_9_735)"/>
<g opacity="0.3">
<path d="M491.662 494.415C484.814 494.393 470.675 494.344 459.8 483.795C453.217 477.409 445.013 464.443 448.978 453.735C454.993 437.49 484.23 439.355 486.253 425.88C487.173 419.752 481.233 418.664 479.84 408.045C478.305 396.337 484.744 391.686 484.65 380.99C484.616 377.149 483.736 372.13 480.343 366.161H473.127V406.941C473.127 410.914 470.639 414.464 466.902 415.808C442.57 424.559 425.031 448.572 425.031 470.704C425.031 498.396 452.485 512.652 486.353 512.652C520.22 512.652 547.675 498.396 547.675 470.704C547.675 469.122 547.582 467.532 547.407 465.937C537.903 476.557 518.045 494.505 491.662 494.415Z" fill="white"/>
</g>
<path d="M498.475 371.17H474.227C471.904 371.17 470.018 369.287 470.018 366.961C470.018 364.638 471.902 362.752 474.227 362.752H498.475C500.799 362.752 502.684 364.636 502.684 366.961C502.684 369.287 500.799 371.17 498.475 371.17Z" fill="url(#paint21_linear_9_735)"/>
<path d="M235.94 438.485L320.989 434.788L418.979 438.222L322.309 459.352L235.94 438.485Z" fill="url(#paint22_linear_9_735)"/>
<path d="M304.465 520.44L235.574 501.899C228.635 500.033 223.245 493.158 223.245 486.492V486.419C223.245 479.753 228.635 475.28 235.574 476.503L309.463 488.595L304.465 520.44Z" fill="url(#paint23_linear_9_735)"/>
<path d="M419.097 506.517L307.784 518.948C300.812 519.727 295.081 514.865 295.081 508.079V503.474C295.081 496.686 300.813 490.729 307.784 490.174L419.097 481.313C414.171 490.483 413.035 499.061 419.097 506.517Z" fill="url(#paint24_linear_9_735)"/>
<path d="M420.066 507.751L308.717 520.376C299.623 521.407 292.088 515.038 292.088 506.159V506.061C292.088 497.182 299.623 489.371 308.717 488.662L420.066 479.978C420.736 479.925 421.277 480.483 421.277 481.224C421.277 481.964 420.735 482.608 420.066 482.663L308.717 491.729C301.401 492.324 295.361 498.619 295.361 505.749V505.846C295.361 512.978 301.401 518.115 308.717 517.311L420.066 505.066C420.736 504.992 421.277 505.533 421.277 506.273C421.277 507.014 420.736 507.676 420.066 507.751Z" fill="url(#paint25_linear_9_735)"/>
<path d="M307.358 488.669L235.574 476.502C228.635 475.278 223.245 466.183 223.245 456.174V456.064C223.245 446.055 228.635 438.111 235.574 438.369L311.724 441.198L307.358 488.669Z" fill="url(#paint26_linear_9_735)"/>
<path d="M419.097 478.034L314.023 485.959C303.661 486.741 295.081 479.126 295.081 468.936V462.023C295.081 451.833 303.661 443.336 314.023 443.055L419.097 440.19C414.155 453.93 413.05 466.796 419.097 478.034Z" fill="url(#paint27_linear_9_735)"/>
<path d="M420.066 479.976L308.717 488.66C299.623 489.369 292.088 479.111 292.088 465.778V465.631C292.088 452.298 299.623 441.265 308.717 441.038L420.066 438.27C420.736 438.253 421.277 439.142 421.277 440.252C421.277 441.364 420.735 442.281 420.066 442.301L308.717 445.64C301.401 445.86 295.361 454.753 295.361 465.46V465.607C295.361 476.316 301.401 484.587 308.717 484.054L420.066 475.941C420.736 475.893 421.277 476.754 421.277 477.866C421.277 478.981 420.736 479.925 420.066 479.976Z" fill="url(#paint28_linear_9_735)"/>
<path opacity="0.5" d="M285.098 478.638L269.753 475.957C266.171 466.176 266.44 457.193 269.753 446.456L285.098 447.547C281.954 458.845 282.43 469.08 285.098 478.638Z" fill="white"/>
<path d="M453.466 496.611L500.865 484.756L503.235 496.271L459.844 516.299L425.485 507.811L404.759 487.461L453.466 496.611Z" fill="url(#paint29_linear_9_735)"/>
<path d="M453.466 496.611L500.865 484.756L503.235 496.271L459.844 516.299L425.485 507.811L404.759 487.461L453.466 496.611Z" fill="url(#paint30_linear_9_735)"/>
<path d="M451.976 512.551C461.396 507.501 468.354 502.356 473.077 498.468C482.369 490.817 486.632 485.047 496.039 482.766C497.721 482.358 507.299 480.036 510.39 484.289C513.812 488.999 507.16 498.846 506.351 500.042C494.332 517.832 463.727 517.002 454.127 516.425C453.409 515.134 452.693 513.842 451.976 512.551Z" fill="url(#paint31_linear_9_735)"/>
<path opacity="0.3" d="M510.389 484.29C509.486 483.047 508.022 482.377 506.369 482.045C506.919 483.949 506.969 485.736 506.283 487.296C504.404 491.562 498.843 490.248 494.937 495.254C491.101 500.171 493.757 504.911 490.365 506.938C486.478 509.263 481.66 503.833 477.497 506.43C474.666 508.195 475.546 511.547 472.247 513.372C469.967 514.634 467.732 514.037 465.135 513.711C462.158 513.337 458.08 513.257 452.961 514.326C453.35 515.026 453.737 515.726 454.126 516.425C463.725 517.002 494.331 517.832 506.349 500.042C507.158 498.848 513.812 488.999 510.389 484.29Z" fill="url(#paint32_linear_9_735)"/>
<path d="M459.098 515.209C459.098 515.209 460.823 513.972 463.329 514.815C465.834 515.658 469.812 516.338 469.805 517.564C469.799 518.789 465.82 519.555 463.069 519.052C460.439 518.569 458.37 516.284 459.098 515.209Z" fill="url(#paint33_linear_9_735)"/>
<path d="M456.569 513.119L461.179 514.601C461.179 514.601 461.928 515.849 460.917 516.64C459.906 517.432 456.395 515.759 456.395 515.759L456.569 513.119Z" fill="white"/>
<path d="M392.493 491.868C391.132 499.793 408.235 508.366 412.151 510.328C420.131 514.328 435.146 519.975 457.43 517.818C457.727 516.039 458.023 514.262 458.319 512.484C455.374 511.476 451.012 509.836 445.95 507.347C437.31 503.097 434.029 500.062 422.041 492.814C408.775 484.793 404.91 483.764 400.958 484.757C397.579 485.605 393.125 488.185 392.493 491.868Z" fill="url(#paint34_linear_9_735)"/>
<path d="M410.315 476.797C407.423 466.34 412.196 452.231 422.253 445.428C430.461 439.875 440.079 440.235 443.081 440.348C446.366 440.47 446.027 440.897 456.368 442.811C470.725 445.468 472.05 444.823 476.226 446.825C484.079 450.588 487.891 457.427 488.603 458.757C492.252 465.565 495.222 478.225 488.291 484.416C484.351 487.935 478.826 487.921 475.718 487.591C475.506 486.194 475.295 484.797 475.083 483.4C475.715 482.911 479.449 479.919 479.909 474.638C480.438 468.568 476.197 464.651 475.718 464.224C474.213 467.129 472.361 471.54 471.528 477.178C470.451 484.46 471.566 490.447 472.51 493.967C468.713 496.051 462.435 498.879 454.257 499.783C448.094 500.465 440.465 501.31 435.589 497.498C428.706 492.119 428.125 478.112 434.922 463.532C432.435 465.199 428.83 468.214 427.334 472.986C427.108 473.708 426.725 475.125 426.573 480.607C426.295 490.456 413.311 487.632 410.315 476.797Z" fill="url(#paint35_linear_9_735)"/>
<path opacity="0.3" d="M456.924 484.036C453.461 484.46 452.518 488.057 449.303 487.846C442.311 487.387 436.698 475.282 439.651 468.669C441.577 464.358 446.598 463.606 446.255 460.796C445.981 458.547 442.496 456.816 439.651 456.732C435.221 456.601 432.295 460.458 431.269 461.812C428.87 464.976 428.353 468.45 428.299 470.684C430.058 467.231 432.863 464.912 434.919 463.534C428.122 478.112 428.704 492.12 435.586 497.499C440.464 501.311 448.093 500.467 454.254 499.785C460.892 499.05 466.278 497.05 470.101 495.207C466.389 489.157 461.656 483.456 456.924 484.036Z" fill="url(#paint36_linear_9_735)"/>
<path d="M468.993 493.9L428.467 493.295L439.244 498.496L469.096 496.541L468.993 493.9Z" fill="url(#paint37_linear_9_735)"/>
<path d="M427.036 494.371C427.036 495.13 427.51 495.808 428.223 496.067L441.173 501.143L441.233 497.623L428.467 493.294C427.75 493.088 427.036 493.627 427.036 494.371Z" fill="#D8DEE8"/>
<path d="M412.275 469.83C415.401 466.87 423.074 468.734 425.936 472.988C428.044 476.119 426.299 478.695 427.841 482.64C429.731 487.473 436.854 491.841 441.233 493.296C440.548 494.771 440.749 495.154 440.064 496.63C437.279 496.282 417.146 493.198 412.22 481.244C411.963 480.618 408.92 473.004 412.275 469.83Z" fill="url(#paint38_linear_9_735)"/>
<path d="M457.974 438.622C457.974 438.622 454.697 442.166 451.977 442.535C449.256 442.904 445.325 442.182 444.647 442.535C443.969 442.888 448.064 444.344 451.311 445.236C454.558 446.127 460.453 447.905 462.083 447.517C463.714 447.127 460.302 445.036 458.951 444.483C457.6 443.929 459.533 441.082 459.533 441.082L457.974 438.622Z" fill="white"/>
<path d="M462.837 440.651C464.021 440.325 465.105 438.994 465.091 437.615C465.079 436.429 464.246 435.619 463.748 435.135C462.304 433.73 459.792 432.851 457.973 433.774C456.895 434.321 456.402 436.805 456.293 437.235C456.169 437.722 456.36 438.068 456.412 438.549C456.485 439.216 456.592 440.268 456.745 442.011C457.05 441.766 457.447 441.48 457.934 441.212C458.122 441.11 458.861 440.712 459.661 440.527C461.265 440.157 461.713 440.961 462.837 440.651Z" fill="url(#paint39_linear_9_735)"/>
<path d="M456.066 440.123C456.066 440.123 455.791 442.636 457.971 444.1C459.922 445.41 463.405 441.453 462.899 439.654C462.73 439.055 462.032 438.322 461.248 438.006C460.785 437.819 460.534 437.877 459.782 437.558C459.09 437.264 458.977 437.074 458.689 437.086C458.33 437.101 457.823 437.427 457.249 438.927C457.171 438.295 456.852 437.829 456.441 437.739C456.375 437.725 456.18 437.714 456.008 437.789C455.381 438.064 455.347 439.007 456.066 440.123Z" fill="white"/>
<path d="M458.797 436.771C458.836 436.906 458.303 437.03 457.919 437.487C457.171 438.376 457.252 440.194 458.128 441.018C458.646 441.505 459.061 441.286 460.063 441.903C460.684 442.284 461.105 442.726 461.356 443.022C460.872 444.253 459.824 445.047 458.792 444.994C457.68 444.937 456.989 443.919 456.7 443.495C456.506 443.21 455.885 442.3 456.038 441.204C456.197 440.062 457.009 439.926 456.904 438.991C456.851 438.518 456.597 438.137 456.666 437.355C456.684 437.143 456.721 436.97 456.75 436.857C457.62 436.718 458.742 436.575 458.797 436.771Z" fill="url(#paint40_linear_9_735)"/>
<path d="M460.393 442.876C460.393 442.876 459.831 442.777 459.167 442.203C459.135 442.175 459.09 442.156 459.072 442.17C459.005 442.224 459.223 442.861 459.721 443.062C460.076 443.204 460.514 443.103 460.529 443.003C460.536 442.961 460.467 442.913 460.393 442.876Z" fill="white"/>
<path d="M442.308 472.93L439.451 498.939C439.353 499.836 440.609 501.173 441.512 501.13L483.418 498.557C484.108 498.525 484.68 498.018 484.797 497.339L490.056 472.218C490.213 471.304 488.57 470.36 487.643 470.385L443.727 471.62C442.993 471.641 442.387 472.201 442.308 472.93Z" fill="#D8DEE8"/>
<path d="M443.265 473.687L440.408 499.698C440.31 500.595 441.036 501.368 441.938 501.325L484.374 499.316C485.063 499.284 485.635 498.777 485.752 498.098L490.088 472.861C490.244 471.947 489.525 471.117 488.598 471.144L444.683 472.379C443.951 472.4 443.344 472.958 443.265 473.687Z" fill="white"/>
<path d="M468.183 493.222C464.478 491.652 465.785 488.657 461.41 484.925C455.638 480.002 449.754 482.138 447.694 478.322C447.052 477.133 446.746 475.283 447.864 472.29L444.684 472.38C443.951 472.4 443.346 472.96 443.265 473.689L440.408 499.698C440.31 500.595 441.036 501.368 441.937 501.325L484.374 499.316C485.063 499.284 485.635 498.777 485.752 498.097L486.35 494.615C485.063 493.899 483.524 493.246 481.728 492.882C475.505 491.62 472.449 495.031 468.183 493.222Z" fill="url(#paint41_linear_9_735)"/>
<path d="M334.92 390.928C333.613 390.095 334.779 387.631 334.806 382.363C334.84 375.961 333.146 374.681 334.473 372.171C336.406 368.512 341.801 367.834 343.171 367.662C347.202 367.155 347.929 368.654 355.036 369.601C361.486 370.46 362.458 369.435 365.031 370.901C368.925 373.121 367.99 376.206 371.299 379.04C377.046 383.959 384.438 378.573 388.943 382.498C393.062 386.088 392.208 395.232 388.967 401.108C381.205 415.181 356.594 416.228 353.104 410.248C351.227 407.033 356.193 403.049 353.582 397.668C351.962 394.328 348.718 393.345 345.455 389.73C345.062 389.294 344.451 388.769 343.648 388.691C342.684 388.595 341.915 389.19 341.545 389.451C339.599 390.819 336.204 391.746 334.92 390.928Z" fill="url(#paint42_linear_9_735)"/>
<path d="M340.807 384.902C338.941 383.227 332.353 386.535 328.003 390.889C322.894 396.005 323.323 400.116 318.877 406.456C316.668 409.608 312.872 413.857 306.114 417.607C306.604 418.805 307.094 420.002 307.583 421.2C310.867 421.371 317.308 421.204 323.287 417.232C327.44 414.472 329.56 410.843 333.63 403.697C337.715 396.525 343.141 386.995 340.807 384.902Z" fill="url(#paint43_linear_9_735)"/>
<path d="M300.457 483.472L302.529 478.977C302.823 478.339 303.286 477.792 303.867 477.396L304.905 476.69C304.905 476.69 307.4 476.604 307.8 478.169C307.899 480.16 304.065 484.639 301.632 486.426C301.227 486.722 300.652 487.118 300.298 486.92C299.7 486.583 300.104 484.747 300.457 483.472Z" fill="url(#paint44_linear_9_735)"/>
<path d="M304.346 474.259C304.693 476.177 304.281 477.183 303.833 477.746C303.518 478.144 300.967 482.427 302.033 483.106C302.514 483.412 305.767 479.308 306.08 478.682C306.363 478.114 306.553 478.246 306.557 476.704C306.56 475.689 306.759 474.87 306.918 474.359C306.06 474.325 305.203 474.292 304.346 474.259Z" fill="url(#paint45_linear_9_735)"/>
<path d="M300.493 459.067C300.493 459.067 298.182 461.869 298.586 464.918C298.991 467.966 303.04 463.472 303.597 461.96C304.155 460.448 304.803 458.295 304.803 458.295C304.803 458.295 301.924 456.535 300.493 459.067Z" fill="url(#paint46_linear_9_735)"/>
<path d="M301.347 454.706C301.347 454.706 302.006 457.944 300.812 459.665C300.218 460.522 299.412 461.251 299.655 461.943C299.819 462.407 300.429 462.736 300.943 462.679C301.926 462.571 302.459 461.058 302.836 459.991C303.392 458.415 303.682 455.049 303.682 455.049L301.347 454.706Z" fill="url(#paint47_linear_9_735)"/>
<path d="M303.228 457.424C302.509 457.169 301.788 456.913 301.069 456.656C299.93 454.109 298.531 449.922 298.946 444.814C300.016 431.681 312.098 424.63 313.441 423.875C316.761 425.508 320.13 427.822 320.274 430.772C320.456 434.476 315.424 436.473 310.724 441.928C307.904 445.203 304.899 450.073 303.228 457.424Z" fill="url(#paint48_linear_9_735)"/>
<path d="M304.148 475.762C301.704 466.521 302.25 458.96 302.899 454.602C303.88 448.015 305.876 434.615 314.771 429.555C316.713 428.45 319.495 427.452 322.87 424.395C325.689 421.842 327.472 419.168 328.545 417.284C340.467 413.685 351.499 415.018 356.413 421.386C356.981 422.123 358.4 423.717 358.691 426.084C359.347 431.423 354.147 437.897 348.267 439.287C340.793 441.054 342.459 437.452 335.845 440.063C333.996 440.793 325.25 441.131 322.132 444.702C318.165 449.245 317.062 450.822 316.223 452.495C313.727 457.475 311.835 461.152 311.591 465.9C311.535 467.006 311.513 469.24 310.237 471.66C309.258 473.516 307.921 474.761 306.924 475.53C306 475.608 305.075 475.685 304.148 475.762Z" fill="url(#paint49_linear_9_735)"/>
<path opacity="0.3" d="M358.692 426.085C358.402 423.719 356.982 422.124 356.414 421.388C351.5 415.017 340.467 413.685 328.547 417.286C327.473 419.169 325.689 421.843 322.871 424.396C319.495 427.453 316.714 428.451 314.772 429.556C309.34 432.646 306.484 438.846 304.858 444.705C307.31 440.836 309.426 439.797 311.07 439.765C313.424 439.721 314.492 441.725 317.3 441.427C320.301 441.109 320.967 438.621 323.401 438.316C324.128 438.225 333.02 439.211 334.102 439.777C335.528 438.26 328.598 436.479 329.778 436.013C336.392 433.402 340.797 441.057 348.271 439.29C354.149 437.899 359.349 431.424 358.692 426.085Z" fill="url(#paint50_linear_9_735)"/>
<path d="M310.005 433.735C311.357 433.653 313.44 433.594 315.954 433.822C327.886 434.906 325.982 438.703 335.848 440.064C338.182 440.386 354.872 441.222 358.257 437.859C362.075 434.066 360.902 426.108 357.35 423.216C355.846 421.993 354.367 422.038 344.8 422.201C341.198 422.262 337.594 422.302 333.991 422.377C318.741 422.692 315.816 421.66 313.061 424.204C311.775 425.39 309.903 427.933 310.005 433.735Z" fill="url(#paint51_linear_9_735)"/>
<path d="M341.814 384.546C341.814 384.546 353.824 380.939 359.175 386.899C360.157 387.993 360.938 389.437 361.52 392.229C364.487 406.46 353.76 415.107 358.073 422.592C359.786 425.565 362.767 426.441 364.923 431.79C365.288 432.696 366.609 435.972 365.429 437.017C364.389 437.937 362.655 436.026 359.602 436.422C356.37 436.842 355.632 439.334 353.453 438.989C352.032 438.764 351.409 437.557 349.295 434.553C346.232 430.203 344.702 428.027 343.611 427.268C339.305 424.277 336.028 428.249 331.121 425.291C329.344 424.22 322.729 415.839 324.674 418.14C329.214 412.382 330.242 407.653 330.326 404.37C330.418 400.771 329.368 399.144 330.251 394.883C330.251 394.883 331.236 390.129 334.896 386.024C335.421 385.436 336.047 384.822 341.814 384.546Z" fill="url(#paint52_linear_9_735)"/>
<path d="M345.617 376.706C345.461 377.469 344.663 381.563 346.343 382.601C346.708 382.826 347.406 382.951 348.801 383.202C349.715 383.365 350.481 383.464 351.021 383.525C350.948 384.211 350.726 385.329 349.943 386.35C347.749 389.212 343.296 388.511 342.661 388.4C340.422 388.01 338.216 387.337 337.681 386.919C336.866 386.283 336.227 385.806 335.847 385.319C336.71 384.893 338.447 383.777 339.617 383.407C340.491 383.131 341.313 382.931 342.059 382.787C342.176 381.997 342.292 381.207 342.409 380.415C343.48 379.178 344.549 377.942 345.617 376.706Z" fill="url(#paint53_linear_9_735)"/>
<path d="M345.357 378.415C345.357 378.415 345.116 381.006 342.601 381.483C340.35 381.91 338.61 376.475 339.752 375.057C340.134 374.585 341.079 374.129 341.904 374.146C342.483 374.159 344.445 374.888 344.734 376.843C345.12 376.43 345.606 376.307 345.846 376.477C346.152 376.692 345.994 377.328 345.959 377.472C345.834 377.972 345.512 378.284 345.357 378.415Z" fill="url(#paint54_linear_9_735)"/>
<path opacity="0.15" d="M324.674 418.14C325.221 417.447 325.713 416.77 326.162 416.108C328.685 415.241 330.87 414.908 332.634 414.808C336.614 414.583 338.803 415.503 341.499 413.85C344.561 411.975 343.997 409.409 346.954 407.951C350.067 406.416 352.289 408.105 355.291 407.529C357.103 407.182 359.305 405.95 361.533 402.391C359.873 410.931 354.895 417.078 358.071 422.591C359.784 425.564 362.766 426.44 364.922 431.789C365.286 432.695 366.607 435.971 365.427 437.016C364.388 437.936 362.653 436.025 359.601 436.421C356.369 436.841 355.631 439.333 353.451 438.988C352.03 438.763 351.408 437.556 349.293 434.551C346.231 430.201 344.7 428.026 343.609 427.267C339.304 424.275 336.026 428.248 331.12 425.289C329.345 424.22 322.729 415.839 324.674 418.14Z" fill="url(#paint55_linear_9_735)"/>
<path d="M321.059 419.632L348.308 420.741C348.683 420.757 349.027 420.955 349.228 421.273L349.991 422.476C350.371 423.075 349.927 423.855 349.217 423.834L320.355 422.964L321.059 419.632Z" fill="url(#paint56_linear_9_735)"/>
<path d="M292.606 404.688L320.751 405.009C321.584 405.019 322.35 405.466 322.767 406.187L332.649 423.254L302.919 422.306C302.103 422.281 301.356 421.845 300.93 421.147L291.782 406.136C291.393 405.498 291.859 404.679 292.606 404.688Z" fill="url(#paint57_linear_9_735)"/>
<path d="M322.769 406.188C322.352 405.468 321.585 405.019 320.753 405.011L320.136 405.004C320.051 405.913 319.779 406.746 319.229 407.421C317.51 409.53 314.617 408.26 312.486 410.494C310.145 412.947 312.348 415.829 310.256 418.112C308.053 420.515 304.447 418.601 300.329 420.16L300.931 421.149C301.356 421.846 302.104 422.282 302.92 422.308L332.65 423.256L322.769 406.188Z" fill="url(#paint58_linear_9_735)"/>
<path d="M346.07 418.523C345.708 417.589 345.347 416.656 344.984 415.722C348.893 414.617 354.3 412.987 359.843 410.957C360.711 410.639 361.742 410.245 362.074 409.326C363.004 406.749 356.941 404.134 354.547 398.542C352.333 393.369 353.472 386.159 355.987 385.288C361.22 383.475 380.009 406.487 373.44 416.302C369.729 421.851 358.156 422.822 346.07 418.523Z" fill="url(#paint59_linear_9_735)"/>
<path d="M344.985 415.722C342.515 414.435 339.58 415.798 339.392 415.889C338.854 416.148 338.071 416.609 337.282 417.427C337.194 417.55 336.137 419.037 336.53 419.508C336.845 419.886 338.049 419.561 339.492 418.648C340.098 418.559 341.004 418.473 342.089 418.564C344.081 418.732 344.998 419.355 345.717 418.805C346.242 418.403 346.416 417.562 346.221 416.938C346.01 416.269 345.402 415.94 344.985 415.722Z" fill="url(#paint60_linear_9_735)"/>
<defs>
<linearGradient id="paint0_linear_9_735" x1="400.679" y1="487.6" x2="402.553" y2="472.606" gradientUnits="userSpaceOnUse">
<stop offset="0.003597" stop-color="#26264F"/>
<stop offset="1" stop-color="#444B8C"/>
</linearGradient>
<linearGradient id="paint1_linear_9_735" x1="392.97" y1="473.934" x2="411.713" y2="440.197" gradientUnits="userSpaceOnUse">
<stop offset="0.003597" stop-color="#26264F"/>
<stop offset="1" stop-color="#444B8C"/>
</linearGradient>
<linearGradient id="paint2_linear_9_735" x1="371.773" y1="457.946" x2="433.98" y2="457.946" gradientUnits="userSpaceOnUse">
<stop offset="0.003597" stop-color="#26264F"/>
<stop offset="1" stop-color="#444B8C"/>
</linearGradient>
<linearGradient id="paint3_linear_9_735" x1="394.754" y1="464.715" x2="413.263" y2="429.103" gradientUnits="userSpaceOnUse">
<stop offset="0.003597" stop-color="#26264F"/>
<stop offset="1" stop-color="#444B8C"/>
</linearGradient>
<linearGradient id="paint4_linear_9_735" x1="368.986" y1="447.462" x2="436.736" y2="447.462" gradientUnits="userSpaceOnUse">
<stop offset="0.003597" stop-color="#26264F"/>
<stop offset="1" stop-color="#444B8C"/>
</linearGradient>
<linearGradient id="paint5_linear_9_735" x1="367.983" y1="435.22" x2="437.771" y2="435.22" gradientUnits="userSpaceOnUse">
<stop offset="0.003597" stop-color="#26264F"/>
<stop offset="1" stop-color="#444B8C"/>
</linearGradient>
<linearGradient id="paint6_linear_9_735" x1="401.144" y1="429.956" x2="408.016" y2="397.781" gradientUnits="userSpaceOnUse">
<stop offset="0.003597" stop-color="#26264F"/>
<stop offset="1" stop-color="#444B8C"/>
</linearGradient>
<linearGradient id="paint7_linear_9_735" x1="388.497" y1="250.907" x2="525.673" y2="468.691" gradientUnits="userSpaceOnUse">
<stop stop-color="#FC9448"/>
<stop offset="0.0521" stop-color="#FD9346"/>
<stop offset="0.1424" stop-color="#FF9344"/>
<stop offset="0.3183" stop-color="#FF7C44"/>
<stop offset="0.4849" stop-color="#FD8846"/>
<stop offset="0.7754" stop-color="#F99C4D"/>
<stop offset="0.8658" stop-color="#F8924F"/>
<stop offset="1" stop-color="#F8924F"/>
</linearGradient>
<linearGradient id="paint8_linear_9_735" x1="363.037" y1="417.101" x2="390.839" y2="335.882" gradientUnits="userSpaceOnUse">
<stop offset="0.494" stop-color="#EBEFF2"/>
<stop offset="1" stop-color="white"/>
</linearGradient>
<linearGradient id="paint9_linear_9_735" x1="389.616" y1="426.199" x2="417.418" y2="344.98" gradientUnits="userSpaceOnUse">
<stop offset="0.494" stop-color="#EBEFF2"/>
<stop offset="1" stop-color="white"/>
</linearGradient>
<linearGradient id="paint10_linear_9_735" x1="353.356" y1="413.787" x2="381.158" y2="332.568" gradientUnits="userSpaceOnUse">
<stop offset="0.494" stop-color="#EBEFF2"/>
<stop offset="1" stop-color="white"/>
</linearGradient>
<linearGradient id="paint11_linear_9_735" x1="392.731" y1="201.629" x2="365.554" y2="425.606" gradientUnits="userSpaceOnUse">
<stop stop-color="#FC9448"/>
<stop offset="0.0521" stop-color="#FD9E46"/>
<stop offset="0.1424" stop-color="#FF9344"/>
<stop offset="0.3183" stop-color="#FF9344"/>
<stop offset="0.4849" stop-color="#FD9346"/>
<stop offset="0.7754" stop-color="#F87B6F"/>
<stop offset="0.8658" stop-color="#F46C5E"/>
<stop offset="1" stop-color="#FD6657"/>
</linearGradient>
<linearGradient id="paint12_linear_9_735" x1="564.598" y1="117.042" x2="441.151" y2="323.879" gradientUnits="userSpaceOnUse">
<stop stop-color="#FFC444"/>
<stop offset="0.9964" stop-color="#F36F56"/>
</linearGradient>
<linearGradient id="paint13_linear_9_735" x1="548.414" y1="303.756" x2="557.396" y2="231.02" gradientUnits="userSpaceOnUse">
<stop stop-color="#FFC444"/>
<stop offset="0.9964" stop-color="#F36F56"/>
</linearGradient>
<linearGradient id="paint14_linear_9_735" x1="443.306" y1="227.62" x2="459.898" y2="127.093" gradientUnits="userSpaceOnUse">
<stop stop-color="#AA80F9"/>
<stop offset="0.9964" stop-color="#6165D7"/>
</linearGradient>
<linearGradient id="paint15_linear_9_735" x1="491.455" y1="63.5306" x2="408.664" y2="273.636" gradientUnits="userSpaceOnUse">
<stop stop-color="#AA80F9"/>
<stop offset="0.9964" stop-color="#6165D7"/>
</linearGradient>
<linearGradient id="paint16_linear_9_735" x1="227.225" y1="814.999" x2="457.83" y2="147.856" gradientUnits="userSpaceOnUse">
<stop stop-color="#AA80F9"/>
<stop offset="0.9964" stop-color="#6165D7"/>
</linearGradient>
<linearGradient id="paint17_linear_9_735" x1="383.788" y1="207.515" x2="404.945" y2="146.307" gradientUnits="userSpaceOnUse">
<stop stop-color="#AA80F9"/>
<stop offset="0.9964" stop-color="#6165D7"/>
</linearGradient>
<linearGradient id="paint18_linear_9_735" x1="531.07" y1="368.895" x2="421.01" y2="617.013" gradientUnits="userSpaceOnUse">
<stop offset="0.00359712" stop-color="#E38DDD"/>
<stop offset="1" stop-color="#9571F6"/>
</linearGradient>
<linearGradient id="paint19_linear_9_735" x1="429.424" y1="480.388" x2="543.279" y2="480.388" gradientUnits="userSpaceOnUse">
<stop stop-color="#AA80F9"/>
<stop offset="0.9964" stop-color="#6165D7"/>
</linearGradient>
<linearGradient id="paint20_linear_9_735" x1="484.5" y1="454.008" x2="511.153" y2="418.337" gradientUnits="userSpaceOnUse">
<stop stop-color="#AA80F9"/>
<stop offset="0.9964" stop-color="#6165D7"/>
</linearGradient>
<linearGradient id="paint21_linear_9_735" x1="490.566" y1="357.461" x2="476.971" y2="388.11" gradientUnits="userSpaceOnUse">
<stop offset="0.00359712" stop-color="#E38DDD"/>
<stop offset="1" stop-color="#9571F6"/>
</linearGradient>
<linearGradient id="paint22_linear_9_735" x1="235.94" y1="447.07" x2="418.979" y2="447.07" gradientUnits="userSpaceOnUse">
<stop stop-color="#AA80F9"/>
<stop offset="0.9964" stop-color="#6165D7"/>
</linearGradient>
<linearGradient id="paint23_linear_9_735" x1="256.207" y1="519.638" x2="271.128" y2="485.7" gradientUnits="userSpaceOnUse">
<stop stop-color="#FFC444"/>
<stop offset="0.9964" stop-color="#F36F56"/>
</linearGradient>
<linearGradient id="paint24_linear_9_735" x1="295.08" y1="500.171" x2="419.097" y2="500.171" gradientUnits="userSpaceOnUse">
<stop stop-color="#FF9085"/>
<stop offset="1" stop-color="#FB6FBB"/>
</linearGradient>
<linearGradient id="paint25_linear_9_735" x1="292.087" y1="500.23" x2="421.278" y2="500.23" gradientUnits="userSpaceOnUse">
<stop stop-color="#FFC444"/>
<stop offset="0.9964" stop-color="#F36F56"/>
</linearGradient>
<linearGradient id="paint26_linear_9_735" x1="277.868" y1="428.129" x2="251.709" y2="516.241" gradientUnits="userSpaceOnUse">
<stop stop-color="#AA80F9"/>
<stop offset="0.9964" stop-color="#6165D7"/>
</linearGradient>
<linearGradient id="paint27_linear_9_735" x1="295.08" y1="463.102" x2="419.097" y2="463.102" gradientUnits="userSpaceOnUse">
<stop stop-color="#FF9085"/>
<stop offset="1" stop-color="#FB6FBB"/>
</linearGradient>
<linearGradient id="paint28_linear_9_735" x1="292.087" y1="463.485" x2="421.278" y2="463.485" gradientUnits="userSpaceOnUse">
<stop stop-color="#AA80F9"/>
<stop offset="0.9964" stop-color="#6165D7"/>
</linearGradient>
<linearGradient id="paint29_linear_9_735" x1="454.537" y1="481.21" x2="453.521" y2="501.275" gradientUnits="userSpaceOnUse">
<stop stop-color="#FF9085"/>
<stop offset="1" stop-color="#FB6FBB"/>
</linearGradient>
<linearGradient id="paint30_linear_9_735" x1="453.278" y1="506.068" x2="452.262" y2="526.134" gradientUnits="userSpaceOnUse">
<stop stop-color="#311944"/>
<stop offset="1" stop-color="#6B3976"/>
</linearGradient>
<linearGradient id="paint31_linear_9_735" x1="491.249" y1="422.18" x2="474.532" y2="558.646" gradientUnits="userSpaceOnUse">
<stop stop-color="#311944"/>
<stop offset="1" stop-color="#6B3976"/>
</linearGradient>
<linearGradient id="paint32_linear_9_735" x1="451.976" y1="499.348" x2="511.361" y2="499.348" gradientUnits="userSpaceOnUse">
<stop stop-color="#311944"/>
<stop offset="1" stop-color="#6B3976"/>
</linearGradient>
<linearGradient id="paint33_linear_9_735" x1="468.792" y1="522.317" x2="457.363" y2="508.094" gradientUnits="userSpaceOnUse">
<stop stop-color="#311944"/>
<stop offset="1" stop-color="#6B3976"/>
</linearGradient>
<linearGradient id="paint34_linear_9_735" x1="436.031" y1="415.416" x2="419.314" y2="551.882" gradientUnits="userSpaceOnUse">
<stop stop-color="#311944"/>
<stop offset="1" stop-color="#6B3976"/>
</linearGradient>
<linearGradient id="paint35_linear_9_735" x1="452.598" y1="404.532" x2="449.186" y2="546.456" gradientUnits="userSpaceOnUse">
<stop stop-color="#FFC444"/>
<stop offset="0.9964" stop-color="#F36F56"/>
</linearGradient>
<linearGradient id="paint36_linear_9_735" x1="428.299" y1="478.55" x2="470.104" y2="478.55" gradientUnits="userSpaceOnUse">
<stop stop-color="#FFC444"/>
<stop offset="0.9964" stop-color="#F36F56"/>
</linearGradient>
<linearGradient id="paint37_linear_9_735" x1="428.466" y1="495.895" x2="469.097" y2="495.895" gradientUnits="userSpaceOnUse">
<stop stop-color="#AA80F9"/>
<stop offset="0.9964" stop-color="#6165D7"/>
</linearGradient>
<linearGradient id="paint38_linear_9_735" x1="427.889" y1="403.938" x2="424.478" y2="545.863" gradientUnits="userSpaceOnUse">
<stop stop-color="#FFC444"/>
<stop offset="0.9964" stop-color="#F36F56"/>
</linearGradient>
<linearGradient id="paint39_linear_9_735" x1="449.267" y1="443.988" x2="463.118" y2="435.628" gradientUnits="userSpaceOnUse">
<stop stop-color="#311944"/>
<stop offset="1" stop-color="#6B3976"/>
</linearGradient>
<linearGradient id="paint40_linear_9_735" x1="450.268" y1="445.661" x2="464.133" y2="437.291" gradientUnits="userSpaceOnUse">
<stop stop-color="#311944"/>
<stop offset="1" stop-color="#6B3976"/>
</linearGradient>
<linearGradient id="paint41_linear_9_735" x1="440.399" y1="486.809" x2="486.352" y2="486.809" gradientUnits="userSpaceOnUse">
<stop offset="0.494" stop-color="#EBEFF2"/>
<stop offset="1" stop-color="white"/>
</linearGradient>
<linearGradient id="paint42_linear_9_735" x1="329.155" y1="368.626" x2="398.651" y2="415.033" gradientUnits="userSpaceOnUse">
<stop stop-color="#311944"/>
<stop offset="1" stop-color="#6B3976"/>
</linearGradient>
<linearGradient id="paint43_linear_9_735" x1="341.498" y1="402.715" x2="306" y2="402.995" gradientUnits="userSpaceOnUse">
<stop offset="0.00359712" stop-color="#E38DDD"/>
<stop offset="1" stop-color="#9571F6"/>
</linearGradient>
<linearGradient id="paint44_linear_9_735" x1="298.711" y1="484.665" x2="308.019" y2="478.327" gradientUnits="userSpaceOnUse">
<stop stop-color="#311944"/>
<stop offset="1" stop-color="#6B3976"/>
</linearGradient>
<linearGradient id="paint45_linear_9_735" x1="301.801" y1="487.138" x2="319.741" y2="431.865" gradientUnits="userSpaceOnUse">
<stop stop-color="#FFC444"/>
<stop offset="0.9964" stop-color="#F36F56"/>
</linearGradient>
<linearGradient id="paint46_linear_9_735" x1="298.519" y1="461.847" x2="304.83" y2="461.798" gradientUnits="userSpaceOnUse">
<stop stop-color="#311944"/>
<stop offset="1" stop-color="#6B3976"/>
</linearGradient>
<linearGradient id="paint47_linear_9_735" x1="294.998" y1="479.206" x2="305.059" y2="448.208" gradientUnits="userSpaceOnUse">
<stop stop-color="#FFC444"/>
<stop offset="0.9964" stop-color="#F36F56"/>
</linearGradient>
<linearGradient id="paint48_linear_9_735" x1="-425.871" y1="864.033" x2="-375.885" y2="835.208" gradientUnits="userSpaceOnUse">
<stop stop-color="#311944"/>
<stop offset="1" stop-color="#6B3976"/>
</linearGradient>
<linearGradient id="paint49_linear_9_735" x1="337.593" y1="410.641" x2="325.105" y2="465.755" gradientUnits="userSpaceOnUse">
<stop stop-color="#311944"/>
<stop offset="1" stop-color="#6B3976"/>
</linearGradient>
<linearGradient id="paint50_linear_9_735" x1="318.556" y1="479.599" x2="329.212" y2="444.922" gradientUnits="userSpaceOnUse">
<stop stop-color="#311944"/>
<stop offset="1" stop-color="#6B3976"/>
</linearGradient>
<linearGradient id="paint51_linear_9_735" x1="-423.601" y1="868.836" x2="-373.589" y2="839.996" gradientUnits="userSpaceOnUse">
<stop stop-color="#311944"/>
<stop offset="1" stop-color="#6B3976"/>
</linearGradient>
<linearGradient id="paint52_linear_9_735" x1="365.716" y1="411.131" x2="324.27" y2="411.459" gradientUnits="userSpaceOnUse">
<stop offset="0.00359712" stop-color="#E38DDD"/>
<stop offset="1" stop-color="#9571F6"/>
</linearGradient>
<linearGradient id="paint53_linear_9_735" x1="345.459" y1="393.275" x2="340.805" y2="372.924" gradientUnits="userSpaceOnUse">
<stop stop-color="#FFC444"/>
<stop offset="0.9964" stop-color="#F36F56"/>
</linearGradient>
<linearGradient id="paint54_linear_9_735" x1="342.379" y1="375.295" x2="347.013" y2="398.189" gradientUnits="userSpaceOnUse">
<stop stop-color="#FFC444"/>
<stop offset="0.9964" stop-color="#F36F56"/>
</linearGradient>
<linearGradient id="paint55_linear_9_735" x1="365.791" y1="420.642" x2="324.345" y2="420.97" gradientUnits="userSpaceOnUse">
<stop stop-color="#AA80F9"/>
<stop offset="0.9964" stop-color="#6165D7"/>
</linearGradient>
<linearGradient id="paint56_linear_9_735" x1="320.346" y1="421.85" x2="350.119" y2="421.615" gradientUnits="userSpaceOnUse">
<stop stop-color="#444B8C"/>
<stop offset="0.9964" stop-color="#3E4177"/>
</linearGradient>
<linearGradient id="paint57_linear_9_735" x1="291.708" y1="414.137" x2="332.575" y2="413.814" gradientUnits="userSpaceOnUse">
<stop stop-color="#444B8C"/>
<stop offset="0.9964" stop-color="#3E4177"/>
</linearGradient>
<linearGradient id="paint58_linear_9_735" x1="300.282" y1="414.336" x2="332.577" y2="414.08" gradientUnits="userSpaceOnUse">
<stop stop-color="#444B8C"/>
<stop offset="0.9964" stop-color="#3E4177"/>
</linearGradient>
<linearGradient id="paint59_linear_9_735" x1="374.753" y1="403.067" x2="344.886" y2="403.303" gradientUnits="userSpaceOnUse">
<stop offset="0.00359712" stop-color="#E38DDD"/>
<stop offset="1" stop-color="#9571F6"/>
</linearGradient>
<linearGradient id="paint60_linear_9_735" x1="338.945" y1="415.832" x2="348.916" y2="425.08" gradientUnits="userSpaceOnUse">
<stop stop-color="#FFC444"/>
<stop offset="0.9964" stop-color="#F36F56"/>
</linearGradient>
</defs>
</svg>
