<svg width="770" height="595" viewBox="0 0 770 595" fill="none" xmlns="http://www.w3.org/2000/svg">
<circle cx="361" cy="306" r="289" fill="#FBF8FD"/>
<path d="M0 496C0 468.386 22.3858 446 50 446H160.747V471.321C160.747 498.936 138.361 521.321 110.747 521.321H0V496Z" fill="#9277EE"/>
<path d="M3.67419 502.43C3.67419 474.816 26.06 452.43 53.6742 452.43H164.421V477.751C164.421 505.365 142.035 527.751 114.421 527.751H3.67419V502.43Z" fill="#6466D9"/>
<path d="M45.1715 485.605L47.1315 484.418L45.1715 483.284V478.916L52.6598 483.935C52.8883 484.058 53.0026 484.283 53.0026 484.611C53.0026 484.934 52.8883 485.177 52.6598 485.341L45.1715 490.579V485.605ZM60.2887 486.527C61.777 487.524 63.4557 488.022 65.3248 488.022C65.8405 488.022 66.2418 487.907 66.5289 487.679C66.8219 487.45 66.9684 487.19 66.9684 486.897C66.9684 486.604 66.9186 486.372 66.819 486.202C66.7194 486.026 66.5846 485.877 66.4147 485.754C65.8756 485.356 65.0553 485.156 63.9537 485.156C63.526 485.156 63.2418 485.168 63.1012 485.192L62.0377 483.337C62.0377 483.237 62.8346 482.657 64.4283 481.597H59.1198V477.765H72.6725V479.347L68.1549 482.783C71.3717 483.176 72.9801 484.647 72.9801 487.195C72.9742 488.438 72.5905 489.451 71.8287 490.236C70.61 491.496 68.5768 492.126 65.7291 492.126C63.6432 492.132 61.7565 491.772 60.069 491.045C59.4069 490.764 58.7858 490.392 58.2057 489.929L60.2887 486.527ZM81.6813 492.126C80.6149 492.126 79.6393 491.942 78.7545 491.572C77.8756 491.197 77.1198 490.679 76.4869 490.017C75.151 488.616 74.483 486.832 74.483 484.664C74.483 482.49 75.1364 480.733 76.443 479.391C77.7555 478.043 79.5016 477.369 81.6813 477.369C83.861 477.369 85.6041 478.043 86.9108 479.391C88.2233 480.733 88.8795 482.505 88.8795 484.708C88.8795 485.775 88.7037 486.762 88.3522 487.67C88.0006 488.572 87.5084 489.355 86.8756 490.017C86.2428 490.679 85.484 491.197 84.5992 491.572C83.7203 491.942 82.7477 492.126 81.6813 492.126ZM80.1168 484.981C80.1168 486.861 80.6383 487.802 81.6813 487.802C82.7242 487.802 83.2457 486.861 83.2457 484.981C83.2457 484.067 83.193 483.425 83.0875 483.056C82.9879 482.687 82.8795 482.411 82.7623 482.23C82.5104 481.831 82.15 481.632 81.6813 481.632C80.6852 481.638 80.1666 482.531 80.1256 484.313C80.1198 484.559 80.1168 484.781 80.1168 484.981ZM97.4313 492.126C96.3649 492.126 95.3893 491.942 94.5045 491.572C93.6256 491.197 92.8698 490.679 92.2369 490.017C90.901 488.616 90.233 486.832 90.233 484.664C90.233 482.49 90.8864 480.733 92.193 479.391C93.5055 478.043 95.2516 477.369 97.4313 477.369C99.611 477.369 101.354 478.043 102.661 479.391C103.973 480.733 104.63 482.505 104.63 484.708C104.63 485.775 104.454 486.762 104.102 487.67C103.751 488.572 103.258 489.355 102.626 490.017C101.993 490.679 101.234 491.197 100.349 491.572C99.4703 491.942 98.4977 492.126 97.4313 492.126ZM95.8668 484.981C95.8668 486.861 96.3883 487.802 97.4313 487.802C98.4742 487.802 98.9957 486.861 98.9957 484.981C98.9957 484.067 98.943 483.425 98.8375 483.056C98.7379 482.687 98.6295 482.411 98.5123 482.23C98.2604 481.831 97.9 481.632 97.4313 481.632C96.4352 481.638 95.9166 482.531 95.8756 484.313C95.8698 484.559 95.8668 484.781 95.8668 484.981ZM113.181 492.126C112.115 492.126 111.139 491.942 110.255 491.572C109.376 491.197 108.62 490.679 107.987 490.017C106.651 488.616 105.983 486.832 105.983 484.664C105.983 482.49 106.636 480.733 107.943 479.391C109.255 478.043 111.002 477.369 113.181 477.369C115.361 477.369 117.104 478.043 118.411 479.391C119.723 480.733 120.38 482.505 120.38 484.708C120.38 485.775 120.204 486.762 119.852 487.67C119.501 488.572 119.008 489.355 118.376 490.017C117.743 490.679 116.984 491.197 116.099 491.572C115.22 491.942 114.248 492.126 113.181 492.126ZM111.617 484.981C111.617 486.861 112.138 487.802 113.181 487.802C114.224 487.802 114.746 486.861 114.746 484.981C114.746 484.067 114.693 483.425 114.588 483.056C114.488 482.687 114.38 482.411 114.262 482.23C114.01 481.831 113.65 481.632 113.181 481.632C112.185 481.638 111.667 482.531 111.626 484.313C111.62 484.559 111.617 484.781 111.617 484.981Z" fill="white"/>
<path d="M87.1511 507.596C86.2991 507.596 85.5371 507.422 84.8651 507.074C84.2051 506.726 83.6831 506.186 83.2991 505.454C82.9271 504.722 82.7411 503.786 82.7411 502.646C82.7411 501.458 82.9391 500.492 83.3351 499.748C83.7311 499.004 84.2651 498.458 84.9371 498.11C85.6211 497.762 86.3951 497.588 87.2591 497.588C87.7511 497.588 88.2251 497.642 88.6811 497.75C89.1371 497.846 89.5091 497.966 89.7971 498.11L89.3111 499.424C89.0231 499.316 88.6871 499.214 88.3031 499.118C87.9191 499.022 87.5591 498.974 87.2231 498.974C86.5751 498.974 86.0411 499.112 85.6211 499.388C85.2011 499.664 84.8891 500.072 84.6851 500.612C84.4811 501.152 84.3791 501.824 84.3791 502.628C84.3791 503.396 84.4811 504.05 84.6851 504.59C84.8891 505.13 85.1951 505.538 85.6031 505.814C86.0111 506.09 86.5211 506.228 87.1331 506.228C87.6611 506.228 88.1231 506.174 88.5191 506.066C88.9271 505.958 89.2991 505.826 89.6351 505.67V507.074C89.3111 507.242 88.9511 507.368 88.5551 507.452C88.1711 507.548 87.7031 507.596 87.1511 507.596ZM99.2735 507.416H97.6715V499.082H94.8275C94.7075 500.606 94.5575 501.908 94.3775 502.988C94.1975 504.056 93.9695 504.926 93.6935 505.598C93.4175 506.27 93.0875 506.762 92.7035 507.074C92.3195 507.386 91.8695 507.542 91.3535 507.542C91.1975 507.542 91.0415 507.53 90.8855 507.506C90.7415 507.494 90.6215 507.464 90.5255 507.416V506.228C90.5975 506.252 90.6755 506.27 90.7595 506.282C90.8435 506.294 90.9275 506.3 91.0115 506.3C91.2755 506.3 91.5155 506.192 91.7315 505.976C91.9475 505.76 92.1395 505.43 92.3075 504.986C92.4875 504.542 92.6495 503.984 92.7935 503.312C92.9375 502.628 93.0635 501.824 93.1715 500.9C93.2795 499.976 93.3755 498.932 93.4595 497.768H99.2735V507.416ZM110.724 502.574C110.724 503.378 110.616 504.092 110.4 504.716C110.196 505.328 109.896 505.85 109.5 506.282C109.116 506.714 108.642 507.044 108.078 507.272C107.526 507.488 106.908 507.596 106.224 507.596C105.588 507.596 105 507.488 104.46 507.272C103.92 507.044 103.452 506.714 103.056 506.282C102.66 505.85 102.348 505.328 102.12 504.716C101.904 504.092 101.796 503.378 101.796 502.574C101.796 501.506 101.976 500.606 102.336 499.874C102.696 499.13 103.212 498.566 103.884 498.182C104.556 497.786 105.354 497.588 106.278 497.588C107.154 497.588 107.922 497.786 108.582 498.182C109.254 498.566 109.776 499.13 110.148 499.874C110.532 500.606 110.724 501.506 110.724 502.574ZM103.434 502.574C103.434 503.33 103.53 503.99 103.722 504.554C103.926 505.106 104.238 505.532 104.658 505.832C105.078 506.132 105.612 506.282 106.26 506.282C106.908 506.282 107.442 506.132 107.862 505.832C108.282 505.532 108.588 505.106 108.78 504.554C108.984 503.99 109.086 503.33 109.086 502.574C109.086 501.806 108.984 501.152 108.78 500.612C108.576 500.072 108.264 499.658 107.844 499.37C107.436 499.07 106.902 498.92 106.242 498.92C105.258 498.92 104.544 499.244 104.1 499.892C103.656 500.54 103.434 501.434 103.434 502.574ZM120.992 500.198C120.992 500.798 120.812 501.266 120.452 501.602C120.092 501.938 119.63 502.166 119.066 502.286V502.358C119.666 502.442 120.188 502.658 120.632 503.006C121.076 503.342 121.298 503.87 121.298 504.59C121.298 504.998 121.22 505.376 121.064 505.724C120.92 506.072 120.692 506.372 120.38 506.624C120.068 506.876 119.666 507.074 119.174 507.218C118.682 507.35 118.088 507.416 117.392 507.416H113.234V497.768H117.374C118.058 497.768 118.67 497.846 119.21 498.002C119.762 498.146 120.194 498.398 120.506 498.758C120.83 499.106 120.992 499.586 120.992 500.198ZM119.66 504.59C119.66 504.038 119.45 503.642 119.03 503.402C118.61 503.162 117.992 503.042 117.176 503.042H114.818V506.138H117.212C118.004 506.138 118.61 506.024 119.03 505.796C119.45 505.556 119.66 505.154 119.66 504.59ZM119.39 500.396C119.39 499.94 119.222 499.61 118.886 499.406C118.562 499.19 118.028 499.082 117.284 499.082H114.818V501.728H116.996C117.776 501.728 118.37 501.62 118.778 501.404C119.186 501.188 119.39 500.852 119.39 500.396Z" fill="white"/>
<path d="M516 546C516 518.386 538.386 496 566 496H676.747V521.321C676.747 548.936 654.361 571.321 626.747 571.321H516V546Z" fill="#9277EE"/>
<path d="M519.674 552.43C519.674 524.816 542.06 502.43 569.674 502.43H680.421V527.751C680.421 555.365 658.035 577.751 630.421 577.751H519.674V552.43Z" fill="#6466D9"/>
<path d="M534.28 537.208V524.356H543.928V537.208H542.326V525.778H535.9V537.208H534.28ZM550.956 527.38C551.784 527.38 552.492 527.56 553.08 527.92C553.68 528.28 554.136 528.79 554.448 529.45C554.772 530.098 554.934 530.86 554.934 531.736V532.69H548.328C548.352 533.782 548.628 534.616 549.156 535.192C549.696 535.756 550.446 536.038 551.406 536.038C552.018 536.038 552.558 535.984 553.026 535.876C553.506 535.756 553.998 535.588 554.502 535.372V536.758C554.01 536.974 553.524 537.13 553.044 537.226C552.564 537.334 551.994 537.388 551.334 537.388C550.422 537.388 549.612 537.202 548.904 536.83C548.208 536.458 547.662 535.906 547.266 535.174C546.882 534.43 546.69 533.524 546.69 532.456C546.69 531.4 546.864 530.494 547.212 529.738C547.572 528.982 548.07 528.4 548.706 527.992C549.354 527.584 550.104 527.38 550.956 527.38ZM550.938 528.676C550.182 528.676 549.582 528.922 549.138 529.414C548.706 529.894 548.448 530.566 548.364 531.43H553.278C553.278 530.878 553.194 530.398 553.026 529.99C552.858 529.582 552.6 529.264 552.252 529.036C551.916 528.796 551.478 528.676 550.938 528.676ZM561.98 527.38C563.168 527.38 564.122 527.794 564.842 528.622C565.574 529.45 565.94 530.698 565.94 532.366C565.94 533.458 565.772 534.382 565.436 535.138C565.112 535.882 564.65 536.446 564.05 536.83C563.462 537.202 562.766 537.388 561.962 537.388C561.47 537.388 561.032 537.322 560.648 537.19C560.264 537.058 559.934 536.89 559.658 536.686C559.394 536.47 559.166 536.236 558.974 535.984H558.866C558.89 536.188 558.914 536.446 558.938 536.758C558.962 537.07 558.974 537.34 558.974 537.568V541.528H557.39V527.56H558.686L558.902 528.874H558.974C559.166 528.598 559.394 528.346 559.658 528.118C559.934 527.89 560.258 527.71 560.63 527.578C561.014 527.446 561.464 527.38 561.98 527.38ZM561.692 528.712C561.044 528.712 560.522 528.838 560.126 529.09C559.73 529.33 559.442 529.696 559.262 530.188C559.082 530.68 558.986 531.304 558.974 532.06V532.366C558.974 533.158 559.058 533.83 559.226 534.382C559.394 534.934 559.676 535.354 560.072 535.642C560.48 535.93 561.032 536.074 561.728 536.074C562.316 536.074 562.796 535.912 563.168 535.588C563.552 535.264 563.834 534.826 564.014 534.274C564.206 533.71 564.302 533.068 564.302 532.348C564.302 531.244 564.086 530.362 563.654 529.702C563.234 529.042 562.58 528.712 561.692 528.712ZM572.334 537.388C571.482 537.388 570.72 537.214 570.048 536.866C569.388 536.518 568.866 535.978 568.482 535.246C568.11 534.514 567.924 533.578 567.924 532.438C567.924 531.25 568.122 530.284 568.518 529.54C568.914 528.796 569.448 528.25 570.12 527.902C570.804 527.554 571.578 527.38 572.442 527.38C572.934 527.38 573.408 527.434 573.864 527.542C574.32 527.638 574.692 527.758 574.98 527.902L574.494 529.216C574.206 529.108 573.87 529.006 573.486 528.91C573.102 528.814 572.742 528.766 572.406 528.766C571.758 528.766 571.224 528.904 570.804 529.18C570.384 529.456 570.072 529.864 569.868 530.404C569.664 530.944 569.562 531.616 569.562 532.42C569.562 533.188 569.664 533.842 569.868 534.382C570.072 534.922 570.378 535.33 570.786 535.606C571.194 535.882 571.704 536.02 572.316 536.02C572.844 536.02 573.306 535.966 573.702 535.858C574.11 535.75 574.482 535.618 574.818 535.462V536.866C574.494 537.034 574.134 537.16 573.738 537.244C573.354 537.34 572.886 537.388 572.334 537.388ZM585.501 532.366C585.501 533.17 585.393 533.884 585.177 534.508C584.973 535.12 584.673 535.642 584.277 536.074C583.893 536.506 583.419 536.836 582.855 537.064C582.303 537.28 581.685 537.388 581.001 537.388C580.365 537.388 579.777 537.28 579.237 537.064C578.697 536.836 578.229 536.506 577.833 536.074C577.437 535.642 577.125 535.12 576.897 534.508C576.681 533.884 576.573 533.17 576.573 532.366C576.573 531.298 576.753 530.398 577.113 529.666C577.473 528.922 577.989 528.358 578.661 527.974C579.333 527.578 580.131 527.38 581.055 527.38C581.931 527.38 582.699 527.578 583.359 527.974C584.031 528.358 584.553 528.922 584.925 529.666C585.309 530.398 585.501 531.298 585.501 532.366ZM578.211 532.366C578.211 533.122 578.307 533.782 578.499 534.346C578.703 534.898 579.015 535.324 579.435 535.624C579.855 535.924 580.389 536.074 581.037 536.074C581.685 536.074 582.219 535.924 582.639 535.624C583.059 535.324 583.365 534.898 583.557 534.346C583.761 533.782 583.863 533.122 583.863 532.366C583.863 531.598 583.761 530.944 583.557 530.404C583.353 529.864 583.041 529.45 582.621 529.162C582.213 528.862 581.679 528.712 581.019 528.712C580.035 528.712 579.321 529.036 578.877 529.684C578.433 530.332 578.211 531.226 578.211 532.366ZM589.595 527.56V531.574H594.833V527.56H596.417V537.208H594.833V532.906H589.595V537.208H588.011V527.56H589.595ZM603.126 527.398C604.302 527.398 605.172 527.656 605.736 528.172C606.3 528.688 606.582 529.51 606.582 530.638V537.208H605.43L605.124 535.84H605.052C604.776 536.188 604.488 536.482 604.188 536.722C603.9 536.95 603.564 537.118 603.18 537.226C602.808 537.334 602.352 537.388 601.812 537.388C601.236 537.388 600.714 537.286 600.246 537.082C599.79 536.878 599.43 536.566 599.166 536.146C598.902 535.714 598.77 535.174 598.77 534.526C598.77 533.566 599.148 532.828 599.904 532.312C600.66 531.784 601.824 531.496 603.396 531.448L605.034 531.394V530.818C605.034 530.014 604.86 529.456 604.512 529.144C604.164 528.832 603.672 528.676 603.036 528.676C602.532 528.676 602.052 528.754 601.596 528.91C601.14 529.054 600.714 529.222 600.318 529.414L599.832 528.226C600.252 527.998 600.75 527.806 601.326 527.65C601.902 527.482 602.502 527.398 603.126 527.398ZM603.594 532.546C602.394 532.594 601.56 532.786 601.092 533.122C600.636 533.458 600.408 533.932 600.408 534.544C600.408 535.084 600.57 535.48 600.894 535.732C601.23 535.984 601.656 536.11 602.172 536.11C602.988 536.11 603.666 535.888 604.206 535.444C604.746 534.988 605.016 534.292 605.016 533.356V532.492L603.594 532.546ZM616.906 537.208H615.304V528.874H612.46C612.34 530.398 612.19 531.7 612.01 532.78C611.83 533.848 611.602 534.718 611.326 535.39C611.05 536.062 610.72 536.554 610.336 536.866C609.952 537.178 609.502 537.334 608.986 537.334C608.83 537.334 608.674 537.322 608.518 537.298C608.374 537.286 608.254 537.256 608.158 537.208V536.02C608.23 536.044 608.308 536.062 608.392 536.074C608.476 536.086 608.56 536.092 608.644 536.092C608.908 536.092 609.148 535.984 609.364 535.768C609.58 535.552 609.772 535.222 609.94 534.778C610.12 534.334 610.282 533.776 610.426 533.104C610.57 532.42 610.696 531.616 610.804 530.692C610.912 529.768 611.008 528.724 611.092 527.56H616.906V537.208ZM624.414 531.52C625.254 531.52 625.95 531.622 626.502 531.826C627.054 532.03 627.468 532.336 627.744 532.744C628.032 533.14 628.176 533.644 628.176 534.256C628.176 534.856 628.038 535.378 627.762 535.822C627.498 536.266 627.084 536.608 626.52 536.848C625.956 537.088 625.23 537.208 624.342 537.208H619.968V527.56H621.552V531.52H624.414ZM626.592 534.346C626.592 533.758 626.382 533.362 625.962 533.158C625.554 532.942 624.978 532.834 624.234 532.834H621.552V535.93H624.27C624.942 535.93 625.494 535.81 625.926 535.57C626.37 535.33 626.592 534.922 626.592 534.346ZM632.24 527.56V531.574H637.478V527.56H639.062V537.208H637.478V532.906H632.24V537.208H630.656V527.56H632.24ZM645.771 527.398C646.947 527.398 647.817 527.656 648.381 528.172C648.945 528.688 649.227 529.51 649.227 530.638V537.208H648.075L647.769 535.84H647.697C647.421 536.188 647.133 536.482 646.833 536.722C646.545 536.95 646.209 537.118 645.825 537.226C645.453 537.334 644.997 537.388 644.457 537.388C643.881 537.388 643.359 537.286 642.891 537.082C642.435 536.878 642.075 536.566 641.811 536.146C641.547 535.714 641.415 535.174 641.415 534.526C641.415 533.566 641.793 532.828 642.549 532.312C643.305 531.784 644.469 531.496 646.041 531.448L647.679 531.394V530.818C647.679 530.014 647.505 529.456 647.157 529.144C646.809 528.832 646.317 528.676 645.681 528.676C645.177 528.676 644.697 528.754 644.241 528.91C643.785 529.054 643.359 529.222 642.963 529.414L642.477 528.226C642.897 527.998 643.395 527.806 643.971 527.65C644.547 527.482 645.147 527.398 645.771 527.398ZM646.239 532.546C645.039 532.594 644.205 532.786 643.737 533.122C643.281 533.458 643.053 533.932 643.053 534.544C643.053 535.084 643.215 535.48 643.539 535.732C643.875 535.984 644.301 536.11 644.817 536.11C645.633 536.11 646.311 535.888 646.851 535.444C647.391 534.988 647.661 534.292 647.661 533.356V532.492L646.239 532.546ZM652.801 537.208H650.965L653.719 533.158C653.347 533.062 652.987 532.912 652.639 532.708C652.291 532.492 652.009 532.198 651.793 531.826C651.577 531.442 651.469 530.968 651.469 530.404C651.469 529.48 651.781 528.778 652.405 528.298C653.029 527.806 653.857 527.56 654.889 527.56H659.209V537.208H657.625V533.374H655.285L652.801 537.208ZM652.999 530.422C652.999 530.974 653.203 531.388 653.611 531.664C654.031 531.928 654.613 532.06 655.357 532.06H657.625V528.874H655.051C654.319 528.874 653.791 529.018 653.467 529.306C653.155 529.594 652.999 529.966 652.999 530.422Z" fill="white"/>
<path d="M571.21 557.343C570.358 557.343 569.596 557.169 568.924 556.821C568.264 556.473 567.742 555.933 567.358 555.201C566.986 554.469 566.8 553.533 566.8 552.393C566.8 551.205 566.998 550.239 567.394 549.495C567.79 548.751 568.324 548.205 568.996 547.857C569.68 547.509 570.454 547.335 571.318 547.335C571.81 547.335 572.284 547.389 572.74 547.497C573.196 547.593 573.568 547.713 573.856 547.857L573.37 549.171C573.082 549.063 572.746 548.961 572.362 548.865C571.978 548.769 571.618 548.721 571.282 548.721C570.634 548.721 570.1 548.859 569.68 549.135C569.26 549.411 568.948 549.819 568.744 550.359C568.54 550.899 568.438 551.571 568.438 552.375C568.438 553.143 568.54 553.797 568.744 554.337C568.948 554.877 569.254 555.285 569.662 555.561C570.07 555.837 570.58 555.975 571.192 555.975C571.72 555.975 572.182 555.921 572.578 555.813C572.986 555.705 573.358 555.573 573.694 555.417V556.821C573.37 556.989 573.01 557.115 572.614 557.199C572.23 557.295 571.762 557.343 571.21 557.343ZM582.648 548.847H579.498V557.163H577.932V548.847H574.818V547.515H582.648V548.847ZM588.203 547.353C589.379 547.353 590.249 547.611 590.813 548.127C591.377 548.643 591.659 549.465 591.659 550.593V557.163H590.507L590.201 555.795H590.129C589.853 556.143 589.565 556.437 589.265 556.677C588.977 556.905 588.641 557.073 588.257 557.181C587.885 557.289 587.429 557.343 586.889 557.343C586.313 557.343 585.791 557.241 585.323 557.037C584.867 556.833 584.507 556.521 584.243 556.101C583.979 555.669 583.847 555.129 583.847 554.481C583.847 553.521 584.225 552.783 584.981 552.267C585.737 551.739 586.901 551.451 588.473 551.403L590.111 551.349V550.773C590.111 549.969 589.937 549.411 589.589 549.099C589.241 548.787 588.749 548.631 588.113 548.631C587.609 548.631 587.129 548.709 586.673 548.865C586.217 549.009 585.791 549.177 585.395 549.369L584.909 548.181C585.329 547.953 585.827 547.761 586.403 547.605C586.979 547.437 587.579 547.353 588.203 547.353ZM588.671 552.501C587.471 552.549 586.637 552.741 586.169 553.077C585.713 553.413 585.485 553.887 585.485 554.499C585.485 555.039 585.647 555.435 585.971 555.687C586.307 555.939 586.733 556.065 587.249 556.065C588.065 556.065 588.743 555.843 589.283 555.399C589.823 554.943 590.093 554.247 590.093 553.311V552.447L588.671 552.501ZM601.299 548.847H598.149V557.163H596.583V548.847H593.469V547.515H601.299V548.847ZM604.693 553.401C604.693 553.509 604.687 553.665 604.675 553.869C604.675 554.061 604.669 554.271 604.657 554.499C604.645 554.715 604.633 554.925 604.621 555.129C604.609 555.321 604.597 555.477 604.585 555.597L609.751 547.515H611.695V557.163H610.219V551.475C610.219 551.283 610.219 551.031 610.219 550.719C610.231 550.407 610.243 550.101 610.255 549.801C610.267 549.489 610.279 549.255 610.291 549.099L605.161 557.163H603.199V547.515H604.693V553.401ZM618.636 557.343C617.784 557.343 617.022 557.169 616.35 556.821C615.69 556.473 615.168 555.933 614.784 555.201C614.412 554.469 614.226 553.533 614.226 552.393C614.226 551.205 614.424 550.239 614.82 549.495C615.216 548.751 615.75 548.205 616.422 547.857C617.106 547.509 617.88 547.335 618.744 547.335C619.236 547.335 619.71 547.389 620.166 547.497C620.622 547.593 620.994 547.713 621.282 547.857L620.796 549.171C620.508 549.063 620.172 548.961 619.788 548.865C619.404 548.769 619.044 548.721 618.708 548.721C618.06 548.721 617.526 548.859 617.106 549.135C616.686 549.411 616.374 549.819 616.17 550.359C615.966 550.899 615.864 551.571 615.864 552.375C615.864 553.143 615.966 553.797 616.17 554.337C616.374 554.877 616.68 555.285 617.088 555.561C617.496 555.837 618.006 555.975 618.618 555.975C619.146 555.975 619.608 555.921 620.004 555.813C620.412 555.705 620.784 555.573 621.12 555.417V556.821C620.796 556.989 620.436 557.115 620.04 557.199C619.656 557.295 619.188 557.343 618.636 557.343ZM630.074 548.847H626.924V557.163H625.358V548.847H622.244V547.515H630.074V548.847ZM633.469 553.401C633.469 553.509 633.463 553.665 633.451 553.869C633.451 554.061 633.445 554.271 633.433 554.499C633.421 554.715 633.409 554.925 633.397 555.129C633.385 555.321 633.373 555.477 633.361 555.597L638.527 547.515H640.471V557.163H638.995V551.475C638.995 551.283 638.995 551.031 638.995 550.719C639.007 550.407 639.019 550.101 639.031 549.801C639.043 549.489 639.055 549.255 639.067 549.099L633.937 557.163H631.975V547.515H633.469V553.401ZM649.247 547.515H650.975L646.853 552.159L651.317 557.163H649.481L645.125 552.267V557.163H643.541V547.515H645.125V552.195L649.247 547.515ZM656.722 547.353C657.898 547.353 658.768 547.611 659.332 548.127C659.896 548.643 660.178 549.465 660.178 550.593V557.163H659.026L658.72 555.795H658.648C658.372 556.143 658.084 556.437 657.784 556.677C657.496 556.905 657.16 557.073 656.776 557.181C656.404 557.289 655.948 557.343 655.408 557.343C654.832 557.343 654.31 557.241 653.842 557.037C653.386 556.833 653.026 556.521 652.762 556.101C652.498 555.669 652.366 555.129 652.366 554.481C652.366 553.521 652.744 552.783 653.5 552.267C654.256 551.739 655.42 551.451 656.992 551.403L658.63 551.349V550.773C658.63 549.969 658.456 549.411 658.108 549.099C657.76 548.787 657.268 548.631 656.632 548.631C656.128 548.631 655.648 548.709 655.192 548.865C654.736 549.009 654.31 549.177 653.914 549.369L653.428 548.181C653.848 547.953 654.346 547.761 654.922 547.605C655.498 547.437 656.098 547.353 656.722 547.353ZM657.19 552.501C655.99 552.549 655.156 552.741 654.688 553.077C654.232 553.413 654.004 553.887 654.004 554.499C654.004 555.039 654.166 555.435 654.49 555.687C654.826 555.939 655.252 556.065 655.768 556.065C656.584 556.065 657.262 555.843 657.802 555.399C658.342 554.943 658.612 554.247 658.612 553.311V552.447L657.19 552.501Z" fill="white"/>
<path d="M86 50C86 22.3857 108.386 0 136 0H246.747V25.3213C246.747 52.9355 224.361 75.3213 196.747 75.3213H86V50Z" fill="#9277EE"/>
<path d="M89.6743 56.4298C89.6743 28.8156 112.06 6.42986 139.674 6.42986H250.421V31.7511C250.421 59.3654 228.035 81.7511 200.421 81.7511H89.6743V56.4298Z" fill="#6466D9"/>
<path d="M135.001 34.2574C135.001 35.2534 134.875 36.1594 134.623 36.9754C134.371 37.7794 133.993 38.4754 133.489 39.0634C132.997 39.6514 132.379 40.1014 131.635 40.4134C130.903 40.7254 130.051 40.8814 129.079 40.8814C128.071 40.8814 127.195 40.7254 126.451 40.4134C125.707 40.0894 125.089 39.6394 124.597 39.0634C124.105 38.4754 123.739 37.7734 123.499 36.9574C123.259 36.1414 123.139 35.2354 123.139 34.2394C123.139 32.9194 123.355 31.7674 123.787 30.7834C124.219 29.7994 124.873 29.0314 125.749 28.4794C126.637 27.9274 127.753 27.6514 129.097 27.6514C130.381 27.6514 131.461 27.9274 132.337 28.4794C133.213 29.0194 133.873 29.7874 134.317 30.7834C134.773 31.7674 135.001 32.9254 135.001 34.2574ZM124.849 34.2574C124.849 35.3374 124.999 36.2674 125.299 37.0474C125.599 37.8274 126.061 38.4274 126.685 38.8474C127.321 39.2674 128.119 39.4774 129.079 39.4774C130.051 39.4774 130.843 39.2674 131.455 38.8474C132.079 38.4274 132.541 37.8274 132.841 37.0474C133.141 36.2674 133.291 35.3374 133.291 34.2574C133.291 32.6374 132.955 31.3714 132.283 30.4594C131.611 29.5354 130.549 29.0734 129.097 29.0734C128.125 29.0734 127.321 29.2834 126.685 29.7034C126.061 30.1114 125.599 30.7054 125.299 31.4854C124.999 32.2534 124.849 33.1774 124.849 34.2574ZM137.129 34.9054C137.129 33.5014 137.267 32.3074 137.543 31.3234C137.831 30.3274 138.269 29.5354 138.857 28.9474C139.457 28.3474 140.225 27.9454 141.161 27.7414C141.941 27.5734 142.703 27.4234 143.447 27.2914C144.191 27.1594 144.887 27.0394 145.535 26.9314L145.805 28.3174C145.493 28.3654 145.145 28.4254 144.761 28.4974C144.377 28.5574 143.987 28.6234 143.591 28.6954C143.195 28.7554 142.811 28.8214 142.439 28.8934C142.079 28.9534 141.761 29.0134 141.485 29.0734C141.089 29.1574 140.735 29.3014 140.423 29.5054C140.111 29.6974 139.841 29.9614 139.613 30.2974C139.397 30.6334 139.223 31.0474 139.091 31.5394C138.959 32.0314 138.881 32.6134 138.857 33.2854H138.965C139.133 33.0574 139.361 32.8234 139.649 32.5834C139.949 32.3434 140.303 32.1394 140.711 31.9714C141.131 31.8034 141.605 31.7194 142.133 31.7194C142.973 31.7194 143.669 31.9054 144.221 32.2774C144.785 32.6374 145.205 33.1414 145.481 33.7894C145.769 34.4374 145.913 35.1934 145.913 36.0574C145.913 37.1254 145.727 38.0194 145.355 38.7394C144.983 39.4594 144.467 39.9994 143.807 40.3594C143.147 40.7074 142.379 40.8814 141.503 40.8814C140.843 40.8814 140.243 40.7554 139.703 40.5034C139.163 40.2394 138.701 39.8554 138.317 39.3514C137.933 38.8474 137.639 38.2234 137.435 37.4794C137.231 36.7354 137.129 35.8774 137.129 34.9054ZM141.629 39.5674C142.157 39.5674 142.613 39.4594 142.997 39.2434C143.393 39.0274 143.699 38.6734 143.915 38.1814C144.131 37.6894 144.239 37.0354 144.239 36.2194C144.239 35.2354 144.053 34.4614 143.681 33.8974C143.321 33.3214 142.721 33.0334 141.881 33.0334C141.353 33.0334 140.873 33.1534 140.441 33.3934C140.009 33.6214 139.649 33.8854 139.361 34.1854C139.073 34.4854 138.869 34.7374 138.749 34.9414C138.749 35.5294 138.791 36.0994 138.875 36.6514C138.959 37.2034 139.103 37.7014 139.307 38.1454C139.523 38.5774 139.817 38.9254 140.189 39.1894C140.573 39.4414 141.053 39.5674 141.629 39.5674ZM146.897 31.0534H148.589L150.677 36.5434C150.797 36.8674 150.905 37.1794 151.001 37.4794C151.109 37.7794 151.205 38.0734 151.289 38.3614C151.373 38.6374 151.439 38.9074 151.487 39.1714H151.559C151.631 38.8714 151.745 38.4814 151.901 38.0014C152.057 37.5094 152.219 37.0174 152.387 36.5254L154.349 31.0534H156.059L151.901 42.0334C151.673 42.6334 151.403 43.1554 151.091 43.5994C150.791 44.0554 150.419 44.4034 149.975 44.6434C149.543 44.8954 149.015 45.0214 148.391 45.0214C148.103 45.0214 147.851 45.0034 147.635 44.9674C147.419 44.9434 147.233 44.9134 147.077 44.8774V43.6174C147.209 43.6414 147.365 43.6654 147.545 43.6894C147.737 43.7134 147.935 43.7254 148.139 43.7254C148.511 43.7254 148.829 43.6534 149.093 43.5094C149.369 43.3774 149.603 43.1794 149.795 42.9154C149.987 42.6634 150.149 42.3634 150.281 42.0154L150.785 40.7374L146.897 31.0534ZM158.97 34.5634C158.97 35.1274 159.126 35.5474 159.438 35.8234C159.762 36.0874 160.224 36.2194 160.824 36.2194C161.424 36.2194 161.97 36.1294 162.462 35.9494C162.954 35.7574 163.458 35.5054 163.974 35.1934V31.0534H165.558V40.7014H163.974V36.3994C163.434 36.7474 162.9 37.0234 162.372 37.2274C161.856 37.4194 161.232 37.5154 160.5 37.5154C159.516 37.5154 158.748 37.2574 158.196 36.7414C157.656 36.2254 157.386 35.5354 157.386 34.6714V31.0534H158.97V34.5634ZM172.35 30.8734C173.178 30.8734 173.886 31.0534 174.474 31.4134C175.074 31.7734 175.53 32.2834 175.842 32.9434C176.166 33.5914 176.328 34.3534 176.328 35.2294V36.1834H169.722C169.746 37.2754 170.022 38.1094 170.55 38.6854C171.09 39.2494 171.84 39.5314 172.8 39.5314C173.412 39.5314 173.952 39.4774 174.42 39.3694C174.9 39.2494 175.392 39.0814 175.896 38.8654V40.2514C175.404 40.4674 174.918 40.6234 174.438 40.7194C173.958 40.8274 173.388 40.8814 172.728 40.8814C171.816 40.8814 171.006 40.6954 170.298 40.3234C169.602 39.9514 169.056 39.3994 168.66 38.6674C168.276 37.9234 168.084 37.0174 168.084 35.9494C168.084 34.8934 168.258 33.9874 168.606 33.2314C168.966 32.4754 169.464 31.8934 170.1 31.4854C170.748 31.0774 171.498 30.8734 172.35 30.8734ZM172.332 32.1694C171.576 32.1694 170.976 32.4154 170.532 32.9074C170.1 33.3874 169.842 34.0594 169.758 34.9234H174.672C174.672 34.3714 174.588 33.8914 174.42 33.4834C174.252 33.0754 173.994 32.7574 173.646 32.5294C173.31 32.2894 172.872 32.1694 172.332 32.1694ZM180.368 31.0534V35.0674H185.606V31.0534H187.19V40.7014H185.606V36.3994H180.368V40.7014H178.784V31.0534H180.368ZM191.739 36.9394C191.739 37.0474 191.733 37.2034 191.721 37.4074C191.721 37.5994 191.715 37.8094 191.703 38.0374C191.691 38.2534 191.679 38.4634 191.667 38.6674C191.655 38.8594 191.643 39.0154 191.631 39.1354L196.797 31.0534H198.741V40.7014H197.265V35.0134C197.265 34.8214 197.265 34.5694 197.265 34.2574C197.277 33.9454 197.289 33.6394 197.301 33.3394C197.313 33.0274 197.325 32.7934 197.337 32.6374L192.207 40.7014H190.245V31.0534H191.739V36.9394ZM205.537 30.8734C206.365 30.8734 207.073 31.0534 207.661 31.4134C208.261 31.7734 208.717 32.2834 209.029 32.9434C209.353 33.5914 209.515 34.3534 209.515 35.2294V36.1834H202.909C202.933 37.2754 203.209 38.1094 203.737 38.6854C204.277 39.2494 205.027 39.5314 205.987 39.5314C206.599 39.5314 207.139 39.4774 207.607 39.3694C208.087 39.2494 208.579 39.0814 209.083 38.8654V40.2514C208.591 40.4674 208.105 40.6234 207.625 40.7194C207.145 40.8274 206.575 40.8814 205.915 40.8814C205.003 40.8814 204.193 40.6954 203.485 40.3234C202.789 39.9514 202.243 39.3994 201.847 38.6674C201.463 37.9234 201.271 37.0174 201.271 35.9494C201.271 34.8934 201.445 33.9874 201.793 33.2314C202.153 32.4754 202.651 31.8934 203.287 31.4854C203.935 31.0774 204.685 30.8734 205.537 30.8734ZM205.519 32.1694C204.763 32.1694 204.163 32.4154 203.719 32.9074C203.287 33.3874 203.029 34.0594 202.945 34.9234H207.859C207.859 34.3714 207.775 33.8914 207.607 33.4834C207.439 33.0754 207.181 32.7574 206.833 32.5294C206.497 32.2894 206.059 32.1694 205.519 32.1694Z" fill="white"/>
<path d="M159.051 54.3918C159.051 54.4998 159.045 54.6558 159.033 54.8598C159.033 55.0518 159.027 55.2618 159.015 55.4898C159.003 55.7058 158.991 55.9158 158.979 56.1198C158.967 56.3118 158.955 56.4678 158.943 56.5878L164.109 48.5058H166.053V58.1538H164.577V52.4658C164.577 52.2738 164.577 52.0218 164.577 51.7098C164.589 51.3978 164.601 51.0918 164.613 50.7918C164.625 50.4798 164.637 50.2458 164.649 50.0898L159.519 58.1538H157.557V48.5058H159.051V54.3918ZM175.01 48.5058V49.8378H170.708V58.1538H169.124V48.5058H175.01ZM181.501 48.3258C182.689 48.3258 183.643 48.7398 184.363 49.5678C185.095 50.3958 185.461 51.6438 185.461 53.3118C185.461 54.4038 185.293 55.3278 184.957 56.0838C184.633 56.8278 184.171 57.3918 183.571 57.7758C182.983 58.1478 182.287 58.3338 181.483 58.3338C180.991 58.3338 180.553 58.2678 180.169 58.1358C179.785 58.0038 179.455 57.8358 179.179 57.6318C178.915 57.4158 178.687 57.1818 178.495 56.9298H178.387C178.411 57.1338 178.435 57.3918 178.459 57.7038C178.483 58.0158 178.495 58.2858 178.495 58.5138V62.4738H176.911V48.5058H178.207L178.423 49.8198H178.495C178.687 49.5438 178.915 49.2918 179.179 49.0638C179.455 48.8358 179.779 48.6558 180.151 48.5238C180.535 48.3918 180.985 48.3258 181.501 48.3258ZM181.213 49.6578C180.565 49.6578 180.043 49.7838 179.647 50.0358C179.251 50.2758 178.963 50.6418 178.783 51.1338C178.603 51.6258 178.507 52.2498 178.495 53.0058V53.3118C178.495 54.1038 178.579 54.7758 178.747 55.3278C178.915 55.8798 179.197 56.2998 179.593 56.5878C180.001 56.8758 180.553 57.0198 181.249 57.0198C181.837 57.0198 182.317 56.8578 182.689 56.5338C183.073 56.2098 183.355 55.7718 183.535 55.2198C183.727 54.6558 183.823 54.0138 183.823 53.2938C183.823 52.1898 183.607 51.3078 183.175 50.6478C182.755 49.9878 182.101 49.6578 181.213 49.6578ZM191.639 48.3438C192.815 48.3438 193.685 48.6018 194.249 49.1178C194.813 49.6338 195.095 50.4558 195.095 51.5838V58.1538H193.943L193.637 56.7858H193.565C193.289 57.1338 193.001 57.4278 192.701 57.6678C192.413 57.8958 192.077 58.0638 191.693 58.1718C191.321 58.2798 190.865 58.3338 190.325 58.3338C189.749 58.3338 189.227 58.2318 188.759 58.0278C188.303 57.8238 187.943 57.5118 187.679 57.0918C187.415 56.6598 187.283 56.1198 187.283 55.4718C187.283 54.5118 187.661 53.7738 188.417 53.2578C189.173 52.7298 190.337 52.4418 191.909 52.3938L193.547 52.3398V51.7638C193.547 50.9598 193.373 50.4018 193.025 50.0898C192.677 49.7778 192.185 49.6218 191.549 49.6218C191.045 49.6218 190.565 49.6998 190.109 49.8558C189.653 49.9998 189.227 50.1678 188.831 50.3598L188.345 49.1718C188.765 48.9438 189.263 48.7518 189.839 48.5958C190.415 48.4278 191.015 48.3438 191.639 48.3438ZM192.107 53.4918C190.907 53.5398 190.073 53.7318 189.605 54.0678C189.149 54.4038 188.921 54.8778 188.921 55.4898C188.921 56.0298 189.083 56.4258 189.407 56.6778C189.743 56.9298 190.169 57.0558 190.685 57.0558C191.501 57.0558 192.179 56.8338 192.719 56.3898C193.259 55.9338 193.529 55.2378 193.529 54.3018V53.4378L192.107 53.4918ZM198.669 58.1538H196.833L199.587 54.1038C199.215 54.0078 198.855 53.8578 198.507 53.6538C198.159 53.4378 197.877 53.1438 197.661 52.7718C197.445 52.3878 197.337 51.9138 197.337 51.3498C197.337 50.4258 197.649 49.7238 198.273 49.2438C198.897 48.7518 199.725 48.5058 200.757 48.5058H205.077V58.1538H203.493V54.3198H201.153L198.669 58.1538ZM198.867 51.3678C198.867 51.9198 199.071 52.3338 199.479 52.6098C199.899 52.8738 200.481 53.0058 201.225 53.0058H203.493V49.8198H200.919C200.187 49.8198 199.659 49.9638 199.335 50.2518C199.023 50.5398 198.867 50.9118 198.867 51.3678Z" fill="white"/>
<path d="M558 198C558 170.386 580.386 148 608 148H764.546V173.321C764.546 200.936 742.16 223.321 714.546 223.321H558V198Z" fill="#9277EE"/>
<path d="M562.721 204.43C562.721 176.816 585.107 154.43 612.721 154.43H769.267V179.751C769.267 207.365 746.881 229.751 719.267 229.751H562.721V204.43Z" fill="#6466D9"/>
<path d="M592.937 187.763L598.289 183.281C599.01 182.677 599.37 182.047 599.37 181.391C599.37 181.045 599.256 180.761 599.028 180.539C598.805 180.316 598.524 180.205 598.184 180.205C597.844 180.205 597.507 180.26 597.173 180.372C596.06 180.735 594.979 181.476 593.93 182.595L591.865 179.633C592.579 178.45 593.646 177.53 595.064 176.873C596.482 176.217 597.994 175.889 599.599 175.889C601.21 175.889 602.564 176.267 603.66 177.023C604.867 177.855 605.47 179.006 605.47 180.477C605.47 181.649 604.969 182.739 603.967 183.747C603.446 184.274 602.912 184.74 602.368 185.144C601.823 185.542 601.398 185.859 601.093 186.093H605.558V190.303H592.937V187.763ZM615.455 180.655H617.147L619.235 186.145C619.355 186.469 619.463 186.781 619.559 187.081C619.667 187.381 619.763 187.675 619.847 187.963C619.931 188.239 619.997 188.509 620.045 188.773H620.117C620.189 188.473 620.303 188.083 620.459 187.603C620.615 187.111 620.777 186.619 620.945 186.127L622.907 180.655H624.617L620.459 191.635C620.231 192.235 619.961 192.757 619.649 193.201C619.349 193.657 618.977 194.005 618.533 194.245C618.101 194.497 617.573 194.623 616.949 194.623C616.661 194.623 616.409 194.605 616.193 194.569C615.977 194.545 615.791 194.515 615.635 194.479V193.219C615.767 193.243 615.923 193.267 616.103 193.291C616.295 193.315 616.493 193.327 616.697 193.327C617.069 193.327 617.387 193.255 617.651 193.111C617.927 192.979 618.161 192.781 618.353 192.517C618.545 192.265 618.707 191.965 618.839 191.617L619.343 190.339L615.455 180.655ZM633.901 183.085C633.901 183.685 633.721 184.153 633.361 184.489C633.001 184.825 632.539 185.053 631.975 185.173V185.245C632.575 185.329 633.097 185.545 633.541 185.893C633.985 186.229 634.207 186.757 634.207 187.477C634.207 187.885 634.129 188.263 633.973 188.611C633.829 188.959 633.601 189.259 633.289 189.511C632.977 189.763 632.575 189.961 632.083 190.105C631.591 190.237 630.997 190.303 630.301 190.303H626.143V180.655H630.283C630.967 180.655 631.579 180.733 632.119 180.889C632.671 181.033 633.103 181.285 633.415 181.645C633.739 181.993 633.901 182.473 633.901 183.085ZM632.569 187.477C632.569 186.925 632.359 186.529 631.939 186.289C631.519 186.049 630.901 185.929 630.085 185.929H627.727V189.025H630.121C630.913 189.025 631.519 188.911 631.939 188.683C632.359 188.443 632.569 188.041 632.569 187.477ZM632.299 183.283C632.299 182.827 632.131 182.497 631.795 182.293C631.471 182.077 630.937 181.969 630.193 181.969H627.727V184.615H629.905C630.685 184.615 631.279 184.507 631.687 184.291C632.095 184.075 632.299 183.739 632.299 183.283ZM643.858 190.303H642.256V181.969H639.412C639.292 183.493 639.142 184.795 638.962 185.875C638.782 186.943 638.554 187.813 638.278 188.485C638.002 189.157 637.672 189.649 637.288 189.961C636.904 190.273 636.454 190.429 635.938 190.429C635.782 190.429 635.626 190.417 635.47 190.393C635.326 190.381 635.206 190.351 635.11 190.303V189.115C635.182 189.139 635.26 189.157 635.344 189.169C635.428 189.181 635.512 189.187 635.596 189.187C635.86 189.187 636.1 189.079 636.316 188.863C636.532 188.647 636.724 188.317 636.892 187.873C637.072 187.429 637.234 186.871 637.378 186.199C637.522 185.515 637.648 184.711 637.756 183.787C637.864 182.863 637.96 181.819 638.044 180.655H643.858V190.303ZM650.646 180.475C651.474 180.475 652.182 180.655 652.77 181.015C653.37 181.375 653.826 181.885 654.138 182.545C654.462 183.193 654.624 183.955 654.624 184.831V185.785H648.018C648.042 186.877 648.318 187.711 648.846 188.287C649.386 188.851 650.136 189.133 651.096 189.133C651.708 189.133 652.248 189.079 652.716 188.971C653.196 188.851 653.688 188.683 654.192 188.467V189.853C653.7 190.069 653.214 190.225 652.734 190.321C652.254 190.429 651.684 190.483 651.024 190.483C650.112 190.483 649.302 190.297 648.594 189.925C647.898 189.553 647.352 189.001 646.956 188.269C646.572 187.525 646.38 186.619 646.38 185.551C646.38 184.495 646.554 183.589 646.902 182.833C647.262 182.077 647.76 181.495 648.396 181.087C649.044 180.679 649.794 180.475 650.646 180.475ZM650.628 181.771C649.872 181.771 649.272 182.017 648.828 182.509C648.396 182.989 648.138 183.661 648.054 184.525H652.968C652.968 183.973 652.884 183.493 652.716 183.085C652.548 182.677 652.29 182.359 651.942 182.131C651.606 181.891 651.168 181.771 650.628 181.771ZM662.786 180.655H664.514L660.392 185.299L664.856 190.303H663.02L658.664 185.407V190.303H657.08V180.655H658.664V185.335L662.786 180.655ZM670.262 180.493C671.438 180.493 672.308 180.751 672.872 181.267C673.436 181.783 673.718 182.605 673.718 183.733V190.303H672.566L672.26 188.935H672.188C671.912 189.283 671.624 189.577 671.324 189.817C671.036 190.045 670.7 190.213 670.316 190.321C669.944 190.429 669.488 190.483 668.948 190.483C668.372 190.483 667.85 190.381 667.382 190.177C666.926 189.973 666.566 189.661 666.302 189.241C666.038 188.809 665.906 188.269 665.906 187.621C665.906 186.661 666.284 185.923 667.04 185.407C667.796 184.879 668.96 184.591 670.532 184.543L672.17 184.489V183.913C672.17 183.109 671.996 182.551 671.648 182.239C671.3 181.927 670.808 181.771 670.172 181.771C669.668 181.771 669.188 181.849 668.732 182.005C668.276 182.149 667.85 182.317 667.454 182.509L666.968 181.321C667.388 181.093 667.886 180.901 668.462 180.745C669.038 180.577 669.638 180.493 670.262 180.493ZM670.73 185.641C669.53 185.689 668.696 185.881 668.228 186.217C667.772 186.553 667.544 187.027 667.544 187.639C667.544 188.179 667.706 188.575 668.03 188.827C668.366 189.079 668.792 189.205 669.308 189.205C670.124 189.205 670.802 188.983 671.342 188.539C671.882 188.083 672.152 187.387 672.152 186.451V185.587L670.73 185.641ZM683.357 181.987H680.207V190.303H678.641V181.987H675.527V180.655H683.357V181.987ZM688.808 180.475C689.636 180.475 690.344 180.655 690.932 181.015C691.532 181.375 691.988 181.885 692.3 182.545C692.624 183.193 692.786 183.955 692.786 184.831V185.785H686.18C686.204 186.877 686.48 187.711 687.008 188.287C687.548 188.851 688.298 189.133 689.258 189.133C689.87 189.133 690.41 189.079 690.878 188.971C691.358 188.851 691.85 188.683 692.354 188.467V189.853C691.862 190.069 691.376 190.225 690.896 190.321C690.416 190.429 689.846 190.483 689.186 190.483C688.274 190.483 687.464 190.297 686.756 189.925C686.06 189.553 685.514 189.001 685.118 188.269C684.734 187.525 684.542 186.619 684.542 185.551C684.542 184.495 684.716 183.589 685.064 182.833C685.424 182.077 685.922 181.495 686.558 181.087C687.206 180.679 687.956 180.475 688.808 180.475ZM688.79 181.771C688.034 181.771 687.434 182.017 686.99 182.509C686.558 182.989 686.3 183.661 686.216 184.525H691.13C691.13 183.973 691.046 183.493 690.878 183.085C690.71 182.677 690.452 182.359 690.104 182.131C689.768 181.891 689.33 181.771 688.79 181.771ZM702.586 190.303H700.984V181.969H698.14C698.02 183.493 697.87 184.795 697.69 185.875C697.51 186.943 697.282 187.813 697.006 188.485C696.73 189.157 696.4 189.649 696.016 189.961C695.632 190.273 695.182 190.429 694.666 190.429C694.51 190.429 694.354 190.417 694.198 190.393C694.054 190.381 693.934 190.351 693.838 190.303V189.115C693.91 189.139 693.988 189.157 694.072 189.169C694.156 189.181 694.24 189.187 694.324 189.187C694.588 189.187 694.828 189.079 695.044 188.863C695.26 188.647 695.452 188.317 695.62 187.873C695.8 187.429 695.962 186.871 696.106 186.199C696.25 185.515 696.376 184.711 696.484 183.787C696.592 182.863 696.688 181.819 696.772 180.655H702.586V190.303ZM710.095 184.615C710.935 184.615 711.631 184.717 712.183 184.921C712.735 185.125 713.149 185.431 713.425 185.839C713.713 186.235 713.857 186.739 713.857 187.351C713.857 187.951 713.719 188.473 713.443 188.917C713.179 189.361 712.765 189.703 712.201 189.943C711.637 190.183 710.911 190.303 710.023 190.303H705.649V180.655H707.233V184.615H710.095ZM712.273 187.441C712.273 186.853 712.063 186.457 711.643 186.253C711.235 186.037 710.659 185.929 709.915 185.929H707.233V189.025H709.951C710.623 189.025 711.175 188.905 711.607 188.665C712.051 188.425 712.273 188.017 712.273 187.441ZM717.92 180.655V184.669H723.158V180.655H724.742V190.303H723.158V186.001H717.92V190.303H716.336V180.655H717.92ZM727.797 190.303V180.655H729.381V184.615H731.883C732.723 184.615 733.413 184.717 733.953 184.921C734.493 185.125 734.895 185.431 735.159 185.839C735.423 186.235 735.555 186.739 735.555 187.351C735.555 187.951 735.423 188.473 735.159 188.917C734.907 189.361 734.505 189.703 733.953 189.943C733.413 190.183 732.699 190.303 731.811 190.303H727.797ZM731.667 189.025C732.351 189.025 732.909 188.911 733.341 188.683C733.773 188.443 733.989 188.029 733.989 187.441C733.989 186.853 733.791 186.457 733.395 186.253C732.999 186.037 732.429 185.929 731.685 185.929H729.381V189.025H731.667ZM737.157 190.303V180.655H738.741V190.303H737.157ZM745.533 180.475C746.361 180.475 747.069 180.655 747.657 181.015C748.257 181.375 748.713 181.885 749.025 182.545C749.349 183.193 749.511 183.955 749.511 184.831V185.785H742.905C742.929 186.877 743.205 187.711 743.733 188.287C744.273 188.851 745.023 189.133 745.983 189.133C746.595 189.133 747.135 189.079 747.603 188.971C748.083 188.851 748.575 188.683 749.079 188.467V189.853C748.587 190.069 748.101 190.225 747.621 190.321C747.141 190.429 746.571 190.483 745.911 190.483C744.999 190.483 744.189 190.297 743.481 189.925C742.785 189.553 742.239 189.001 741.843 188.269C741.459 187.525 741.267 186.619 741.267 185.551C741.267 184.495 741.441 183.589 741.789 182.833C742.149 182.077 742.647 181.495 743.283 181.087C743.931 180.679 744.681 180.475 745.533 180.475ZM745.515 181.771C744.759 181.771 744.159 182.017 743.715 182.509C743.283 182.989 743.025 183.661 742.941 184.525H747.855C747.855 183.973 747.771 183.493 747.603 183.085C747.435 182.677 747.177 182.359 746.829 182.131C746.493 181.891 746.055 181.771 745.515 181.771Z" fill="white"/>
<path d="M698.291 209.541C698.291 209.649 698.285 209.805 698.273 210.009C698.273 210.201 698.267 210.411 698.255 210.639C698.243 210.855 698.231 211.065 698.219 211.269C698.207 211.461 698.195 211.617 698.183 211.737L703.349 203.655H705.293V213.303H703.817V207.615C703.817 207.423 703.817 207.171 703.817 206.859C703.829 206.547 703.841 206.241 703.853 205.941C703.865 205.629 703.877 205.395 703.889 205.239L698.759 213.303H696.797V203.655H698.291V209.541ZM714.249 203.655V204.987H709.947V213.303H708.363V203.655H714.249ZM720.74 203.475C721.928 203.475 722.882 203.889 723.602 204.717C724.334 205.545 724.7 206.793 724.7 208.461C724.7 209.553 724.532 210.477 724.196 211.233C723.872 211.977 723.41 212.541 722.81 212.925C722.222 213.297 721.526 213.483 720.722 213.483C720.23 213.483 719.792 213.417 719.408 213.285C719.024 213.153 718.694 212.985 718.418 212.781C718.154 212.565 717.926 212.331 717.734 212.079H717.626C717.65 212.283 717.674 212.541 717.698 212.853C717.722 213.165 717.734 213.435 717.734 213.663V217.623H716.15V203.655H717.446L717.662 204.969H717.734C717.926 204.693 718.154 204.441 718.418 204.213C718.694 203.985 719.018 203.805 719.39 203.673C719.774 203.541 720.224 203.475 720.74 203.475ZM720.452 204.807C719.804 204.807 719.282 204.933 718.886 205.185C718.49 205.425 718.202 205.791 718.022 206.283C717.842 206.775 717.746 207.399 717.734 208.155V208.461C717.734 209.253 717.818 209.925 717.986 210.477C718.154 211.029 718.436 211.449 718.832 211.737C719.24 212.025 719.792 212.169 720.488 212.169C721.076 212.169 721.556 212.007 721.928 211.683C722.312 211.359 722.594 210.921 722.774 210.369C722.966 209.805 723.062 209.163 723.062 208.443C723.062 207.339 722.846 206.457 722.414 205.797C721.994 205.137 721.34 204.807 720.452 204.807ZM727.225 213.303V203.655H728.809V207.615H731.311C732.151 207.615 732.841 207.717 733.381 207.921C733.921 208.125 734.323 208.431 734.587 208.839C734.851 209.235 734.983 209.739 734.983 210.351C734.983 210.951 734.851 211.473 734.587 211.917C734.335 212.361 733.933 212.703 733.381 212.943C732.841 213.183 732.127 213.303 731.239 213.303H727.225ZM731.095 212.025C731.779 212.025 732.337 211.911 732.769 211.683C733.201 211.443 733.417 211.029 733.417 210.441C733.417 209.853 733.219 209.457 732.823 209.253C732.427 209.037 731.857 208.929 731.113 208.929H728.809V212.025H731.095ZM736.585 213.303V203.655H738.169V213.303H736.585Z" fill="white"/>
<path d="M355.062 265.817C362.829 269.761 372.587 266.139 376.857 257.729C381.127 249.32 378.292 239.305 370.525 235.362C370.122 235.159 369.712 234.986 369.301 234.821C370.745 230.168 371.832 225.478 372.561 220.786C373.007 220.785 373.454 220.778 373.907 220.736C382.769 219.946 389.801 211.803 389.616 202.548C389.431 193.293 382.097 186.43 373.235 187.221C372.772 187.262 372.317 187.334 371.865 187.416C370.94 182.829 369.671 178.349 368.071 174.013C368.478 173.774 368.884 173.527 369.28 173.25C376.86 167.939 379.285 157.455 374.693 149.835C370.101 142.214 360.234 140.343 352.652 145.654C352.263 145.926 351.897 146.221 351.537 146.519C348.543 143.208 345.258 140.141 341.705 137.34C341.954 136.93 342.199 136.516 342.42 136.08C346.69 127.67 352.27 118.483 344.442 114.663C326.333 105.824 318.564 113.39 314.293 121.801C314.073 122.236 313.882 122.679 313.698 123.122C309.341 121.906 304.926 121.064 300.486 120.6C300.513 120.133 300.536 119.665 300.526 119.189C300.341 109.934 303.086 104.927 294.192 104.753C274.795 104.376 268.251 112.795 268.436 122.05C268.446 122.534 268.486 123.007 268.534 123.476C264.089 124.744 259.723 126.364 255.474 128.323C255.272 127.91 255.063 127.5 254.824 127.102C250.233 119.481 240.365 117.61 232.783 122.923C225.201 128.235 222.777 138.717 227.369 146.338C227.604 146.728 227.862 147.094 228.124 147.454C224.766 150.811 221.623 154.458 218.716 158.369C218.341 158.134 217.96 157.904 217.557 157.699C209.79 153.755 200.033 157.375 195.763 165.786C191.493 174.195 194.327 184.211 202.094 188.153C202.497 188.357 202.907 188.529 203.319 188.694C201.877 193.347 200.787 198.038 200.058 202.729C199.613 202.731 199.166 202.738 198.713 202.777C189.851 203.568 182.818 211.711 183.004 220.966C183.189 230.221 190.523 237.082 199.385 236.293C199.848 236.252 200.303 236.179 200.755 236.098C201.68 240.685 202.949 245.165 204.548 249.501C204.141 249.74 203.735 249.986 203.339 250.264C195.758 255.575 193.334 266.059 197.925 273.679C202.517 281.3 217.717 284.839 225.299 279.528C225.688 279.256 220.721 277.293 221.081 276.995C224.076 280.306 227.361 283.373 230.913 286.174C230.664 286.584 230.419 286.998 230.197 287.434C225.927 295.843 228.762 305.858 236.529 309.802C244.296 313.745 254.053 310.124 258.324 301.715C258.544 301.279 258.735 300.836 258.919 300.393C263.276 301.609 267.691 302.451 272.129 302.915C272.102 303.382 272.079 303.852 272.089 304.326C272.274 313.581 279.609 320.443 288.471 319.654C297.333 318.864 304.365 310.721 304.18 301.466C304.17 300.982 304.13 300.509 304.082 300.039C308.527 298.772 312.892 297.151 317.141 295.192C317.343 295.605 317.553 296.015 317.793 296.414C322.385 304.034 332.252 305.905 339.834 300.594C347.416 295.282 349.84 284.8 345.248 277.179C345.013 276.789 344.755 276.424 344.493 276.064C347.851 272.707 350.994 269.06 353.901 265.149C354.279 265.383 354.661 265.612 355.062 265.817ZM258.241 267.046C230.042 252.727 219.749 216.368 235.252 185.834C250.754 155.299 286.182 142.153 314.383 156.47C342.584 170.788 352.875 207.147 337.373 237.682C321.868 268.216 286.442 281.362 258.241 267.046Z" fill="white"/>
<path d="M373.907 220.736C382.769 219.946 389.801 211.803 389.616 202.548C389.431 193.293 382.097 186.43 373.235 187.221C372.772 187.262 372.317 187.334 371.865 187.416C370.94 182.829 369.671 178.349 368.071 174.013C368.478 173.775 368.884 173.527 369.28 173.25C376.86 167.939 386.24 155.104 380.891 147.996C370.739 134.504 360.234 140.345 352.652 145.656C352.263 145.928 351.897 146.222 351.537 146.52C348.543 143.21 345.258 140.143 341.705 137.342C341.956 136.932 342.199 136.517 342.422 136.082C344.745 131.504 344.95 126.458 343.415 122.168C336.093 135.057 328.869 147.998 321.774 161.01C344.271 177.496 351.433 209.982 337.371 237.68C325.455 261.151 301.768 274.33 278.639 272.678C277.607 275.354 276.594 278.045 275.489 280.695C272.491 287.885 269.085 294.929 265.675 301.963C267.819 302.367 269.974 302.686 272.135 302.911C272.106 303.379 272.085 303.848 272.095 304.322C272.28 313.577 277.9 321.441 293.96 320.588C302.843 320.117 304.371 310.716 304.184 301.461C304.174 300.977 304.134 300.505 304.086 300.035C308.531 298.767 312.897 297.147 317.145 295.188C317.348 295.601 317.557 296.011 317.798 296.41C322.39 304.03 338.317 307.268 345.899 301.955C353.481 296.643 349.844 284.795 345.252 277.175C345.017 276.785 344.76 276.419 344.498 276.059C347.855 272.701 350.999 269.055 353.905 265.145C354.281 265.381 354.661 265.61 355.064 265.815C362.831 269.759 372.589 266.137 376.859 257.728C381.129 249.319 378.294 239.303 370.527 235.361C370.124 235.157 369.714 234.985 369.302 234.821C370.746 230.168 371.834 225.478 372.563 220.786C373.006 220.785 373.453 220.776 373.907 220.736Z" fill="white"/>
<path d="M363.416 266.767C371.183 270.711 380.941 267.09 385.211 258.679C389.481 250.268 386.646 240.255 378.879 236.31C378.476 236.107 378.066 235.935 377.655 235.771C379.098 231.118 380.186 226.428 380.915 221.736C381.361 221.735 381.808 221.727 382.261 221.686C391.123 220.896 398.155 212.754 397.97 203.498C397.785 194.243 390.451 187.38 381.589 188.17C381.126 188.212 380.67 188.284 380.218 188.365C379.292 183.779 378.023 179.298 376.423 174.963C376.83 174.725 377.236 174.477 377.632 174.2C385.212 168.889 387.637 158.405 383.045 150.784C378.455 143.164 368.586 141.293 361.004 146.604C360.616 146.876 360.251 147.171 359.889 147.468C356.895 144.158 353.61 141.091 350.058 138.29C350.307 137.88 350.552 137.466 350.774 137.03C355.044 128.621 352.209 118.605 344.442 114.663C336.675 110.719 326.917 114.34 322.647 122.75C322.427 123.186 322.236 123.629 322.052 124.072C317.695 122.856 313.28 122.014 308.842 121.55C308.869 121.083 308.892 120.615 308.882 120.139C308.696 110.884 301.362 104.021 292.5 104.811C283.64 105.602 276.606 113.744 276.791 122.999C276.801 123.484 276.841 123.956 276.889 124.426C272.444 125.693 268.078 127.314 263.83 129.273C263.627 128.86 263.418 128.45 263.179 128.051C258.587 120.431 248.72 118.56 241.138 123.872C233.556 129.185 231.132 139.667 235.724 147.287C235.959 147.678 236.217 148.043 236.479 148.404C233.122 151.761 229.978 155.408 227.072 159.319C226.696 159.083 226.316 158.853 225.913 158.648C218.146 154.704 208.388 158.325 204.118 166.736C199.848 175.146 202.683 185.16 210.45 189.104C210.853 189.308 211.263 189.48 211.674 189.644C210.232 194.297 209.143 198.987 208.414 203.679C207.968 203.68 207.522 203.687 207.068 203.727C198.206 204.517 191.174 212.66 191.359 221.915C191.544 231.17 198.878 238.032 207.74 237.243C208.203 237.202 208.659 237.129 209.11 237.048C210.035 241.634 211.304 246.115 212.903 250.451C212.496 250.688 212.09 250.936 211.694 251.214C204.114 256.525 201.689 267.009 206.281 274.629C210.873 282.249 220.74 284.12 228.322 278.809C228.711 278.537 229.076 278.243 229.437 277.945C232.431 281.256 235.716 284.323 239.268 287.123C239.019 287.533 238.774 287.948 238.552 288.383C234.282 296.793 237.117 306.808 244.884 310.751C252.651 314.695 262.409 311.074 266.679 302.663C266.899 302.227 267.09 301.785 267.274 301.342C271.631 302.558 276.046 303.399 280.484 303.863C280.457 304.33 280.435 304.8 280.445 305.274C280.63 314.529 287.964 321.391 296.826 320.602C305.688 319.812 312.72 311.669 312.535 302.415C312.525 301.931 312.485 301.458 312.437 300.989C316.882 299.721 321.248 298.101 325.496 296.142C325.699 296.555 325.908 296.965 326.148 297.364C330.74 304.984 340.608 306.855 348.19 301.544C355.772 296.232 358.195 285.749 353.603 278.129C353.368 277.739 353.11 277.374 352.848 277.014C356.206 273.656 359.35 270.01 362.256 266.099C362.633 266.332 363.015 266.561 363.416 266.767ZM266.595 267.995C238.396 253.677 228.103 217.318 243.605 186.783C259.108 156.249 294.536 143.103 322.737 157.419C350.936 171.738 361.229 208.097 345.726 238.631C330.222 269.166 294.795 282.312 266.595 267.995Z" fill="#D8DEE8"/>
<path d="M465.744 366.167C450.555 358.455 445.012 338.873 453.362 322.429C461.711 305.983 480.792 298.904 495.979 306.614C511.167 314.326 516.71 333.908 508.361 350.352C500.011 366.797 480.932 373.878 465.744 366.167Z" fill="white"/>
<path d="M522.389 366.017C526.572 368.141 531.827 366.191 534.127 361.662C536.426 357.132 534.9 351.739 530.717 349.614C530.5 349.505 530.279 349.412 530.057 349.324C530.835 346.818 531.42 344.292 531.813 341.765C532.052 341.765 532.293 341.76 532.538 341.738C537.31 341.312 541.098 336.926 540.998 331.943C540.899 326.958 536.949 323.263 532.176 323.688C531.927 323.71 531.682 323.749 531.438 323.793C530.94 321.323 530.257 318.911 529.395 316.574C529.615 316.446 529.834 316.313 530.046 316.164C534.13 313.303 535.434 307.658 532.962 303.554C530.489 299.451 525.175 298.443 521.091 301.303C520.882 301.45 520.686 301.608 520.491 301.769C518.877 299.986 517.109 298.335 515.195 296.827C515.329 296.606 515.462 296.382 515.581 296.148C517.881 291.618 516.354 286.225 512.171 284.1C507.988 281.976 502.732 283.927 500.433 288.456C500.313 288.691 500.211 288.929 500.112 289.168C497.766 288.513 495.388 288.06 492.998 287.81C493.012 287.558 493.025 287.305 493.019 287.049C492.919 282.064 488.969 278.369 484.197 278.794C479.424 279.219 475.637 283.605 475.736 288.59C475.742 288.85 475.763 289.105 475.789 289.357C473.395 290.039 471.043 290.912 468.755 291.967C468.647 291.745 468.533 291.524 468.405 291.309C465.932 287.206 460.618 286.198 456.534 289.058C452.451 291.919 451.146 297.564 453.618 301.668C453.745 301.879 453.883 302.075 454.024 302.269C452.216 304.077 450.523 306.04 448.958 308.146C448.756 308.02 448.551 307.896 448.334 307.785C444.151 305.66 438.896 307.611 436.596 312.14C434.297 316.669 435.823 322.063 440.006 324.187C440.223 324.297 440.445 324.39 440.666 324.478C439.888 326.984 439.303 329.51 438.91 332.037C438.671 332.038 438.429 332.041 438.185 332.064C433.412 332.49 429.625 336.875 429.725 341.86C429.824 346.845 433.774 350.54 438.547 350.114C438.796 350.091 439.041 350.053 439.284 350.009C439.783 352.479 440.466 354.891 441.328 357.228C441.108 357.356 440.889 357.488 440.675 357.638C436.592 360.498 435.288 366.144 437.759 370.247C440.233 374.351 445.546 375.359 449.63 372.498C449.839 372.352 450.036 372.194 450.231 372.033C451.844 373.815 453.613 375.467 455.526 376.975C455.392 377.196 455.26 377.419 455.14 377.654C452.841 382.183 454.367 387.577 458.55 389.701C462.734 391.826 467.989 389.875 470.289 385.346C470.408 385.111 470.511 384.873 470.609 384.634C472.955 385.289 475.333 385.742 477.724 385.992C477.71 386.244 477.697 386.496 477.703 386.751C477.802 391.736 481.752 395.431 486.525 395.007C491.297 394.581 495.085 390.195 494.985 385.212C494.979 384.951 494.958 384.696 494.933 384.443C497.326 383.761 499.678 382.888 501.966 381.833C502.075 382.055 502.188 382.276 502.317 382.491C504.79 386.594 510.104 387.603 514.187 384.742C518.271 381.882 519.575 376.236 517.103 372.131C516.976 371.92 516.838 371.724 516.697 371.53C518.506 369.722 520.199 367.758 521.763 365.653C521.966 365.784 522.172 365.907 522.389 366.017ZM470.243 366.679C455.055 358.968 449.512 339.385 457.861 322.941C466.211 306.496 485.292 299.417 500.478 307.127C515.667 314.838 521.21 334.421 512.86 350.864C504.511 367.31 485.431 374.389 470.243 366.679Z" fill="#D8DEE8"/>
<path opacity="0.75" d="M483.693 258.955C483.693 203.121 436.157 157.858 377.519 157.858C318.881 157.858 271.345 203.121 271.345 258.955C271.345 292.84 288.853 322.829 315.725 341.173C327.125 348.954 334.04 361.781 334.04 375.584V383.321C334.04 400.131 347.667 413.757 364.476 413.757H390.56C407.371 413.757 420.997 400.13 420.997 383.321V375.584C420.997 361.781 427.91 348.954 439.311 341.173C466.185 322.829 483.693 292.84 483.693 258.955Z" fill="#F4F7FA"/>
<path d="M376.877 469.408C389.806 469.408 400.287 463.859 400.287 457.014C400.287 450.168 389.806 444.619 376.877 444.619C363.949 444.619 353.468 450.168 353.468 457.014C353.468 463.859 363.949 469.408 376.877 469.408Z" fill="url(#paint0_linear_266_3)"/>
<path d="M345.773 434.874V447.531C345.773 451.812 348.21 455.736 352.075 457.58C357.442 460.139 366.362 462.948 379.329 462.615C389.847 462.346 396.707 460.627 401.067 458.823C405.28 457.08 407.98 452.914 407.98 448.355V441.353L345.773 434.874Z" fill="url(#paint1_linear_266_3)"/>
<path opacity="0.3" d="M345.773 445.96C346.722 446.881 347.819 447.665 349.052 448.251C355.073 451.122 394.503 457.536 404.016 453.962C405.252 453.498 406.362 452.877 407.336 452.128C407.752 450.934 407.981 449.661 407.981 448.354V441.351L345.775 434.874V445.96H345.773Z" fill="url(#paint2_linear_266_3)"/>
<path d="M348.536 426.261C345.032 425.897 341.983 428.645 341.983 432.167V432.526C341.983 437.33 344.717 441.733 349.054 443.8C355.074 446.671 394.505 453.085 404.017 449.511C408.806 447.711 411.773 443.601 411.773 438.486V438.197C411.773 435.156 409.475 432.607 406.451 432.291L348.536 426.261Z" fill="url(#paint3_linear_266_3)"/>
<path opacity="0.3" d="M406.449 432.293L348.536 426.263C346.25 426.025 344.166 427.116 342.987 428.877C344.15 431.618 346.269 433.912 349.054 435.239C355.074 438.109 396.185 445.361 404.017 441.67C407.066 440.234 409.456 437.809 410.738 434.86C409.782 433.459 408.246 432.479 406.449 432.293Z" fill="url(#paint4_linear_266_3)"/>
<path d="M346.269 405.757C343.901 405.757 341.982 407.676 341.982 410.044V419.957C341.982 424.761 344.715 429.162 349.052 431.231C355.072 434.101 396.183 441.353 404.016 437.662C408.643 435.482 411.771 431.033 411.771 425.918V410.045C411.771 407.677 409.852 405.758 407.484 405.758H346.269V405.757Z" fill="url(#paint5_linear_266_3)"/>
<path d="M376.877 416.888C395.672 416.888 410.909 413.286 410.909 408.842C410.909 404.398 395.672 400.796 376.877 400.796C358.082 400.796 342.846 404.398 342.846 408.842C342.846 413.286 358.082 416.888 376.877 416.888Z" fill="url(#paint6_linear_266_3)"/>
<path d="M483.693 258.955C483.693 203.121 436.157 157.858 377.519 157.858C318.881 157.858 271.345 203.121 271.345 258.955C271.345 292.84 288.853 322.829 315.725 341.173C327.125 348.954 334.04 361.78 334.04 375.584V383.321C334.04 400.131 347.667 413.757 364.476 413.757H390.56C407.371 413.757 420.997 400.13 420.997 383.321V375.584C420.997 361.78 427.91 348.954 439.311 341.173C466.185 322.829 483.693 292.84 483.693 258.955Z" fill="url(#paint7_linear_266_3)"/>
<path opacity="0.5" d="M376.877 408.385C390.63 408.385 401.779 405.749 401.779 402.497C401.779 399.246 390.63 396.61 376.877 396.61C363.124 396.61 351.976 399.246 351.976 402.497C351.976 405.749 363.124 408.385 376.877 408.385Z" fill="#F4F7FA"/>
<path d="M370.387 406.095C369.674 406.095 369.055 405.566 368.962 404.84L350.643 262.377C350.542 261.588 351.099 260.867 351.887 260.766C352.678 260.66 353.397 261.222 353.498 262.009L371.817 404.472C371.918 405.261 371.361 405.981 370.573 406.083C370.511 406.093 370.449 406.095 370.387 406.095Z" fill="url(#paint8_linear_266_3)"/>
<path d="M381.765 406.095C381.704 406.095 381.643 406.093 381.58 406.084C380.791 405.983 380.235 405.262 380.336 404.474L398.655 262.011C398.756 261.222 399.477 260.661 400.265 260.768C401.054 260.869 401.611 261.589 401.51 262.378L383.191 404.841C383.098 405.566 382.479 406.095 381.765 406.095Z" fill="url(#paint9_linear_266_3)"/>
<path d="M396.686 262.261C396.219 262.261 395.759 262.034 395.483 261.615L390.427 253.945C390.374 253.866 390.294 253.821 390.222 253.829C390.096 253.832 390.044 253.922 390.026 253.95L386.689 259.542C386.135 260.467 385.165 261.037 384.095 261.064C383.03 261.098 382.024 260.57 381.424 259.67L376.84 252.799C376.79 252.725 376.723 252.686 376.642 252.685C376.545 252.703 376.5 252.719 376.45 252.79L372.423 258.611C371.843 259.452 370.889 259.955 369.873 259.958H369.868C368.852 259.958 367.897 259.458 367.312 258.618L361.507 250.303C361.454 250.227 361.38 250.201 361.302 250.194C361.219 250.197 361.154 250.24 361.108 250.318L355.81 259.465C355.411 260.153 354.531 260.386 353.844 259.989C353.156 259.59 352.921 258.71 353.32 258.023L358.618 248.876C359.156 247.946 360.114 247.365 361.181 247.32C362.239 247.266 363.251 247.775 363.866 248.657L369.671 256.972C369.721 257.043 369.788 257.081 369.868 257.081C369.946 257.081 370.01 257.046 370.058 256.976L374.085 251.155C374.675 250.304 375.644 249.799 376.668 249.81C377.699 249.818 378.66 250.341 379.237 251.205L383.82 258.077C383.871 258.154 383.949 258.219 384.025 258.189C384.15 258.186 384.203 258.098 384.22 258.07L387.558 252.478C388.113 251.548 389.087 250.979 390.16 250.956C391.224 250.932 392.235 251.459 392.833 252.364L397.889 260.035C398.326 260.698 398.142 261.591 397.479 262.028C397.233 262.186 396.958 262.261 396.686 262.261Z" fill="url(#paint10_linear_266_3)"/>
<path opacity="0.3" d="M378.792 337.604C381.053 298.873 446.347 289.809 446.066 255.221C445.894 233.917 419.949 218.097 414.408 214.929C373.584 191.579 323.335 218.542 312.958 199.459C310.374 194.707 311.585 189.536 312.276 186.59C313.318 182.139 315.679 177.991 319.182 174.199C290.379 192.143 271.345 223.124 271.345 258.344C271.345 292.024 288.747 321.832 315.457 340.065C326.788 347.8 333.661 360.548 333.661 374.268V381.958C333.661 398.667 347.206 412.211 363.913 412.211H389.84C406.547 412.211 420.092 398.666 420.092 381.958V375.81C416.524 378.545 412.425 380.452 407.931 380.415C392.339 380.287 377.668 356.877 378.792 337.604Z" fill="url(#paint11_linear_266_3)"/>
<path opacity="0.44" d="M470.581 262.896C475.16 301.125 432.216 351.008 379.216 351.008C330.337 351.008 288.012 310.607 287.851 262.896C287.711 221.196 320.444 181.669 356.13 177.624C379.689 174.952 398.754 188.392 420.117 203.45C442.599 219.298 467.459 236.822 470.581 262.896Z" fill="#F4F7FA"/>
<path d="M527.588 243.425C526.84 243.413 525.988 242.792 526.001 242.043L527.08 175.931C527.104 174.436 526.728 173.334 525.232 173.31L427.59 171.715C426.841 171.702 426.248 170.831 426.261 170.082C426.273 169.333 426.894 168.481 427.643 168.494L525.285 170.089C528.276 170.137 530.349 172.992 530.301 175.984L529.222 242.096C529.207 242.844 528.337 243.437 527.588 243.425Z" fill="url(#paint12_linear_266_3)"/>
<path d="M531.88 231.478L530.617 229.403C530.188 228.617 529.299 228.128 528.403 228.128C527.507 228.128 526.65 228.616 526.222 229.402L525.02 231.519C524.741 232.032 524.543 232.603 524.534 233.185L524.241 251.17C524.235 251.556 526.196 251.902 528.255 251.934C530.315 251.968 532.286 251.687 532.291 251.301L532.586 233.265C532.596 232.643 532.178 232.023 531.88 231.478Z" fill="url(#paint13_linear_266_3)"/>
<path d="M394.245 171.013C406.478 175.336 418.411 180.753 430.042 187.276L522.34 172.206L526.704 173.542L527.077 172.321L527.206 171.901L444.089 94L331.588 112.15L331.485 112.486L331.112 113.706L334.527 114.751L394.245 171.013Z" fill="url(#paint14_linear_266_3)"/>
<path d="M432.722 188.801L526.447 173.499L443.53 95.384L331.102 113.74L390.543 169.74C405.018 174.571 419.079 180.921 432.722 188.801Z" fill="url(#paint15_linear_266_3)"/>
<path d="M433.099 189.017C443.973 195.512 462.005 207.368 473.159 217.695L488.43 167.778C488.915 166.192 488.504 164.398 487.319 162.436C481.8 153.387 459.371 141.153 431.018 132.479C402.664 123.805 377.228 121.398 367.592 125.81C366.102 126.499 364.987 127.336 364.323 128.347C364.033 128.748 363.819 129.17 363.682 129.617L354.103 160.934C360.467 161.912 369.151 163.531 379.259 166.306C406.869 173.885 426.252 184.927 433.099 189.017Z" fill="url(#paint16_linear_266_3)"/>
<path opacity="0.3" d="M383.696 167.579C383.256 165.436 383.129 163.217 383.357 160.932C384.738 147.055 372.472 134.797 364.323 128.347C364.256 128.293 364.188 128.239 364.121 128.185L354.103 160.934C364.149 162.477 374.014 164.692 383.696 167.579Z" fill="url(#paint17_linear_266_3)"/>
<path d="M473.578 393.941V353.161H447.125V393.941C447.125 397.914 444.638 401.464 440.9 402.808C416.568 411.559 399.029 435.572 399.029 457.704C399.029 485.396 426.484 499.652 460.351 499.652C494.219 499.652 521.674 485.396 521.674 457.704C521.674 435.572 504.135 411.559 479.803 402.808C476.065 401.464 473.578 397.913 473.578 393.941Z" fill="url(#paint18_linear_266_3)"/>
<path d="M409.527 438.531C405.625 443.92 403.423 450.014 403.423 456.467C403.423 478.437 428.91 496.246 460.351 496.246C491.791 496.246 517.28 478.437 517.28 456.467C517.28 450.014 515.078 443.92 511.176 438.531H409.527Z" fill="url(#paint19_linear_266_3)"/>
<path d="M460.351 442.939C488.408 442.939 511.153 440.965 511.153 438.531C511.153 436.096 488.408 434.122 460.351 434.122C432.295 434.122 409.55 436.096 409.55 438.531C409.55 440.965 432.295 442.939 460.351 442.939Z" fill="url(#paint20_linear_266_3)"/>
<g opacity="0.3">
<path d="M465.662 481.415C458.814 481.393 444.675 481.344 433.8 470.795C427.217 464.409 419.013 451.443 422.978 440.735C428.993 424.49 458.23 426.355 460.253 412.88C461.173 406.752 455.233 405.664 453.84 395.045C452.305 383.337 458.744 378.686 458.65 367.99C458.616 364.149 457.736 359.13 454.343 353.161H447.127V393.941C447.127 397.914 444.639 401.464 440.902 402.808C416.57 411.559 399.031 435.572 399.031 457.704C399.031 485.396 426.485 499.652 460.353 499.652C494.22 499.652 521.675 485.396 521.675 457.704C521.675 456.122 521.582 454.532 521.407 452.937C511.903 463.558 492.045 481.505 465.662 481.415Z" fill="white"/>
</g>
<path d="M472.475 358.17H448.227C445.904 358.17 444.018 356.287 444.018 353.961C444.018 351.638 445.902 349.752 448.227 349.752H472.475C474.799 349.752 476.684 351.636 476.684 353.961C476.684 356.287 474.799 358.17 472.475 358.17Z" fill="url(#paint21_linear_266_3)"/>
<path d="M209.94 425.485L294.989 421.788L392.979 425.222L296.309 446.352L209.94 425.485Z" fill="url(#paint22_linear_266_3)"/>
<path d="M278.465 507.44L209.574 488.899C202.635 487.033 197.245 480.158 197.245 473.492V473.419C197.245 466.753 202.635 462.28 209.574 463.503L283.463 475.595L278.465 507.44Z" fill="url(#paint23_linear_266_3)"/>
<path d="M393.097 493.517L281.784 505.948C274.812 506.727 269.081 501.865 269.081 495.079V490.474C269.081 483.686 274.813 477.729 281.784 477.174L393.097 468.313C388.171 477.483 387.035 486.061 393.097 493.517Z" fill="url(#paint24_linear_266_3)"/>
<path d="M394.066 494.751L282.717 507.376C273.623 508.407 266.088 502.038 266.088 493.159V493.061C266.088 484.182 273.623 476.371 282.717 475.662L394.066 466.978C394.736 466.925 395.277 467.483 395.277 468.224C395.277 468.964 394.735 469.608 394.066 469.663L282.717 478.729C275.401 479.324 269.361 485.619 269.361 492.749V492.846C269.361 499.978 275.401 505.115 282.717 504.311L394.066 492.066C394.736 491.992 395.277 492.533 395.277 493.273C395.277 494.014 394.736 494.676 394.066 494.751Z" fill="url(#paint25_linear_266_3)"/>
<path d="M281.358 475.669L209.574 463.502C202.635 462.278 197.245 453.183 197.245 443.174V443.064C197.245 433.055 202.635 425.111 209.574 425.369L285.724 428.198L281.358 475.669Z" fill="url(#paint26_linear_266_3)"/>
<path d="M393.097 465.034L288.023 472.959C277.661 473.741 269.081 466.126 269.081 455.936V449.023C269.081 438.833 277.661 430.336 288.023 430.055L393.097 427.19C388.155 440.93 387.05 453.796 393.097 465.034Z" fill="url(#paint27_linear_266_3)"/>
<path d="M394.066 466.976L282.717 475.66C273.623 476.369 266.088 466.111 266.088 452.778V452.631C266.088 439.298 273.623 428.265 282.717 428.038L394.066 425.27C394.736 425.253 395.277 426.142 395.277 427.252C395.277 428.364 394.735 429.281 394.066 429.301L282.717 432.64C275.401 432.86 269.361 441.753 269.361 452.46V452.607C269.361 463.316 275.401 471.587 282.717 471.054L394.066 462.941C394.736 462.893 395.277 463.754 395.277 464.866C395.277 465.981 394.736 466.925 394.066 466.976Z" fill="url(#paint28_linear_266_3)"/>
<path opacity="0.5" d="M259.098 465.638L243.753 462.957C240.171 453.176 240.44 444.193 243.753 433.456L259.098 434.547C255.954 445.845 256.43 456.08 259.098 465.638Z" fill="white"/>
<path d="M427.466 483.611L474.865 471.756L477.235 483.271L433.844 503.299L399.485 494.811L378.759 474.461L427.466 483.611Z" fill="url(#paint29_linear_266_3)"/>
<path d="M427.466 483.611L474.865 471.756L477.235 483.271L433.844 503.299L399.485 494.811L378.759 474.461L427.466 483.611Z" fill="url(#paint30_linear_266_3)"/>
<path d="M425.976 499.551C435.396 494.501 442.354 489.356 447.077 485.468C456.369 477.817 460.632 472.047 470.039 469.766C471.721 469.358 481.299 467.036 484.39 471.289C487.812 475.999 481.16 485.846 480.351 487.042C468.332 504.832 437.727 504.002 428.127 503.425C427.409 502.134 426.693 500.842 425.976 499.551Z" fill="url(#paint31_linear_266_3)"/>
<path opacity="0.3" d="M484.389 471.29C483.486 470.047 482.022 469.377 480.369 469.045C480.919 470.949 480.969 472.736 480.283 474.296C478.404 478.562 472.843 477.248 468.937 482.254C465.101 487.171 467.757 491.911 464.365 493.938C460.478 496.263 455.66 490.833 451.497 493.43C448.666 495.195 449.546 498.547 446.247 500.372C443.967 501.634 441.732 501.037 439.135 500.711C436.158 500.337 432.08 500.257 426.961 501.326C427.35 502.026 427.737 502.726 428.126 503.425C437.725 504.002 468.331 504.832 480.349 487.042C481.158 485.848 487.812 475.999 484.389 471.29Z" fill="url(#paint32_linear_266_3)"/>
<path d="M433.098 502.209C433.098 502.209 434.823 500.972 437.329 501.815C439.834 502.658 443.812 503.338 443.805 504.564C443.799 505.789 439.82 506.555 437.069 506.052C434.439 505.569 432.37 503.284 433.098 502.209Z" fill="url(#paint33_linear_266_3)"/>
<path d="M430.569 500.119L435.179 501.601C435.179 501.601 435.928 502.849 434.917 503.64C433.906 504.432 430.395 502.759 430.395 502.759L430.569 500.119Z" fill="white"/>
<path d="M366.493 478.868C365.132 486.793 382.235 495.366 386.151 497.328C394.131 501.328 409.146 506.975 431.43 504.818C431.727 503.039 432.023 501.262 432.319 499.484C429.374 498.476 425.012 496.836 419.95 494.347C411.31 490.097 408.029 487.062 396.041 479.814C382.775 471.793 378.91 470.764 374.958 471.757C371.579 472.605 367.125 475.185 366.493 478.868Z" fill="url(#paint34_linear_266_3)"/>
<path d="M384.315 463.797C381.423 453.34 386.196 439.231 396.253 432.428C404.461 426.875 414.079 427.235 417.081 427.348C420.366 427.47 420.027 427.897 430.368 429.811C444.725 432.468 446.05 431.823 450.226 433.825C458.079 437.588 461.891 444.427 462.603 445.757C466.252 452.565 469.222 465.225 462.291 471.416C458.351 474.935 452.826 474.921 449.718 474.591C449.506 473.194 449.295 471.797 449.083 470.4C449.715 469.911 453.449 466.919 453.909 461.638C454.438 455.568 450.197 451.651 449.718 451.224C448.213 454.129 446.361 458.54 445.528 464.178C444.451 471.46 445.566 477.447 446.51 480.967C442.713 483.051 436.435 485.879 428.257 486.783C422.094 487.465 414.465 488.31 409.589 484.498C402.706 479.119 402.125 465.112 408.922 450.532C406.435 452.199 402.83 455.214 401.334 459.986C401.108 460.708 400.725 462.125 400.573 467.607C400.295 477.456 387.311 474.632 384.315 463.797Z" fill="url(#paint35_linear_266_3)"/>
<path opacity="0.3" d="M430.924 471.036C427.461 471.46 426.518 475.057 423.303 474.846C416.311 474.387 410.698 462.282 413.651 455.669C415.577 451.358 420.598 450.606 420.255 447.796C419.981 445.547 416.496 443.816 413.651 443.732C409.221 443.601 406.295 447.458 405.269 448.812C402.87 451.976 402.353 455.45 402.299 457.684C404.058 454.231 406.863 451.912 408.919 450.534C402.122 465.112 402.704 479.12 409.586 484.499C414.464 488.311 422.093 487.467 428.254 486.785C434.892 486.05 440.278 484.05 444.101 482.207C440.389 476.157 435.656 470.456 430.924 471.036Z" fill="url(#paint36_linear_266_3)"/>
<path d="M442.993 480.9L402.467 480.295L413.244 485.496L443.096 483.541L442.993 480.9Z" fill="url(#paint37_linear_266_3)"/>
<path d="M401.036 481.371C401.036 482.13 401.51 482.808 402.223 483.067L415.173 488.143L415.233 484.623L402.467 480.294C401.75 480.088 401.036 480.627 401.036 481.371Z" fill="#D8DEE8"/>
<path d="M386.275 456.83C389.401 453.87 397.074 455.734 399.936 459.988C402.044 463.119 400.299 465.695 401.841 469.64C403.731 474.473 410.854 478.841 415.233 480.296C414.548 481.771 414.749 482.154 414.064 483.63C411.279 483.282 391.146 480.198 386.22 468.244C385.963 467.618 382.92 460.004 386.275 456.83Z" fill="url(#paint38_linear_266_3)"/>
<path d="M431.974 425.622C431.974 425.622 428.697 429.166 425.977 429.535C423.256 429.904 419.325 429.182 418.647 429.535C417.969 429.888 422.064 431.344 425.311 432.236C428.558 433.127 434.453 434.905 436.083 434.517C437.714 434.127 434.302 432.036 432.951 431.483C431.6 430.929 433.533 428.082 433.533 428.082L431.974 425.622Z" fill="white"/>
<path d="M436.837 427.651C438.021 427.325 439.105 425.994 439.091 424.615C439.079 423.429 438.246 422.619 437.748 422.135C436.304 420.73 433.792 419.851 431.973 420.774C430.895 421.321 430.402 423.805 430.293 424.235C430.169 424.722 430.36 425.068 430.412 425.549C430.485 426.216 430.592 427.268 430.745 429.011C431.05 428.766 431.447 428.48 431.934 428.212C432.122 428.11 432.861 427.712 433.661 427.527C435.265 427.157 435.713 427.961 436.837 427.651Z" fill="url(#paint39_linear_266_3)"/>
<path d="M430.066 427.123C430.066 427.123 429.791 429.636 431.971 431.1C433.922 432.41 437.405 428.453 436.899 426.654C436.73 426.055 436.032 425.322 435.248 425.006C434.785 424.819 434.534 424.877 433.782 424.558C433.09 424.264 432.977 424.074 432.689 424.086C432.33 424.101 431.823 424.427 431.249 425.927C431.171 425.295 430.852 424.829 430.441 424.739C430.375 424.725 430.18 424.714 430.008 424.789C429.381 425.064 429.347 426.007 430.066 427.123Z" fill="white"/>
<path d="M432.797 423.771C432.836 423.906 432.303 424.03 431.919 424.487C431.171 425.376 431.252 427.194 432.128 428.018C432.646 428.505 433.061 428.286 434.063 428.903C434.684 429.284 435.105 429.726 435.356 430.022C434.872 431.253 433.824 432.047 432.792 431.994C431.68 431.937 430.989 430.919 430.7 430.495C430.506 430.21 429.885 429.3 430.038 428.204C430.197 427.062 431.009 426.926 430.904 425.991C430.851 425.518 430.597 425.137 430.666 424.355C430.684 424.143 430.721 423.97 430.75 423.857C431.62 423.718 432.742 423.575 432.797 423.771Z" fill="url(#paint40_linear_266_3)"/>
<path d="M434.393 429.876C434.393 429.876 433.831 429.777 433.167 429.203C433.135 429.175 433.09 429.156 433.072 429.17C433.005 429.224 433.223 429.861 433.721 430.062C434.076 430.204 434.514 430.103 434.529 430.003C434.536 429.961 434.467 429.913 434.393 429.876Z" fill="white"/>
<path d="M416.308 459.93L413.451 485.939C413.353 486.836 414.609 488.173 415.512 488.13L457.418 485.557C458.108 485.525 458.68 485.018 458.797 484.339L464.056 459.218C464.213 458.304 462.57 457.36 461.643 457.385L417.727 458.62C416.993 458.641 416.387 459.201 416.308 459.93Z" fill="#D8DEE8"/>
<path d="M417.265 460.687L414.408 486.698C414.31 487.595 415.036 488.368 415.938 488.325L458.374 486.316C459.063 486.284 459.635 485.777 459.752 485.098L464.088 459.861C464.244 458.947 463.525 458.117 462.598 458.144L418.683 459.379C417.951 459.4 417.344 459.958 417.265 460.687Z" fill="white"/>
<path d="M442.183 480.222C438.478 478.652 439.785 475.657 435.41 471.925C429.638 467.002 423.754 469.138 421.694 465.322C421.052 464.133 420.746 462.283 421.864 459.29L418.684 459.38C417.951 459.4 417.346 459.96 417.265 460.689L414.408 486.698C414.31 487.595 415.036 488.368 415.937 488.325L458.374 486.316C459.063 486.284 459.635 485.777 459.752 485.097L460.35 481.615C459.063 480.899 457.524 480.246 455.728 479.882C449.505 478.62 446.449 482.031 442.183 480.222Z" fill="url(#paint41_linear_266_3)"/>
<path d="M308.92 377.928C307.613 377.095 308.779 374.631 308.806 369.363C308.84 362.961 307.146 361.681 308.473 359.171C310.406 355.512 315.801 354.834 317.171 354.662C321.202 354.155 321.929 355.654 329.036 356.601C335.486 357.46 336.458 356.435 339.031 357.901C342.925 360.121 341.99 363.206 345.299 366.04C351.046 370.959 358.438 365.573 362.943 369.498C367.062 373.088 366.208 382.232 362.967 388.108C355.205 402.181 330.594 403.228 327.104 397.248C325.227 394.033 330.193 390.049 327.582 384.668C325.962 381.328 322.718 380.345 319.455 376.73C319.062 376.294 318.451 375.769 317.648 375.691C316.684 375.595 315.915 376.19 315.545 376.451C313.599 377.819 310.204 378.746 308.92 377.928Z" fill="url(#paint42_linear_266_3)"/>
<path d="M314.807 371.902C312.941 370.227 306.353 373.535 302.003 377.889C296.894 383.005 297.323 387.116 292.877 393.456C290.668 396.608 286.872 400.857 280.114 404.607C280.604 405.805 281.094 407.002 281.583 408.2C284.867 408.371 291.308 408.204 297.287 404.232C301.44 401.472 303.56 397.843 307.63 390.697C311.715 383.525 317.141 373.995 314.807 371.902Z" fill="url(#paint43_linear_266_3)"/>
<path d="M274.457 470.472L276.529 465.977C276.823 465.339 277.286 464.792 277.867 464.396L278.905 463.69C278.905 463.69 281.4 463.604 281.8 465.169C281.899 467.16 278.065 471.639 275.632 473.426C275.227 473.722 274.652 474.118 274.298 473.92C273.7 473.583 274.104 471.747 274.457 470.472Z" fill="url(#paint44_linear_266_3)"/>
<path d="M278.346 461.259C278.693 463.177 278.281 464.183 277.833 464.746C277.518 465.144 274.967 469.427 276.033 470.106C276.514 470.412 279.767 466.308 280.08 465.682C280.363 465.114 280.553 465.246 280.557 463.704C280.56 462.689 280.759 461.87 280.918 461.359C280.06 461.325 279.203 461.292 278.346 461.259Z" fill="url(#paint45_linear_266_3)"/>
<path d="M274.493 446.067C274.493 446.067 272.182 448.869 272.586 451.918C272.991 454.966 277.04 450.472 277.597 448.96C278.155 447.448 278.803 445.295 278.803 445.295C278.803 445.295 275.924 443.535 274.493 446.067Z" fill="url(#paint46_linear_266_3)"/>
<path d="M275.347 441.706C275.347 441.706 276.006 444.944 274.812 446.665C274.218 447.522 273.412 448.251 273.655 448.943C273.819 449.407 274.429 449.736 274.943 449.679C275.926 449.571 276.459 448.058 276.836 446.991C277.392 445.415 277.682 442.049 277.682 442.049L275.347 441.706Z" fill="url(#paint47_linear_266_3)"/>
<path d="M277.228 444.424C276.509 444.169 275.788 443.913 275.069 443.656C273.93 441.109 272.531 436.922 272.946 431.814C274.016 418.681 286.098 411.63 287.441 410.875C290.761 412.508 294.13 414.822 294.274 417.772C294.456 421.476 289.424 423.473 284.724 428.928C281.904 432.203 278.899 437.073 277.228 444.424Z" fill="url(#paint48_linear_266_3)"/>
<path d="M278.148 462.762C275.704 453.521 276.25 445.96 276.899 441.602C277.88 435.015 279.876 421.615 288.771 416.555C290.713 415.45 293.495 414.452 296.87 411.395C299.689 408.842 301.472 406.168 302.545 404.284C314.467 400.685 325.499 402.018 330.413 408.386C330.981 409.123 332.4 410.717 332.691 413.084C333.347 418.423 328.147 424.897 322.267 426.287C314.793 428.054 316.459 424.452 309.845 427.063C307.996 427.793 299.25 428.131 296.132 431.702C292.165 436.245 291.062 437.822 290.223 439.495C287.727 444.475 285.835 448.152 285.591 452.9C285.535 454.006 285.513 456.24 284.237 458.66C283.258 460.516 281.921 461.761 280.924 462.53C280 462.608 279.075 462.685 278.148 462.762Z" fill="url(#paint49_linear_266_3)"/>
<path opacity="0.3" d="M332.692 413.085C332.402 410.719 330.982 409.124 330.414 408.388C325.5 402.017 314.467 400.685 302.547 404.286C301.473 406.169 299.689 408.843 296.871 411.396C293.495 414.453 290.714 415.451 288.772 416.556C283.34 419.646 280.484 425.846 278.858 431.705C281.31 427.836 283.426 426.797 285.07 426.765C287.424 426.721 288.492 428.725 291.3 428.427C294.301 428.109 294.967 425.621 297.401 425.316C298.128 425.225 307.02 426.211 308.102 426.777C309.528 425.26 302.598 423.479 303.778 423.013C310.392 420.402 314.797 428.057 322.271 426.29C328.149 424.899 333.349 418.424 332.692 413.085Z" fill="url(#paint50_linear_266_3)"/>
<path d="M284.005 420.735C285.357 420.653 287.44 420.594 289.954 420.822C301.886 421.906 299.982 425.703 309.848 427.064C312.182 427.386 328.872 428.222 332.257 424.859C336.075 421.066 334.902 413.108 331.35 410.216C329.846 408.993 328.367 409.038 318.8 409.201C315.198 409.262 311.594 409.302 307.991 409.377C292.741 409.692 289.816 408.66 287.061 411.204C285.775 412.39 283.903 414.933 284.005 420.735Z" fill="url(#paint51_linear_266_3)"/>
<path d="M315.814 371.546C315.814 371.546 327.824 367.939 333.175 373.899C334.157 374.993 334.938 376.437 335.52 379.229C338.487 393.46 327.76 402.107 332.073 409.592C333.786 412.565 336.767 413.441 338.923 418.79C339.288 419.696 340.609 422.972 339.429 424.017C338.389 424.937 336.655 423.026 333.602 423.422C330.37 423.842 329.632 426.334 327.453 425.989C326.032 425.764 325.409 424.557 323.295 421.553C320.232 417.203 318.702 415.027 317.611 414.268C313.305 411.277 310.028 415.249 305.121 412.291C303.344 411.22 296.729 402.839 298.674 405.14C303.214 399.382 304.242 394.653 304.326 391.37C304.418 387.771 303.368 386.144 304.251 381.883C304.251 381.883 305.236 377.129 308.896 373.024C309.421 372.436 310.047 371.822 315.814 371.546Z" fill="url(#paint52_linear_266_3)"/>
<path d="M319.617 363.706C319.461 364.469 318.663 368.563 320.343 369.601C320.708 369.826 321.406 369.951 322.801 370.202C323.715 370.365 324.481 370.464 325.021 370.525C324.948 371.211 324.726 372.329 323.943 373.35C321.749 376.212 317.296 375.511 316.661 375.4C314.422 375.01 312.216 374.337 311.681 373.919C310.866 373.283 310.227 372.806 309.847 372.319C310.71 371.893 312.447 370.777 313.617 370.407C314.491 370.131 315.313 369.931 316.059 369.787C316.176 368.997 316.292 368.207 316.409 367.415C317.48 366.178 318.549 364.942 319.617 363.706Z" fill="url(#paint53_linear_266_3)"/>
<path d="M319.357 365.415C319.357 365.415 319.116 368.006 316.601 368.483C314.35 368.91 312.61 363.475 313.752 362.057C314.134 361.585 315.079 361.129 315.904 361.146C316.483 361.159 318.445 361.888 318.734 363.843C319.12 363.43 319.606 363.307 319.846 363.477C320.152 363.692 319.994 364.328 319.959 364.472C319.834 364.972 319.512 365.284 319.357 365.415Z" fill="url(#paint54_linear_266_3)"/>
<path opacity="0.15" d="M298.674 405.14C299.221 404.447 299.713 403.77 300.162 403.108C302.685 402.241 304.87 401.908 306.634 401.808C310.614 401.583 312.803 402.503 315.499 400.85C318.561 398.975 317.997 396.409 320.954 394.951C324.067 393.416 326.289 395.105 329.291 394.529C331.103 394.182 333.305 392.95 335.533 389.391C333.873 397.931 328.895 404.078 332.071 409.591C333.784 412.564 336.766 413.44 338.922 418.789C339.286 419.695 340.607 422.971 339.427 424.016C338.388 424.936 336.653 423.025 333.601 423.421C330.369 423.841 329.631 426.333 327.451 425.988C326.03 425.763 325.408 424.556 323.293 421.551C320.231 417.201 318.7 415.026 317.609 414.267C313.304 411.275 310.026 415.248 305.12 412.289C303.345 411.22 296.729 402.839 298.674 405.14Z" fill="url(#paint55_linear_266_3)"/>
<path d="M295.059 406.632L322.308 407.741C322.683 407.757 323.027 407.955 323.228 408.273L323.991 409.476C324.371 410.075 323.927 410.855 323.217 410.834L294.355 409.964L295.059 406.632Z" fill="url(#paint56_linear_266_3)"/>
<path d="M266.606 391.688L294.751 392.009C295.584 392.019 296.35 392.466 296.767 393.187L306.649 410.254L276.919 409.306C276.103 409.281 275.356 408.845 274.93 408.147L265.782 393.136C265.393 392.498 265.859 391.679 266.606 391.688Z" fill="url(#paint57_linear_266_3)"/>
<path d="M296.769 393.188C296.352 392.468 295.585 392.019 294.753 392.011L294.136 392.004C294.051 392.913 293.779 393.746 293.229 394.421C291.51 396.53 288.617 395.26 286.486 397.494C284.145 399.947 286.348 402.829 284.256 405.112C282.053 407.515 278.447 405.601 274.329 407.16L274.931 408.149C275.356 408.846 276.104 409.282 276.92 409.308L306.65 410.256L296.769 393.188Z" fill="url(#paint58_linear_266_3)"/>
<path d="M320.07 405.523C319.708 404.589 319.347 403.656 318.984 402.722C322.893 401.617 328.3 399.987 333.843 397.957C334.711 397.639 335.742 397.245 336.074 396.326C337.004 393.749 330.941 391.134 328.547 385.542C326.333 380.369 327.472 373.159 329.987 372.288C335.22 370.475 354.009 393.487 347.44 403.302C343.729 408.851 332.156 409.822 320.07 405.523Z" fill="url(#paint59_linear_266_3)"/>
<path d="M318.985 402.722C316.515 401.435 313.58 402.798 313.392 402.889C312.854 403.148 312.071 403.609 311.282 404.427C311.194 404.55 310.137 406.037 310.53 406.508C310.845 406.886 312.049 406.561 313.492 405.648C314.098 405.559 315.004 405.473 316.089 405.564C318.081 405.732 318.998 406.355 319.717 405.805C320.242 405.403 320.416 404.562 320.221 403.938C320.01 403.269 319.402 402.94 318.985 402.722Z" fill="url(#paint60_linear_266_3)"/>
<defs>
<linearGradient id="paint0_linear_266_3" x1="374.679" y1="474.6" x2="376.553" y2="459.606" gradientUnits="userSpaceOnUse">
<stop offset="0.003597" stop-color="#26264F"/>
<stop offset="1" stop-color="#444B8C"/>
</linearGradient>
<linearGradient id="paint1_linear_266_3" x1="366.97" y1="460.934" x2="385.713" y2="427.197" gradientUnits="userSpaceOnUse">
<stop offset="0.003597" stop-color="#26264F"/>
<stop offset="1" stop-color="#444B8C"/>
</linearGradient>
<linearGradient id="paint2_linear_266_3" x1="345.773" y1="444.946" x2="407.98" y2="444.946" gradientUnits="userSpaceOnUse">
<stop offset="0.003597" stop-color="#26264F"/>
<stop offset="1" stop-color="#444B8C"/>
</linearGradient>
<linearGradient id="paint3_linear_266_3" x1="368.754" y1="451.715" x2="387.263" y2="416.103" gradientUnits="userSpaceOnUse">
<stop offset="0.003597" stop-color="#26264F"/>
<stop offset="1" stop-color="#444B8C"/>
</linearGradient>
<linearGradient id="paint4_linear_266_3" x1="342.986" y1="434.462" x2="410.736" y2="434.462" gradientUnits="userSpaceOnUse">
<stop offset="0.003597" stop-color="#26264F"/>
<stop offset="1" stop-color="#444B8C"/>
</linearGradient>
<linearGradient id="paint5_linear_266_3" x1="341.983" y1="422.22" x2="411.771" y2="422.22" gradientUnits="userSpaceOnUse">
<stop offset="0.003597" stop-color="#26264F"/>
<stop offset="1" stop-color="#444B8C"/>
</linearGradient>
<linearGradient id="paint6_linear_266_3" x1="375.144" y1="416.956" x2="382.016" y2="384.781" gradientUnits="userSpaceOnUse">
<stop offset="0.003597" stop-color="#26264F"/>
<stop offset="1" stop-color="#444B8C"/>
</linearGradient>
<linearGradient id="paint7_linear_266_3" x1="362.497" y1="237.907" x2="499.673" y2="455.691" gradientUnits="userSpaceOnUse">
<stop stop-color="#FC9448"/>
<stop offset="0.0521" stop-color="#FD9346"/>
<stop offset="0.1424" stop-color="#FF9344"/>
<stop offset="0.3183" stop-color="#FF7C44"/>
<stop offset="0.4849" stop-color="#FD8846"/>
<stop offset="0.7754" stop-color="#F99C4D"/>
<stop offset="0.8658" stop-color="#F8924F"/>
<stop offset="1" stop-color="#F8924F"/>
</linearGradient>
<linearGradient id="paint8_linear_266_3" x1="337.037" y1="404.101" x2="364.839" y2="322.882" gradientUnits="userSpaceOnUse">
<stop offset="0.494" stop-color="#EBEFF2"/>
<stop offset="1" stop-color="white"/>
</linearGradient>
<linearGradient id="paint9_linear_266_3" x1="363.616" y1="413.199" x2="391.418" y2="331.98" gradientUnits="userSpaceOnUse">
<stop offset="0.494" stop-color="#EBEFF2"/>
<stop offset="1" stop-color="white"/>
</linearGradient>
<linearGradient id="paint10_linear_266_3" x1="327.356" y1="400.787" x2="355.158" y2="319.568" gradientUnits="userSpaceOnUse">
<stop offset="0.494" stop-color="#EBEFF2"/>
<stop offset="1" stop-color="white"/>
</linearGradient>
<linearGradient id="paint11_linear_266_3" x1="366.731" y1="188.629" x2="339.554" y2="412.606" gradientUnits="userSpaceOnUse">
<stop stop-color="#FC9448"/>
<stop offset="0.0521" stop-color="#FD9E46"/>
<stop offset="0.1424" stop-color="#FF9344"/>
<stop offset="0.3183" stop-color="#FF9344"/>
<stop offset="0.4849" stop-color="#FD9346"/>
<stop offset="0.7754" stop-color="#F87B6F"/>
<stop offset="0.8658" stop-color="#F46C5E"/>
<stop offset="1" stop-color="#FD6657"/>
</linearGradient>
<linearGradient id="paint12_linear_266_3" x1="538.598" y1="104.042" x2="415.151" y2="310.879" gradientUnits="userSpaceOnUse">
<stop stop-color="#FFC444"/>
<stop offset="0.9964" stop-color="#F36F56"/>
</linearGradient>
<linearGradient id="paint13_linear_266_3" x1="522.414" y1="290.756" x2="531.396" y2="218.02" gradientUnits="userSpaceOnUse">
<stop stop-color="#FFC444"/>
<stop offset="0.9964" stop-color="#F36F56"/>
</linearGradient>
<linearGradient id="paint14_linear_266_3" x1="417.306" y1="214.62" x2="433.898" y2="114.093" gradientUnits="userSpaceOnUse">
<stop stop-color="#AA80F9"/>
<stop offset="0.9964" stop-color="#6165D7"/>
</linearGradient>
<linearGradient id="paint15_linear_266_3" x1="465.455" y1="50.5306" x2="382.664" y2="260.636" gradientUnits="userSpaceOnUse">
<stop stop-color="#AA80F9"/>
<stop offset="0.9964" stop-color="#6165D7"/>
</linearGradient>
<linearGradient id="paint16_linear_266_3" x1="201.225" y1="801.999" x2="431.83" y2="134.856" gradientUnits="userSpaceOnUse">
<stop stop-color="#AA80F9"/>
<stop offset="0.9964" stop-color="#6165D7"/>
</linearGradient>
<linearGradient id="paint17_linear_266_3" x1="357.788" y1="194.515" x2="378.945" y2="133.307" gradientUnits="userSpaceOnUse">
<stop stop-color="#AA80F9"/>
<stop offset="0.9964" stop-color="#6165D7"/>
</linearGradient>
<linearGradient id="paint18_linear_266_3" x1="505.07" y1="355.895" x2="395.01" y2="604.013" gradientUnits="userSpaceOnUse">
<stop offset="0.00359712" stop-color="#E38DDD"/>
<stop offset="1" stop-color="#9571F6"/>
</linearGradient>
<linearGradient id="paint19_linear_266_3" x1="403.424" y1="467.388" x2="517.279" y2="467.388" gradientUnits="userSpaceOnUse">
<stop stop-color="#AA80F9"/>
<stop offset="0.9964" stop-color="#6165D7"/>
</linearGradient>
<linearGradient id="paint20_linear_266_3" x1="458.5" y1="441.008" x2="485.153" y2="405.337" gradientUnits="userSpaceOnUse">
<stop stop-color="#AA80F9"/>
<stop offset="0.9964" stop-color="#6165D7"/>
</linearGradient>
<linearGradient id="paint21_linear_266_3" x1="464.566" y1="344.461" x2="450.971" y2="375.11" gradientUnits="userSpaceOnUse">
<stop offset="0.00359712" stop-color="#E38DDD"/>
<stop offset="1" stop-color="#9571F6"/>
</linearGradient>
<linearGradient id="paint22_linear_266_3" x1="209.94" y1="434.07" x2="392.979" y2="434.07" gradientUnits="userSpaceOnUse">
<stop stop-color="#AA80F9"/>
<stop offset="0.9964" stop-color="#6165D7"/>
</linearGradient>
<linearGradient id="paint23_linear_266_3" x1="230.207" y1="506.638" x2="245.128" y2="472.7" gradientUnits="userSpaceOnUse">
<stop stop-color="#FFC444"/>
<stop offset="0.9964" stop-color="#F36F56"/>
</linearGradient>
<linearGradient id="paint24_linear_266_3" x1="269.08" y1="487.171" x2="393.097" y2="487.171" gradientUnits="userSpaceOnUse">
<stop stop-color="#FF9085"/>
<stop offset="1" stop-color="#FB6FBB"/>
</linearGradient>
<linearGradient id="paint25_linear_266_3" x1="266.087" y1="487.23" x2="395.278" y2="487.23" gradientUnits="userSpaceOnUse">
<stop stop-color="#FFC444"/>
<stop offset="0.9964" stop-color="#F36F56"/>
</linearGradient>
<linearGradient id="paint26_linear_266_3" x1="251.868" y1="415.129" x2="225.709" y2="503.241" gradientUnits="userSpaceOnUse">
<stop stop-color="#AA80F9"/>
<stop offset="0.9964" stop-color="#6165D7"/>
</linearGradient>
<linearGradient id="paint27_linear_266_3" x1="269.08" y1="450.102" x2="393.097" y2="450.102" gradientUnits="userSpaceOnUse">
<stop stop-color="#FF9085"/>
<stop offset="1" stop-color="#FB6FBB"/>
</linearGradient>
<linearGradient id="paint28_linear_266_3" x1="266.087" y1="450.485" x2="395.278" y2="450.485" gradientUnits="userSpaceOnUse">
<stop stop-color="#AA80F9"/>
<stop offset="0.9964" stop-color="#6165D7"/>
</linearGradient>
<linearGradient id="paint29_linear_266_3" x1="428.537" y1="468.21" x2="427.521" y2="488.275" gradientUnits="userSpaceOnUse">
<stop stop-color="#FF9085"/>
<stop offset="1" stop-color="#FB6FBB"/>
</linearGradient>
<linearGradient id="paint30_linear_266_3" x1="427.278" y1="493.068" x2="426.262" y2="513.134" gradientUnits="userSpaceOnUse">
<stop stop-color="#311944"/>
<stop offset="1" stop-color="#6B3976"/>
</linearGradient>
<linearGradient id="paint31_linear_266_3" x1="465.249" y1="409.18" x2="448.532" y2="545.646" gradientUnits="userSpaceOnUse">
<stop stop-color="#311944"/>
<stop offset="1" stop-color="#6B3976"/>
</linearGradient>
<linearGradient id="paint32_linear_266_3" x1="425.976" y1="486.348" x2="485.361" y2="486.348" gradientUnits="userSpaceOnUse">
<stop stop-color="#311944"/>
<stop offset="1" stop-color="#6B3976"/>
</linearGradient>
<linearGradient id="paint33_linear_266_3" x1="442.792" y1="509.317" x2="431.363" y2="495.094" gradientUnits="userSpaceOnUse">
<stop stop-color="#311944"/>
<stop offset="1" stop-color="#6B3976"/>
</linearGradient>
<linearGradient id="paint34_linear_266_3" x1="410.031" y1="402.416" x2="393.314" y2="538.882" gradientUnits="userSpaceOnUse">
<stop stop-color="#311944"/>
<stop offset="1" stop-color="#6B3976"/>
</linearGradient>
<linearGradient id="paint35_linear_266_3" x1="426.598" y1="391.532" x2="423.186" y2="533.456" gradientUnits="userSpaceOnUse">
<stop stop-color="#FFC444"/>
<stop offset="0.9964" stop-color="#F36F56"/>
</linearGradient>
<linearGradient id="paint36_linear_266_3" x1="402.299" y1="465.55" x2="444.104" y2="465.55" gradientUnits="userSpaceOnUse">
<stop stop-color="#FFC444"/>
<stop offset="0.9964" stop-color="#F36F56"/>
</linearGradient>
<linearGradient id="paint37_linear_266_3" x1="402.466" y1="482.895" x2="443.097" y2="482.895" gradientUnits="userSpaceOnUse">
<stop stop-color="#AA80F9"/>
<stop offset="0.9964" stop-color="#6165D7"/>
</linearGradient>
<linearGradient id="paint38_linear_266_3" x1="401.889" y1="390.938" x2="398.478" y2="532.863" gradientUnits="userSpaceOnUse">
<stop stop-color="#FFC444"/>
<stop offset="0.9964" stop-color="#F36F56"/>
</linearGradient>
<linearGradient id="paint39_linear_266_3" x1="423.267" y1="430.988" x2="437.118" y2="422.628" gradientUnits="userSpaceOnUse">
<stop stop-color="#311944"/>
<stop offset="1" stop-color="#6B3976"/>
</linearGradient>
<linearGradient id="paint40_linear_266_3" x1="424.268" y1="432.661" x2="438.133" y2="424.291" gradientUnits="userSpaceOnUse">
<stop stop-color="#311944"/>
<stop offset="1" stop-color="#6B3976"/>
</linearGradient>
<linearGradient id="paint41_linear_266_3" x1="414.399" y1="473.809" x2="460.352" y2="473.809" gradientUnits="userSpaceOnUse">
<stop offset="0.494" stop-color="#EBEFF2"/>
<stop offset="1" stop-color="white"/>
</linearGradient>
<linearGradient id="paint42_linear_266_3" x1="303.155" y1="355.626" x2="372.651" y2="402.033" gradientUnits="userSpaceOnUse">
<stop stop-color="#311944"/>
<stop offset="1" stop-color="#6B3976"/>
</linearGradient>
<linearGradient id="paint43_linear_266_3" x1="315.498" y1="389.715" x2="280" y2="389.995" gradientUnits="userSpaceOnUse">
<stop offset="0.00359712" stop-color="#E38DDD"/>
<stop offset="1" stop-color="#9571F6"/>
</linearGradient>
<linearGradient id="paint44_linear_266_3" x1="272.711" y1="471.665" x2="282.019" y2="465.327" gradientUnits="userSpaceOnUse">
<stop stop-color="#311944"/>
<stop offset="1" stop-color="#6B3976"/>
</linearGradient>
<linearGradient id="paint45_linear_266_3" x1="275.801" y1="474.138" x2="293.741" y2="418.865" gradientUnits="userSpaceOnUse">
<stop stop-color="#FFC444"/>
<stop offset="0.9964" stop-color="#F36F56"/>
</linearGradient>
<linearGradient id="paint46_linear_266_3" x1="272.519" y1="448.847" x2="278.83" y2="448.798" gradientUnits="userSpaceOnUse">
<stop stop-color="#311944"/>
<stop offset="1" stop-color="#6B3976"/>
</linearGradient>
<linearGradient id="paint47_linear_266_3" x1="268.998" y1="466.206" x2="279.059" y2="435.208" gradientUnits="userSpaceOnUse">
<stop stop-color="#FFC444"/>
<stop offset="0.9964" stop-color="#F36F56"/>
</linearGradient>
<linearGradient id="paint48_linear_266_3" x1="-451.871" y1="851.033" x2="-401.885" y2="822.208" gradientUnits="userSpaceOnUse">
<stop stop-color="#311944"/>
<stop offset="1" stop-color="#6B3976"/>
</linearGradient>
<linearGradient id="paint49_linear_266_3" x1="311.593" y1="397.641" x2="299.105" y2="452.755" gradientUnits="userSpaceOnUse">
<stop stop-color="#311944"/>
<stop offset="1" stop-color="#6B3976"/>
</linearGradient>
<linearGradient id="paint50_linear_266_3" x1="292.556" y1="466.599" x2="303.212" y2="431.922" gradientUnits="userSpaceOnUse">
<stop stop-color="#311944"/>
<stop offset="1" stop-color="#6B3976"/>
</linearGradient>
<linearGradient id="paint51_linear_266_3" x1="-449.601" y1="855.836" x2="-399.589" y2="826.996" gradientUnits="userSpaceOnUse">
<stop stop-color="#311944"/>
<stop offset="1" stop-color="#6B3976"/>
</linearGradient>
<linearGradient id="paint52_linear_266_3" x1="339.716" y1="398.131" x2="298.27" y2="398.459" gradientUnits="userSpaceOnUse">
<stop offset="0.00359712" stop-color="#E38DDD"/>
<stop offset="1" stop-color="#9571F6"/>
</linearGradient>
<linearGradient id="paint53_linear_266_3" x1="319.459" y1="380.275" x2="314.805" y2="359.924" gradientUnits="userSpaceOnUse">
<stop stop-color="#FFC444"/>
<stop offset="0.9964" stop-color="#F36F56"/>
</linearGradient>
<linearGradient id="paint54_linear_266_3" x1="316.379" y1="362.295" x2="321.013" y2="385.189" gradientUnits="userSpaceOnUse">
<stop stop-color="#FFC444"/>
<stop offset="0.9964" stop-color="#F36F56"/>
</linearGradient>
<linearGradient id="paint55_linear_266_3" x1="339.791" y1="407.642" x2="298.345" y2="407.97" gradientUnits="userSpaceOnUse">
<stop stop-color="#AA80F9"/>
<stop offset="0.9964" stop-color="#6165D7"/>
</linearGradient>
<linearGradient id="paint56_linear_266_3" x1="294.346" y1="408.85" x2="324.119" y2="408.615" gradientUnits="userSpaceOnUse">
<stop stop-color="#444B8C"/>
<stop offset="0.9964" stop-color="#3E4177"/>
</linearGradient>
<linearGradient id="paint57_linear_266_3" x1="265.708" y1="401.137" x2="306.575" y2="400.814" gradientUnits="userSpaceOnUse">
<stop stop-color="#444B8C"/>
<stop offset="0.9964" stop-color="#3E4177"/>
</linearGradient>
<linearGradient id="paint58_linear_266_3" x1="274.282" y1="401.336" x2="306.577" y2="401.08" gradientUnits="userSpaceOnUse">
<stop stop-color="#444B8C"/>
<stop offset="0.9964" stop-color="#3E4177"/>
</linearGradient>
<linearGradient id="paint59_linear_266_3" x1="348.753" y1="390.067" x2="318.886" y2="390.303" gradientUnits="userSpaceOnUse">
<stop offset="0.00359712" stop-color="#E38DDD"/>
<stop offset="1" stop-color="#9571F6"/>
</linearGradient>
<linearGradient id="paint60_linear_266_3" x1="312.945" y1="402.832" x2="322.916" y2="412.08" gradientUnits="userSpaceOnUse">
<stop stop-color="#FFC444"/>
<stop offset="0.9964" stop-color="#F36F56"/>
</linearGradient>
</defs>
</svg>
