<svg width="76" height="81" viewBox="0 0 76 81" fill="none" xmlns="http://www.w3.org/2000/svg">
<g opacity="0.3">
<path d="M73.3721 50.2917C73.7733 50.2657 74.1258 49.9819 74.2173 49.57C74.3912 48.8026 74.5438 48.0185 74.6704 47.2404C74.7528 46.7355 74.411 46.2579 73.9045 46.1756C73.398 46.0901 72.9221 46.4364 72.8397 46.9414C72.7192 47.6829 72.5727 48.4304 72.4079 49.1627C72.295 49.6616 72.6093 50.1589 73.1082 50.2718C73.1967 50.2917 73.2852 50.2978 73.3721 50.2917Z" fill="#91B3FA"/>
<path d="M74.2036 43.2174C73.691 43.1976 73.2928 42.7674 73.3126 42.2548C73.3614 40.9626 73.3447 39.6536 73.2638 38.363C73.247 38.0914 73.2256 37.8183 73.2028 37.5437C73.16 37.0342 73.5384 36.5841 74.0495 36.5414C74.5331 36.52 75.0091 36.877 75.0518 37.3881C75.0762 37.6749 75.0976 37.9602 75.1159 38.244C75.2013 39.5972 75.2196 40.9702 75.1662 42.325C75.1479 42.804 74.7681 43.1854 74.2997 43.2144C74.2677 43.2174 74.2356 43.219 74.2036 43.2174ZM72.5193 32.8815C72.1974 31.3467 71.7794 29.818 71.2744 28.3397C71.1081 27.8546 71.3675 27.3282 71.8526 27.162C72.3347 26.9972 72.8656 27.255 73.0304 27.7402C73.5598 29.2902 73.9991 30.8936 74.3363 32.5016C74.4416 33.0035 74.1196 33.4948 73.6177 33.6C73.5735 33.6092 73.5292 33.6153 73.485 33.6168C73.0319 33.6473 72.6154 33.3391 72.5193 32.8815ZM69.4757 23.9856C68.7892 22.579 68.0081 21.1999 67.1507 19.8879C66.8715 19.4592 66.992 18.884 67.4207 18.6048C67.8509 18.3241 68.4246 18.4446 68.7053 18.8749C69.6039 20.251 70.4231 21.6972 71.1432 23.1725C71.3675 23.6332 71.1768 24.1885 70.716 24.4128C70.6032 24.4677 70.4857 24.4967 70.3682 24.5044C70.0036 24.5272 69.6451 24.3335 69.4757 23.9856ZM64.3375 16.1074C63.326 14.9098 62.2291 13.7641 61.0818 12.7038C60.705 12.3559 60.6821 11.7686 61.03 11.3933C61.3763 11.018 61.9636 10.9936 62.3404 11.3414C63.5441 12.4536 64.6929 13.6542 65.7548 14.9113C66.0858 15.3019 66.0355 15.8877 65.6449 16.2188C65.4863 16.3515 65.2971 16.4232 65.1064 16.4354C64.8226 16.4522 64.5358 16.3408 64.3375 16.1074ZM57.4326 9.72275C56.1602 8.80739 54.8192 7.96372 53.4477 7.2116C52.9991 6.96598 52.8344 6.4015 53.08 5.95297C53.3256 5.50292 53.8901 5.33816 54.3386 5.58531C55.7773 6.37252 57.1824 7.2589 58.5157 8.21698C58.9307 8.516 59.0268 9.09573 58.7278 9.51222C58.5585 9.74716 58.3006 9.87989 58.0321 9.89667C57.8262 9.90888 57.6141 9.85243 57.4326 9.72275ZM49.1867 5.20848C47.7312 4.63027 46.227 4.13903 44.7136 3.74695C44.2178 3.6188 43.9203 3.11229 44.0484 2.61647C44.1766 2.12065 44.6816 1.82316 45.1789 1.95131C46.7655 2.36322 48.3445 2.87888 49.8701 3.48454C50.3461 3.67372 50.5795 4.21226 50.3904 4.68825C50.2531 5.03304 49.9327 5.24967 49.5864 5.27256C49.4552 5.28019 49.3194 5.26035 49.1867 5.20848ZM40.091 2.84837C38.5441 2.64546 36.962 2.53867 35.3921 2.52951C34.8795 2.52646 34.4676 2.10845 34.4707 1.59584C34.4737 1.08324 34.8902 0.678954 35.4043 0.672852C37.0505 0.683531 38.7088 0.796428 40.332 1.00849C40.8401 1.07561 41.1986 1.54092 41.1315 2.04895C41.0735 2.49595 40.7058 2.82701 40.271 2.85447C40.2131 2.85752 40.152 2.856 40.091 2.84837ZM24.9311 2.94143C24.809 2.44408 25.1141 1.94216 25.613 1.82011C26.9906 1.48448 28.411 1.2175 29.8298 1.02832C30.0449 0.997808 30.26 0.971867 30.4751 0.945932C30.9801 0.872703 31.4454 1.25106 31.5034 1.76061C31.5629 2.27016 31.1982 2.72937 30.6887 2.78887C30.4873 2.81175 30.2844 2.83769 30.0784 2.86515C28.7207 3.04517 27.3659 3.29995 26.0524 3.62032C25.999 3.63405 25.9441 3.64168 25.8907 3.64473C25.4482 3.67677 25.0378 3.38538 24.9311 2.94143Z" fill="#91B3FA"/>
</g>
<g opacity="0.3">
<path d="M37.1055 80.7655C35.4914 80.8463 33.8574 80.8295 32.2494 80.7166C31.7384 80.68 31.3539 80.2376 31.389 79.725C31.4256 79.2139 31.8726 78.834 32.3807 78.8646C33.9139 78.9729 35.4715 78.9881 37.0124 78.9103C37.5235 78.8844 37.9598 79.278 37.9857 79.7906C38.0117 80.2986 37.6241 80.7319 37.1176 80.764C37.1131 80.764 37.1085 80.7655 37.1055 80.7655ZM40.863 79.4717C40.7761 78.9668 41.1147 78.4877 41.6197 78.4008C43.1392 78.1399 44.6572 77.7829 46.1325 77.342C46.6207 77.1971 47.1409 77.4747 47.2874 77.966C47.4338 78.4572 47.1546 78.9729 46.6649 79.1209C45.1179 79.5831 43.5267 79.9569 41.9355 80.23C41.902 80.2361 41.8684 80.2391 41.8348 80.2422C41.368 80.2696 40.9439 79.9447 40.863 79.4717ZM27.4316 80.0774C25.8434 79.7662 24.2614 79.3558 22.7297 78.8569C22.243 78.6983 21.976 78.1735 22.1347 77.6868C22.2933 77.1986 22.8151 76.9347 23.3033 77.0918C24.7648 77.5678 26.2736 77.9599 27.7886 78.2574C28.292 78.3565 28.6185 78.8432 28.5209 79.3451C28.4385 79.7677 28.08 80.0667 27.6696 80.0927C27.5918 80.0973 27.5109 80.0927 27.4316 80.0774ZM50.0045 76.9667C49.7985 76.4984 50.0121 75.9507 50.482 75.7447C51.8932 75.1253 53.2799 74.4144 54.6042 73.6287C55.0451 73.3678 55.6141 73.5143 55.875 73.9521C56.1359 74.393 55.9909 74.9621 55.55 75.2229C54.1617 76.0468 52.7063 76.7943 51.2265 77.4427C51.1243 77.4869 51.0175 77.5129 50.9122 77.519C50.5354 77.5434 50.1662 77.3329 50.0045 76.9667ZM18.2139 77.0735C16.7508 76.3916 15.3152 75.612 13.9452 74.7576C13.5104 74.4861 13.3777 73.914 13.6493 73.4792C13.9208 73.0444 14.4929 72.9101 14.9277 73.1832C16.2351 73.9994 17.6036 74.7424 18.9996 75.3923C19.4634 75.6089 19.6647 76.1612 19.4481 76.625C19.3001 76.9438 18.9934 77.1376 18.6654 77.1589C18.5144 77.1681 18.3588 77.1406 18.2139 77.0735ZM9.98475 71.9444C8.72613 70.9299 7.51631 69.8284 6.39194 68.6735C6.03495 68.3074 6.04259 67.72 6.40874 67.363C6.77489 67.006 7.36222 67.0137 7.72074 67.3798C8.79324 68.4813 9.94659 69.5309 11.1488 70.4997C11.547 70.8216 11.6095 71.4059 11.2892 71.8041C11.1198 72.0146 10.8757 72.1321 10.6255 72.1473C10.4012 72.1626 10.1724 72.0954 9.98475 71.9444ZM3.21867 64.9922C2.23771 63.7046 1.32845 62.3453 0.515302 60.9539C0.255949 60.5115 0.405448 59.944 0.847874 59.6846C1.2903 59.4253 1.85784 59.5763 2.11719 60.0172C2.8922 61.3445 3.76029 62.6413 4.69549 63.8679C5.00518 64.2752 4.92735 64.858 4.51849 65.1677C4.36746 65.2836 4.19201 65.3446 4.01656 65.3553C3.71754 65.3752 3.41548 65.2485 3.21867 64.9922Z" fill="#91B3FA"/>
<path d="M59.1001 72.6597C59.2786 72.649 59.4556 72.5849 59.6081 72.4675C60.2367 71.9823 60.853 71.4758 61.4419 70.9617C61.8279 70.6245 61.8675 70.0387 61.5319 69.6527C61.1948 69.2683 60.6089 69.2271 60.223 69.5627C59.6615 70.0524 59.0742 70.5361 58.4746 70.9998C58.0688 71.3126 57.9956 71.8969 58.3083 72.3012C58.5021 72.5544 58.8026 72.6795 59.1001 72.6597Z" fill="#91B3FA"/>
</g>
<path d="M61.5625 55.172C61.6784 55.0088 61.6799 54.7906 61.564 54.6258L58.2534 49.9651C59.271 47.4967 59.9026 44.8482 60.0826 42.1067L65.1064 39.385C65.2834 39.2889 65.3795 39.0921 65.3459 38.8953L64.2246 32.1292C64.1926 31.9309 64.037 31.7768 63.8402 31.7432L58.2061 30.7897C57.1504 28.2527 55.698 25.9505 53.9374 23.9413L55.5668 18.4613C55.6233 18.2691 55.5531 18.0616 55.3898 17.9457L49.8122 13.9547C49.649 13.8387 49.4308 13.8372 49.2661 13.9532L44.6053 17.2637C42.1369 16.2461 39.4884 15.6145 36.7469 15.4345L34.0253 10.4107C33.9292 10.2337 33.7323 10.1376 33.5355 10.1712L26.7695 11.2925C26.5712 11.3261 26.4171 11.4801 26.3835 11.6769L25.43 17.311C22.8929 18.3667 20.5907 19.8191 18.5815 21.5797L13.1016 19.9503C12.9093 19.8939 12.7019 19.964 12.5859 20.1273L8.59491 25.7049C8.47896 25.8681 8.47744 26.0863 8.59338 26.2495L11.904 30.9103C10.8864 33.3787 10.2548 36.0272 10.0748 38.7687L5.05093 41.4903C4.87396 41.5849 4.77787 41.7817 4.81144 41.9801L5.93273 48.7461C5.9663 48.9445 6.12039 49.0985 6.31719 49.1321L11.9512 50.0856C13.007 52.6227 14.4593 54.9248 16.2199 56.9341L14.5906 62.414C14.5341 62.6063 14.6043 62.8138 14.7675 62.9297L20.3451 66.9207C20.5084 67.0366 20.7265 67.0382 20.8913 66.9222L25.552 63.6116C28.0205 64.6292 30.6689 65.2608 33.4104 65.4408L36.1321 70.4647C36.2282 70.6401 36.425 70.7377 36.6218 70.7042L43.3879 69.5829C43.5862 69.5493 43.7403 69.3952 43.7739 69.1984L44.7274 63.5644C47.2645 62.5086 49.5666 61.0562 51.5758 59.2957L57.0558 60.9251C57.248 60.9815 57.4555 60.9113 57.5715 60.7481L61.5625 55.172Z" fill="#91B3FA"/>
<path d="M34.4982 47.4312C32.6293 47.2771 30.9344 46.4029 29.723 44.9719C28.5117 43.5424 27.9304 41.7254 28.0861 39.8566C28.4064 36.0013 31.7994 33.1301 35.6607 33.4444C39.5174 33.7663 42.3932 37.1639 42.0713 41.0191C41.9157 42.8864 41.043 44.5829 39.612 45.7942C38.4495 46.7782 37.0307 47.3473 35.5371 47.4419C35.1939 47.4632 34.846 47.4602 34.4982 47.4312ZM29.9336 40.0106C29.8192 41.3852 30.2463 42.7216 31.1373 43.7743C32.0282 44.8254 33.2762 45.4692 34.6492 45.5837C36.0238 45.6966 37.3602 45.2694 38.4129 44.3785C39.4656 43.489 40.1078 42.2395 40.2223 40.8665C40.4587 38.0304 38.3427 35.5315 35.5066 35.295C35.2503 35.2736 34.9971 35.2721 34.7484 35.2874C32.2373 35.446 30.1487 37.4308 29.9336 40.0106Z" fill="#BDD0FB"/>
<path d="M36.0604 57.7869C36.6462 57.7503 37.2351 57.6816 37.8256 57.5855C38.9987 57.3918 40.1536 57.0775 41.2612 56.6519C41.3116 56.632 41.3604 56.6122 41.4107 56.5939C41.7937 56.4428 42.021 56.0645 41.9966 55.6739C41.9905 55.5793 41.9691 55.4832 41.9325 55.3902C41.7448 54.9142 41.2048 54.6823 40.7288 54.87C39.699 55.2773 38.6204 55.5763 37.5235 55.7563C37.464 55.767 37.403 55.7762 37.3435 55.7853C34.7438 56.1911 32.1411 55.9333 29.7276 55.0698C28.4171 54.6014 27.1631 53.9531 25.9945 53.1323C25.9853 53.1262 25.9762 53.1186 25.9655 53.1125C25.9365 53.0911 25.9075 53.0713 25.8785 53.0514C22.4856 50.6227 20.2399 47.0192 19.5579 42.9031C19.4695 42.3707 19.4084 41.8382 19.3749 41.3058C19.1476 37.7282 20.1499 34.2117 22.2644 31.2581C24.6931 27.8652 28.2966 25.621 32.4127 24.9391C36.5257 24.2587 40.6647 25.2183 44.0577 27.6455C47.4506 30.0743 49.6963 33.6778 50.3782 37.7938C50.4652 38.3171 50.5247 38.8434 50.5583 39.3698C50.7032 41.6521 50.3462 43.939 49.5071 46.0672C49.4553 46.1984 49.4354 46.3342 49.4446 46.4654C49.4659 46.8132 49.6841 47.1336 50.0304 47.2694C50.5079 47.4555 51.0449 47.2236 51.2341 46.7461C52.1739 44.3646 52.572 41.8046 52.4119 39.2523C52.3737 38.6634 52.3081 38.0745 52.2105 37.4887C51.4462 32.8829 48.935 28.8507 45.1378 26.1352C41.3421 23.4196 36.7164 22.341 32.1106 23.1083C27.5048 23.8712 23.4742 26.3823 20.757 30.1795C18.3924 33.484 17.271 37.4185 17.5243 41.4202C17.5624 42.0137 17.6296 42.6102 17.7287 43.2067C19.2055 52.1193 27.2287 58.3468 36.0604 57.7869Z" fill="#BDD0FB"/>
</svg>
