<svg width="100" height="82" viewBox="0 0 100 82" fill="none" xmlns="http://www.w3.org/2000/svg">
<path d="M39.9701 79.0225L9.38182 47.9529C5.58431 44.0956 5.58431 37.9046 9.38182 34.0473L39.9701 2.97754C46.1905 -3.34093 56.9426 1.06382 56.9426 9.93033V72.0697C56.9428 80.9362 46.1907 85.3409 39.9701 79.0225Z" fill="#DBABE5"/>
<path d="M23.9882 62.9133H5.82179C2.61981 62.9133 0 60.2935 0 57.0915V24.9087C0 21.7067 2.61981 19.0869 5.82179 19.0869H23.9884V62.9133H23.9882Z" fill="#7E89E4"/>
<path d="M72.1746 64.9987C71.2981 64.9987 70.4404 64.5641 69.9358 63.7693C69.1519 62.5342 69.5174 60.8974 70.7525 60.1131C75.9846 56.7918 79.7195 51.1202 80.7431 44.9421C82.1561 36.4135 78.1763 27.5044 70.8396 22.7726C69.6102 21.9795 69.2564 20.3403 70.0494 19.1109C70.842 17.8812 72.4812 17.5271 73.7113 18.3205C82.7965 24.1801 87.7228 35.2265 85.9696 45.8078C84.7034 53.4496 80.0763 60.4695 73.592 64.5858C73.1685 64.8555 72.6768 64.9988 72.1746 64.9987ZM82.3375 72.3021C90.9842 66.8132 97.1547 57.451 98.8435 47.2582C101.181 33.1493 94.6109 18.4192 82.4947 10.6048C81.2647 9.81139 79.6255 10.1655 78.8329 11.3952C78.0398 12.6246 78.3936 14.2641 79.623 15.0569C89.9907 21.7434 95.6142 34.3363 93.617 46.3925C92.1706 55.1217 86.8924 63.1358 79.4979 67.8296C78.263 68.6135 77.8973 70.2505 78.6813 71.4858C78.8675 71.7797 79.1099 72.034 79.3946 72.2341C79.6792 72.4342 80.0005 72.5763 80.3401 72.6521C80.6797 72.7279 81.0309 72.736 81.3736 72.6759C81.7164 72.6159 82.0439 72.4888 82.3375 72.3021ZM66.218 54.1389C69.8273 51.8472 72.3011 48.0955 73.0052 43.8456C73.967 38.0398 71.2666 31.9805 66.2853 28.768C65.056 27.9752 63.4164 28.3289 62.6236 29.5584C61.8306 30.7878 62.1844 32.4272 63.414 33.2202C66.6461 35.3048 68.4003 39.2268 67.7787 42.9796C67.3273 45.7037 65.6823 48.2033 63.3784 49.6662C62.1433 50.4503 61.7778 52.0875 62.5618 53.3224C62.8009 53.6996 63.1316 54.0101 63.523 54.225C63.9145 54.44 64.3539 54.5524 64.8005 54.5519C65.3027 54.5518 65.7944 54.4086 66.218 54.1389Z" fill="url(#paint0_radial_45_356)"/>
<defs>
<radialGradient id="paint0_radial_45_356" cx="0" cy="0" r="1" gradientUnits="userSpaceOnUse" gradientTransform="translate(69.8518 41.3036) scale(37.3556 22.1994)">
<stop stop-color="#FB7C98"/>
<stop offset="1" stop-color="#FEC04D"/>
</radialGradient>
</defs>
</svg>
