<svg width="252" height="127" viewBox="0 0 252 127" fill="none" xmlns="http://www.w3.org/2000/svg">
<path d="M1.53963 40.1967C0.751175 39.9424 0.31813 39.0972 0.572403 38.3087L4.71579 25.4603C4.97005 24.6718 5.81532 24.2388 6.60376 24.493C7.39221 24.7473 7.82526 25.5926 7.571 26.381L3.88799 37.8019L15.3088 41.4849C16.0973 41.7391 16.5303 42.5844 16.276 43.3729C16.0218 44.1613 15.1765 44.5943 14.3881 44.3401L1.53963 40.1967ZM250.202 73.3088C198.698 40.9349 151.085 53.9677 133.895 73.043L131.666 71.0347C150.037 50.6494 199.337 37.7933 251.798 70.7689L250.202 73.3088ZM133.895 73.043C125.274 82.6091 122.902 92.5669 124.69 101.056C126.485 109.575 132.516 116.84 141.141 120.913L139.859 123.625C130.484 119.198 123.765 111.213 121.755 101.675C119.739 92.1062 122.507 81.1989 131.666 71.0347L133.895 73.043ZM141.141 120.913C149.755 124.981 160.595 125.19 169.232 120.043C177.796 114.94 184.5 104.378 184.5 86.2691H187.5C187.5 105.16 180.454 116.849 170.768 122.62C161.155 128.348 149.245 128.058 139.859 123.625L141.141 120.913ZM184.5 86.2691C184.5 68.3466 171.522 40.2215 142.343 24.8461C113.259 9.52031 67.7964 6.74648 2.68393 40.1041L1.31607 37.4341C66.9843 3.79172 113.522 6.26792 143.742 22.1921C173.868 38.0667 187.5 67.1916 187.5 86.2691H184.5Z" fill="#FD6657"/>
<path d="M152 16.2692C131.5 1.26924 108.5 -1.77494 80.5 3.22505" stroke="#9997E7" stroke-width="2"/>
</svg>
