<svg width="252" height="127" viewBox="0 0 252 127" fill="none" xmlns="http://www.w3.org/2000/svg">
<path d="M250.46 40.1968C251.249 39.9425 251.682 39.0972 251.428 38.3088L247.284 25.4604C247.03 24.6719 246.185 24.2389 245.396 24.4931C244.608 24.7474 244.175 25.5927 244.429 26.3811L248.112 37.8019L236.691 41.485C235.903 41.7392 235.47 42.5845 235.724 43.3729C235.978 44.1614 236.824 44.5944 237.612 44.3402L250.46 40.1968ZM1.79826 73.3089C53.3018 40.935 100.915 53.9678 118.105 73.0431L120.334 71.0347C101.963 50.6495 52.6625 37.7934 0.201739 70.769L1.79826 73.3089ZM118.105 73.0431C126.726 82.6092 129.098 92.567 127.31 101.056C125.515 109.575 119.484 116.84 110.859 120.913L112.141 123.626C121.516 119.198 128.235 111.213 130.245 101.675C132.261 92.1063 129.493 81.199 120.334 71.0347L118.105 73.0431ZM110.859 120.913C102.245 124.981 91.4048 125.19 82.7678 120.043C74.2035 114.94 67.5 104.378 67.5 86.2692H64.5C64.5 105.16 71.5465 116.849 81.2322 122.62C90.8452 128.349 102.755 128.058 112.141 123.626L110.859 120.913ZM67.5 86.2692C67.5 68.3467 80.4779 40.2216 109.657 24.8462C138.741 9.5204 184.204 6.74657 249.316 40.1042L250.684 37.4342C185.016 3.79181 138.478 6.26801 108.258 22.1922C78.1318 38.0668 64.5 67.1917 64.5 86.2692H67.5Z" fill="#FD6657"/>
<path d="M100 16.2692C120.5 1.26924 143.5 -1.77494 171.5 3.22505" stroke="#9997E7" stroke-width="2"/>
</svg>
