<svg width="76" height="60" viewBox="0 0 76 60" fill="none" xmlns="http://www.w3.org/2000/svg">
<path d="M75.2272 10.3424C75.7036 9.6647 75.5404 8.72908 74.8627 8.25265L63.8185 0.488897C63.1408 0.0124749 62.2051 0.175663 61.7287 0.853389C61.2523 1.53112 61.4155 2.46674 62.0932 2.94316L71.9103 9.84428L65.0091 19.6613C64.5327 20.3391 64.6959 21.2747 65.3736 21.7511C66.0514 22.2275 66.987 22.0643 67.4634 21.3866L75.2272 10.3424ZM3.1217 54.4757C14.884 41.2276 25.1475 34.8248 33.5242 32.5606C41.8534 30.3093 48.3915 32.1231 52.9162 35.495C57.4965 38.9083 60.051 43.9398 60.3394 48.1678C60.483 50.2729 60.0618 52.0854 59.168 53.4156C58.2968 54.7123 56.8937 55.6789 54.7775 55.9963L55.2225 58.9631C58.1063 58.5305 60.2814 57.1378 61.6581 55.0888C63.0124 53.0733 63.5092 50.5537 63.3325 47.9636C62.9803 42.8009 59.941 36.9886 54.7088 33.0895C49.421 29.1489 41.9279 27.1815 32.7414 29.6645C23.6025 32.1347 12.866 38.9819 0.878312 52.4839L3.1217 54.4757ZM54.7775 55.9963C50.4093 56.6516 46.9586 54.8073 44.7325 51.468C42.4674 48.0704 41.4664 43.0816 42.3552 37.6599C44.1149 26.9263 53.3093 14.6113 74.2578 10.9575L73.7423 8.00209C51.6908 11.8483 41.3852 25.0332 39.3948 37.1746C38.4086 43.1903 39.4701 48.9828 42.2363 53.1321C45.0413 57.3397 49.5907 59.8079 55.2225 58.9631L54.7775 55.9963Z" fill="#9997E7"/>
</svg>
