<svg width="226" height="32" viewBox="0 0 226 32" fill="none" xmlns="http://www.w3.org/2000/svg">
<path d="M0.85564 30.5827L206.623 19.7021L216.947 11.475L0.85564 30.5827Z" fill="#FD6657"/>
<path d="M225.122 0.999987L0.85564 30.5827L215.5 8L225.122 0.999987Z" fill="#FD6657"/>
<path d="M0.85564 30.5827L0.790251 30.087L0.882042 31.082L0.85564 30.5827ZM225.122 0.999987L225.416 1.40431L225.056 0.504281L225.122 0.999987ZM215.5 8L215.552 8.49726L215.686 8.48322L215.794 8.40432L215.5 8ZM206.623 19.7021L206.649 20.2014L206.809 20.1929L206.934 20.0931L206.623 19.7021ZM216.947 11.475L217.258 11.8661L218.558 10.8306L216.903 10.977L216.947 11.475ZM0.921028 31.0784L225.187 1.49569L225.056 0.504281L0.790251 30.087L0.921028 31.0784ZM224.827 0.595668L215.206 7.59568L215.794 8.40432L225.416 1.40431L224.827 0.595668ZM215.448 7.50274L0.803323 30.0855L0.907956 31.08L215.552 8.49726L215.448 7.50274ZM0.882042 31.082L206.649 20.2014L206.596 19.2028L0.829237 30.0834L0.882042 31.082ZM206.934 20.0931L217.258 11.8661L216.635 11.084L206.311 19.3111L206.934 20.0931ZM216.903 10.977L0.811599 30.0847L0.89968 31.0808L216.991 11.9731L216.903 10.977Z" fill="#FD6657"/>
</svg>
