<svg width="361" height="184" viewBox="0 0 361 184" fill="none" xmlns="http://www.w3.org/2000/svg">
<path d="M110.5 72.0388L109.702 70.7689L110.5 72.0388ZM359.96 40.1967C360.749 39.9424 361.182 39.0972 360.928 38.3087L356.784 25.4603C356.53 24.6718 355.685 24.2388 354.896 24.493C354.108 24.7473 353.675 25.5926 353.929 26.381L357.612 37.8019L346.191 41.4849C345.403 41.7391 344.97 42.5844 345.224 43.3729C345.478 44.1613 346.323 44.5943 347.112 44.3401L359.96 40.1967ZM77 130L78.4727 129.715L77 130ZM133 153.5L134.416 153.995L133 153.5ZM111.298 73.3088C162.802 40.9349 210.415 53.9677 227.605 73.043L229.834 71.0347C211.463 50.6494 162.162 37.7933 109.702 70.7689L111.298 73.3088ZM227.605 73.043C236.226 82.6091 238.598 92.5669 236.81 101.056C235.015 109.575 228.984 116.84 220.359 120.913L221.64 123.625C231.016 119.198 237.735 111.213 239.745 101.675C241.761 92.1062 238.993 81.1989 229.834 71.0347L227.605 73.043ZM220.359 120.913C211.745 124.981 200.905 125.19 192.268 120.043C183.703 114.94 177 104.378 177 86.2691H174C174 105.16 181.046 116.849 190.732 122.62C200.345 128.348 212.255 128.058 221.64 123.625L220.359 120.913ZM177 86.2691C177 68.3466 189.978 40.2215 219.156 24.8461C248.241 9.52031 293.704 6.74648 358.816 40.1041L360.184 37.4341C294.516 3.79172 247.978 6.26792 217.758 22.1921C187.632 38.0667 174 67.1916 174 86.2691H177ZM109.702 70.7689C104.899 73.7877 94.8603 80.633 86.7686 90.6936C78.6672 100.766 72.4145 114.202 75.5273 130.285L78.4727 129.715C75.5855 114.798 81.3328 102.239 89.1063 92.5738C96.8896 82.8967 106.601 76.2614 111.298 73.3088L109.702 70.7689ZM75.5273 130.285C78.3081 144.652 90.8817 156.289 103.567 161.575C109.93 164.226 116.499 165.36 122.066 164.331C127.713 163.287 132.317 160.003 134.416 153.995L131.584 153.005C129.887 157.863 126.256 160.506 121.521 161.381C116.706 162.271 110.746 161.316 104.721 158.806C92.6328 153.769 81.0032 142.789 78.4727 129.715L75.5273 130.285ZM134.416 153.995C136.344 148.477 136.11 143.418 134.068 138.937C132.043 134.492 128.303 130.754 123.456 127.7C113.783 121.606 99.3448 118.011 83.7216 117.003C68.0672 115.993 51.0454 117.568 36.1075 121.967C21.2018 126.357 8.17502 133.619 0.77329 144.137L3.22671 145.863C10.075 136.131 22.3607 129.143 36.955 124.845C51.5171 120.557 68.1828 119.007 83.5284 119.997C98.9052 120.989 112.779 124.519 121.857 130.238C126.384 133.09 129.629 136.43 131.338 140.181C133.03 143.894 133.281 148.148 131.584 153.005L134.416 153.995Z" fill="#FD6657"/>
<path d="M209.5 16.2692C230 1.26924 253 -1.77494 281 3.22505" stroke="#9997E7" stroke-width="2"/>
<path d="M101.919 171.64C116.608 178.959 127.265 176.324 136.56 166.264" stroke="#9997E7" stroke-width="2"/>
</svg>
