<svg width="1440" height="5783" viewBox="0 0 1440 5783" fill="none" xmlns="http://www.w3.org/2000/svg">
<g clip-path="url(#clip0_1_3)">
<rect width="1440" height="5783" fill="white"/>
<path d="M135 2079C135 2079 148 2080.64 152.5 2071C157 2061.36 157.5 2049.5 157.5 2049.5" stroke="#9997E7" stroke-width="2"/>
<path d="M135.5 2079.11C135.5 2079.11 148.5 2077.46 153 2087.11C157.5 2096.75 158 2108.61 158 2108.61" stroke="#9997E7" stroke-width="2"/>
<path d="M180 2078.5C180 2078.5 167 2080.14 162.5 2070.5C158 2060.86 157.5 2049 157.5 2049" stroke="#9997E7" stroke-width="2"/>
<path d="M179.5 2078.5C179.5 2078.5 167.5 2077.96 163 2087.61C158.5 2097.25 158 2109.11 158 2109.11" stroke="#9997E7" stroke-width="2"/>
<g filter="url(#filter0_f_1_3)">
<ellipse cx="950" cy="1178.5" rx="232" ry="216.5" fill="#BEDBED"/>
</g>
<g filter="url(#filter1_f_1_3)">
<ellipse cx="917" cy="435.5" rx="481" ry="327.5" fill="#FFD1C8"/>
</g>
<g filter="url(#filter2_f_1_3)">
<ellipse cx="633.5" cy="1506.5" rx="316.5" ry="327.5" fill="#FFD1C8"/>
</g>
<g filter="url(#filter3_f_1_3)">
<ellipse cx="523" cy="711.5" rx="481" ry="327.5" fill="#BEDBED"/>
</g>
<g filter="url(#filter4_f_1_3)">
<ellipse cx="1097.5" cy="3634.5" rx="316.5" ry="327.5" fill="#FFD1C8"/>
</g>
<g filter="url(#filter5_f_1_3)">
<ellipse cx="249.5" cy="5089.5" rx="316.5" ry="327.5" fill="#FFD1C8"/>
</g>
<g filter="url(#filter6_f_1_3)">
<ellipse rx="87" ry="327.5" transform="matrix(-1 0 0 1 588 5409.5)" fill="#FFD1C8"/>
</g>
<g filter="url(#filter7_f_1_3)">
<ellipse cx="317.5" cy="3016.5" rx="316.5" ry="327.5" fill="#FFD1C8"/>
</g>
<g filter="url(#filter8_f_1_3)">
<ellipse cx="616" cy="3289.5" rx="481" ry="327.5" fill="#BEDBED"/>
</g>
<g filter="url(#filter9_f_1_3)">
<ellipse cx="663" cy="5281.5" rx="256" ry="327.5" fill="#BEDBED"/>
</g>
<circle cx="-43.5" cy="5363.5" r="151.5" stroke="#FD6657" stroke-width="7" stroke-linecap="round" stroke-linejoin="round" stroke-dasharray="7 30"/>
<path d="M229.856 504.583L435.623 493.702L445.947 485.475L229.856 504.583Z" fill="#FD6657"/>
<path d="M454.122 475L229.856 504.583L444.5 482L454.122 475Z" fill="#FD6657"/>
<path d="M229.856 504.583L229.79 504.087L229.882 505.082L229.856 504.583ZM454.122 475L454.416 475.404L454.056 474.504L454.122 475ZM444.5 482L444.552 482.497L444.686 482.483L444.794 482.404L444.5 482ZM435.623 493.702L435.649 494.201L435.809 494.193L435.934 494.093L435.623 493.702ZM445.947 485.475L446.258 485.866L447.558 484.831L445.903 484.977L445.947 485.475ZM229.921 505.078L454.187 475.496L454.056 474.504L229.79 504.087L229.921 505.078ZM453.827 474.596L444.206 481.596L444.794 482.404L454.416 475.404L453.827 474.596ZM444.448 481.503L229.803 504.085L229.908 505.08L444.552 482.497L444.448 481.503ZM229.882 505.082L435.649 494.201L435.596 493.203L229.829 504.083L229.882 505.082ZM435.934 494.093L446.258 485.866L445.635 485.084L435.311 493.311L435.934 494.093ZM445.903 484.977L229.812 504.085L229.9 505.081L445.991 485.973L445.903 484.977Z" fill="#FD6657"/>
<path d="M107.025 733L88.0001 737.883" stroke="#FD6657" stroke-width="3" stroke-linecap="square"/>
<path d="M135 757L126 772.227" stroke="#FD6657" stroke-width="3" stroke-linecap="square"/>
<path d="M121 748L88 771.791" stroke="#FD6657" stroke-width="3" stroke-linecap="square"/>
<circle cx="787" cy="1799" r="130" fill="url(#paint0_linear_1_3)"/>
<circle cx="91.5" cy="3394.5" r="104.5" fill="url(#paint1_linear_1_3)"/>
<circle cx="1078.5" cy="1610.5" r="91.5" fill="url(#paint2_linear_1_3)"/>
<path d="M1225 978.532C1248.97 974.151 1260.72 955.597 1263.35 938.727" stroke="#9997E7" stroke-width="3"/>
<path d="M845.227 1352.34C845.704 1351.66 845.54 1350.73 844.863 1350.25L833.818 1342.49C833.141 1342.01 832.205 1342.18 831.729 1342.85C831.252 1343.53 831.415 1344.47 832.093 1344.94L841.91 1351.84L835.009 1361.66C834.533 1362.34 834.696 1363.27 835.374 1363.75C836.051 1364.23 836.987 1364.06 837.463 1363.39L845.227 1352.34ZM773.122 1396.48C784.884 1383.23 795.148 1376.82 803.524 1374.56C811.853 1372.31 818.392 1374.12 822.916 1377.49C827.496 1380.91 830.051 1385.94 830.339 1390.17C830.483 1392.27 830.062 1394.09 829.168 1395.42C828.297 1396.71 826.894 1397.68 824.777 1398L825.223 1400.96C828.106 1400.53 830.281 1399.14 831.658 1397.09C833.012 1395.07 833.509 1392.55 833.332 1389.96C832.98 1384.8 829.941 1378.99 824.709 1375.09C819.421 1371.15 811.928 1369.18 802.741 1371.66C793.602 1374.13 782.866 1380.98 770.878 1394.48L773.122 1396.48ZM824.777 1398C820.409 1398.65 816.959 1396.81 814.732 1393.47C812.467 1390.07 811.466 1385.08 812.355 1379.66C814.115 1368.93 823.309 1356.61 844.258 1352.96L843.742 1350C821.691 1353.85 811.385 1367.03 809.395 1379.17C808.409 1385.19 809.47 1390.98 812.236 1395.13C815.041 1399.34 819.591 1401.81 825.223 1400.96L824.777 1398Z" fill="#9997E7"/>
<path d="M276.616 2876.69C277.092 2876.01 276.929 2875.07 276.251 2874.6L265.207 2866.83C264.529 2866.36 263.594 2866.52 263.117 2867.2C262.641 2867.88 262.804 2868.81 263.482 2869.29L273.299 2876.19L266.398 2886.01C265.921 2886.68 266.085 2887.62 266.762 2888.1C267.44 2888.57 268.376 2888.41 268.852 2887.73L276.616 2876.69ZM143.122 2958.34C165.009 2933.68 184.225 2921.63 200.069 2917.35C215.865 2913.08 228.385 2916.51 237.093 2923C245.856 2929.53 250.795 2939.18 251.357 2947.41C251.637 2951.52 250.824 2955.18 248.972 2957.94C247.143 2960.66 244.214 2962.63 239.966 2963.27L240.411 2966.23C245.427 2965.48 249.127 2963.08 251.462 2959.61C253.775 2956.17 254.663 2951.8 254.35 2947.21C253.724 2938.04 248.301 2927.61 238.885 2920.59C229.414 2913.53 215.939 2909.95 199.286 2914.45C182.68 2918.94 162.991 2931.44 140.878 2956.34L143.122 2958.34ZM239.966 2963.27C231.335 2964.56 224.474 2960.88 220.103 2954.32C215.693 2947.71 213.813 2938.12 215.501 2927.83C218.859 2907.34 236.367 2884.15 275.646 2877.3L275.131 2874.35C234.748 2881.39 216.129 2905.45 212.54 2927.34C210.755 2938.23 212.696 2948.62 217.607 2955.99C222.557 2963.41 230.516 2967.72 240.411 2966.23L239.966 2963.27Z" fill="#FD6657"/>
<path d="M1240.97 986.039C1259.47 980.151 1267.97 968.151 1271.83 952.472" stroke="#9997E7" stroke-width="3"/>
<path d="M1262.97 990.085C1266.47 987.651 1273.14 979.648 1274.45 972.844" stroke="#9997E7" stroke-width="3"/>
<path d="M718.46 172.197C719.249 171.943 719.682 171.097 719.428 170.309L715.284 157.46C715.03 156.672 714.185 156.239 713.396 156.493C712.608 156.747 712.175 157.593 712.429 158.381L716.112 169.802L704.691 173.485C703.903 173.739 703.47 174.584 703.724 175.373C703.978 176.161 704.823 176.594 705.612 176.34L718.46 172.197ZM469.798 205.309C521.302 172.935 568.915 185.968 586.105 205.043L588.334 203.035C569.963 182.649 520.663 169.793 468.202 202.769L469.798 205.309ZM586.105 205.043C594.726 214.609 597.098 224.567 595.31 233.056C593.515 241.575 587.484 248.84 578.859 252.913L580.141 255.626C589.516 251.198 596.235 243.213 598.245 233.675C600.261 224.106 597.493 213.199 588.334 203.035L586.105 205.043ZM578.859 252.913C570.245 256.981 559.405 257.19 550.768 252.043C542.204 246.94 535.5 236.378 535.5 218.269H532.5C532.5 237.16 539.546 248.849 549.232 254.62C558.845 260.349 570.755 260.058 580.141 255.626L578.859 252.913ZM535.5 218.269C535.5 200.347 548.478 172.222 577.657 156.846C606.741 141.52 652.204 138.747 717.316 172.104L718.684 169.434C653.016 135.792 606.478 138.268 576.258 154.192C546.132 170.067 532.5 199.192 532.5 218.269H535.5Z" fill="#FD6657"/>
<path d="M568 148.269C588.5 133.269 611.5 130.225 639.5 135.225" stroke="#9997E7" stroke-width="2"/>
<path d="M431 892C431 892 444 893.643 448.5 884C453 874.357 453.5 862.5 453.5 862.5" stroke="#FD6657" stroke-width="2"/>
<path d="M431.5 892.106C431.5 892.106 444.5 890.463 449 900.106C453.5 909.749 454 921.606 454 921.606" stroke="#FD6657" stroke-width="2"/>
<path d="M476 891.5C476 891.5 463 893.143 458.5 883.5C454 873.857 453.5 862 453.5 862" stroke="#FD6657" stroke-width="2"/>
<path d="M475.5 891.5C475.5 891.5 463.5 890.963 459 900.606C454.5 910.249 454 922.106 454 922.106" stroke="#FD6657" stroke-width="2"/>
<path d="M671.54 3877.2C670.751 3876.94 670.318 3876.1 670.572 3875.31L674.716 3862.46C674.97 3861.67 675.815 3861.24 676.604 3861.49C677.392 3861.75 677.825 3862.59 677.571 3863.38L673.888 3874.8L685.309 3878.48C686.097 3878.74 686.53 3879.58 686.276 3880.37C686.022 3881.16 685.176 3881.59 684.388 3881.34L671.54 3877.2ZM920.202 3910.31C868.698 3877.93 821.085 3890.97 803.895 3910.04L801.666 3908.03C820.037 3887.65 869.337 3874.79 921.798 3907.77L920.202 3910.31ZM803.895 3910.04C795.274 3919.61 792.902 3929.57 794.69 3938.06C796.485 3946.58 802.516 3953.84 811.141 3957.91L809.859 3960.63C800.484 3956.2 793.765 3948.21 791.755 3938.67C789.739 3929.11 792.507 3918.2 801.666 3908.03L803.895 3910.04ZM811.141 3957.91C819.755 3961.98 830.595 3962.19 839.232 3957.04C847.796 3951.94 854.5 3941.38 854.5 3923.27H857.5C857.5 3942.16 850.454 3953.85 840.768 3959.62C831.155 3965.35 819.245 3965.06 809.859 3960.63L811.141 3957.91ZM854.5 3923.27C854.5 3905.35 841.522 3877.22 812.343 3861.85C783.259 3846.52 737.796 3843.75 672.684 3877.1L671.316 3874.43C736.984 3840.79 783.522 3843.27 813.742 3859.19C843.868 3875.07 857.5 3904.19 857.5 3923.27H854.5Z" fill="#FD6657"/>
<path d="M822 3853.27C801.5 3838.27 778.5 3835.23 750.5 3840.23" stroke="#9997E7" stroke-width="2"/>
<path d="M1068.5 4614.04L1067.7 4612.77L1068.5 4614.04ZM1317.96 4582.2C1318.75 4581.94 1319.18 4581.1 1318.93 4580.31L1314.78 4567.46C1314.53 4566.67 1313.68 4566.24 1312.9 4566.49C1312.11 4566.75 1311.67 4567.59 1311.93 4568.38L1315.61 4579.8L1304.19 4583.48C1303.4 4583.74 1302.97 4584.58 1303.22 4585.37C1303.48 4586.16 1304.32 4586.59 1305.11 4586.34L1317.96 4582.2ZM1035 4672L1036.47 4671.71L1035 4672ZM1091 4695.5L1092.42 4695.99L1091 4695.5ZM1069.3 4615.31C1120.8 4582.93 1168.41 4595.97 1185.61 4615.04L1187.83 4613.03C1169.46 4592.65 1120.16 4579.79 1067.7 4612.77L1069.3 4615.31ZM1185.61 4615.04C1194.23 4624.61 1196.6 4634.57 1194.81 4643.06C1193.01 4651.58 1186.98 4658.84 1178.36 4662.91L1179.64 4665.63C1189.02 4661.2 1195.74 4653.21 1197.75 4643.67C1199.76 4634.11 1196.99 4623.2 1187.83 4613.03L1185.61 4615.04ZM1178.36 4662.91C1169.74 4666.98 1158.9 4667.19 1150.27 4662.04C1141.7 4656.94 1135 4646.38 1135 4628.27H1132C1132 4647.16 1139.05 4658.85 1148.73 4664.62C1158.35 4670.35 1170.25 4670.06 1179.64 4665.63L1178.36 4662.91ZM1135 4628.27C1135 4610.35 1147.98 4582.22 1177.16 4566.85C1206.24 4551.52 1251.7 4548.75 1316.82 4582.1L1318.18 4579.43C1252.52 4545.79 1205.98 4548.27 1175.76 4564.19C1145.63 4580.07 1132 4609.19 1132 4628.27H1135ZM1067.7 4612.77C1062.9 4615.79 1052.86 4622.63 1044.77 4632.69C1036.67 4642.77 1030.41 4656.2 1033.53 4672.29L1036.47 4671.71C1033.59 4656.8 1039.33 4644.24 1047.11 4634.57C1054.89 4624.9 1064.6 4618.26 1069.3 4615.31L1067.7 4612.77ZM1033.53 4672.29C1036.31 4686.65 1048.88 4698.29 1061.57 4703.58C1067.93 4706.23 1074.5 4707.36 1080.07 4706.33C1085.71 4705.29 1090.32 4702 1092.42 4695.99L1089.58 4695.01C1087.89 4699.86 1084.26 4702.51 1079.52 4703.38C1074.71 4704.27 1068.75 4703.32 1062.72 4700.81C1050.63 4695.77 1039 4684.79 1036.47 4671.71L1033.53 4672.29ZM1092.42 4695.99C1094.34 4690.48 1094.11 4685.42 1092.07 4680.94C1090.04 4676.49 1086.3 4672.75 1081.46 4669.7C1071.78 4663.61 1057.34 4660.01 1041.72 4659C1026.07 4657.99 1009.05 4659.57 994.108 4663.97C979.202 4668.36 966.175 4675.62 958.773 4686.14L961.227 4687.86C968.075 4678.13 980.361 4671.14 994.955 4666.85C1009.52 4662.56 1026.18 4661.01 1041.53 4662C1056.91 4662.99 1070.78 4666.52 1079.86 4672.24C1084.38 4675.09 1087.63 4678.43 1089.34 4682.18C1091.03 4685.89 1091.28 4690.15 1089.58 4695.01L1092.42 4695.99Z" fill="#FD6657"/>
<path d="M1167.5 4558.27C1188 4543.27 1211 4540.23 1239 4545.23" stroke="#9997E7" stroke-width="2"/>
<path d="M1059.92 4713.64C1074.61 4720.96 1085.26 4718.32 1094.56 4708.26" stroke="#9997E7" stroke-width="2"/>
<path d="M343 1655L360.961 1709.93L419.085 1709.93L372.062 1743.88L390.023 1798.82L343 1764.87L295.977 1798.82L313.938 1743.88L266.915 1709.93L325.039 1709.93L343 1655Z" fill="url(#paint3_linear_1_3)"/>
<circle cx="1300" cy="3209" r="186" fill="url(#paint4_linear_1_3)"/>
<path d="M90.9535 3586L61.0001 3593.69" stroke="#6C69D9" stroke-width="3" stroke-linecap="square"/>
<path d="M135 3623.79L120.83 3647.76" stroke="#6C69D9" stroke-width="3" stroke-linecap="square"/>
<path d="M112.957 3609.62L61 3647.07" stroke="#6C69D9" stroke-width="3" stroke-linecap="square"/>
<path d="M1011 3634C1011 3634 1024 3635.64 1028.5 3626C1033 3616.36 1033.5 3604.5 1033.5 3604.5" stroke="#FD6657" stroke-width="2"/>
<path d="M1011.5 3634.11C1011.5 3634.11 1024.5 3632.46 1029 3642.11C1033.5 3651.75 1034 3663.61 1034 3663.61" stroke="#FD6657" stroke-width="2"/>
<path d="M1056 3633.5C1056 3633.5 1043 3635.14 1038.5 3625.5C1034 3615.86 1033.5 3604 1033.5 3604" stroke="#FD6657" stroke-width="2"/>
<path d="M1055.5 3633.5C1055.5 3633.5 1043.5 3632.96 1039 3642.61C1034.5 3652.25 1034 3664.11 1034 3664.11" stroke="#FD6657" stroke-width="2"/>
<path d="M1113.7 5386.45C1034.2 5377.36 363.698 5365.86 430.698 5399.95C497.698 5434.04 948.698 5443.5 948.698 5459.5C948.698 5475.5 868.198 5474.83 803.198 5472" stroke="#9997E7" stroke-width="3"/>
</g>
<defs>
<filter id="filter0_f_1_3" x="218" y="462" width="1464" height="1433" filterUnits="userSpaceOnUse" color-interpolation-filters="sRGB">
<feFlood flood-opacity="0" result="BackgroundImageFix"/>
<feBlend mode="normal" in="SourceGraphic" in2="BackgroundImageFix" result="shape"/>
<feGaussianBlur stdDeviation="250" result="effect1_foregroundBlur_1_3"/>
</filter>
<filter id="filter1_f_1_3" x="-64" y="-392" width="1962" height="1655" filterUnits="userSpaceOnUse" color-interpolation-filters="sRGB">
<feFlood flood-opacity="0" result="BackgroundImageFix"/>
<feBlend mode="normal" in="SourceGraphic" in2="BackgroundImageFix" result="shape"/>
<feGaussianBlur stdDeviation="250" result="effect1_foregroundBlur_1_3"/>
</filter>
<filter id="filter2_f_1_3" x="-183" y="679" width="1633" height="1655" filterUnits="userSpaceOnUse" color-interpolation-filters="sRGB">
<feFlood flood-opacity="0" result="BackgroundImageFix"/>
<feBlend mode="normal" in="SourceGraphic" in2="BackgroundImageFix" result="shape"/>
<feGaussianBlur stdDeviation="250" result="effect1_foregroundBlur_1_3"/>
</filter>
<filter id="filter3_f_1_3" x="-458" y="-116" width="1962" height="1655" filterUnits="userSpaceOnUse" color-interpolation-filters="sRGB">
<feFlood flood-opacity="0" result="BackgroundImageFix"/>
<feBlend mode="normal" in="SourceGraphic" in2="BackgroundImageFix" result="shape"/>
<feGaussianBlur stdDeviation="250" result="effect1_foregroundBlur_1_3"/>
</filter>
<filter id="filter4_f_1_3" x="281" y="2807" width="1633" height="1655" filterUnits="userSpaceOnUse" color-interpolation-filters="sRGB">
<feFlood flood-opacity="0" result="BackgroundImageFix"/>
<feBlend mode="normal" in="SourceGraphic" in2="BackgroundImageFix" result="shape"/>
<feGaussianBlur stdDeviation="250" result="effect1_foregroundBlur_1_3"/>
</filter>
<filter id="filter5_f_1_3" x="-567" y="4262" width="1633" height="1655" filterUnits="userSpaceOnUse" color-interpolation-filters="sRGB">
<feFlood flood-opacity="0" result="BackgroundImageFix"/>
<feBlend mode="normal" in="SourceGraphic" in2="BackgroundImageFix" result="shape"/>
<feGaussianBlur stdDeviation="250" result="effect1_foregroundBlur_1_3"/>
</filter>
<filter id="filter6_f_1_3" x="1" y="4582" width="1174" height="1655" filterUnits="userSpaceOnUse" color-interpolation-filters="sRGB">
<feFlood flood-opacity="0" result="BackgroundImageFix"/>
<feBlend mode="normal" in="SourceGraphic" in2="BackgroundImageFix" result="shape"/>
<feGaussianBlur stdDeviation="250" result="effect1_foregroundBlur_1_3"/>
</filter>
<filter id="filter7_f_1_3" x="-499" y="2189" width="1633" height="1655" filterUnits="userSpaceOnUse" color-interpolation-filters="sRGB">
<feFlood flood-opacity="0" result="BackgroundImageFix"/>
<feBlend mode="normal" in="SourceGraphic" in2="BackgroundImageFix" result="shape"/>
<feGaussianBlur stdDeviation="250" result="effect1_foregroundBlur_1_3"/>
</filter>
<filter id="filter8_f_1_3" x="-365" y="2462" width="1962" height="1655" filterUnits="userSpaceOnUse" color-interpolation-filters="sRGB">
<feFlood flood-opacity="0" result="BackgroundImageFix"/>
<feBlend mode="normal" in="SourceGraphic" in2="BackgroundImageFix" result="shape"/>
<feGaussianBlur stdDeviation="250" result="effect1_foregroundBlur_1_3"/>
</filter>
<filter id="filter9_f_1_3" x="-93" y="4454" width="1512" height="1655" filterUnits="userSpaceOnUse" color-interpolation-filters="sRGB">
<feFlood flood-opacity="0" result="BackgroundImageFix"/>
<feBlend mode="normal" in="SourceGraphic" in2="BackgroundImageFix" result="shape"/>
<feGaussianBlur stdDeviation="250" result="effect1_foregroundBlur_1_3"/>
</filter>
<linearGradient id="paint0_linear_1_3" x1="816" y1="1719" x2="694" y2="1862" gradientUnits="userSpaceOnUse">
<stop stop-color="#D488E3"/>
<stop offset="1" stop-color="#6466D8"/>
</linearGradient>
<linearGradient id="paint1_linear_1_3" x1="114.812" y1="3330.19" x2="16.7423" y2="3445.14" gradientUnits="userSpaceOnUse">
<stop stop-color="#D488E3"/>
<stop offset="1" stop-color="#6466D8"/>
</linearGradient>
<linearGradient id="paint2_linear_1_3" x1="1022.9" y1="1539.76" x2="1150.29" y2="1650.97" gradientUnits="userSpaceOnUse">
<stop stop-color="#FC78AE"/>
<stop offset="1" stop-color="#F78851"/>
</linearGradient>
<linearGradient id="paint3_linear_1_3" x1="343" y1="1655" x2="343" y2="1814" gradientUnits="userSpaceOnUse">
<stop stop-color="#9277EE"/>
<stop offset="1" stop-color="#FE839C"/>
</linearGradient>
<linearGradient id="paint4_linear_1_3" x1="1186.97" y1="3065.21" x2="1445.94" y2="3291.27" gradientUnits="userSpaceOnUse">
<stop stop-color="#FC78AE"/>
<stop offset="1" stop-color="#F78851"/>
</linearGradient>
<clipPath id="clip0_1_3">
<rect width="1440" height="5783" fill="white"/>
</clipPath>
</defs>
</svg>
