<svg width="805" height="432" viewBox="0 0 805 432" fill="none" xmlns="http://www.w3.org/2000/svg">
<path d="M41.0396 430.446L293.065 429.285L360.245 429.269L382.502 429.26L449.807 429.244L757.307 429.168C757.307 429.168 827.641 349.13 752.513 273.111C674.618 194.294 636.74 258.482 612.797 147.539C552.526 -131.723 -43.353 30.8151 112.941 268.456C169.217 354.024 2.16581 308.544 41.0396 430.446Z" fill="#EBF3FA"/>
<g opacity="0.5">
<path d="M486.604 429.307H141.097V130.744C141.097 117.563 151.82 106.837 165.005 106.837H466.538C477.604 106.837 486.604 115.84 486.604 126.903V429.307V429.307ZM146.531 423.873H481.17V126.905C481.17 118.838 474.606 112.273 466.538 112.273H165.002C154.816 112.273 146.531 120.561 146.531 130.744V423.873V423.873Z" fill="#C8DBF4"/>
<path d="M483.887 169.435H143.814V175.478H483.887V169.435Z" fill="#C8DBF4"/>
<path d="M483.887 218.099H143.814V224.143H483.887V218.099Z" fill="#C8DBF4"/>
<path d="M483.887 266.764H143.814V272.808H483.887V266.764Z" fill="#C8DBF4"/>
<path d="M483.887 315.606H143.814V321.65H483.887V315.606Z" fill="#C8DBF4"/>
<path d="M217.99 315.603H226.484V284.001H217.99V315.603Z" fill="#C8DBF4"/>
<path d="M208.651 315.605H216.009V281.258H208.651V315.605Z" fill="#C8DBF4"/>
<path d="M197.165 315.04L204.468 315.933L208.638 281.84L201.335 280.947L197.165 315.04Z" fill="#D2E3FC"/>
<path d="M455.275 315.603H463.766V284.001H455.275V315.603Z" fill="#C8DBF4"/>
<path d="M445.934 315.605H453.291V281.258H445.934V315.605Z" fill="#C8DBF4"/>
<path d="M434.446 315.048L441.749 315.942L445.919 281.849L438.616 280.955L434.446 315.048Z" fill="#D2E3FC"/>
<path d="M155.779 315.605H190.503V309.425H155.779V315.605Z" fill="#95C0F4"/>
<path d="M151.533 309.424H186.256V305.173H151.533V309.424Z" fill="#B7D3F3"/>
<path d="M154.947 305.175H188.239V300.924H154.947V305.175Z" fill="#D2E3FC"/>
<path d="M154.14 300.925H184.206V297.679H154.14V300.925Z" fill="#C8DBF4"/>
<path d="M322.452 315.605H357.175V309.425H322.452V315.605Z" fill="#D2E3FC"/>
<path d="M318.205 309.424H352.928V305.173H318.205V309.424Z" fill="#B7D3F3"/>
<path d="M321.619 305.175H354.911V300.924H321.619V305.175Z" fill="#D2E3FC"/>
<path d="M320.812 300.925H350.878V297.679H320.812V300.925Z" fill="#C8DBF4"/>
<path d="M317.062 297.679H351.785V293.428H317.062V297.679Z" fill="#B7D3F3"/>
<path d="M320.476 293.427H353.768V289.177H320.476V293.427Z" fill="#D2E3FC"/>
<path d="M319.67 289.178H349.735V285.932H319.67V289.178Z" fill="#C8DBF4"/>
<path d="M296.421 315.469H302.34V281.258H296.421V315.469Z" fill="#C1D9F4"/>
<path d="M369.211 315.469H375.129V279.69H369.211V315.469Z" fill="#C1D9F4"/>
<path d="M387.143 315.469H393.061V281.258H387.143V315.469Z" fill="#C1D9F4"/>
<path d="M288.942 315.468H296.422V278.435H288.942V315.468Z" fill="#E4EEF9"/>
<path d="M394.293 315.468H401.773V278.435H394.293V315.468Z" fill="#E4EEF9"/>
<path d="M281.461 315.468H288.941V280.2H281.461V315.468Z" fill="#B7D3F3"/>
<path d="M358.248 315.483L365.617 314.197L358.733 274.772L351.365 276.059L358.248 315.483Z" fill="#B7D3F3"/>
<path d="M273.979 315.467H281.46V285.608H273.979V315.467Z" fill="#C8DBF4"/>
<path d="M404.081 315.467H411.561V285.608H404.081V315.467Z" fill="#C8DBF4"/>
<path d="M266.498 315.467H273.978V284.001H266.498V315.467Z" fill="#95C0F4"/>
<path d="M257.821 315.467H265.301V284.001H257.821V315.467Z" fill="#D2E3FC"/>
<path d="M412.604 315.467H420.084V284.001H412.604V315.467Z" fill="#D2E3FC"/>
<path d="M248.943 315.469H256.424V281.258H248.943V315.469Z" fill="#AFCDFB"/>
<path d="M378.9 315.469H386.38V281.258H378.9V315.469Z" fill="#AFCDFB"/>
<path d="M397.309 137.968H388.816V169.571H397.309V137.968Z" fill="#C8DBF4"/>
<path d="M406.646 135.224H399.289V169.571H406.646V135.224Z" fill="#C8DBF4"/>
<path d="M413.945 134.919L406.642 135.812L410.812 169.905L418.115 169.012L413.945 134.919Z" fill="#D2E3FC"/>
<path d="M260.647 186.502H252.153V218.105H260.647V186.502Z" fill="#C8DBF4"/>
<path d="M269.984 183.755H262.626V218.102H269.984V183.755Z" fill="#C8DBF4"/>
<path d="M277.278 183.451L269.974 184.345L274.144 218.438L281.448 217.545L277.278 183.451Z" fill="#D2E3FC"/>
<path d="M160.027 137.968H151.534V169.571H160.027V137.968Z" fill="#C8DBF4"/>
<path d="M169.364 135.224H162.006V169.571H169.364V135.224Z" fill="#C8DBF4"/>
<path d="M176.663 134.911L169.36 135.805L173.53 169.898L180.833 169.004L176.663 134.911Z" fill="#D2E3FC"/>
<path d="M459.517 163.391H424.794V169.571H459.517V163.391Z" fill="#95C0F4"/>
<path d="M463.763 159.142H429.04V163.393H463.763V159.142Z" fill="#B7D3F3"/>
<path d="M460.353 154.892H427.06V159.143H460.353V154.892Z" fill="#D2E3FC"/>
<path d="M461.157 151.646H431.091V154.892H461.157V151.646Z" fill="#C8DBF4"/>
<path d="M292.845 163.391H258.122V169.571H292.845V163.391Z" fill="#D2E3FC"/>
<path d="M297.09 159.142H262.367V163.393H297.09V159.142Z" fill="#B7D3F3"/>
<path d="M293.68 154.892H260.388V159.143H293.68V154.892Z" fill="#D2E3FC"/>
<path d="M294.485 151.646H264.419V154.892H294.485V151.646Z" fill="#C8DBF4"/>
<path d="M298.235 147.395H263.512V151.646H298.235V147.395Z" fill="#B7D3F3"/>
<path d="M294.822 143.146H261.529V147.397H294.822V143.146Z" fill="#D2E3FC"/>
<path d="M295.629 139.901H265.563V143.146H295.629V139.901Z" fill="#C8DBF4"/>
<path d="M318.877 135.224H312.958V169.434H318.877V135.224Z" fill="#C1D9F4"/>
<path d="M246.087 133.656H240.169V169.434H246.087V133.656Z" fill="#C1D9F4"/>
<path d="M228.157 135.224H222.238V169.434H228.157V135.224Z" fill="#C1D9F4"/>
<path d="M326.357 132.404H318.877V169.437H326.357V132.404Z" fill="#E4EEF9"/>
<path d="M221.005 132.404H213.525V169.437H221.005V132.404Z" fill="#E4EEF9"/>
<path d="M333.837 134.169H326.357V169.437H333.837V134.169Z" fill="#B7D3F3"/>
<path d="M263.913 130.02L256.544 128.734L249.661 168.158L257.03 169.445L263.913 130.02Z" fill="#B7D3F3"/>
<path d="M401.532 211.919H366.809V218.099H401.532V211.919Z" fill="#D2E3FC"/>
<path d="M405.778 207.671H371.055V211.922H405.778V207.671Z" fill="#B7D3F3"/>
<path d="M402.365 203.42H369.073V207.671H402.365V203.42Z" fill="#D2E3FC"/>
<path d="M403.172 200.174H373.107V203.42H403.172V200.174Z" fill="#C8DBF4"/>
<path d="M406.922 195.923H372.199V200.174H406.922V195.923Z" fill="#B7D3F3"/>
<path d="M403.509 191.675H370.217V195.926H403.509V191.675Z" fill="#D2E3FC"/>
<path d="M404.313 188.429H374.248V191.675H404.313V188.429Z" fill="#C8DBF4"/>
<path d="M372.598 178.552L365.23 177.266L358.346 216.69L365.715 217.977L372.598 178.552Z" fill="#B7D3F3"/>
<path d="M341.318 139.575H333.837V169.434H341.318V139.575Z" fill="#C8DBF4"/>
<path d="M211.217 139.575H203.737V169.434H211.217V139.575Z" fill="#C8DBF4"/>
<path d="M348.798 137.968H341.318V169.434H348.798V137.968Z" fill="#95C0F4"/>
<path d="M357.475 137.968H349.995V169.434H357.475V137.968Z" fill="#D2E3FC"/>
<path d="M202.695 137.968H195.215V169.434H202.695V137.968Z" fill="#D2E3FC"/>
<path d="M346.432 181.068H338.951V218.102H346.432V181.068Z" fill="#E4EEF9"/>
<path d="M336.643 188.239H329.163V218.099H336.643V188.239Z" fill="#C8DBF4"/>
<path d="M328.122 186.633H320.642V218.099H328.122V186.633Z" fill="#D2E3FC"/>
<path d="M303.12 186.633H295.64V218.099H303.12V186.633Z" fill="#D2E3FC"/>
<path d="M292.681 186.633H285.201V218.099H292.681V186.633Z" fill="#D2E3FC"/>
<path d="M174.901 181.068H167.421V218.102H174.901V181.068Z" fill="#E4EEF9"/>
<path d="M182.349 180.745L174.924 181.654L179.423 218.414L186.848 217.505L182.349 180.745Z" fill="#E4EEF9"/>
<path d="M165.113 188.239H157.633V218.099H165.113V188.239Z" fill="#C8DBF4"/>
<path d="M156.592 186.633H149.112V218.099H156.592V186.633Z" fill="#D2E3FC"/>
<path d="M366.356 135.224H358.875V169.434H366.356V135.224Z" fill="#AFCDFB"/>
<path d="M285.056 232.553H279.137V266.764H285.056V232.553Z" fill="#C1D9F4"/>
<path d="M292.536 229.73H285.056V266.764H292.536V229.73Z" fill="#E4EEF9"/>
<path d="M300.019 231.495H292.539V266.764H300.019V231.495Z" fill="#B7D3F3"/>
<path d="M307.499 236.904H300.019V266.764H307.499V236.904Z" fill="#C8DBF4"/>
<path d="M314.979 235.298H307.499V266.764H314.979V235.298Z" fill="#95C0F4"/>
<path d="M323.657 235.298H316.177V266.764H323.657V235.298Z" fill="#D2E3FC"/>
<path d="M332.535 232.553H325.054V266.764H332.535V232.553Z" fill="#AFCDFB"/>
<path d="M422.072 183.888H414.591V218.099H422.072V183.888Z" fill="#AFCDFB"/>
<path d="M430.22 183.888H422.74V218.099H430.22V183.888Z" fill="#AFCDFB"/>
<path d="M236.397 135.224H228.917V169.434H236.397V135.224Z" fill="#AFCDFB"/>
<path d="M439.874 260.734H405.151V266.914H439.874V260.734Z" fill="#D2E3FC"/>
<path d="M444.12 256.486H409.397V260.737H444.12V256.486Z" fill="#B7D3F3"/>
<path d="M440.707 252.235H407.415V256.486H440.707V252.235Z" fill="#D2E3FC"/>
<path d="M441.514 248.989H411.448V252.234H441.514V248.989Z" fill="#C8DBF4"/>
<path d="M445.264 244.738H410.541V248.989H445.264V244.738Z" fill="#B7D3F3"/>
<path d="M441.851 240.49H408.559V244.74H441.851V240.49Z" fill="#D2E3FC"/>
<path d="M442.656 237.243H412.59V240.489H442.656V237.243Z" fill="#C8DBF4"/>
<path d="M393.117 230.999H387.198V266.777H393.117V230.999Z" fill="#C1D9F4"/>
<path d="M375.183 232.567H369.265V266.777H375.183V232.567Z" fill="#C1D9F4"/>
<path d="M368.032 229.746H360.551V266.78H368.032V229.746Z" fill="#E4EEF9"/>
<path d="M410.937 227.37L403.569 226.083L396.685 265.508L404.054 266.794L410.937 227.37Z" fill="#B7D3F3"/>
<path d="M358.243 236.921H350.763V266.78H358.243V236.921Z" fill="#C8DBF4"/>
<path d="M349.722 235.312H342.242V266.778H349.722V235.312Z" fill="#D2E3FC"/>
<path d="M271.017 229.746H263.537V266.78H271.017V229.746Z" fill="#E4EEF9"/>
<path d="M261.229 236.921H253.749V266.78H261.229V236.921Z" fill="#C8DBF4"/>
<path d="M252.707 235.312H245.227V266.778H252.707V235.312Z" fill="#D2E3FC"/>
<path d="M241.051 229.746H233.571V266.78H241.051V229.746Z" fill="#E4EEF9"/>
<path d="M231.263 236.921H223.783V266.78H231.263V236.921Z" fill="#C8DBF4"/>
<path d="M222.742 235.312H215.262V266.778H222.742V235.312Z" fill="#D2E3FC"/>
<path d="M383.426 232.567H375.946V266.777H383.426V232.567Z" fill="#AFCDFB"/>
</g>
<path d="M568.698 161.72H524.782C522.767 161.72 521.116 160.07 521.116 158.054V115.67C521.116 113.654 522.767 112.004 524.782 112.004H568.698C570.713 112.004 572.364 113.654 572.364 115.67V158.054C572.361 160.07 570.713 161.72 568.698 161.72Z" fill="#C0D8FB"/>
<path d="M566.793 159.566H526.683C524.843 159.566 523.335 158.06 523.335 156.217V117.505C523.335 115.664 524.841 114.156 526.683 114.156H566.793C568.633 114.156 570.142 115.662 570.142 117.505V156.22C570.142 158.06 568.636 159.566 566.793 159.566Z" fill="#DFEBFD"/>
<path d="M545.678 118.696C545.678 118.109 546.154 117.635 546.738 117.635C547.326 117.635 547.799 118.111 547.799 118.696C547.799 119.283 547.323 119.757 546.738 119.757C546.151 119.757 545.678 119.281 545.678 118.696Z" fill="#B7D3F3"/>
<path d="M554.244 120.197C554.527 119.684 555.173 119.501 555.688 119.785C556.201 120.069 556.384 120.714 556.1 121.229C555.816 121.742 555.171 121.925 554.658 121.641C554.143 121.355 553.957 120.709 554.244 120.197Z" fill="#B7D3F3"/>
<path d="M561.582 126.026C562.075 125.709 562.732 125.851 563.049 126.343C563.366 126.836 563.224 127.493 562.732 127.81C562.239 128.128 561.582 127.986 561.265 127.493C560.947 127 561.089 126.343 561.582 126.026Z" fill="#B7D3F3"/>
<path d="M565.215 135.048C565.802 135.048 566.275 135.524 566.275 136.109C566.275 136.696 565.799 137.17 565.215 137.17C564.627 137.17 564.154 136.693 564.154 136.109C564.154 135.524 564.63 135.048 565.215 135.048Z" fill="#B7D3F3"/>
<path d="M563.361 145.521C563.776 145.936 563.776 146.607 563.361 147.022C562.946 147.437 562.275 147.437 561.86 147.022C561.445 146.607 561.445 145.936 561.86 145.521C562.275 145.107 562.946 145.107 563.361 145.521Z" fill="#B7D3F3"/>
<path d="M555.945 154.018C556.53 154.018 557.005 153.543 557.005 152.957C557.005 152.371 556.53 151.896 555.945 151.896C555.359 151.896 554.884 152.371 554.884 152.957C554.884 153.543 555.359 154.018 555.945 154.018Z" fill="#B7D3F3"/>
<path d="M545.678 155.649C545.678 155.061 546.154 154.588 546.738 154.588C547.326 154.588 547.799 155.064 547.799 155.649C547.799 156.236 547.323 156.709 546.738 156.709C546.151 156.712 545.678 156.236 545.678 155.649Z" fill="#B7D3F3"/>
<path d="M539.2 120.197C538.916 119.684 538.27 119.501 537.758 119.785C537.246 120.069 537.062 120.714 537.346 121.229C537.63 121.742 538.276 121.925 538.791 121.641C539.3 121.355 539.487 120.709 539.2 120.197Z" fill="#B7D3F3"/>
<path d="M531.861 126.026C531.369 125.709 530.712 125.851 530.394 126.343C530.077 126.836 530.219 127.493 530.712 127.81C531.205 128.128 531.862 127.986 532.179 127.493C532.496 127 532.354 126.343 531.861 126.026Z" fill="#B7D3F3"/>
<path d="M528.229 135.048C527.641 135.048 527.168 135.524 527.168 136.109C527.168 136.696 527.644 137.17 528.229 137.17C528.813 137.17 529.289 136.693 529.289 136.109C529.289 135.524 528.813 135.048 528.229 135.048Z" fill="#B7D3F3"/>
<path d="M530.083 145.521C529.668 145.936 529.668 146.607 530.083 147.022C530.497 147.437 531.168 147.437 531.583 147.022C531.998 146.607 531.998 145.936 531.583 145.521C531.171 145.107 530.497 145.107 530.083 145.521Z" fill="#B7D3F3"/>
<path d="M537.499 154.018C538.085 154.018 538.559 153.543 538.559 152.957C538.559 152.371 538.085 151.896 537.499 151.896C536.913 151.896 536.438 152.371 536.438 152.957C536.438 153.543 536.913 154.018 537.499 154.018Z" fill="#B7D3F3"/>
<path d="M546.452 136.112C546.452 135.524 546.928 135.051 547.513 135.051C548.1 135.051 548.573 135.527 548.573 136.112C548.573 136.699 548.097 137.172 547.513 137.172C546.928 137.172 546.452 136.696 546.452 136.112Z" fill="#B7D3F3"/>
<path d="M547.66 122.85H547.37V136.112H547.66V122.85Z" fill="#B7D3F3"/>
<path d="M554.152 130.211L547.12 135.731L547.657 136.414L554.688 130.894L554.152 130.211Z" fill="#B7D3F3"/>
<path d="M625.544 397.226C625.544 397.226 674.103 351.039 687.73 361.777C701.354 372.514 625.544 397.226 625.544 397.226Z" fill="#CDE0FB"/>
<path d="M622.033 406.109C622.033 406.109 712.381 365.663 733.758 387.048C755.135 408.434 708.965 405.795 691.869 403.404C674.771 401.012 622.033 406.109 622.033 406.109Z" fill="#CDE0FB"/>
<path d="M618.239 396.21C618.239 396.21 618.665 393.936 619.244 390.606C620.374 384.111 622.092 373.602 622.393 368.129C622.846 359.85 629.505 353.973 636.816 362.4C644.126 370.827 621.051 393.936 621.051 393.936L618.239 396.21Z" fill="#CDE0FB"/>
<path d="M643.873 238.073C637.264 220.774 607.811 229.357 607.811 229.357C607.811 229.357 590.57 262.535 584.716 263.874C578.861 265.213 593.919 232.631 593.919 232.631C582.322 232.678 554.469 249.707 554.469 249.707C554.469 249.707 559.981 285.83 553.979 285.688C547.977 285.544 550.73 253.454 550.73 253.454C539.951 257.908 530.884 271.922 530.884 271.922C520.044 294.349 549.403 307.11 549.403 307.11C549.403 307.11 551.042 319.671 544.717 334.904C544.717 334.904 543.231 337.749 541.903 342.465L544.934 342.159C545.099 341.321 545.294 340.508 545.519 339.723C545.519 339.718 545.519 339.712 545.525 339.709C545.527 339.698 545.53 339.687 545.536 339.676C545.697 339.186 545.928 338.49 546.218 337.641V337.638C546.218 337.635 546.221 337.635 546.221 337.635C546.964 335.728 547.454 334.328 547.752 333.32C547.752 333.317 547.755 333.315 547.755 333.312C549.957 327.343 553.205 319.526 555.714 317.703C555.714 317.703 555.329 317.266 554.926 316.378C555.176 316.801 555.438 317.241 555.714 317.703C562.022 328.295 588.145 327.535 602.296 323.115C616.446 318.694 609.737 315.253 601.291 309.424C592.845 303.594 576.715 306.979 571.637 304.872C566.559 302.765 573.338 299.46 583.045 299.232C592.753 299.001 598.54 308.151 614.252 308.065C629.965 307.979 638.87 277.512 638.87 277.512C628.461 281.93 608.596 277.944 607.482 274.314C606.369 270.683 634.934 268.178 639.268 266.619C643.597 265.052 650.482 255.375 643.873 238.073Z" fill="#DFEBFD"/>
<path d="M169.2 390.835C155.595 374.201 181.229 349.5 181.229 349.5C181.229 349.5 224.579 351.282 229.304 346.16C234.028 341.037 192.537 337.399 192.537 337.399C199.274 325.748 232.488 307.531 232.488 307.531C232.488 307.531 265.677 333.922 268.999 327.794C272.317 321.667 238.418 305.927 238.418 305.927C249.122 297.645 268.464 296.601 268.464 296.601C297.296 298.625 293.207 335.545 293.207 335.545C293.207 335.545 304.908 344.442 323.893 346.864C323.893 346.864 327.615 347.009 333.127 348.392L331.07 351.268C330.132 350.951 329.202 350.678 328.281 350.452C328.275 350.449 328.27 350.447 328.264 350.449C328.25 350.447 328.236 350.444 328.225 350.441C327.641 350.321 326.805 350.152 325.784 349.954H325.781C325.778 349.954 325.778 349.954 325.775 349.954C323.429 349.603 321.733 349.289 320.547 349.007C320.544 349.007 320.539 349.005 320.536 349.005C313.256 347.777 303.513 346.538 300.231 348.014C300.231 348.014 300.011 347.376 299.351 346.455C299.632 346.953 299.924 347.471 300.231 348.014C307.257 360.474 291.42 386.336 278.803 398.034C266.19 409.732 266.596 400.99 265.599 389.123C264.603 377.252 277.317 362.971 278.124 356.641C278.931 350.31 271.696 355.232 265.864 364.873C260.032 374.513 265.903 385.618 256.752 401.388C247.602 417.156 211.79 408.549 211.79 408.549C222.244 400.617 229.69 378.319 226.678 375.101C223.666 371.885 204.664 399.2 200.591 402.664C196.518 406.121 182.802 407.468 169.2 390.835Z" fill="#CDE0FB"/>
<path d="M420.382 385.254H282.667V317.867H420.905C433.7 317.867 444.07 328.24 444.07 341.032V361.563C444.073 374.647 433.466 385.254 420.382 385.254Z" fill="#FCECDB"/>
<path d="M564.452 345.592V355.731C564.452 361.148 563.375 366.22 561.493 370.58C557.712 379.355 550.678 385.251 542.627 385.251H278.344C276.596 385.251 275.179 383.336 275.179 380.972V379.455C275.179 377.091 276.596 375.176 278.344 375.176H434.925C437.895 375.176 440.604 373.392 441.69 370.63C441.695 370.613 441.703 370.597 441.709 370.58C443.218 366.735 444.07 362.351 444.07 357.696V344.81C444.07 342.441 443.844 340.138 443.418 337.953C443.41 337.917 443.404 337.878 443.396 337.842C442.255 332.071 437.13 327.948 431.247 327.948H278.344C276.596 327.948 275.179 326.03 275.179 323.666V322.152C275.179 319.786 276.596 317.87 278.344 317.87H543.957C553.317 317.87 561.212 326.358 563.661 337.956C564.176 340.381 564.452 342.945 564.452 345.592Z" fill="#B5453C"/>
<path d="M282.667 351.561L302.235 352.694L282.667 353.376V351.561Z" fill="#F4D2B8"/>
<path d="M282.667 362.134L329.222 363.267L282.667 363.949V362.134Z" fill="#F4D2B8"/>
<path d="M414.149 263.685H300.328V206.894H414.589C425.276 206.894 433.937 215.558 433.937 226.242V243.895C433.937 254.827 425.076 263.685 414.149 263.685Z" fill="#FCECDB"/>
<path d="M533.585 230.259V238.803C533.585 243.368 532.694 247.644 531.135 251.319C528.006 258.713 522.182 263.685 515.517 263.685H296.748C295.3 263.685 294.128 262.07 294.128 260.08V258.799C294.128 256.809 295.3 255.194 296.748 255.194H430.109C430.821 253.997 431.45 252.7 431.979 251.319C433.229 248.078 433.934 244.384 433.934 240.462V229.602C433.934 227.606 433.747 225.666 433.394 223.823C432.795 220.696 431.729 217.835 430.301 215.39H296.748C295.3 215.39 294.128 213.776 294.128 211.78V210.505C294.128 208.511 295.3 206.894 296.748 206.894H516.617C524.365 206.894 530.901 214.049 532.928 223.823C533.356 225.869 533.585 228.029 533.585 230.259Z" fill="#AFCDFB"/>
<path d="M300.328 235.29L316.525 236.245L300.328 236.821V235.29Z" fill="#F4D2B8"/>
<path d="M300.328 244.201L338.865 245.156L300.328 245.729V244.201Z" fill="#F4D2B8"/>
<path d="M314.325 429.308H471.382V385.137H312.992C301.645 385.137 292.444 394.335 292.444 405.684V407.427C292.444 419.512 302.241 429.308 314.325 429.308Z" fill="#2B478B"/>
<path d="M463.161 429.307H642.046V385.136H462.688C451.149 385.136 441.795 394.49 441.795 406.026V407.941C441.795 419.742 451.361 429.307 463.161 429.307Z" fill="#FCECDB"/>
<path d="M429.919 429.307H648.163C649.914 429.307 651.336 427.888 651.336 426.134V425.872C651.336 424.121 649.917 422.698 648.163 422.698H429.919C428.168 422.698 426.746 424.118 426.746 425.872V426.134C426.746 427.888 428.168 429.307 429.919 429.307Z" fill="#2B478B"/>
<path d="M429.919 391.742H648.163C649.914 391.742 651.336 390.322 651.336 388.569V388.307C651.336 386.556 649.917 385.133 648.163 385.133H429.919C428.168 385.133 426.746 386.553 426.746 388.307V388.569C426.746 390.32 428.168 391.742 429.919 391.742Z" fill="#2B478B"/>
<path d="M642.047 407.22L617.768 407.963L642.047 408.412V407.22Z" fill="#F4D2B8"/>
<path d="M642.047 397.057L584.287 397.797L642.047 398.245V397.057Z" fill="#F4D2B8"/>
<path d="M584.883 397.65C584.883 397.65 587.358 399.548 588.176 402.666C588.321 403.212 588.413 403.796 588.432 404.412C588.569 408.557 588.432 417.938 588.432 417.938L595.74 413.248L603.028 417.938V405.225C603.028 402.819 602.402 400.481 601.241 398.95C600.679 398.209 599.996 397.65 599.223 397.65H584.883V397.65Z" fill="#699DEE"/>
<path d="M584.883 397.65C584.883 397.65 587.358 399.548 588.176 402.666L602.822 402.853C602.822 402.853 602.249 398.385 599.225 397.65H584.883Z" fill="#568CDB"/>
<path d="M416.384 317.867H593.507V263.685H415.858C403.061 263.685 392.688 274.057 392.688 286.855V294.171C392.688 307.258 403.297 317.867 416.384 317.867Z" fill="#FCECDB"/>
<path d="M392.59 284.705V296.37C392.604 298.16 393.041 299.861 393.821 301.42C395.207 304.198 397.679 306.503 400.786 307.984C403.175 309.117 405.936 309.763 408.871 309.763H598.794C601.018 309.763 602.822 311.269 602.822 313.129V314.504C602.822 316.363 601.018 317.869 598.794 317.869H270.699C261.284 317.869 252.966 313.964 247.938 307.984C244.77 304.217 242.911 299.627 242.911 294.669V285.471C242.911 282.075 243.841 278.862 245.503 275.997C249.72 268.712 258.656 263.687 268.998 263.687H598.791C601.015 263.687 602.819 265.191 602.819 267.05V268.425C602.819 270.285 601.015 271.791 598.791 271.791H408.286C403.734 271.791 399.614 273.411 396.736 275.997C395.491 277.119 394.478 278.422 393.763 279.853C393.022 281.348 392.604 282.985 392.59 284.705Z" fill="#7EB2FC"/>
<path d="M593.507 290.774L569.162 291.684L593.507 292.233V290.774Z" fill="#F4D2B8"/>
<path d="M593.507 278.305L535.583 279.216L593.507 279.764V278.305Z" fill="#F4D2B8"/>
<path d="M536.182 279.035C536.182 279.035 540.004 280.753 541.271 283.578C541.493 284.071 541.638 284.6 541.669 285.157C541.88 288.909 541.669 297.4 541.669 297.4L552.955 293.155L564.212 297.4V285.892C564.212 283.715 563.246 281.599 561.454 280.212C560.585 279.542 559.53 279.035 558.336 279.035H536.182Z" fill="#F99746"/>
<path d="M536.182 279.035C536.182 279.035 540.004 280.753 541.271 283.578L563.89 283.745C563.89 283.745 563.001 279.7 558.336 279.035H536.182V279.035Z" fill="#ED7D2B"/>
<path d="M804.986 430.279V430.613C804.986 431.148 804.574 431.585 804.073 431.585H0.913105C0.412011 431.585 0 431.145 0 430.613V430.279C0 429.745 0.412011 429.305 0.913105 429.305H804.073C804.574 429.307 804.986 429.747 804.986 430.279Z" fill="#2E3552"/>
<path d="M372.901 129.336C372.901 129.336 377.01 135.419 379.354 148.202C381.405 159.399 383.206 163.533 386.171 165.83C389.136 168.126 405.655 174.905 405.655 174.905L404.419 177.797C404.419 177.797 380.208 174.501 377.488 170.454C374.769 166.406 364.401 142.498 365.206 136.992C366.013 131.491 372.901 129.336 372.901 129.336Z" fill="#F4A269"/>
<path d="M432.191 262.9C431.974 265.261 435.262 265.834 439.068 266.026C442.873 266.218 441.723 266.995 446.943 267.941C452.16 268.885 454.251 267.46 454.629 266.753C454.966 266.126 452.539 265.149 449.955 264.044C449.629 263.905 449.304 263.763 448.978 263.621C446.069 262.34 444.435 259.732 442.169 257.313C440.02 255.022 437.979 247.683 437.979 247.683L430.889 246.169C430.889 246.169 432.879 252.772 433.569 255.592C433.976 257.251 433.377 259.106 432.843 260.517C432.556 261.282 432.267 262.068 432.191 262.9Z" fill="#FFB27D"/>
<path d="M439.068 266.026C442.876 266.215 441.723 266.995 446.943 267.941C452.16 268.885 454.251 267.46 454.629 266.752C454.966 266.126 452.539 265.149 449.955 264.044L449.916 264.088C449.916 264.088 446.247 265.333 442.013 264.183C438.561 263.245 435.223 261.182 432.846 260.517C432.559 261.285 432.269 262.07 432.194 262.902C431.972 265.26 435.259 265.837 439.068 266.026Z" fill="#C65447"/>
<path d="M361.582 178.819C361.582 178.819 408.698 175.273 417.571 180.871C426.44 186.469 440.668 251.678 440.668 251.678C440.668 251.678 439.791 252.383 437.829 252.594C436.005 252.792 431.988 251.72 431.988 251.72C431.988 251.72 411.543 222.542 410.101 215.193C408.662 207.844 409.013 201.285 405.734 201.11C402.454 200.934 361.576 206.079 355.393 195.185C349.21 184.292 354.321 173.508 354.321 173.508L361.582 178.819Z" fill="#ED7D2B"/>
<path d="M414.16 270.469C413.943 272.83 417.231 273.403 421.036 273.595C424.845 273.785 423.692 274.564 428.912 275.511C434.132 276.457 436.22 275.029 436.598 274.322C436.935 273.696 434.507 272.718 431.924 271.613C431.598 271.474 431.273 271.332 430.947 271.19C428.038 269.909 426.404 267.301 424.138 264.882C421.988 262.591 419.948 255.252 419.948 255.252L412.857 253.738C412.857 253.738 414.848 260.341 415.538 263.161C415.945 264.821 415.343 266.675 414.812 268.083C414.528 268.852 414.238 269.637 414.16 270.469Z" fill="#FFB27D"/>
<path d="M421.039 273.593C424.847 273.782 423.695 274.561 428.915 275.508C434.134 276.454 436.222 275.026 436.601 274.319C436.938 273.693 434.51 272.716 431.927 271.61L431.888 271.655C431.888 271.655 428.219 272.899 423.984 271.75C420.532 270.811 417.195 268.749 414.817 268.083C414.53 268.852 414.241 269.637 414.166 270.469C413.943 272.83 417.231 273.403 421.039 273.593Z" fill="#C65447"/>
<path d="M352.353 181.736C352.353 181.736 394.208 183.718 402.855 189.656C411.502 195.594 423.177 261.307 423.177 261.307C423.177 261.307 422.272 261.975 420.304 262.112C418.475 262.237 414.503 261.009 414.503 261.009C414.503 261.009 395.208 231.061 394.055 223.658C392.903 216.259 393.51 209.717 390.239 209.413C386.967 209.11 345.92 212.659 340.165 201.535C334.414 190.414 352.353 181.736 352.353 181.736Z" fill="#F99746"/>
<path d="M371.094 91.865C369.493 90.32 367.277 89.6268 365.682 89.3178C366.194 89.0032 367.029 89.0561 367.029 89.0561C366.091 88.6608 363.669 89.07 363.669 89.07C351.459 80.3732 344.21 99.7795 343.308 104.487C342.403 109.195 340.744 115.929 334.99 121.766C320.233 136.738 341.315 154.062 341.315 154.062C341.404 154.151 351.896 131.696 362.433 128.089C365.456 125.419 367.7 119.912 367.876 119.478C366.336 123.907 364.911 126.248 363.853 127.498C373.287 122.426 375.336 95.9601 371.094 91.865Z" fill="#163560"/>
<path d="M350.594 122.332C350.594 122.332 354.491 121.962 358.388 122.332C361.036 122.582 363.661 123.406 365.153 124.03C368.842 125.572 368.455 132.103 360.716 130.892C352.977 129.684 350.051 124.267 350.594 122.332Z" fill="#FFB27D"/>
<path d="M364.827 127.095C364.872 127.12 365.933 132.713 360.863 132.49C357.537 132.343 350.36 128.317 350.995 125.469C351.295 124.116 353.809 120.603 354.316 112.583L354.923 112.744L365.106 115.475C365.106 115.475 364.655 118.707 364.443 121.767C364.265 124.333 364.257 126.78 364.827 127.095Z" fill="#FFB27D"/>
<path d="M365.106 115.475C365.106 115.475 364.655 118.707 364.443 121.767C358.678 121.218 355.978 115.748 354.922 112.744L365.106 115.475Z" fill="#F4A269"/>
<path d="M353.962 110.963C353.962 110.963 352.214 105.567 352.528 101.417C352.751 98.4546 356.891 88.3186 367.057 92.5389C367.057 92.5389 370.044 93.6274 372.427 96.3139C374.323 98.4491 376.773 102.639 370.724 110.857L368.97 113.707L353.962 110.963Z" fill="#163560"/>
<path d="M365.379 120.163C365.379 120.163 352.058 116.981 354.168 108.716C356.278 100.451 355.981 94.4736 364.574 96.1578C373.168 97.8421 374.009 101.414 373.975 104.345C373.942 107.274 368.898 120.778 365.379 120.163Z" fill="#FFB27D"/>
<path d="M370.665 97.5025C370.665 97.5025 364.546 106.266 358.606 106.269C352.665 106.272 350.63 104.159 350.63 104.159C350.63 104.159 355.777 101.859 358.185 96.1579C358.185 96.1579 369.109 92.1881 370.665 97.5025Z" fill="#163560"/>
<path d="M369.566 98.0594C369.566 98.0594 371.723 100.918 371.846 103.193C371.968 105.467 371.152 109.874 372.455 110.049C372.455 110.049 376.882 104.162 374.763 99.6462C372.511 94.8607 369.566 98.0594 369.566 98.0594Z" fill="#163560"/>
<path d="M380.526 179.529C379.418 180.851 375.963 181.258 372.269 181.867C369.362 182.346 366.309 182.95 364.137 184.225C359.207 187.121 343.097 196.903 338.375 196.46C336.544 196.288 336.886 192.794 337.997 188.156C339.742 180.835 343.395 170.665 343.395 166.242C343.395 163.828 344.196 158.118 345.271 151.587C345.357 151.061 345.446 150.529 345.535 149.995C347.657 137.301 350.594 122.332 350.594 122.332C350.594 122.332 353.87 129.481 360.254 129.481C366.637 129.481 365.153 124.03 365.153 124.03C365.153 124.03 370.977 124.715 372.355 126.199C373.733 127.68 377.221 134.088 377.915 135.836C377.915 135.836 378.056 138.061 372.55 139.118C372.55 139.118 373.892 145.154 374.051 149.177C374.167 152.15 372.024 161.451 371.406 167.238C371.186 169.287 371.158 170.896 371.492 171.626C371.918 172.561 373.296 173.491 374.863 174.404C377.973 176.213 381.84 177.956 380.526 179.529Z" fill="#1C468A"/>
<path d="M374.861 174.401C378.393 180.425 365.279 182.238 363.107 183.513C358.177 186.408 343.097 196.903 338.375 196.458C336.544 196.285 336.886 192.791 337.997 188.153C339.742 180.832 343.395 170.662 343.395 166.239C343.395 163.825 344.196 158.115 345.271 151.585L350.956 146.128C350.956 146.128 357.047 161.868 362.851 164.449C365.894 165.799 369.07 166.693 371.406 167.233C371.186 169.282 371.158 170.891 371.492 171.62C371.915 172.558 373.293 173.488 374.861 174.401Z" fill="#2C3A64"/>
<path d="M348.848 127.042C348.848 127.042 343.988 124.091 339.291 129.69C334.592 135.288 342.632 175.306 349.591 177.363C357.325 179.646 380.528 179.529 380.528 179.529L379.56 176.714C379.56 176.714 355.454 168.947 354.466 167.675C353.475 166.406 351.317 127.688 348.848 127.042Z" fill="#FFB27D"/>
<path d="M350.594 122.332C350.594 122.332 340.614 123.231 337.716 126.516C334.818 129.798 333.971 138.693 333.971 138.693C333.971 138.693 342.76 145.786 353.35 143.035L350.594 122.332Z" fill="#1C468A"/>
<path d="M412.537 165.131L413.489 156.379L401.109 172.689C401.109 172.689 406.293 175.27 406.596 174.777C406.9 174.285 412.537 165.131 412.537 165.131Z" fill="#163560"/>
<path d="M394.011 165.131L382.577 182.594H401.783L412.537 165.131H394.011Z" fill="#1C468A"/>
<path d="M412.537 165.131L413.436 156.462L406.964 164.558L412.537 165.131Z" fill="#EFDECE"/>
<path d="M383.165 181.698L382.288 181.069L393.652 164.182L394.011 165.131L383.165 181.698Z" fill="#EFDECE"/>
<path d="M393.652 164.182L411.744 164.691L412.537 165.131H394.011L393.652 164.182Z" fill="#FCECDB"/>
<path d="M389.874 179.125C389.52 179.078 389.066 179.086 388.641 179.114C390.021 178.471 391.413 177.772 391.413 177.772C391.413 177.772 390.795 177.138 388.421 177.981C388.153 178.076 387.886 178.098 387.622 178.07L390.951 176.572C390.358 176.038 388.763 176.464 387.521 176.92C386.633 177.246 385.645 177.101 384.899 176.52C384.888 176.511 384.874 176.5 384.863 176.492C384.919 176.486 384.969 176.483 385.027 176.475C386.97 176.188 387.466 175.077 386.926 175.206C386.386 175.334 383.128 175.57 383.128 175.57C381.656 175.484 378.738 176.609 378.738 176.609L380.37 179.621C380.37 179.621 385.061 180.492 386.28 180.116C386.377 180.086 386.497 180.044 386.628 179.994L390.89 179.713C390.89 179.713 390.812 179.253 389.874 179.125Z" fill="#FFB27D"/>
<path d="M554.82 296.71C554.82 296.71 579.432 307.433 583.9 307.239C588.368 307.044 615.898 298.854 615.898 298.854L615.196 303.589C615.196 303.589 593.95 315.807 586.523 316.5C579.209 317.182 554.205 309.936 551.791 308.408C549.378 306.879 547.805 298.261 554.82 296.71Z" fill="#ED985F"/>
<path d="M551.123 257.263C551.123 257.263 542.042 255.537 537.521 258.841C529.328 264.824 528.888 285.446 525.818 288.52C522.747 291.593 515.348 290.282 514.688 306.178C514.028 322.074 517.633 323.404 513.341 330.5C509.048 337.596 515.156 344.698 515.156 344.698C515.156 344.698 512.653 340.781 513.725 337.953C513.725 337.953 514.766 344.194 518.73 345.656C522.694 347.117 523.282 348.192 523.914 350.335C523.914 350.335 557.735 333.006 557.771 320.712C557.807 308.419 564.427 296.245 561.176 290.917C561.176 290.917 562.623 293.197 562.801 295.73C562.801 295.73 564.75 291.994 561.37 288.514C557.991 285.037 565.335 277.838 564.249 269.5C563.506 263.782 559.491 257.51 551.123 257.263Z" fill="#233862"/>
<path d="M557.813 308.421C555.652 309.922 552.941 311.158 549.539 311.943C536.783 314.888 531.895 304.109 530.06 296.709C531.8 295.713 533.437 295.496 534.381 295.381C535.302 295.273 536.271 295.2 537.076 295.161C538.507 294.065 540.642 289.574 541.115 282.604L541.716 282.765L551.769 285.515C551.769 285.515 551.31 288.711 551.084 291.732C550.909 294.095 550.881 296.353 551.329 296.907C552.114 297.077 552.585 297.188 552.585 297.188C552.585 297.188 552.585 297.191 552.59 297.196C552.718 297.419 555.636 302.216 557.813 308.421Z" fill="#FFB27D"/>
<path d="M551.766 285.519C551.766 285.519 551.304 288.712 551.081 291.735C545.386 291.164 542.744 285.741 541.714 282.768L551.766 285.519Z" fill="#ED985F"/>
<path d="M553.464 288.52C553.464 288.52 539.946 287.774 540.542 279.364C541.134 270.954 539.79 265.191 548.448 265.314C557.106 265.436 558.553 268.763 559.038 271.616C559.522 274.47 556.997 288.495 553.464 288.52Z" fill="#FFB27D"/>
<path d="M558.971 266.908C557.064 264.23 555.449 264.67 554.511 265.369C547.423 260.781 542.237 266.441 542.237 266.441C540.901 272.409 536.302 275.555 536.302 275.555C536.302 275.555 538.654 277.25 544.431 276.201C546.196 275.881 547.832 274.759 549.252 273.359C546.68 277.042 543.356 279.592 543.356 279.592C550.357 276.944 553.754 267.716 554.096 266.739C554.867 267.538 556.376 269.264 556.76 270.873C557.281 273.064 559.522 276.488 560.816 276.429C560.816 276.426 561.827 270.928 558.971 266.908Z" fill="#233862"/>
<path d="M526.207 335.906C524.988 329.665 521.007 304.733 524.988 296.712C526.416 293.831 532.026 293.569 538.181 293.823C540.096 295.059 547.393 299.73 550.391 299.148C550.424 299.143 550.483 299.129 550.558 299.109C551.969 298.756 552.501 297.765 551.323 296.91C551.321 296.907 554.372 296.615 558.158 297.328C560.296 297.731 566.061 300.713 566.061 300.713C566.061 300.713 563.158 305.958 558.876 307.77C559.605 314.284 558.522 317.157 551.763 332.201C546.054 344.918 552.534 356.368 552.534 356.368C552.534 356.368 518.922 383.393 518.736 369.633C518.594 359.271 527.769 343.882 526.207 335.906Z" fill="white"/>
<path d="M554.202 385.752C556.031 385.546 557.676 384.546 558.698 383.015C558.859 382.773 559.035 382.511 559.218 382.233C563.043 376.442 564.533 358.704 573.138 339.807C575.234 335.205 582.759 334.378 584.81 329.178C584.81 329.178 589.86 312.322 575.145 311.826C560.429 311.328 535.734 358.729 535.344 363.698C534.966 368.511 525.615 388.978 554.202 385.752Z" fill="#DD6D22"/>
<path d="M612.688 385.365H591.742C591.742 385.365 590.96 382.024 592.335 379.749C593.552 377.74 593.087 376.593 592.185 374.928C593.134 375.318 594.362 375.668 595.712 375.593C596.756 375.532 597.859 375.059 598.827 374.496C599.729 375.524 603.588 379.9 604.796 380.766C606.163 381.751 612.268 381.4 612.688 385.365Z" fill="#233862"/>
<path d="M528.415 303.246C528.415 303.246 525.69 328.048 543.367 333.245C561.045 338.443 566.064 310.426 551.791 308.41C537.518 306.395 528.415 303.246 528.415 303.246Z" fill="#EBEEF2"/>
<path d="M585.286 316.698C586.548 326.152 591.472 355.995 600.161 370.554C602.961 375.248 593.104 377.879 593.051 377.865C591.728 377.52 589.526 375.412 588.51 374.496C581.456 368.141 567.139 350.14 567.139 335.709C567.139 328.671 567.016 315.234 572.133 311.818C575.284 309.716 584.788 312.942 585.286 316.698Z" fill="#ED7D2B"/>
<path d="M541.711 385.364C541.711 385.364 542.487 384.284 543.84 382.233C545.452 379.794 547.234 374.992 549.397 368.837C551.669 362.375 554.363 354.427 557.732 346.157C558.77 343.604 559.875 341.02 561.05 338.44C563.146 333.838 568.912 334.475 570.964 329.275C570.964 329.275 578.97 311.247 564.254 310.749C549.539 310.25 521.578 358.976 519.969 363.695C518.209 368.862 509.627 390.314 541.711 385.364Z" fill="#F99746"/>
<path d="M597.313 385.365H576.367C576.367 385.365 575.585 382.024 576.96 379.749C578.177 377.74 577.712 376.593 576.81 374.928C577.759 375.318 578.987 375.668 580.337 375.593C581.381 375.532 582.483 375.059 583.452 374.496C584.354 375.524 588.212 379.9 589.421 380.766C590.79 381.751 596.892 381.4 597.313 385.365Z" fill="#2B478B"/>
<path d="M549.397 368.837C551.669 362.376 554.363 354.428 557.732 346.157C556.852 339.89 554.954 334.409 551.763 332.201C551.763 332.201 544.024 356.179 549.397 368.837Z" fill="#ED7D2B"/>
<path d="M573.063 316.027C574.324 325.481 576.1 355.995 584.788 370.554C587.589 375.248 577.731 377.878 577.678 377.865C576.356 377.519 574.154 375.412 573.138 374.496C566.083 368.141 551.766 350.14 551.766 335.709C551.766 328.671 560.023 315.798 565.14 312.383C568.291 310.281 572.562 312.271 573.063 316.027Z" fill="#F99746"/>
<path d="M555.997 283.681C555.997 283.681 554.72 283.175 551.123 283.467C551.123 283.467 551.315 284.87 553.965 285.009C555.469 285.087 555.997 283.681 555.997 283.681Z" fill="white"/>
<path d="M618.526 288.946L614.183 281.112L604.79 307.325L610.333 313.274L618.526 288.946Z" fill="#163560"/>
<path d="M595.854 293.536L587.121 318.48L610.333 313.274L618.526 288.946L595.854 293.536Z" fill="#1C468A"/>
<path d="M587.583 317.221L587.177 316.511L595.439 292.904L595.854 293.536L587.583 317.221Z" fill="#EFDECE"/>
<path d="M595.439 292.904L617.446 288.623L618.526 288.945L595.854 293.536L595.439 292.904Z" fill="#FCECDB"/>
<path d="M618.526 288.946L613.832 281.493L610.837 289.909L617.446 288.623L618.526 288.946Z" fill="#EFDECE"/>
<path d="M602.555 297.147C601.8 297.002 600.18 296.393 598.541 295.942C599.03 295.56 599.576 295.095 599.726 294.616C600.019 293.692 600.214 293.394 599.239 293.687C598.265 293.979 594.852 295.543 594.852 295.543C594.852 295.543 594.86 295.546 594.86 295.549C592.923 296.114 591.135 298.856 591.135 298.856C591.135 298.856 567.139 307.291 564.252 307.436C559.786 307.662 530.058 296.713 530.058 296.713C523.042 298.261 524.615 306.882 527.029 308.41C529.442 309.939 550.834 317.722 563.511 317.867C569.934 317.942 593.29 302.929 593.29 302.929C593.29 302.929 596.021 301.682 598.165 302.072C600.311 302.461 605.283 302.072 606.355 300.318C607.429 298.561 603.821 297.392 602.555 297.147Z" fill="#FFB27D"/>
<path d="M545.374 302.11C545.374 302.11 542.716 310.526 533.585 312.441C533.585 312.441 518.505 307.795 526.013 297.523C526.013 297.523 533.437 292.008 545.374 302.11Z" fill="white"/>
<path d="M618.136 297.782C618.142 297.551 618.117 297.319 618.055 297.1C618.055 297.1 615.903 293.698 615.199 293.558C613.053 293.135 613.053 295.961 613.509 297.782C613.827 299.051 614.634 300.27 615.285 300.927L615.199 303.589C618.824 301.598 618.136 297.782 618.136 297.782Z" fill="#FFB27D"/>
<path d="M428.166 339.239C428.166 339.239 424.343 341.574 423.077 345.41C422.854 346.081 422.709 346.8 422.681 347.557C422.47 352.654 422.681 364.193 422.681 364.193L411.396 358.425L400.138 364.193V348.553C400.138 345.597 401.104 342.718 402.896 340.837C403.765 339.923 404.82 339.236 406.014 339.236H428.166V339.239Z" fill="#F99746"/>
<path d="M428.166 339.239C428.166 339.239 424.343 341.574 423.077 345.41L400.461 345.639C400.461 345.639 401.349 340.143 406.014 339.239H428.166Z" fill="#ED7D2B"/>
<path d="M205.997 264.587C205.997 264.587 208.394 274.987 215.382 274.987C221.372 274.987 229.588 261.449 229.588 261.449L205.997 264.587Z" fill="#F99746"/>
<path d="M285.83 419.152L281.821 421.279C281.821 421.279 260.14 398.29 254.929 376.231C253.999 372.291 253.623 368.408 254.021 364.722C254.021 364.722 253.707 363.723 253.156 361.958C253.131 361.88 253.106 361.802 253.083 361.721C252.841 360.947 252.552 360.034 252.231 359.001C251.185 355.669 249.745 351.106 248.109 345.912C244.336 333.96 235.704 307.007 232.018 295.794L258.526 286.203C258.526 286.203 261.535 293.068 265.864 311.729C266.529 314.164 267.197 316.856 267.821 319.791C268.528 323.115 269.188 326.75 269.736 330.675C270.666 337.326 271.287 344.809 271.326 353.019C271.34 356.357 271.259 359.82 271.061 363.391C270.917 366.011 271.306 369.502 272.036 373.472C275.368 391.634 285.83 419.152 285.83 419.152Z" fill="#2B478B"/>
<path d="M300.342 429.307H278.912C278.912 429.307 278.11 425.888 279.519 423.564C280.763 421.507 280.287 420.335 279.366 418.631C280.337 419.029 281.593 419.391 282.976 419.31C284.045 419.249 285.173 418.764 286.164 418.188C287.085 419.241 291.036 423.717 292.269 424.602C293.666 425.61 299.91 425.251 300.342 429.307Z" fill="#233862"/>
<path d="M269.731 330.681L253.08 361.721C252.838 360.947 252.549 360.034 252.229 359.001C251.182 355.669 249.743 351.106 248.106 345.912C244.334 333.96 235.701 307.007 232.015 295.794L258.523 286.203C258.523 286.203 261.532 293.068 265.861 311.729C266.526 314.164 267.195 316.856 267.818 319.791C268.52 323.12 269.179 326.753 269.731 330.681Z" fill="#233862"/>
<path d="M231.581 422.598C231.581 422.598 230.097 426.237 231.494 429.307H243.15C243.15 429.307 243.393 426.54 239.161 423.33C235.96 420.9 231.581 422.598 231.581 422.598Z" fill="#233862"/>
<path d="M244.267 185.653C244.275 185.074 244.573 178.816 254.077 178.259C254.077 178.259 249.411 178.93 248.654 181.007C248.654 181.007 251.778 178.39 254.392 179.145C257.006 179.899 258.64 184.409 258.69 185.901C258.74 187.396 257.415 192.248 255.781 192.699C255.16 192.869 254.442 192.844 253.788 192.749C254.241 193.423 254.69 194.166 255.121 194.999C259.105 202.699 255.667 211.771 252.435 211.009C250.361 210.519 249.1 214.113 249.1 214.113L229.151 196.958C229.148 196.961 236.138 181.564 244.267 185.653Z" fill="#2C3A64"/>
<path d="M231.728 237.781C233.939 239.315 236.714 240.581 240.194 241.383C253.245 244.398 258.244 233.368 260.124 225.796C258.345 224.777 256.669 224.555 255.703 224.438C254.759 224.326 253.768 224.251 252.947 224.212C251.482 223.09 249.297 218.497 248.816 211.365L248.2 211.529L237.917 214.343C237.917 214.343 238.387 217.612 238.618 220.702C238.796 223.121 238.824 225.432 238.368 225.997C237.566 226.172 237.084 226.283 237.084 226.283C237.084 226.283 237.084 226.286 237.079 226.292C236.937 226.523 233.953 231.428 231.728 237.781Z" fill="#FFB27D"/>
<path d="M237.914 214.346C237.914 214.346 238.387 217.612 238.615 220.705C244.442 220.12 247.148 214.575 248.2 211.529L237.914 214.346Z" fill="#ED985F"/>
<path d="M237.794 219.252C237.794 219.252 251.21 215.805 248.935 207.481C246.661 199.16 246.859 193.111 238.198 194.96C229.537 196.808 228.747 200.438 228.83 203.4C228.914 206.365 234.245 219.934 237.794 219.252Z" fill="#FFB27D"/>
<path d="M227.956 198.668C229.334 195.597 231.043 195.72 232.126 196.232C238.323 190.213 244.657 194.857 244.657 194.857C247.19 200.58 252.432 202.818 252.432 202.818C252.432 202.818 250.411 204.99 244.403 205.087C242.569 205.118 240.703 204.319 238.997 203.2C242.313 206.382 246.157 208.278 246.157 208.278C238.602 207.019 233.351 198.437 232.811 197.523C232.196 198.478 231.027 200.511 230.966 202.206C230.882 204.508 231.778 208.951 230.467 209.152C230.467 209.146 225.891 203.269 227.956 198.668Z" fill="#2C3A64"/>
<path d="M233.936 225.593C233.936 225.593 256.468 220.123 266.265 228.204L261.368 296.487L217.302 285.841C217.302 285.841 218.541 281.521 226.993 270.032C235.442 258.543 231.767 241.689 233.936 225.593Z" fill="#FFB27D"/>
<path d="M247.07 288.887C247.07 288.887 247.045 289.118 246.998 289.561C246.978 289.75 246.95 289.978 246.922 290.248C246.733 292.019 246.374 295.415 245.912 299.83C244.704 311.411 242.805 330.01 241.513 344.692C240.503 356.17 239.86 365.256 240.208 366.715C241.252 371.105 240.208 423.581 240.208 423.581C236.464 425.377 230.784 423.581 230.784 423.581C230.784 423.581 220.807 376.294 222.205 369.722C223.602 363.149 221.272 357.54 221.272 357.54C213.527 321.466 214.374 301.475 215.913 291.902C216.361 289.118 216.868 287.216 217.238 286.058C217.553 285.073 217.77 284.622 217.77 284.622C234.852 280.017 247.07 288.887 247.07 288.887Z" fill="#2B478B"/>
<path d="M269.302 247.68C268.213 255.895 263.862 265.948 262.309 271.357C262.309 271.357 264.906 290.142 262.426 295.301C262.145 295.888 261.794 296.3 261.368 296.487C252.178 300.49 216.397 296.604 214.886 285.059C214.337 280.864 228.516 266.112 229.342 264.322C229.685 263.581 230.05 261.182 228.388 256.207C226.032 263.473 213.026 261.382 213.026 261.382C214.552 258.771 218.355 240.701 222.603 232.544C225.796 226.411 234.32 225.526 234.32 225.526C234.32 225.526 237.867 231.152 246.446 230.353C255.026 229.554 256.594 224.304 256.594 224.304C256.594 224.304 264.202 225.315 266.549 227.208C266.955 227.536 270.727 236.918 269.302 247.68Z" fill="#F99746"/>
<path d="M262.309 271.357C262.309 271.357 264.906 290.142 262.426 295.301C255.731 291.941 247.006 284.689 249.662 273.356C253.517 256.892 269.302 247.68 269.302 247.68C268.213 255.895 263.862 265.948 262.309 271.357Z" fill="#ED7D2B"/>
<path d="M234.365 249.142L249.706 273.756H223.602L208.984 249.676L234.365 249.142Z" fill="#1C468A"/>
<path d="M248.91 272.521L249.175 271.661L234.654 248.368L234.365 249.142L248.91 272.521Z" fill="#EFDECE"/>
<path d="M234.654 248.368L210.062 249.07L208.984 249.677L234.365 249.142L234.654 248.368Z" fill="#FCECDB"/>
<path d="M208.984 249.676L195.187 242.207L211.27 267.462L223.602 273.757L208.984 249.676Z" fill="#163560"/>
<path d="M281.991 266.925C280.513 267.598 276.721 272.069 275.365 272.523C269.277 274.558 243.37 269.138 243.37 269.138L244.172 264.6C244.172 264.6 269.6 265.277 272.395 264.528C272.921 264.386 275.669 260.087 276.726 259.472L281.991 266.925Z" fill="#FFB27D"/>
<path d="M244.178 264.598C244.178 264.598 241.11 262.103 239.039 262.666C236.968 263.228 233.919 265.851 232.786 266.471C231.653 267.092 228.58 269.311 230.139 270.653C231.698 271.995 236.55 270.842 238.474 269.815C240.397 268.785 243.376 269.138 243.376 269.138L244.178 264.598Z" fill="#FFB27D"/>
<path d="M239.626 262.585C239.626 262.585 235.899 262.14 234.882 262.162C233.864 262.181 234.142 262.404 234.701 263.195C235.264 263.985 237.204 264.286 237.293 264.562C237.382 264.84 239.626 262.585 239.626 262.585Z" fill="#FFB27D"/>
<path d="M256.594 224.304C256.594 224.304 267.646 225.615 270.688 230.353C274.536 236.344 283.617 260.21 283.321 266.223C283.321 266.223 276.682 277.52 253.918 275.713C253.918 275.713 251.549 267.348 256.338 264.586C256.338 264.586 268.03 262.507 269.377 261.321L265.471 245.085L256.594 224.304Z" fill="#F99746"/>
<path d="M212.517 258.674C212.174 257.282 209.137 258.15 208.116 258.952C207.868 259.147 207.601 259.478 207.339 259.868C207.308 259.634 207.28 259.412 207.264 259.239C207.205 258.585 206.445 257.413 206.256 258.29C206.067 259.167 205.755 262.852 205.755 262.852C205.719 265.82 207.626 267.045 208.853 266.079C210.078 265.113 212.859 260.066 212.517 258.674Z" fill="#FFB27D"/>
</svg>
