<svg width="423" height="424" viewBox="0 0 423 424" fill="none" xmlns="http://www.w3.org/2000/svg">
<path d="M372.653 361.211C363.999 370.18 355.808 375.964 349.338 380.533C273.278 434.248 183.28 418.591 164.152 414.766C135.907 409.12 81.3099 398.206 41.8379 352.517C-17.8805 283.393 -8.5819 174.491 37.7401 102.603C46.2133 89.4536 90.97 16.4701 181.937 4.76562C236.99 -2.31777 301.163 11.968 347.636 50.2912C445.19 130.735 438.245 293.246 372.653 361.211Z" fill="url(#paint0_linear_12_847)"/>
<path d="M80.6478 120.059C80.6874 118.027 82.3946 116.391 84.4877 116.391H211.458C213.58 116.391 215.833 118.077 215.833 120.138V407.921C215.833 409.459 214.936 410.934 213.815 412.019C212.694 413.105 211.04 413.712 209.456 413.709L81.0963 413.369C79.499 413.364 77.9368 412.737 76.82 411.63C75.7033 410.52 75.0732 409.019 75.1037 407.468L80.6478 120.059Z" fill="#BDD0FB"/>
<g opacity="0.52">
<path d="M153.566 136.785L195.1 136.646L195.085 131.598L153.596 131.726L153.566 136.785Z" fill="white"/>
<path d="M153.451 155.375L195.157 155.19L195.141 150.102L153.483 150.274L153.451 155.375Z" fill="white"/>
<path d="M153.337 174.118L195.215 173.888L195.199 168.757L153.369 168.975L153.337 174.118Z" fill="white"/>
<path d="M153.221 193.017L195.273 192.74L195.256 187.566L153.253 187.832L153.221 193.017Z" fill="white"/>
<path d="M153.105 212.074L195.331 211.749L195.314 206.533L153.137 206.845L153.105 212.074Z" fill="white"/>
<path d="M152.868 250.667L195.448 250.244L195.433 244.941L152.901 245.35L152.868 250.667Z" fill="white"/>
<path d="M152.505 309.789L195.63 309.215L195.613 303.775L152.539 304.335L152.505 309.789Z" fill="white"/>
<path d="M152.986 231.29L195.39 230.917L195.373 225.656L153.018 226.016L152.986 231.29Z" fill="white"/>
<path d="M152.748 270.209L195.509 269.737L195.492 264.389L152.781 264.846L152.748 270.209Z" fill="white"/>
<path d="M152.627 289.915L195.569 289.392L195.552 283.999L152.661 284.508L152.627 289.915Z" fill="white"/>
<path d="M152.383 329.834L195.691 329.207L195.674 323.721L152.417 324.332L152.383 329.834Z" fill="white"/>
<path d="M152.26 350.05L195.753 349.369L195.736 343.836L152.293 344.501L152.26 350.05Z" fill="white"/>
<path d="M152.135 370.441L195.816 369.706L195.799 364.125L152.168 364.845L152.135 370.441Z" fill="white"/>
<path d="M152.008 391.008L195.878 390.217L195.862 384.588L152.043 385.363L152.008 391.008Z" fill="white"/>
<path d="M99.1107 136.968L140.906 136.828L140.95 131.765L99.2022 131.893L99.1107 136.968Z" fill="white"/>
<path d="M98.7704 155.617L140.74 155.431L140.786 150.327L98.8635 150.501L98.7704 155.617Z" fill="white"/>
<path d="M98.4287 174.42L140.572 174.188L140.618 169.041L98.5233 169.261L98.4287 174.42Z" fill="white"/>
<path d="M98.0839 193.382L140.403 193.103L140.45 187.913L98.1785 188.179L98.0839 193.382Z" fill="white"/>
<path d="M97.7376 212.501L140.233 212.173L140.279 206.94L97.8322 207.255L97.7376 212.501Z" fill="white"/>
<path d="M97.0328 251.221L139.889 250.797L139.936 245.474L97.1305 245.886L97.0328 251.221Z" fill="white"/>
<path d="M95.9542 310.543L139.359 309.964L139.408 304.506L96.0549 305.07L95.9542 310.543Z" fill="white"/>
<path d="M97.3867 231.78L140.061 231.404L140.108 226.126L97.4828 226.49L97.3867 231.78Z" fill="white"/>
<path d="M96.6773 270.828L139.713 270.352L139.762 264.986L96.7749 265.447L96.6773 270.828Z" fill="white"/>
<path d="M96.3173 290.601L139.538 290.075L139.585 284.662L96.4165 285.175L96.3173 290.601Z" fill="white"/>
<path d="M95.5896 330.656L139.181 330.024L139.23 324.52L95.6888 325.136L95.5896 330.656Z" fill="white"/>
<path d="M95.2204 350.942L139.001 350.257L139.05 344.704L95.3211 345.375L95.2204 350.942Z" fill="white"/>
<path d="M94.8481 371.404L138.818 370.664L138.868 365.065L94.9504 365.788L94.8481 371.404Z" fill="white"/>
<path d="M94.4728 392.044L138.635 391.249L138.685 385.6L94.5766 386.379L94.4728 392.044Z" fill="white"/>
</g>
<path d="M7.78783 199.437C7.84275 197.086 10.2578 195.152 13.2159 195.152H125.044C128.042 195.152 130.987 197.187 130.987 199.57V412.531C130.987 413.677 130.155 414.777 129.135 415.585C128.114 416.394 126.601 416.847 125.157 416.844L8.23483 416.592C6.7794 416.589 5.35601 416.122 4.33843 415.295C3.32085 414.468 2.74722 413.327 2.77469 412.171L7.78783 199.437Z" fill="#BDD0FB"/>
<path d="M90.1431 220.248L122.001 220.213L122.254 207.238H90.3659L90.1431 220.248Z" fill="url(#paint1_linear_12_847)"/>
<path d="M54.4348 220.241L86.2605 220.207L86.4787 207.238H54.6209L54.4348 220.241Z" fill="url(#paint2_linear_12_847)"/>
<path d="M18.7615 220.234L50.5552 220.201L50.7382 207.238H18.9141L18.7615 220.234Z" fill="url(#paint3_linear_12_847)"/>
<path d="M89.745 243.54L121.548 243.556L121.8 230.663L89.9662 230.654L89.745 243.54Z" fill="url(#paint4_linear_12_847)"/>
<path d="M54.0992 243.521L85.8684 243.538L86.0866 230.653L54.2853 230.642L54.0992 243.521Z" fill="url(#paint5_linear_12_847)"/>
<path d="M18.4885 243.503L50.2257 243.52L50.4087 230.641L18.6395 230.63L18.4885 243.503Z" fill="url(#paint6_linear_12_847)"/>
<path d="M89.3483 266.671L121.095 266.699L121.346 253.851L89.5679 253.83L89.3483 266.671Z" fill="url(#paint7_linear_12_847)"/>
<path d="M53.7635 266.642L85.4793 266.668L85.696 253.829L53.9496 253.807L53.7635 266.642Z" fill="url(#paint8_linear_12_847)"/>
<path d="M18.2153 266.613L49.8976 266.639L50.0807 253.804L18.3664 253.784L18.2153 266.613Z" fill="url(#paint9_linear_12_847)"/>
<path d="M88.9531 289.723L120.645 289.761L120.895 276.958L89.1728 276.926L88.9531 289.723Z" fill="url(#paint10_linear_12_847)"/>
<path d="M53.4309 289.682L85.0903 289.72L85.3054 276.923L53.6155 276.893L53.4309 289.682Z" fill="url(#paint11_linear_12_847)"/>
<path d="M17.9423 289.642L49.5711 289.679L49.7527 276.888L18.0933 276.857L17.9423 289.642Z" fill="url(#paint12_linear_12_847)"/>
<path d="M88.5596 312.695L120.196 312.743L120.445 299.984L88.7777 299.943L88.5596 312.695Z" fill="url(#paint13_linear_12_847)"/>
<path d="M53.0983 312.643L84.7028 312.689L84.9179 299.938L53.2829 299.897L53.0983 312.643Z" fill="url(#paint14_linear_12_847)"/>
<path d="M17.6722 312.59L49.2447 312.637L49.4262 299.892L17.8218 299.851L17.6722 312.59Z" fill="url(#paint15_linear_12_847)"/>
<path d="M88.166 335.588L119.749 335.645L119.996 322.932L88.3841 322.88L88.166 335.588Z" fill="url(#paint16_linear_12_847)"/>
<path d="M52.7657 335.524L84.3168 335.581L84.5319 322.874L52.9503 322.822L52.7657 335.524Z" fill="url(#paint17_linear_12_847)"/>
<path d="M17.4022 335.46L48.9212 335.518L49.1013 322.816L17.5517 322.764L17.4022 335.46Z" fill="url(#paint18_linear_12_847)"/>
<path d="M87.7753 358.402L119.302 358.469L119.551 345.799L87.992 345.738L87.7753 358.402Z" fill="url(#paint19_linear_12_847)"/>
<path d="M52.4362 358.328L83.9324 358.395L84.146 345.731L52.6193 345.67L52.4362 358.328Z" fill="url(#paint20_linear_12_847)"/>
<path d="M17.1321 358.253L48.5978 358.32L48.7763 345.662L17.2816 345.6L17.1321 358.253Z" fill="url(#paint21_linear_12_847)"/>
<path d="M87.3848 381.138L118.858 381.215L119.105 368.589L87.6015 368.517L87.3848 381.138Z" fill="url(#paint22_linear_12_847)"/>
<path d="M52.1067 381.051L83.5494 381.129L83.7615 368.508L52.2898 368.436L52.1067 381.051Z" fill="url(#paint23_linear_12_847)"/>
<path d="M16.8636 380.966L48.2744 381.042L48.4544 368.429L17.0132 368.357L16.8636 380.966Z" fill="url(#paint24_linear_12_847)"/>
<path d="M86.9973 403.797L118.416 403.882L118.661 391.299L87.2124 391.218L86.9973 403.797Z" fill="url(#paint25_linear_12_847)"/>
<path d="M51.7787 403.699L83.1665 403.786L83.3786 391.207L51.9618 391.126L51.7787 403.699Z" fill="url(#paint26_linear_12_847)"/>
<path d="M16.5967 403.602L47.954 403.689L48.1325 391.118L16.7447 391.035L16.5967 403.602Z" fill="url(#paint27_linear_12_847)"/>
<path d="M299.694 204.524C299.749 202.173 302.164 200.238 305.122 200.238H416.951C419.949 200.238 422.893 202.273 422.893 204.656V417.617C422.893 418.763 422.062 419.863 421.041 420.672C420.019 421.48 418.507 421.933 417.064 421.93L300.14 421.677C298.684 421.674 297.261 421.207 296.243 420.38C295.226 419.553 294.652 418.412 294.68 417.256L299.694 204.524Z" fill="#BDD0FB"/>
<g opacity="0.5">
<path d="M382.051 225.333L413.909 225.3L414.161 212.323H382.272L382.051 225.333Z" fill="white"/>
<path d="M346.341 225.327L378.167 225.292L378.385 212.323H346.529L346.341 225.327Z" fill="white"/>
<path d="M310.668 225.319L342.463 225.286L342.646 212.323H310.822L310.668 225.319Z" fill="white"/>
<path d="M381.653 248.625L413.454 248.641L413.706 235.75L381.874 235.739L381.653 248.625Z" fill="white"/>
<path d="M346.006 248.608L377.776 248.623L377.993 235.738L346.192 235.727L346.006 248.608Z" fill="white"/>
<path d="M310.395 248.589L342.134 248.605L342.317 235.727L310.548 235.716L310.395 248.589Z" fill="white"/>
<path d="M381.256 271.758L413.003 271.783L413.253 258.936L381.476 258.917L381.256 271.758Z" fill="white"/>
<path d="M345.672 271.727L377.386 271.754L377.603 258.913L345.856 258.894L345.672 271.727Z" fill="white"/>
<path d="M310.122 271.698L341.806 271.724L341.987 258.891L310.273 258.869L310.122 271.698Z" fill="white"/>
<path d="M380.86 294.809L412.553 294.846L412.803 282.043L381.079 282.013L380.86 294.809Z" fill="white"/>
<path d="M345.337 294.768L376.997 294.805L377.213 282.008L345.522 281.978L345.337 294.768Z" fill="white"/>
<path d="M309.85 294.727L341.478 294.764L341.659 281.974L310.001 281.942L309.85 294.727Z" fill="white"/>
<path d="M380.466 317.782L412.103 317.828L412.353 305.07L380.686 305.029L380.466 317.782Z" fill="white"/>
<path d="M345.005 317.728L376.609 317.776L376.824 305.023L345.189 304.982L345.005 317.728Z" fill="white"/>
<path d="M309.579 317.676L341.153 317.722L341.333 304.977L309.73 304.936L309.579 317.676Z" fill="white"/>
<path d="M380.074 340.675L411.656 340.731L411.904 328.017L380.292 327.965L380.074 340.675Z" fill="white"/>
<path d="M344.674 340.611L376.225 340.667L376.438 327.959L344.857 327.909L344.674 340.611Z" fill="white"/>
<path d="M309.309 340.547L340.828 340.603L341.008 327.901L309.458 327.851L309.309 340.547Z" fill="white"/>
<path d="M379.682 363.489L411.21 363.556L411.457 350.884L379.9 350.823L379.682 363.489Z" fill="white"/>
<path d="M344.343 363.413L375.839 363.48L376.052 350.816L344.527 350.755L344.343 363.413Z" fill="white"/>
<path d="M309.04 363.338L340.504 363.405L340.684 350.747L309.19 350.686L309.04 363.338Z" fill="white"/>
<path d="M379.293 386.223L410.766 386.301L411.012 373.674L379.51 373.602L379.293 386.223Z" fill="white"/>
<path d="M344.015 386.138L375.456 386.214L375.67 373.595L344.198 373.523L344.015 386.138Z" fill="white"/>
<path d="M308.772 386.051L340.182 386.129L340.361 373.514L308.92 373.442L308.772 386.051Z" fill="white"/>
<path d="M378.904 408.882L410.322 408.969L410.568 396.386L379.119 396.303L378.904 408.882Z" fill="white"/>
<path d="M343.687 408.784L375.075 408.871L375.287 396.294L343.868 396.213L343.687 408.784Z" fill="white"/>
<path d="M308.505 408.686L339.86 408.773L340.039 396.202L308.653 396.122L308.505 408.686Z" fill="white"/>
</g>
<path d="M188.522 262.456C179.396 233.801 161.737 210.964 140.821 197.54C122.123 185.538 108.65 166.848 103.663 145.259C103.138 142.99 102.516 140.714 101.791 138.44C90.8144 103.978 60.7081 82.7945 34.547 91.1274C8.38587 99.4603 -3.92425 134.153 7.05249 168.614C9.29666 175.661 12.3418 182.151 15.9895 187.947C27.6299 206.442 32.1853 228.624 27.903 250.08C24.0752 269.254 25.1141 290.843 31.9565 312.327C42.1613 344.367 63.0331 369.136 87.2017 381.604C96.3432 386.32 104.586 392.662 111.412 400.327C122.754 413.062 138.741 419.047 153.428 414.37C169.273 409.323 179.171 393.278 179.884 374.559C180.287 363.965 182.778 353.584 186.838 343.766C196.421 320.589 197.75 291.427 188.522 262.456Z" fill="#91B3FA"/>
<path opacity="0.57" d="M55.3852 124.869C66.0568 146.557 76.0206 168.57 85.7524 190.688C88.1873 196.217 90.5336 201.784 92.8968 207.343L96.4408 215.682L99.9146 224.052C102.209 229.64 104.581 235.196 106.812 240.812L113.506 257.655C117.825 268.941 122.24 280.19 126.347 291.555C128.408 297.235 130.582 302.874 132.527 308.596L138.444 325.732C146.099 348.657 153.181 371.787 159.072 395.231L158.06 395.496L152.981 378.124L151.721 373.779L150.353 369.467L147.599 360.847L144.862 352.224C143.954 349.348 142.941 346.506 141.985 343.646C140.035 337.937 138.133 332.214 136.146 326.519C128.053 303.788 119.656 281.166 110.792 258.72C106.273 247.531 101.852 236.304 97.2555 225.146L93.8305 216.769L90.3353 208.419C88.0088 202.851 85.6822 197.284 83.2992 191.74C78.6278 180.61 73.8771 169.514 69.0348 158.458C64.2505 147.376 59.3609 136.337 54.4378 125.318L55.3852 124.869Z" fill="white"/>
<path d="M264.872 205.497C260.607 174.203 246.509 147.381 227.365 129.702C210.253 113.9 199.724 92.125 198.457 68.8885C198.324 66.446 198.089 63.9791 197.75 61.4939C192.621 23.8572 165.401 -3.51066 136.955 0.365902C108.508 4.24247 89.6061 37.8973 94.7352 75.534C95.7833 83.2307 97.7574 90.4957 100.476 97.1504C109.152 118.391 109.869 142.162 101.61 163.578C94.2287 182.717 91.4277 205.237 94.6254 228.699C99.3944 263.692 116.458 293.095 139.121 310.372C147.694 316.908 155.049 324.962 160.707 334.126C170.111 349.354 185.507 358.444 201.477 356.269C218.706 353.921 231.78 339.118 235.872 319.884C238.186 308.999 242.615 298.71 248.558 289.293C262.587 267.062 269.185 237.138 264.872 205.497Z" fill="#7D97F4"/>
<path opacity="0.57" d="M152.374 39.0493C159.48 63.4163 165.798 87.9938 171.859 112.635C173.377 118.796 174.796 124.979 176.235 131.158L178.392 140.426L180.471 149.712C181.834 155.909 183.281 162.086 184.572 168.299L188.449 186.934C190.874 199.391 193.405 211.826 195.601 224.327C196.707 230.575 197.933 236.801 198.913 243.073L201.937 261.87C205.714 286.971 208.861 312.18 210.729 337.498L209.638 337.589L207.52 318.699L207.002 313.977L206.364 309.268L205.072 299.853L203.798 290.437C203.38 287.299 202.843 284.175 202.371 281.043C201.387 274.785 200.452 268.519 199.427 262.268C195.164 237.29 190.569 212.366 185.462 187.541C182.813 175.149 180.27 162.733 177.534 150.359L175.508 141.073L173.405 131.803C172.006 125.623 170.607 119.441 169.145 113.275C166.327 100.917 163.423 88.5781 160.416 76.2634C157.474 63.9335 154.415 51.6279 151.318 39.3377L152.374 39.0493Z" fill="white"/>
<path d="M395.62 420.588H147.305C145.364 420.588 143.791 419.015 143.791 417.074V81.5188C143.791 79.5783 145.364 78.0054 147.305 78.0054H395.621C397.562 78.0054 399.135 79.5783 399.135 81.5188V417.074C399.133 419.015 397.56 420.588 395.62 420.588Z" fill="url(#paint28_linear_12_847)"/>
<path d="M355.664 375.46H186.716C180.311 375.46 175.119 370.269 175.119 363.864V141.068C175.119 134.663 180.311 129.472 186.716 129.472H355.666C362.07 129.472 367.262 134.663 367.262 141.068V363.864C367.26 370.269 362.069 375.46 355.664 375.46Z" fill="#7D97F4"/>
<path d="M349.272 358.348H193.26C191.34 358.348 189.782 356.79 189.782 354.87V153.186C189.782 151.265 191.34 149.708 193.26 149.708H349.272C351.193 149.708 352.75 151.265 352.75 153.186V354.87C352.75 356.79 351.193 358.348 349.272 358.348Z" fill="url(#paint29_linear_12_847)"/>
<path d="M270.996 111.912C275.215 111.912 278.635 108.492 278.635 104.273C278.635 100.055 275.215 96.6348 270.996 96.6348C266.777 96.6348 263.357 100.055 263.357 104.273C263.357 108.492 266.777 111.912 270.996 111.912Z" fill="url(#paint30_linear_12_847)"/>
<path d="M320.347 227.59L222.072 229.224C214.592 229.349 208.506 235.164 208.506 242.214V304.105C208.506 311.155 214.592 316.626 222.072 316.325L320.347 312.378C327.406 312.095 333.108 306.343 333.108 299.53V239.715C333.108 232.9 327.406 227.472 320.347 227.59Z" fill="url(#paint31_linear_12_847)"/>
<path d="M325.322 216.396C322.345 216.441 319.929 214.143 319.929 211.266V197.72C319.929 184.131 308.435 173.109 294.205 173.15L262.19 173.243C247.595 173.286 235.634 184.633 235.634 198.539V212.401C235.634 215.347 233.1 217.771 229.97 217.818C226.833 217.866 224.287 215.509 224.287 212.553V198.649C224.287 178.801 241.387 162.652 262.19 162.652H294.205C314.42 162.652 330.699 178.337 330.699 197.615V211.119C330.698 213.991 328.292 216.352 325.322 216.396Z" fill="url(#paint32_linear_12_847)"/>
<path d="M287.108 261.89C287.108 255.012 281.103 249.611 273.805 250.107C267.35 250.547 262.012 255.715 261.664 261.886C261.394 266.675 264.026 270.816 268.026 272.909C269.728 273.8 270.574 275.676 270.243 277.533L267.437 293.279C267.08 295.284 268.691 297.046 270.812 296.969L278.023 296.712C280.133 296.635 281.733 294.766 281.379 292.794L278.575 277.193C278.241 275.332 279.209 273.484 280.914 272.464C284.626 270.247 287.108 266.312 287.108 261.89Z" fill="url(#paint33_linear_12_847)"/>
<path d="M89.7297 421.188C89.7312 421.054 89.722 420.916 89.6885 420.779C87.6503 412.699 77.5355 407.668 77.5355 407.668L73.5277 407.982C71.2225 415.104 71.52 419.47 71.8892 421.417C71.8999 421.472 71.9167 421.524 71.9304 421.575C75.2364 421.87 82.0421 422.062 89.7297 421.188Z" fill="url(#paint34_linear_12_847)"/>
<path d="M71.9304 421.573C72.1089 422.223 72.588 422.728 73.2028 422.858C77.9062 423.847 85.3817 423.052 88.5199 422.641C89.2125 422.551 89.719 421.911 89.7297 421.188C82.0421 422.062 75.2364 421.869 71.9304 421.573Z" fill="#91B3FA"/>
<path d="M71.9167 402.011L73.6147 410.183C73.7398 410.783 74.199 411.23 74.7558 411.283C75.4378 411.347 76.4096 411.386 77.386 411.242C78.2617 411.114 78.8719 410.223 78.7163 409.268L77.537 402.012H71.9167V402.011Z" fill="url(#paint35_linear_12_847)"/>
<path d="M107.088 421.47C102.661 421.346 100.372 420.824 99.1885 420.341C99.1854 420.78 99.1885 421.229 99.2022 421.692C99.2174 422.188 99.5851 422.583 100.037 422.582L124.341 422.425C125.116 422.42 125.569 421.52 125.234 420.809C122.048 421.073 113.93 421.662 107.088 421.47Z" fill="#91B3FA"/>
<path d="M125.234 420.809C125.205 420.747 125.179 420.684 125.137 420.626C122.991 417.627 117.525 411.654 106.722 409.064L101.539 408.9C101.539 408.9 99.2311 412.911 99.1884 420.341C100.372 420.825 102.662 421.346 107.088 421.47C113.93 421.662 122.048 421.073 125.234 420.809Z" fill="url(#paint36_linear_12_847)"/>
<path d="M100.348 401.287C100.43 401.669 101.507 407.485 101.925 409.739C102.025 410.275 102.443 410.668 102.938 410.696C103.826 410.746 105.257 410.751 106.487 410.417C107.151 410.237 107.598 409.559 107.55 408.809L106.971 399.611L100.348 401.287Z" fill="url(#paint37_linear_12_847)"/>
<path d="M96.421 293.925C96.421 293.925 103.55 342.912 108.694 401.205C108.791 402.292 107.926 403.236 106.859 403.46C105.288 403.791 102.978 404.185 101.065 404.13C100.044 404.101 99.1899 403.344 99.0191 402.337C97.2662 392.059 84.7608 336.898 81.4777 324.757C81.4777 324.757 77.7079 376.327 78.9131 403.082C78.9436 403.747 78.4554 404.324 77.7948 404.4C76.791 404.516 75.1861 404.604 73.1433 404.388C72.3683 404.305 71.7428 403.719 71.6314 402.948C70.3834 394.248 63.1978 342.472 63.503 305.173C63.5198 303.069 65.9714 285.789 65.9714 285.789L96.421 293.925Z" fill="url(#paint38_linear_12_847)"/>
<path d="M99.1838 211.545L100.139 237.178C102.85 238.112 105.431 238.836 107.889 239.378C109.427 234.429 112.812 228.354 115.583 223.837C105.398 220.238 99.1838 211.545 99.1838 211.545Z" fill="url(#paint39_linear_12_847)"/>
<path d="M64.8974 296.747C64.1651 296.486 63.654 295.823 63.5731 295.049C62.6257 285.851 58.0352 228.824 87.0141 205.365C87.0141 205.365 88.6755 201.017 102.336 211.705C115.996 222.394 108.682 233.596 105.411 249.047C101.454 267.745 94.5109 283.029 97.582 294.536C97.794 295.33 97.376 296.164 96.6056 296.448C85.995 300.36 75.4256 300.489 64.8974 296.747Z" fill="url(#paint40_linear_12_847)"/>
<path d="M98.3173 188.278C98.3082 189.089 86.7365 205.525 86.7365 205.525C86.7365 205.525 88.8128 209.615 98.7292 212.936L107.288 195.338L98.3173 188.278Z" fill="url(#paint41_linear_12_847)"/>
<path d="M92.5856 244.518C92.5139 244.518 92.4392 244.497 92.3751 244.454C83.1315 238.208 78.782 228.127 78.7392 228.026C78.6584 227.834 78.7484 227.614 78.9391 227.533C79.1313 227.453 79.351 227.541 79.4319 227.732C79.473 227.831 83.7417 237.712 92.7962 243.83C92.9686 243.946 93.0128 244.179 92.8969 244.352C92.8251 244.46 92.7062 244.518 92.5856 244.518Z" fill="url(#paint42_linear_12_847)"/>
<path d="M106.354 230.545C106.231 230.545 106.11 230.484 106.038 230.373C106.011 230.33 103.187 225.933 97.8078 216.302C96.154 213.341 93.98 211.464 91.3468 210.727C86.9866 209.509 82.7836 211.847 82.7424 211.87C82.5609 211.969 82.3335 211.91 82.2298 211.73C82.1276 211.55 82.1901 211.319 82.3702 211.217C82.5517 211.115 86.8738 208.695 91.5421 210.003C94.3782 210.795 96.7078 212.79 98.4638 215.934C103.829 225.541 106.643 229.923 106.67 229.965C106.783 230.139 106.733 230.373 106.557 230.484C106.495 230.527 106.424 230.545 106.354 230.545Z" fill="url(#paint43_linear_12_847)"/>
<path d="M107.428 178.86C107.428 178.86 111.546 188.319 111.822 193.283C112.098 198.248 113.168 201.468 107.428 202.469C101.689 203.468 96.8527 200.609 94.2333 195.665C94.2333 195.665 90.1294 188.045 91.0493 184.925C91.9708 181.802 107.428 178.86 107.428 178.86Z" fill="url(#paint44_linear_12_847)"/>
<path d="M96.1952 192.107L96.5216 191.964C96.9381 191.781 97.1151 191.285 96.9061 190.882C96.096 189.319 94.5185 185.735 96.5568 184.899C99.1838 183.822 109.59 181.7 111.836 178.006C113.993 174.458 112.081 169.876 109.209 168.573C109.016 168.486 108.789 168.555 108.691 168.743L108.452 169.196C108.289 169.506 107.829 169.458 107.732 169.123C107.639 168.799 107.209 168.737 107.03 169.022C106.34 170.126 104.476 171.918 99.4935 172.837C92.4117 174.145 87.7311 177.01 87.6136 181.904C87.606 182.215 87.275 182.388 87.0095 182.226C86.4862 181.907 85.6502 181.758 84.5319 182.697C82.5868 184.333 83.3831 188.574 87.6457 192.063C87.8486 192.229 87.8471 192.545 87.6274 192.687C86.8539 193.191 85.7021 194.387 88.6877 195.982C91.7755 197.633 94.0807 197.497 94.9686 197.351C95.1898 197.314 95.3317 197.101 95.2829 196.883L94.3355 192.582C94.2821 192.338 94.4667 192.107 94.7169 192.107H96.1952V192.107Z" fill="url(#paint45_linear_12_847)"/>
<path d="M96.3736 193.015C96.3736 193.015 94.8023 186.974 92.0943 188.667C89.3848 190.361 93.4994 195.436 95.678 195.664L96.3736 193.015Z" fill="url(#paint46_linear_12_847)"/>
<path d="M149.688 209.617C149.688 209.617 147.623 205.958 147.755 204.18C147.886 202.402 146.778 199.792 147.958 199.984C149.137 200.178 149.379 200.019 149.7 202.152C150.02 204.286 153.74 213.605 149.688 209.617Z" fill="url(#paint47_linear_12_847)"/>
<path d="M150.077 203.8L150.029 211.109C136.059 226.193 124.752 227.081 115.583 223.839C112.811 228.356 109.425 234.429 107.889 239.38C145.196 247.605 153.981 213.307 153.981 213.307C159.033 211.214 160.053 209.989 159.834 208.618L150.077 203.8Z" fill="url(#paint48_linear_12_847)"/>
<path d="M160.82 196.548C159.627 196.065 157.294 191.616 156.847 193.079C156.4 194.542 157.036 196.548 156.847 197.171C156.658 197.793 153.75 204.953 154.33 206.543C154.75 207.69 157.059 207.521 157.412 209.399C157.529 210.021 158.027 210.468 158.605 210.47C159.183 210.47 159.68 210.024 159.798 209.4C159.845 209.15 162.013 197.032 160.82 196.548Z" fill="url(#paint49_linear_12_847)"/>
<path d="M122.741 181.324C113.32 199.957 120.788 222.697 139.42 232.118C154.563 239.775 172.422 236.275 183.637 224.691L248.373 257.422C249.448 257.965 250.727 257.921 251.761 257.304L258.093 253.533C258.201 253.467 258.305 253.397 258.404 253.322C258.431 253.301 258.459 253.28 258.486 253.257C258.559 253.197 258.631 253.136 258.698 253.074C258.721 253.052 258.744 253.031 258.767 253.008C258.851 252.924 258.932 252.839 259.005 252.749C259.006 252.747 259.008 252.746 259.008 252.744C259.803 251.777 260.045 250.427 259.559 249.206L254.414 236.31C254.097 235.514 253.499 234.861 252.733 234.474L246.249 231.195L244.533 234.589L238.963 231.773L240.679 228.379L235.468 225.744L233.889 228.865L227.12 225.442L228.699 222.321L226.177 221.045L225.364 222.652L219.688 219.782L220.502 218.176L216.088 215.944L214.372 219.338L211.218 217.744L212.935 214.349L210.202 212.967L208.486 216.36L203.021 213.597L204.737 210.203L197.056 206.318L193.767 204.656C196.447 188.757 188.679 172.301 173.536 164.643C154.902 155.224 132.161 162.692 122.741 181.324ZM144.798 183.898C148.571 185.805 150.083 190.411 148.176 194.184C146.269 197.957 141.663 199.469 137.89 197.562C134.117 195.655 132.605 191.049 134.512 187.276C136.419 183.503 141.025 181.991 144.798 183.898Z" fill="url(#paint50_linear_12_847)"/>
<path d="M175.214 192.742L205.902 208.258L204.185 211.652L209.65 214.415L211.366 211.02L214.099 212.403L212.382 215.797L215.536 217.391L217.252 213.997L221.666 216.229L220.852 217.835L226.528 220.705L227.341 219.099L229.863 220.374L228.284 223.495L235.053 226.919L236.632 223.797L241.843 226.432L240.127 229.827L245.697 232.643L247.413 229.248L253.897 232.527C254.663 232.914 255.259 233.567 255.578 234.364L260.723 247.26C261.363 248.866 260.741 250.701 259.255 251.588L252.924 255.359C251.888 255.976 250.609 256.02 249.535 255.477L171.388 215.965L175.214 192.742Z" fill="url(#paint51_linear_12_847)"/>
<path d="M140.586 230.171C159.218 239.592 181.959 232.124 191.379 213.492C200.8 194.859 193.332 172.119 174.7 162.698C156.068 153.278 133.327 160.745 123.906 179.378C114.486 198.01 121.953 220.751 140.586 230.171ZM139.054 195.615C135.281 193.708 133.769 189.102 135.676 185.329C137.583 181.556 142.189 180.044 145.962 181.951C149.735 183.858 151.247 188.464 149.34 192.237C147.433 196.01 142.827 197.522 139.054 195.615Z" fill="url(#paint52_linear_12_847)"/>
<path d="M184.802 222.745L249.538 255.475C250.614 256.018 251.892 255.974 252.927 255.357L259.258 251.586C260.213 251.017 260.805 250.056 260.941 249.015C255.04 242.623 198.957 218.133 196.859 213.092C196.113 211.299 195.985 208.584 198.222 204.373L194.932 202.71C197.613 186.812 189.845 170.355 174.701 162.698C156.069 153.278 133.328 160.745 123.908 179.378C114.487 198.01 121.955 220.751 140.587 230.171C155.729 237.828 173.588 234.328 184.802 222.745ZM145.962 181.953C149.735 183.86 151.247 188.466 149.34 192.239C147.433 196.011 142.827 197.523 139.054 195.616C135.281 193.709 133.769 189.103 135.676 185.331C137.585 181.556 142.189 180.044 145.962 181.953Z" fill="url(#paint53_linear_12_847)"/>
<path d="M143.933 223.55C158.908 231.122 177.187 225.12 184.758 210.145C192.33 195.169 186.328 176.891 171.353 169.319C156.377 161.748 138.099 167.749 130.527 182.725C122.956 197.702 128.958 215.978 143.933 223.55ZM139.054 195.615C135.281 193.708 133.769 189.102 135.676 185.329C137.583 181.556 142.189 180.044 145.962 181.951C149.735 183.858 151.247 188.464 149.34 192.237C147.433 196.01 142.827 197.522 139.054 195.615Z" fill="url(#paint54_linear_12_847)"/>
<path d="M92.5856 244.518C92.5856 244.518 128.186 256.436 148.098 241.275C149.334 240.335 150.891 239.925 152.423 240.173L160.03 241.412C163.223 241.932 166.265 239.864 166.953 236.703C167.345 234.899 167.534 232.927 167.134 231.233L152.774 230.367L153.184 228.504C153.184 228.504 146.836 230.057 146.71 235.023C146.71 235.023 131.82 244.776 104.664 229.637C104.664 229.637 94.0884 237.914 92.5856 244.518Z" fill="url(#paint55_linear_12_847)"/>
<defs>
<linearGradient id="paint0_linear_12_847" x1="473.838" y1="545.058" x2="100.593" y2="81.5121" gradientUnits="userSpaceOnUse">
<stop stop-color="#DAE3FE"/>
<stop offset="1" stop-color="#E9EFFD"/>
</linearGradient>
<linearGradient id="paint1_linear_12_847" x1="90.1433" y1="213.742" x2="122.254" y2="213.742" gradientUnits="userSpaceOnUse">
<stop stop-color="#DAE3FE"/>
<stop offset="1" stop-color="#E9EFFD"/>
</linearGradient>
<linearGradient id="paint2_linear_12_847" x1="54.4345" y1="213.739" x2="86.4783" y2="213.739" gradientUnits="userSpaceOnUse">
<stop stop-color="#DAE3FE"/>
<stop offset="1" stop-color="#E9EFFD"/>
</linearGradient>
<linearGradient id="paint3_linear_12_847" x1="18.7615" y1="213.736" x2="50.7386" y2="213.736" gradientUnits="userSpaceOnUse">
<stop stop-color="#DAE3FE"/>
<stop offset="1" stop-color="#E9EFFD"/>
</linearGradient>
<linearGradient id="paint4_linear_12_847" x1="89.7453" y1="237.105" x2="121.799" y2="237.105" gradientUnits="userSpaceOnUse">
<stop stop-color="#DAE3FE"/>
<stop offset="1" stop-color="#E9EFFD"/>
</linearGradient>
<linearGradient id="paint5_linear_12_847" x1="54.0986" y1="237.09" x2="86.0863" y2="237.09" gradientUnits="userSpaceOnUse">
<stop stop-color="#DAE3FE"/>
<stop offset="1" stop-color="#E9EFFD"/>
</linearGradient>
<linearGradient id="paint6_linear_12_847" x1="18.4877" y1="237.075" x2="50.4088" y2="237.075" gradientUnits="userSpaceOnUse">
<stop stop-color="#DAE3FE"/>
<stop offset="1" stop-color="#E9EFFD"/>
</linearGradient>
<linearGradient id="paint7_linear_12_847" x1="89.3485" y1="260.265" x2="121.346" y2="260.265" gradientUnits="userSpaceOnUse">
<stop stop-color="#DAE3FE"/>
<stop offset="1" stop-color="#E9EFFD"/>
</linearGradient>
<linearGradient id="paint8_linear_12_847" x1="53.7638" y1="260.238" x2="85.6953" y2="260.238" gradientUnits="userSpaceOnUse">
<stop stop-color="#DAE3FE"/>
<stop offset="1" stop-color="#E9EFFD"/>
</linearGradient>
<linearGradient id="paint9_linear_12_847" x1="18.2148" y1="260.211" x2="50.0801" y2="260.211" gradientUnits="userSpaceOnUse">
<stop stop-color="#DAE3FE"/>
<stop offset="1" stop-color="#E9EFFD"/>
</linearGradient>
<linearGradient id="paint10_linear_12_847" x1="88.9531" y1="283.344" x2="120.895" y2="283.344" gradientUnits="userSpaceOnUse">
<stop stop-color="#DAE3FE"/>
<stop offset="1" stop-color="#E9EFFD"/>
</linearGradient>
<linearGradient id="paint11_linear_12_847" x1="53.4302" y1="283.306" x2="85.306" y2="283.306" gradientUnits="userSpaceOnUse">
<stop stop-color="#DAE3FE"/>
<stop offset="1" stop-color="#E9EFFD"/>
</linearGradient>
<linearGradient id="paint12_linear_12_847" x1="17.9428" y1="283.268" x2="49.7526" y2="283.268" gradientUnits="userSpaceOnUse">
<stop stop-color="#DAE3FE"/>
<stop offset="1" stop-color="#E9EFFD"/>
</linearGradient>
<linearGradient id="paint13_linear_12_847" x1="88.5592" y1="306.343" x2="120.445" y2="306.343" gradientUnits="userSpaceOnUse">
<stop stop-color="#DAE3FE"/>
<stop offset="1" stop-color="#E9EFFD"/>
</linearGradient>
<linearGradient id="paint14_linear_12_847" x1="53.0977" y1="306.293" x2="84.9178" y2="306.293" gradientUnits="userSpaceOnUse">
<stop stop-color="#DAE3FE"/>
<stop offset="1" stop-color="#E9EFFD"/>
</linearGradient>
<linearGradient id="paint15_linear_12_847" x1="17.6718" y1="306.244" x2="49.4262" y2="306.244" gradientUnits="userSpaceOnUse">
<stop stop-color="#DAE3FE"/>
<stop offset="1" stop-color="#E9EFFD"/>
</linearGradient>
<linearGradient id="paint16_linear_12_847" x1="88.1665" y1="329.262" x2="119.997" y2="329.262" gradientUnits="userSpaceOnUse">
<stop stop-color="#DAE3FE"/>
<stop offset="1" stop-color="#E9EFFD"/>
</linearGradient>
<linearGradient id="paint17_linear_12_847" x1="52.7664" y1="329.202" x2="84.5312" y2="329.202" gradientUnits="userSpaceOnUse">
<stop stop-color="#DAE3FE"/>
<stop offset="1" stop-color="#E9EFFD"/>
</linearGradient>
<linearGradient id="paint18_linear_12_847" x1="17.4017" y1="329.141" x2="49.101" y2="329.141" gradientUnits="userSpaceOnUse">
<stop stop-color="#DAE3FE"/>
<stop offset="1" stop-color="#E9EFFD"/>
</linearGradient>
<linearGradient id="paint19_linear_12_847" x1="87.7751" y1="352.104" x2="119.55" y2="352.104" gradientUnits="userSpaceOnUse">
<stop stop-color="#DAE3FE"/>
<stop offset="1" stop-color="#E9EFFD"/>
</linearGradient>
<linearGradient id="paint20_linear_12_847" x1="52.4363" y1="352.032" x2="84.1458" y2="352.032" gradientUnits="userSpaceOnUse">
<stop stop-color="#DAE3FE"/>
<stop offset="1" stop-color="#E9EFFD"/>
</linearGradient>
<linearGradient id="paint21_linear_12_847" x1="17.1325" y1="351.96" x2="48.7768" y2="351.96" gradientUnits="userSpaceOnUse">
<stop stop-color="#DAE3FE"/>
<stop offset="1" stop-color="#E9EFFD"/>
</linearGradient>
<linearGradient id="paint22_linear_12_847" x1="87.3852" y1="374.866" x2="119.105" y2="374.866" gradientUnits="userSpaceOnUse">
<stop stop-color="#DAE3FE"/>
<stop offset="1" stop-color="#E9EFFD"/>
</linearGradient>
<linearGradient id="paint23_linear_12_847" x1="52.1073" y1="374.783" x2="83.7618" y2="374.783" gradientUnits="userSpaceOnUse">
<stop stop-color="#DAE3FE"/>
<stop offset="1" stop-color="#E9EFFD"/>
</linearGradient>
<linearGradient id="paint24_linear_12_847" x1="16.8642" y1="374.7" x2="48.4537" y2="374.7" gradientUnits="userSpaceOnUse">
<stop stop-color="#DAE3FE"/>
<stop offset="1" stop-color="#E9EFFD"/>
</linearGradient>
<linearGradient id="paint25_linear_12_847" x1="86.9966" y1="397.551" x2="118.661" y2="397.551" gradientUnits="userSpaceOnUse">
<stop stop-color="#DAE3FE"/>
<stop offset="1" stop-color="#E9EFFD"/>
</linearGradient>
<linearGradient id="paint26_linear_12_847" x1="51.7793" y1="397.456" x2="83.3791" y2="397.456" gradientUnits="userSpaceOnUse">
<stop stop-color="#DAE3FE"/>
<stop offset="1" stop-color="#E9EFFD"/>
</linearGradient>
<linearGradient id="paint27_linear_12_847" x1="16.597" y1="397.362" x2="48.1319" y2="397.362" gradientUnits="userSpaceOnUse">
<stop stop-color="#DAE3FE"/>
<stop offset="1" stop-color="#E9EFFD"/>
</linearGradient>
<linearGradient id="paint28_linear_12_847" x1="346.812" y1="-190.241" x2="254.648" y2="347.376" gradientUnits="userSpaceOnUse">
<stop stop-color="#4042E2"/>
<stop offset="1" stop-color="#4F52FF"/>
</linearGradient>
<linearGradient id="paint29_linear_12_847" x1="189.781" y1="254.028" x2="352.751" y2="254.028" gradientUnits="userSpaceOnUse">
<stop stop-color="#4042E2"/>
<stop offset="1" stop-color="#4F52FF"/>
</linearGradient>
<linearGradient id="paint30_linear_12_847" x1="283.957" y1="74.364" x2="333.538" y2="-40.0538" gradientUnits="userSpaceOnUse">
<stop stop-color="#09005D"/>
<stop offset="1" stop-color="#1A0F91"/>
</linearGradient>
<linearGradient id="paint31_linear_12_847" x1="288.465" y1="148.486" x2="176.884" y2="921.862" gradientUnits="userSpaceOnUse">
<stop stop-color="#FEBBBA"/>
<stop offset="1" stop-color="#FF928E"/>
</linearGradient>
<linearGradient id="paint32_linear_12_847" x1="285.538" y1="148.064" x2="173.957" y2="921.44" gradientUnits="userSpaceOnUse">
<stop stop-color="#FEBBBA"/>
<stop offset="1" stop-color="#FF928E"/>
</linearGradient>
<linearGradient id="paint33_linear_12_847" x1="291.909" y1="236.441" x2="455.483" y2="-88.7828" gradientUnits="userSpaceOnUse">
<stop stop-color="#FE7062"/>
<stop offset="1" stop-color="#FF928E"/>
</linearGradient>
<linearGradient id="paint34_linear_12_847" x1="71.6362" y1="414.745" x2="89.7301" y2="414.745" gradientUnits="userSpaceOnUse">
<stop stop-color="#09005D"/>
<stop offset="1" stop-color="#1A0F91"/>
</linearGradient>
<linearGradient id="paint35_linear_12_847" x1="76.668" y1="394.146" x2="73.2117" y2="424.309" gradientUnits="userSpaceOnUse">
<stop stop-color="#FEBBBA"/>
<stop offset="1" stop-color="#FF928E"/>
</linearGradient>
<linearGradient id="paint36_linear_12_847" x1="99.1884" y1="415.204" x2="125.234" y2="415.204" gradientUnits="userSpaceOnUse">
<stop stop-color="#09005D"/>
<stop offset="1" stop-color="#1A0F91"/>
</linearGradient>
<linearGradient id="paint37_linear_12_847" x1="104.35" y1="397.331" x2="102.798" y2="427.653" gradientUnits="userSpaceOnUse">
<stop stop-color="#FEBBBA"/>
<stop offset="1" stop-color="#FF928E"/>
</linearGradient>
<linearGradient id="paint38_linear_12_847" x1="99.5773" y1="422.602" x2="63.8026" y2="252.017" gradientUnits="userSpaceOnUse">
<stop stop-color="#09005D"/>
<stop offset="1" stop-color="#1A0F91"/>
</linearGradient>
<linearGradient id="paint39_linear_12_847" x1="136.114" y1="189.521" x2="57.0673" y2="276.727" gradientUnits="userSpaceOnUse">
<stop stop-color="#4042E2"/>
<stop offset="1" stop-color="#4F52FF"/>
</linearGradient>
<linearGradient id="paint40_linear_12_847" x1="120.746" y1="194.363" x2="5.52084" y2="405.853" gradientUnits="userSpaceOnUse">
<stop stop-color="#4042E2"/>
<stop offset="1" stop-color="#4F52FF"/>
</linearGradient>
<linearGradient id="paint41_linear_12_847" x1="90.4562" y1="218.338" x2="98.4834" y2="196.418" gradientUnits="userSpaceOnUse">
<stop stop-color="#FEBBBA"/>
<stop offset="1" stop-color="#FF928E"/>
</linearGradient>
<linearGradient id="paint42_linear_12_847" x1="97.4028" y1="147.684" x2="93.6734" y2="176.162" gradientUnits="userSpaceOnUse">
<stop stop-color="#4042E2"/>
<stop offset="1" stop-color="#4F52FF"/>
</linearGradient>
<linearGradient id="paint43_linear_12_847" x1="103.926" y1="148.538" x2="100.196" y2="177.017" gradientUnits="userSpaceOnUse">
<stop stop-color="#4042E2"/>
<stop offset="1" stop-color="#4F52FF"/>
</linearGradient>
<linearGradient id="paint44_linear_12_847" x1="110.186" y1="185.457" x2="62.3586" y2="223.55" gradientUnits="userSpaceOnUse">
<stop stop-color="#FEBBBA"/>
<stop offset="1" stop-color="#FF928E"/>
</linearGradient>
<linearGradient id="paint45_linear_12_847" x1="91.7223" y1="172.926" x2="113.644" y2="201.15" gradientUnits="userSpaceOnUse">
<stop stop-color="#09005D"/>
<stop offset="1" stop-color="#1A0F91"/>
</linearGradient>
<linearGradient id="paint46_linear_12_847" x1="105.372" y1="183.37" x2="81.8346" y2="201.38" gradientUnits="userSpaceOnUse">
<stop stop-color="#FEBBBA"/>
<stop offset="1" stop-color="#FF928E"/>
</linearGradient>
<linearGradient id="paint47_linear_12_847" x1="161.08" y1="195.269" x2="111.245" y2="238.317" gradientUnits="userSpaceOnUse">
<stop stop-color="#FEBBBA"/>
<stop offset="1" stop-color="#FF928E"/>
</linearGradient>
<linearGradient id="paint48_linear_12_847" x1="162.119" y1="199.282" x2="113.609" y2="241.186" gradientUnits="userSpaceOnUse">
<stop stop-color="#FEBBBA"/>
<stop offset="1" stop-color="#FF928E"/>
</linearGradient>
<linearGradient id="paint49_linear_12_847" x1="162.925" y1="197.404" x2="113.09" y2="240.453" gradientUnits="userSpaceOnUse">
<stop stop-color="#FEBBBA"/>
<stop offset="1" stop-color="#FF928E"/>
</linearGradient>
<linearGradient id="paint50_linear_12_847" x1="100.019" y1="109.384" x2="226.049" y2="275.744" gradientUnits="userSpaceOnUse">
<stop stop-color="#E1473D"/>
<stop offset="1" stop-color="#E9605A"/>
</linearGradient>
<linearGradient id="paint51_linear_12_847" x1="234.816" y1="138.825" x2="211.402" y2="253.658" gradientUnits="userSpaceOnUse">
<stop stop-color="#FE7062"/>
<stop offset="1" stop-color="#FF928E"/>
</linearGradient>
<linearGradient id="paint52_linear_12_847" x1="113.742" y1="193.153" x2="311.372" y2="207.929" gradientUnits="userSpaceOnUse">
<stop stop-color="#FF9085"/>
<stop offset="1" stop-color="#FB6FBB"/>
</linearGradient>
<linearGradient id="paint53_linear_12_847" x1="203.618" y1="185.651" x2="251.422" y2="64.1077" gradientUnits="userSpaceOnUse">
<stop stop-color="#FE7062"/>
<stop offset="1" stop-color="#FF928E"/>
</linearGradient>
<linearGradient id="paint54_linear_12_847" x1="229.95" y1="56.3392" x2="221.814" y2="72.1042" gradientUnits="userSpaceOnUse">
<stop stop-color="#FE7062"/>
<stop offset="1" stop-color="#FF928E"/>
</linearGradient>
<linearGradient id="paint55_linear_12_847" x1="131.352" y1="232.724" x2="107.652" y2="350.952" gradientUnits="userSpaceOnUse">
<stop stop-color="#FEBBBA"/>
<stop offset="1" stop-color="#FF928E"/>
</linearGradient>
</defs>
</svg>
