<svg width="25" height="24" viewBox="0 0 25 24" fill="none" xmlns="http://www.w3.org/2000/svg">
<path d="M18.6211 16.084C18.6241 17.3023 18.3646 18.5069 17.8604 19.6159C17.3562 20.725 16.619 21.7124 15.6991 22.511C15.0961 23.041 15.5091 24.033 16.3121 23.953C16.8489 23.9006 17.3801 23.8002 17.8991 23.653C19.2925 23.26 20.5592 22.5103 21.5742 21.4778C22.5891 20.4454 23.317 19.166 23.6861 17.766C24.037 16.4949 24.0894 15.1598 23.8391 13.8651C23.5888 12.5703 23.0425 11.351 22.243 10.3023C21.4435 9.25358 20.4124 8.4039 19.2302 7.8196C18.048 7.2353 16.7468 6.93221 15.4281 6.934C15.0789 6.93374 14.7299 6.95377 14.3831 6.994C13.5891 7.094 13.3881 8.155 14.0931 8.536C16.7941 9.988 18.6231 12.821 18.6231 16.084H18.6211ZM7.90606 18.597C6.68518 18.6008 5.47768 18.3428 4.36502 17.8403C3.25235 17.3378 2.26039 16.6025 1.45606 15.684C0.924056 15.084 -0.0709438 15.494 0.0100562 16.294C0.0622828 16.8293 0.16269 17.3588 0.310056 17.876C1.10406 20.699 3.37406 22.902 6.21706 23.642C11.9441 25.134 17.0871 20.869 17.0871 15.413C17.0871 15.063 17.0671 14.713 17.0271 14.373C16.9271 13.581 15.8621 13.381 15.4801 14.083C14.7428 15.4491 13.6493 16.5902 12.3158 17.3849C10.9823 18.1797 9.45845 18.5985 7.90606 18.597V18.597ZM5.38206 7.916C5.37929 6.69758 5.63902 5.49286 6.14359 4.38382C6.64815 3.27478 7.38571 2.28744 8.30606 1.489C8.90906 0.958 8.49606 -0.0330004 7.69306 0.0469996C7.15336 0.0998709 6.61891 0.196862 6.09506 0.337C4.70287 0.731962 3.43743 1.48242 2.42314 2.51459C1.40885 3.54677 0.680628 4.82513 0.310056 6.224C-0.0409322 7.49514 -0.0933116 8.83021 0.157009 10.1249C0.407329 11.4197 0.953573 12.639 1.75308 13.6877C2.55258 14.7364 3.58369 15.5861 4.76589 16.1704C5.94808 16.7547 7.24935 17.0578 8.56806 17.056C8.92006 17.056 9.27206 17.036 9.61306 16.996C10.4071 16.896 10.6081 15.834 9.90306 15.454C8.53728 14.7252 7.39525 13.6389 6.59909 12.3111C5.80294 10.9834 5.38261 9.46419 5.38306 7.916H5.38206ZM16.1021 5.403C17.3229 5.39916 18.5304 5.65721 19.6431 6.15972C20.7558 6.66223 21.7477 7.39753 22.5521 8.316C23.0821 8.916 24.0781 8.506 23.9971 7.706C23.9449 7.17038 23.8445 6.64057 23.6971 6.123C22.9021 3.3 20.6321 1.098 17.7881 0.357C12.0711 -1.145 6.92806 3.12 6.92806 8.576C6.92806 8.926 6.94806 9.276 6.98806 9.617C7.08806 10.408 8.15606 10.608 8.53706 9.907C9.27348 8.54335 10.3655 7.40463 11.6971 6.61178C13.0288 5.81893 14.5503 5.40156 16.1001 5.404L16.1021 5.403Z" fill="#FD6657"/>
</svg>
