<svg width="111" height="41" viewBox="0 0 111 41" fill="none" xmlns="http://www.w3.org/2000/svg">
<g clip-path="url(#clip0_54_26)">
<path d="M57.3072 13.5799L62.5881 13.2404C62.7086 14.0992 62.9295 14.7382 63.2909 15.1976C63.8732 15.9165 64.6764 16.276 65.7406 16.276C66.5237 16.276 67.1462 16.0962 67.5678 15.7168C67.9694 15.4172 68.2104 14.9379 68.2104 14.4387C68.2104 13.9594 67.9895 13.5 67.608 13.2005C67.2064 12.841 66.2627 12.4815 64.7768 12.162C62.3471 11.6228 60.6002 10.9038 59.5762 9.98519C58.5521 9.12644 57.9698 7.86829 58.0099 6.53024C58.0099 5.61159 58.2911 4.69293 58.8131 3.93404C59.4155 3.0753 60.2388 2.39629 61.2227 2.01685C62.2869 1.55752 63.7728 1.31787 65.6402 1.31787C67.9293 1.31787 69.6762 1.73726 70.881 2.596C72.0857 3.43477 72.8086 4.79279 73.0295 6.65007L67.8088 6.94963C67.6682 6.1508 67.3871 5.57165 66.9253 5.1922C66.4635 4.81276 65.8611 4.63302 65.078 4.63302C64.4354 4.63302 63.9535 4.77282 63.6322 5.03244C63.331 5.27208 63.1302 5.63156 63.1503 6.03097C63.1503 6.33054 63.311 6.61013 63.5519 6.78986C63.813 7.02951 64.4354 7.24919 65.4193 7.4489C67.8489 7.96814 69.5758 8.48738 70.64 9.02659C71.7042 9.5658 72.4673 10.2248 72.9291 11.0037C73.411 11.8025 73.652 12.7212 73.6319 13.6598C73.6319 14.7782 73.3106 15.8965 72.6681 16.8352C72.0054 17.8137 71.0818 18.5726 69.9975 19.0319C68.8529 19.5312 67.4072 19.7908 65.6804 19.7908C62.6283 19.7908 60.5199 19.2117 59.3352 18.0334C58.1505 16.8551 57.4477 15.3773 57.3072 13.5799ZM1.26501 19.4913V1.6374H10.5217C12.2285 1.6374 13.5537 1.7772 14.4573 2.07676C15.3408 2.35635 16.1239 2.9355 16.646 3.71436C17.2283 4.57311 17.5094 5.57165 17.4893 6.61013C17.5496 8.36755 16.646 10.0451 15.0999 10.9238C14.4975 11.2633 13.8348 11.503 13.1521 11.6228C13.6541 11.7626 14.1561 12.0022 14.5979 12.2818C14.9392 12.5614 15.2203 12.8809 15.4814 13.2205C15.7826 13.56 16.0436 13.9394 16.2645 14.3388L18.9551 19.5112H12.6501L9.67836 14.0193C9.29685 13.3203 8.97558 12.861 8.67439 12.6413C8.27279 12.3617 7.79088 12.2219 7.30897 12.2219H6.82706V19.4713H1.26501V19.4913ZM6.82706 8.86682H9.17638C9.67836 8.82688 10.1603 8.747 10.6422 8.62717C11.0036 8.56726 11.3249 8.36756 11.5458 8.06799C12.0879 7.34905 12.0076 6.33054 11.345 5.71144C10.9835 5.41188 10.2808 5.25211 9.27677 5.25211H6.82706V8.86682ZM0 34.7889L5.28093 34.4494C5.40141 35.3081 5.62229 35.9472 5.98372 36.4065C6.54595 37.1255 7.36921 37.5049 8.43343 37.5049C9.21653 37.5049 9.839 37.3252 10.2607 36.9457C10.6623 36.6262 10.9032 36.1669 10.9032 35.6676C10.9032 35.1883 10.6823 34.729 10.3008 34.4294C9.89924 34.0699 8.9555 33.7105 7.44953 33.3909C5.0199 32.8517 3.27297 32.1328 2.24891 31.2141C1.22486 30.3554 0.642547 29.0972 0.682706 27.7592C0.682706 26.8405 0.963821 25.9219 1.48589 25.163C2.08828 24.3042 2.91154 23.6252 3.89544 23.2458C4.95966 22.7865 6.44555 22.5468 8.31295 22.5468C10.602 22.5468 12.349 22.9662 13.5537 23.8249C14.7585 24.6837 15.4613 26.0217 15.6822 27.879L10.4615 28.1786C10.3209 27.3797 10.0398 26.8006 9.57797 26.4211C9.13622 26.0417 8.51375 25.862 7.73064 25.8819C7.0881 25.8819 6.60619 26.0217 6.28491 26.3013C5.96364 26.541 5.78292 26.9004 5.803 27.2998C5.803 27.5994 5.96364 27.879 6.20459 28.0587C6.46563 28.2984 7.0881 28.5181 8.072 28.7178C10.5016 29.237 12.2285 29.7563 13.2927 30.2955C14.3569 30.8347 15.1199 31.4937 15.5818 32.2726C16.0637 33.0714 16.3046 33.9901 16.3046 34.9087C16.3046 36.0271 15.9633 37.1255 15.3408 38.0641C14.6782 39.0427 13.7545 39.8016 12.6702 40.2609C11.5257 40.7602 10.08 41.0198 8.35311 41.0198C5.30101 41.0198 3.19266 40.4406 2.00796 39.2623C0.823263 38.0641 0.160637 36.5863 0 34.7889H0Z" fill="#4C476C"/>
<path d="M26.7059 33.391L31.5651 34.8489C31.3041 36.0671 30.762 37.2254 30.019 38.2439C29.3363 39.1426 28.4327 39.8416 27.4087 40.3009C26.3645 40.7602 25.0393 40.9999 23.4329 40.9999C21.4852 40.9999 19.8788 40.7203 18.654 40.1611C17.409 39.6019 16.3448 38.6034 15.4412 37.1855C14.5376 35.7675 14.0959 33.9502 14.0959 31.7334C14.0959 28.7778 14.879 26.5011 16.4653 24.9234C18.0516 23.3457 20.2804 22.5469 23.1719 22.5469C25.4409 22.5469 27.2079 23.0062 28.513 23.9049C29.7981 24.8235 30.7619 26.2215 31.4045 28.0987L26.5051 29.1772C26.3846 28.7578 26.2039 28.3384 25.9629 27.9789C25.6617 27.5595 25.2802 27.24 24.8184 27.0004C24.3566 26.7607 23.8345 26.6609 23.3124 26.6609C22.0474 26.6609 21.0836 27.1601 20.421 28.1786C19.919 28.9176 19.6579 30.0958 19.6579 31.6935C19.6579 33.6706 19.9591 35.0286 20.5615 35.7675C21.1639 36.5064 22.0072 36.8659 23.1116 36.8659C24.1758 36.8659 24.979 36.5664 25.5212 35.9872C26.0633 35.3681 26.4649 34.5094 26.7059 33.391ZM38.0508 22.8464H43.5928V29.0973H49.6568V22.8464H55.239V40.7003H49.6568V33.4709H43.5928V40.7003H38.0508V22.8464Z" fill="#4C476C"/>
<path d="M54.476 31.7733C54.476 28.8576 55.2992 26.5809 56.9257 24.9633C58.5521 23.3457 60.8412 22.5269 63.7527 22.5269C66.7446 22.5269 69.0337 23.3257 70.6601 24.9233C72.2866 26.521 73.0897 28.7577 73.0897 31.6335C73.0897 33.7305 72.7283 35.428 72.0255 36.766C71.3428 38.0841 70.2786 39.1625 68.9734 39.8815C67.6281 40.6204 65.9615 40.9998 63.9736 40.9998C61.9456 40.9998 60.279 40.6803 58.9537 40.0412C57.5883 39.3622 56.4638 38.3038 55.7209 37.0057C54.8976 35.6077 54.476 33.8703 54.476 31.7733ZM60.0179 31.7933C60.0179 33.5907 60.3593 34.8888 61.0219 35.6876C61.6845 36.4665 62.6082 36.8659 63.7728 36.8659C64.9575 36.8659 65.8812 36.4864 66.5438 35.7076C67.2064 34.9287 67.5277 33.5507 67.5277 31.5536C67.5277 29.8761 67.1863 28.6379 66.5036 27.879C65.8209 27.1002 64.8973 26.7207 63.7326 26.7207C62.7086 26.6808 61.7247 27.1201 61.042 27.899C60.3593 28.6779 60.0179 29.976 60.0179 31.7933ZM78.7723 31.7733C78.7723 28.8576 79.5955 26.5809 81.222 24.9633C82.8484 23.3457 85.1375 22.5269 88.049 22.5269C91.0409 22.5269 93.35 23.3257 94.9564 24.9233C96.5628 26.521 97.386 28.7577 97.386 31.6335C97.386 33.7305 97.0246 35.428 96.3218 36.766C95.6391 38.0841 94.5749 39.1625 93.2697 39.8815C91.9244 40.6204 90.2578 40.9998 88.2699 40.9998C86.2419 40.9998 84.5753 40.6803 83.25 40.0412C81.8846 39.3622 80.7601 38.3038 80.0172 37.0057C79.1939 35.6077 78.7723 33.8703 78.7723 31.7733ZM84.3142 31.7933C84.3142 33.5907 84.6556 34.8888 85.3182 35.6876C85.9808 36.4665 86.9045 36.8659 88.0691 36.8659C89.2538 36.8659 90.1775 36.4864 90.8401 35.7076C91.5027 34.9287 91.824 33.5507 91.824 31.5536C91.824 29.8761 91.4827 28.6379 90.7999 27.879C90.1172 27.1002 89.1936 26.7207 88.029 26.7207C87.0049 26.6808 86.0009 27.1201 85.3383 27.899C84.6556 28.6779 84.3142 29.976 84.3142 31.7933Z" fill="#4C476C"/>
<path d="M96.8037 22.8467H102.346V36.307H111V40.7006H96.7836V22.8467H96.8037Z" fill="#4C476C"/>
<path d="M90.6952 21.8161C96.2748 17.6342 97.9954 10.5453 94.5382 5.98248C91.081 1.41969 83.7553 1.1109 78.1757 5.29278C72.5961 9.47466 70.8756 16.5636 74.3328 21.1264C77.7899 25.6892 85.1157 25.998 90.6952 21.8161Z" fill="white"/>
<path d="M90.6952 21.8161C96.2748 17.6342 97.9954 10.5453 94.5382 5.98248C91.081 1.41969 83.7553 1.1109 78.1757 5.29278C72.5961 9.47466 70.8756 16.5636 74.3328 21.1264C77.7899 25.6892 85.1157 25.998 90.6952 21.8161Z" fill="white"/>
<path d="M90.6952 21.8161C96.2748 17.6342 97.9954 10.5453 94.5382 5.98248C91.081 1.41969 83.7553 1.1109 78.1757 5.29278C72.5961 9.47466 70.8756 16.5636 74.3328 21.1264C77.7899 25.6892 85.1157 25.998 90.6952 21.8161Z" fill="white" stroke="black" stroke-width="4" stroke-miterlimit="10"/>
<path d="M90.6952 21.8161C96.2748 17.6342 97.9954 10.5453 94.5382 5.98248C91.081 1.41969 83.7553 1.1109 78.1757 5.29278C72.5961 9.47466 70.8756 16.5636 74.3328 21.1264C77.7899 25.6892 85.1157 25.998 90.6952 21.8161Z" stroke="#4C476C" stroke-width="4" stroke-miterlimit="10"/>
<path d="M90.6952 21.8161C96.2748 17.6342 97.9954 10.5453 94.5382 5.98248C91.081 1.41969 83.7553 1.1109 78.1757 5.29278C72.5961 9.47466 70.8756 16.5636 74.3328 21.1264C77.7899 25.6892 85.1157 25.998 90.6952 21.8161Z" fill="white"/>
<path d="M78.7923 12.2418L80.8002 10.8439L83.27 14.3387C83.6917 14.8979 84.013 15.4971 84.2539 16.1561C84.3945 16.6554 84.3543 17.1946 84.1535 17.6739C83.8925 18.273 83.4708 18.7723 82.9086 19.1317C82.246 19.5911 81.6837 19.8507 81.2018 19.9306C80.74 20.0104 80.2581 19.9306 79.8163 19.7309C79.3344 19.4912 78.9128 19.1517 78.5915 18.7123L80.3183 17.1147C80.4589 17.3344 80.6396 17.5341 80.8404 17.6938C80.981 17.7937 81.1416 17.8536 81.3223 17.8536C81.4629 17.8536 81.6034 17.7937 81.7038 17.7138C81.9046 17.594 82.0452 17.3543 82.0251 17.1147C81.9649 16.7752 81.8243 16.4357 81.6034 16.1761L78.7923 12.2418ZM84.8162 14.4586L86.6434 13.0207C86.8442 13.2603 87.1052 13.4401 87.3864 13.5399C87.788 13.6597 88.2096 13.5799 88.551 13.3202C88.7919 13.1605 88.9927 12.9408 89.073 12.6612C89.1935 12.3017 88.9927 11.9023 88.6313 11.7825C88.5711 11.7625 88.5108 11.7425 88.4506 11.7425C88.2096 11.7226 87.7879 11.8224 87.1655 12.082C86.1414 12.5014 85.3382 12.6612 84.7358 12.6013C84.1535 12.5414 83.6114 12.2418 83.2901 11.7425C83.0492 11.403 82.9287 11.0036 82.9086 10.6042C82.9086 10.1449 83.0291 9.68556 83.2901 9.30611C83.6716 8.7669 84.1335 8.30757 84.6957 7.9481C85.539 7.36895 86.282 7.08936 86.9245 7.08936C87.5671 7.08936 88.1695 7.38892 88.7317 8.00801L86.9245 9.42594C86.5631 8.96661 85.8804 8.86675 85.4186 9.22623L85.3583 9.28614C85.1575 9.40597 85.017 9.5857 84.9366 9.80538C84.8764 9.96515 84.9166 10.1449 85.017 10.2847C85.0973 10.3845 85.2178 10.4644 85.3583 10.4644C85.519 10.4844 85.8001 10.4045 86.2017 10.2248C87.2056 9.80538 87.9687 9.56573 88.4907 9.48585C88.9325 9.40597 89.3943 9.44591 89.816 9.62564C90.1975 9.78541 90.5188 10.065 90.7396 10.4045C91.0208 10.8039 91.1814 11.2832 91.2015 11.7825C91.2216 12.3017 91.081 12.801 90.7999 13.2404C90.4385 13.7796 89.9766 14.2389 89.4345 14.5984C88.3301 15.3573 87.4265 15.6768 86.7036 15.557C85.9205 15.4371 85.278 15.0377 84.8162 14.4586Z" fill="#4C476C"/>
</g>
<defs>
<clipPath id="clip0_54_26">
<rect width="111" height="41" fill="white"/>
</clipPath>
</defs>
</svg>
