<svg width="24" height="24" viewBox="0 0 24 24" fill="none" xmlns="http://www.w3.org/2000/svg">
<path d="M22.4659 0.385078C23.16 0.77645 23.6712 1.42935 23.8872 2.20019C24.1033 2.97104 24.0064 3.79671 23.6179 4.49565L13.7521 22.2342C13.5023 22.6836 13.1557 23.071 12.7379 23.368C12.32 23.665 11.8414 23.8642 11.3372 23.9508C10.833 24.0374 10.3159 24.0094 9.82388 23.8687C9.33183 23.728 8.87728 23.4783 8.49354 23.1378L1.01664 16.5063C0.419672 15.9767 0.0561237 15.23 0.0059709 14.4304C-0.0441819 13.6309 0.223169 12.8441 0.74921 12.243C1.27525 11.6419 2.01689 11.2759 2.81098 11.2254C3.60506 11.1749 4.38655 11.4441 4.98352 11.9737L10.0715 16.4873L18.3824 1.54498C18.5749 1.19885 18.8332 0.894275 19.1426 0.648656C19.452 0.403037 19.8064 0.221181 20.1856 0.113473C20.5648 0.0057648 20.9613 -0.025686 21.3526 0.0209162C21.7438 0.0675185 22.1221 0.191261 22.4659 0.385078Z" fill="#CECAE3"/>
</svg>
